G04 #@! TF.GenerationSoftware,KiCad,Pcbnew,8.0.2*
G04 #@! TF.CreationDate,2025-04-20T14:09:59-07:00*
G04 #@! TF.ProjectId,Exits-1U-panel,45786974-732d-4315-952d-70616e656c2e,2.1*
G04 #@! TF.SameCoordinates,Original*
G04 #@! TF.FileFunction,Profile,NP*
%FSLAX46Y46*%
G04 Gerber Fmt 4.6, Leading zero omitted, Abs format (unit mm)*
G04 Created by KiCad (PCBNEW 8.0.2) date 2025-04-20 14:09:59*
%MOMM*%
%LPD*%
G01*
G04 APERTURE LIST*
G04 #@! TA.AperFunction,Profile*
%ADD10C,0.025400*%
G04 #@! TD*
G04 #@! TA.AperFunction,Profile*
%ADD11C,0.100000*%
G04 #@! TD*
G04 APERTURE END LIST*
D10*
X142991200Y-97410600D02*
G75*
G02*
X144491200Y-95910600I1500001J-1D01*
G01*
X146491200Y-99110600D02*
X144491200Y-99110600D01*
X142991200Y-97610600D02*
X142991200Y-97410600D01*
X147991200Y-97610600D02*
G75*
G02*
X146491200Y-99110600I-1500001J1D01*
G01*
X144491200Y-95910600D02*
X146491200Y-95910600D01*
X144491200Y-99110600D02*
G75*
G02*
X142991200Y-97610600I1J1500001D01*
G01*
X146491200Y-95910600D02*
G75*
G02*
X147991200Y-97410600I-1J-1500001D01*
G01*
X147991200Y-97410600D02*
X147991200Y-97610600D01*
X56704140Y-97367540D02*
G75*
G02*
X58204140Y-95867540I1500001J-1D01*
G01*
X60204140Y-99067540D02*
X58204140Y-99067540D01*
X56704140Y-97567540D02*
X56704140Y-97367540D01*
X61704140Y-97567540D02*
G75*
G02*
X60204140Y-99067540I-1500001J1D01*
G01*
X58204140Y-95867540D02*
X60204140Y-95867540D01*
X58204140Y-99067540D02*
G75*
G02*
X56704140Y-97567540I1J1500001D01*
G01*
X60204140Y-95867540D02*
G75*
G02*
X61704140Y-97367540I-1J-1500001D01*
G01*
X61704140Y-97367540D02*
X61704140Y-97567540D01*
X56682000Y-131040200D02*
G75*
G02*
X58182000Y-129540200I1500001J-1D01*
G01*
X60182000Y-132740200D02*
X58182000Y-132740200D01*
X56682000Y-131240200D02*
X56682000Y-131040200D01*
X61682000Y-131240200D02*
G75*
G02*
X60182000Y-132740200I-1500001J1D01*
G01*
X58182000Y-129540200D02*
X60182000Y-129540200D01*
X58182000Y-132740200D02*
G75*
G02*
X56682000Y-131240200I1J1500001D01*
G01*
X60182000Y-129540200D02*
G75*
G02*
X61682000Y-131040200I-1J-1500001D01*
G01*
X61682000Y-131040200D02*
X61682000Y-131240200D01*
X146491200Y-132740200D02*
X144491200Y-132740200D01*
X142991200Y-131240200D02*
X142991200Y-131040200D01*
X144491200Y-129540200D02*
X146491200Y-129540200D01*
X147991200Y-131040200D02*
X147991200Y-131240200D01*
X144491200Y-132740200D02*
G75*
G02*
X142991200Y-131240200I0J1500000D01*
G01*
X142991200Y-131040200D02*
G75*
G02*
X144491200Y-129540200I1500000J0D01*
G01*
X147991200Y-131240200D02*
G75*
G02*
X146491200Y-132740200I-1500000J0D01*
G01*
X146491200Y-129540200D02*
G75*
G02*
X147991200Y-131040200I0J-1500000D01*
G01*
D11*
X114808000Y-120015000D02*
G75*
G02*
X108712000Y-120015000I-3048000J0D01*
G01*
X108712000Y-120015000D02*
G75*
G02*
X114808000Y-120015000I3048000J0D01*
G01*
X102108000Y-120015000D02*
G75*
G02*
X96012000Y-120015000I-3048000J0D01*
G01*
X96012000Y-120015000D02*
G75*
G02*
X102108000Y-120015000I3048000J0D01*
G01*
X89408000Y-120015000D02*
G75*
G02*
X83312000Y-120015000I-3048000J0D01*
G01*
X83312000Y-120015000D02*
G75*
G02*
X89408000Y-120015000I3048000J0D01*
G01*
X76708000Y-120015000D02*
G75*
G02*
X70612000Y-120015000I-3048000J0D01*
G01*
X70612000Y-120015000D02*
G75*
G02*
X76708000Y-120015000I3048000J0D01*
G01*
X64008000Y-120015000D02*
G75*
G02*
X57912000Y-120015000I-3048000J0D01*
G01*
X57912000Y-120015000D02*
G75*
G02*
X64008000Y-120015000I3048000J0D01*
G01*
X70358000Y-108585000D02*
G75*
G02*
X64262000Y-108585000I-3048000J0D01*
G01*
X64262000Y-108585000D02*
G75*
G02*
X70358000Y-108585000I3048000J0D01*
G01*
X83058000Y-108585000D02*
G75*
G02*
X76962000Y-108585000I-3048000J0D01*
G01*
X76962000Y-108585000D02*
G75*
G02*
X83058000Y-108585000I3048000J0D01*
G01*
X95758000Y-108585000D02*
G75*
G02*
X89662000Y-108585000I-3048000J0D01*
G01*
X89662000Y-108585000D02*
G75*
G02*
X95758000Y-108585000I3048000J0D01*
G01*
X126690120Y-108585000D02*
G75*
G02*
X119689880Y-108585000I-3500120J0D01*
G01*
X119689880Y-108585000D02*
G75*
G02*
X126690120Y-108585000I3500120J0D01*
G01*
X148793200Y-116992400D02*
G75*
G02*
X136601200Y-116992400I-6096000J0D01*
G01*
X136601200Y-116992400D02*
G75*
G02*
X148793200Y-116992400I6096000J0D01*
G01*
X108458000Y-108585000D02*
G75*
G02*
X102362000Y-108585000I-3048000J0D01*
G01*
X102362000Y-108585000D02*
G75*
G02*
X108458000Y-108585000I3048000J0D01*
G01*
X153009600Y-134121864D02*
X51709501Y-134121864D01*
X51709501Y-94488000D01*
X153009600Y-94488000D01*
X153009600Y-134121864D01*
M02*
