G04 #@! TF.GenerationSoftware,KiCad,Pcbnew,8.0.2*
G04 #@! TF.CreationDate,2025-04-20T14:09:58-07:00*
G04 #@! TF.ProjectId,Exits-1U-panel,45786974-732d-4315-952d-70616e656c2e,2.1*
G04 #@! TF.SameCoordinates,Original*
G04 #@! TF.FileFunction,Legend,Top*
G04 #@! TF.FilePolarity,Positive*
%FSLAX46Y46*%
G04 Gerber Fmt 4.6, Leading zero omitted, Abs format (unit mm)*
G04 Created by KiCad (PCBNEW 8.0.2) date 2025-04-20 14:09:58*
%MOMM*%
%LPD*%
G01*
G04 APERTURE LIST*
%ADD10C,0.000000*%
%ADD11C,0.253998*%
%ADD12C,0.176388*%
G04 APERTURE END LIST*
D10*
G36*
X106464253Y-110621230D02*
G01*
X106245533Y-110748230D01*
X105885695Y-110134397D01*
X106104415Y-110007397D01*
X106464253Y-110621230D01*
G37*
G36*
X90204725Y-113422288D02*
G01*
X89851947Y-114057287D01*
X89629698Y-113933816D01*
X89982476Y-113298816D01*
X90204725Y-113422288D01*
G37*
G36*
X103370391Y-112935455D02*
G01*
X102971751Y-113619843D01*
X102753031Y-113492843D01*
X103151667Y-112808455D01*
X103370391Y-112935455D01*
G37*
G36*
X132118243Y-102930679D02*
G01*
X131828962Y-102930679D01*
X131828962Y-101050374D01*
X132118243Y-101050374D01*
X132118243Y-102930679D01*
G37*
G36*
X107180388Y-111848897D02*
G01*
X106961669Y-111975897D01*
X106605366Y-111362063D01*
X106824085Y-111235063D01*
X107180388Y-111848897D01*
G37*
G36*
X95859748Y-113933816D02*
G01*
X95637504Y-114057287D01*
X95284725Y-113425815D01*
X95506975Y-113302344D01*
X95859748Y-113933816D01*
G37*
G36*
X135981371Y-125654433D02*
G01*
X136030112Y-125656886D01*
X136055459Y-125659053D01*
X136081334Y-125661985D01*
X136107642Y-125665785D01*
X136134292Y-125670556D01*
X136161189Y-125676402D01*
X136188242Y-125683427D01*
X136215357Y-125691733D01*
X136242441Y-125701424D01*
X136269400Y-125712603D01*
X136296143Y-125725374D01*
X136322576Y-125739840D01*
X136348605Y-125756105D01*
X136363240Y-125766241D01*
X136377381Y-125776797D01*
X136391029Y-125787757D01*
X136404188Y-125799107D01*
X136416858Y-125810831D01*
X136429041Y-125822915D01*
X136440740Y-125835344D01*
X136451957Y-125848103D01*
X136472951Y-125874552D01*
X136492037Y-125902143D01*
X136509233Y-125930757D01*
X136524552Y-125960275D01*
X136538012Y-125990579D01*
X136549626Y-126021550D01*
X136559411Y-126053068D01*
X136567383Y-126085015D01*
X136573555Y-126117273D01*
X136577946Y-126149722D01*
X136580568Y-126182243D01*
X136581439Y-126214718D01*
X136581084Y-126235902D01*
X136579923Y-126258353D01*
X136577811Y-126281930D01*
X136574604Y-126306494D01*
X136570156Y-126331906D01*
X136564323Y-126358026D01*
X136556961Y-126384714D01*
X136547924Y-126411832D01*
X136537069Y-126439238D01*
X136524249Y-126466795D01*
X136509322Y-126494362D01*
X136492141Y-126521799D01*
X136472562Y-126548968D01*
X136461828Y-126562409D01*
X136450441Y-126575729D01*
X136438382Y-126588913D01*
X136425633Y-126601942D01*
X136412176Y-126614800D01*
X136397993Y-126627468D01*
X136369937Y-126650061D01*
X136341389Y-126670297D01*
X136312439Y-126688301D01*
X136283174Y-126704196D01*
X136253681Y-126718107D01*
X136224049Y-126730158D01*
X136194365Y-126740473D01*
X136164717Y-126749175D01*
X136135193Y-126756389D01*
X136105882Y-126762239D01*
X136076869Y-126766848D01*
X136048245Y-126770342D01*
X136020096Y-126772843D01*
X135992510Y-126774476D01*
X135939380Y-126775633D01*
X135808856Y-126775633D01*
X135808856Y-127541159D01*
X135523105Y-127541159D01*
X135523105Y-126503999D01*
X135523105Y-125918384D01*
X135808851Y-125918384D01*
X135808851Y-126503999D01*
X135808856Y-126503996D01*
X135939380Y-126503996D01*
X135984195Y-126502606D01*
X136005490Y-126500886D01*
X136026044Y-126498498D01*
X136045860Y-126495454D01*
X136064937Y-126491764D01*
X136083279Y-126487442D01*
X136100885Y-126482499D01*
X136117758Y-126476946D01*
X136133898Y-126470794D01*
X136149306Y-126464056D01*
X136163985Y-126456743D01*
X136177935Y-126448867D01*
X136191158Y-126440439D01*
X136203655Y-126431472D01*
X136215427Y-126421976D01*
X136226476Y-126411963D01*
X136236802Y-126401444D01*
X136246408Y-126390433D01*
X136255294Y-126378939D01*
X136263461Y-126366976D01*
X136270912Y-126354553D01*
X136277647Y-126341684D01*
X136283667Y-126328379D01*
X136288975Y-126314651D01*
X136293570Y-126300510D01*
X136297455Y-126285969D01*
X136300631Y-126271039D01*
X136303099Y-126255732D01*
X136304860Y-126240059D01*
X136306267Y-126207663D01*
X136305712Y-126186973D01*
X136303807Y-126164847D01*
X136300198Y-126141666D01*
X136294526Y-126117814D01*
X136290806Y-126105756D01*
X136286436Y-126093673D01*
X136281373Y-126081613D01*
X136275571Y-126069624D01*
X136268987Y-126057754D01*
X136261575Y-126046051D01*
X136253291Y-126034562D01*
X136244090Y-126023336D01*
X136233928Y-126012419D01*
X136222761Y-126001861D01*
X136210543Y-125991708D01*
X136197230Y-125982008D01*
X136182778Y-125972810D01*
X136167141Y-125964161D01*
X136150276Y-125956109D01*
X136132138Y-125948701D01*
X136112682Y-125941986D01*
X136091864Y-125936011D01*
X136069639Y-125930824D01*
X136045962Y-125926473D01*
X136020790Y-125923006D01*
X135994077Y-125920470D01*
X135965778Y-125918914D01*
X135935850Y-125918384D01*
X135808851Y-125918384D01*
X135523105Y-125918384D01*
X135523105Y-125660854D01*
X135935855Y-125660854D01*
X135935855Y-125653800D01*
X135981371Y-125654433D01*
G37*
G36*
X102576640Y-114304232D02*
G01*
X102177999Y-114985093D01*
X101959279Y-114858093D01*
X102357920Y-114177232D01*
X102576640Y-114304232D01*
G37*
G36*
X100505839Y-126379813D02*
G01*
X100505839Y-126612647D01*
X99281698Y-127208843D01*
X99281698Y-126937204D01*
X100213028Y-126496233D01*
X99281698Y-126055261D01*
X99281698Y-125783617D01*
X100505839Y-126379813D01*
G37*
G36*
X96561779Y-115200287D02*
G01*
X96339530Y-115323759D01*
X95986752Y-114688759D01*
X96209001Y-114565288D01*
X96561779Y-115200287D01*
G37*
G36*
X67641067Y-108846761D02*
G01*
X67418818Y-108970232D01*
X67344734Y-108836177D01*
X67270651Y-108970232D01*
X67048401Y-108846761D01*
X67344734Y-108314066D01*
X67641067Y-108846761D01*
G37*
G36*
X133635746Y-126398161D02*
G01*
X134443607Y-126398161D01*
X134443607Y-125653800D01*
X134732888Y-125653800D01*
X134732888Y-127534104D01*
X134443607Y-127534104D01*
X134443607Y-126666273D01*
X133635746Y-126666273D01*
X133635746Y-127534104D01*
X133350000Y-127534104D01*
X133350000Y-125653800D01*
X133635746Y-125653800D01*
X133635746Y-126398161D01*
G37*
G36*
X85262310Y-117726177D02*
G01*
X85040061Y-117849649D01*
X84687286Y-117214647D01*
X84909535Y-117091175D01*
X85262310Y-117726177D01*
G37*
G36*
X58637729Y-125516736D02*
G01*
X58689257Y-125520394D01*
X58739800Y-125526425D01*
X58789311Y-125534776D01*
X58837742Y-125545393D01*
X58885045Y-125558223D01*
X58931172Y-125573211D01*
X58976076Y-125590304D01*
X59019709Y-125609449D01*
X59062023Y-125630592D01*
X59102970Y-125653679D01*
X59142502Y-125678657D01*
X59180572Y-125705472D01*
X59217131Y-125734070D01*
X59252133Y-125764399D01*
X59285529Y-125796403D01*
X59317271Y-125830031D01*
X59347311Y-125865227D01*
X59375603Y-125901938D01*
X59402097Y-125940112D01*
X59426746Y-125979693D01*
X59449503Y-126020630D01*
X59470319Y-126062867D01*
X59489147Y-126106351D01*
X59505939Y-126151029D01*
X59520648Y-126196848D01*
X59533224Y-126243753D01*
X59543621Y-126291690D01*
X59551791Y-126340607D01*
X59557686Y-126390450D01*
X59561258Y-126441165D01*
X59562459Y-126492698D01*
X59561248Y-126544231D01*
X59557647Y-126594945D01*
X59551707Y-126644788D01*
X59543477Y-126693705D01*
X59533006Y-126741643D01*
X59520345Y-126788548D01*
X59505544Y-126834366D01*
X59488651Y-126879044D01*
X59469718Y-126922529D01*
X59448792Y-126964766D01*
X59425926Y-127005702D01*
X59401167Y-127045283D01*
X59374565Y-127083457D01*
X59346172Y-127120169D01*
X59316035Y-127155365D01*
X59284206Y-127188992D01*
X59250733Y-127220996D01*
X59215666Y-127251325D01*
X59179056Y-127279923D01*
X59140952Y-127306738D01*
X59101403Y-127331716D01*
X59060460Y-127354803D01*
X59018171Y-127375946D01*
X58974588Y-127395091D01*
X58929759Y-127412184D01*
X58883735Y-127427172D01*
X58836565Y-127440002D01*
X58788298Y-127450619D01*
X58738985Y-127458970D01*
X58688675Y-127465001D01*
X58637419Y-127468659D01*
X58585265Y-127469891D01*
X58533111Y-127468659D01*
X58481854Y-127465001D01*
X58431544Y-127458970D01*
X58382232Y-127450619D01*
X58333965Y-127440002D01*
X58286795Y-127427172D01*
X58240770Y-127412184D01*
X58195941Y-127395091D01*
X58152358Y-127375946D01*
X58110070Y-127354803D01*
X58069127Y-127331716D01*
X58029578Y-127306738D01*
X57991473Y-127279923D01*
X57954863Y-127251325D01*
X57919797Y-127220996D01*
X57886324Y-127188992D01*
X57854494Y-127155365D01*
X57824358Y-127120169D01*
X57795964Y-127083457D01*
X57769363Y-127045283D01*
X57744604Y-127005702D01*
X57721737Y-126964766D01*
X57700812Y-126922529D01*
X57681878Y-126879044D01*
X57664986Y-126834366D01*
X57650184Y-126788548D01*
X57637523Y-126741643D01*
X57627053Y-126693705D01*
X57618823Y-126644788D01*
X57612882Y-126594945D01*
X57609282Y-126544231D01*
X57608071Y-126492698D01*
X57890293Y-126492698D01*
X57891135Y-126531357D01*
X57893640Y-126569262D01*
X57897775Y-126606381D01*
X57903509Y-126642684D01*
X57910808Y-126678139D01*
X57919640Y-126712716D01*
X57929974Y-126746384D01*
X57941777Y-126779110D01*
X57955016Y-126810866D01*
X57969659Y-126841618D01*
X57985675Y-126871338D01*
X58003030Y-126899992D01*
X58021693Y-126927552D01*
X58041631Y-126953984D01*
X58062812Y-126979259D01*
X58085203Y-127003346D01*
X58108772Y-127026212D01*
X58133487Y-127047829D01*
X58159316Y-127068164D01*
X58186227Y-127087186D01*
X58214186Y-127104864D01*
X58243162Y-127121168D01*
X58273122Y-127136066D01*
X58304035Y-127149528D01*
X58335867Y-127161522D01*
X58368587Y-127172018D01*
X58402162Y-127180984D01*
X58436561Y-127188389D01*
X58471749Y-127194203D01*
X58507697Y-127198394D01*
X58544370Y-127200931D01*
X58581737Y-127201784D01*
X58619104Y-127200931D01*
X58655777Y-127198394D01*
X58691724Y-127194203D01*
X58726913Y-127188389D01*
X58761311Y-127180984D01*
X58794886Y-127172018D01*
X58827606Y-127161522D01*
X58859439Y-127149528D01*
X58890351Y-127136066D01*
X58920312Y-127121168D01*
X58949288Y-127104864D01*
X58977247Y-127087186D01*
X59004158Y-127068164D01*
X59029987Y-127047829D01*
X59054702Y-127026212D01*
X59078271Y-127003346D01*
X59100662Y-126979259D01*
X59121843Y-126953984D01*
X59141781Y-126927552D01*
X59160444Y-126899992D01*
X59177799Y-126871338D01*
X59193815Y-126841618D01*
X59208458Y-126810866D01*
X59221698Y-126779110D01*
X59233500Y-126746384D01*
X59243834Y-126712716D01*
X59252667Y-126678139D01*
X59259966Y-126642684D01*
X59265699Y-126606381D01*
X59269834Y-126569262D01*
X59272339Y-126531357D01*
X59273181Y-126492698D01*
X59273182Y-126492698D01*
X59272340Y-126454039D01*
X59269835Y-126416134D01*
X59265700Y-126379015D01*
X59259966Y-126342712D01*
X59252667Y-126307257D01*
X59243835Y-126272680D01*
X59233501Y-126239013D01*
X59221698Y-126206286D01*
X59208459Y-126174531D01*
X59193815Y-126143778D01*
X59177800Y-126114059D01*
X59160444Y-126085405D01*
X59141782Y-126057846D01*
X59121844Y-126031413D01*
X59100663Y-126006138D01*
X59078272Y-125982052D01*
X59054702Y-125959185D01*
X59029987Y-125937569D01*
X59004158Y-125917234D01*
X58977248Y-125898212D01*
X58949288Y-125880533D01*
X58920312Y-125864230D01*
X58890352Y-125849331D01*
X58859439Y-125835869D01*
X58827607Y-125823875D01*
X58794887Y-125813380D01*
X58761311Y-125804414D01*
X58726913Y-125797009D01*
X58691724Y-125791195D01*
X58655777Y-125787004D01*
X58619104Y-125784467D01*
X58581737Y-125783614D01*
X58544370Y-125784467D01*
X58507697Y-125787004D01*
X58471749Y-125791195D01*
X58436560Y-125797009D01*
X58402162Y-125804414D01*
X58368587Y-125813380D01*
X58335867Y-125823875D01*
X58304035Y-125835869D01*
X58273122Y-125849331D01*
X58243162Y-125864230D01*
X58214186Y-125880533D01*
X58186226Y-125898212D01*
X58159316Y-125917234D01*
X58133487Y-125937569D01*
X58108772Y-125959185D01*
X58085202Y-125982052D01*
X58062811Y-126006138D01*
X58041631Y-126031413D01*
X58021693Y-126057846D01*
X58003030Y-126085405D01*
X57985675Y-126114059D01*
X57969659Y-126143778D01*
X57955016Y-126174531D01*
X57941777Y-126206286D01*
X57929974Y-126239013D01*
X57919640Y-126272680D01*
X57910808Y-126307257D01*
X57903509Y-126342712D01*
X57897775Y-126379015D01*
X57893640Y-126416134D01*
X57891135Y-126454039D01*
X57890293Y-126492698D01*
X57608071Y-126492698D01*
X57609272Y-126441165D01*
X57612844Y-126390450D01*
X57618739Y-126340607D01*
X57626908Y-126291690D01*
X57637305Y-126243753D01*
X57649882Y-126196848D01*
X57664590Y-126151029D01*
X57681382Y-126106351D01*
X57700210Y-126062867D01*
X57721027Y-126020630D01*
X57743783Y-125979693D01*
X57768433Y-125940112D01*
X57794927Y-125901938D01*
X57823219Y-125865227D01*
X57853259Y-125830031D01*
X57885001Y-125796403D01*
X57918397Y-125764399D01*
X57953398Y-125734070D01*
X57989958Y-125705472D01*
X58028028Y-125678657D01*
X58067560Y-125653679D01*
X58108507Y-125630592D01*
X58150821Y-125609449D01*
X58194453Y-125590304D01*
X58239357Y-125573211D01*
X58285485Y-125558223D01*
X58332788Y-125545393D01*
X58381219Y-125534776D01*
X58430730Y-125526425D01*
X58481273Y-125520394D01*
X58532801Y-125516736D01*
X58585265Y-125515505D01*
X58637729Y-125516736D01*
G37*
G36*
X71122114Y-96540461D02*
G01*
X70473003Y-96540461D01*
X70473003Y-98956989D01*
X70042615Y-98956989D01*
X70042615Y-96540461D01*
X69397032Y-96540461D01*
X69397032Y-96134767D01*
X71122114Y-96134767D01*
X71122114Y-96540461D01*
G37*
G36*
X64754477Y-96540461D02*
G01*
X63629117Y-96540461D01*
X63629117Y-97256600D01*
X64719200Y-97256600D01*
X64719200Y-97662294D01*
X63629117Y-97662294D01*
X63629117Y-98551294D01*
X64754477Y-98551294D01*
X64754477Y-98956988D01*
X63198728Y-98956988D01*
X63198728Y-96134767D01*
X64754477Y-96134767D01*
X64754477Y-96540461D01*
G37*
G36*
X109328805Y-115542481D02*
G01*
X109110085Y-115669481D01*
X108750247Y-115055647D01*
X108968972Y-114928647D01*
X109328805Y-115542481D01*
G37*
G36*
X100985616Y-117031203D02*
G01*
X100586975Y-117715590D01*
X100368256Y-117588591D01*
X100766892Y-116904202D01*
X100985616Y-117031203D01*
G37*
G36*
X73991065Y-119737008D02*
G01*
X73694735Y-120269700D01*
X73398399Y-119737008D01*
X73620648Y-119613534D01*
X73694735Y-119747592D01*
X73768816Y-119613534D01*
X73991065Y-119737008D01*
G37*
G36*
X71863815Y-116449121D02*
G01*
X71641565Y-116572593D01*
X71288788Y-115941120D01*
X71511038Y-115817650D01*
X71863815Y-116449121D01*
G37*
G36*
X62994987Y-116420897D02*
G01*
X64183847Y-116032841D01*
X64264986Y-116272729D01*
X62815069Y-116745452D01*
X62448179Y-115267314D01*
X62695125Y-115203815D01*
X62994987Y-116420897D01*
G37*
G36*
X68695004Y-98953461D02*
G01*
X68264616Y-98953461D01*
X68264616Y-96131240D01*
X68695004Y-96131240D01*
X68695004Y-98953461D01*
G37*
G36*
X86691062Y-119754647D02*
G01*
X86394731Y-120287341D01*
X86098395Y-119754647D01*
X86320644Y-119631173D01*
X86394731Y-119765229D01*
X86468812Y-119631173D01*
X86691062Y-119754647D01*
G37*
G36*
X107804808Y-101879402D02*
G01*
X107804808Y-102112235D01*
X106580667Y-102708429D01*
X106580667Y-102436790D01*
X107512002Y-101995818D01*
X106580667Y-101554847D01*
X106580667Y-101283207D01*
X107804808Y-101879402D01*
G37*
G36*
X131257464Y-102934206D02*
G01*
X130947019Y-102934206D01*
X130749464Y-102479123D01*
X130745939Y-102479123D01*
X129941608Y-102479123D01*
X129736992Y-102934206D01*
X129426547Y-102934206D01*
X129768686Y-102207484D01*
X130061552Y-102207484D01*
X130629520Y-102207484D01*
X130350828Y-101568957D01*
X130061552Y-102207484D01*
X129768686Y-102207484D01*
X130364937Y-100941012D01*
X131257464Y-102934206D01*
G37*
G36*
X69052175Y-111383235D02*
G01*
X68829925Y-111506706D01*
X68477148Y-110875234D01*
X68699397Y-110751761D01*
X69052175Y-111383235D01*
G37*
G36*
X66479560Y-97087267D02*
G01*
X67040476Y-96131240D01*
X67523783Y-96131240D01*
X66712394Y-97482378D01*
X67562588Y-98953461D01*
X67079282Y-98953461D01*
X66461921Y-97873961D01*
X65819866Y-98953461D01*
X65336561Y-98953461D01*
X66225561Y-97482378D01*
X65445922Y-96131240D01*
X65929227Y-96131240D01*
X66479560Y-97087267D01*
G37*
G36*
X108612664Y-114311286D02*
G01*
X108393945Y-114438287D01*
X108037642Y-113824452D01*
X108256361Y-113697452D01*
X108612664Y-114311286D01*
G37*
G36*
X128156628Y-101015514D02*
G01*
X128188560Y-101016778D01*
X128220543Y-101018911D01*
X128252521Y-101021932D01*
X128284437Y-101025863D01*
X128316234Y-101030724D01*
X128347855Y-101036536D01*
X128379244Y-101043319D01*
X128410344Y-101051095D01*
X128441097Y-101059883D01*
X128471448Y-101069705D01*
X128501339Y-101080581D01*
X128530713Y-101092532D01*
X128559513Y-101105579D01*
X128587683Y-101119741D01*
X128615167Y-101135041D01*
X128643572Y-101151814D01*
X128670598Y-101169017D01*
X128696270Y-101186581D01*
X128720614Y-101204439D01*
X128743656Y-101222525D01*
X128765421Y-101240771D01*
X128785936Y-101259110D01*
X128805226Y-101277475D01*
X128823316Y-101295799D01*
X128840234Y-101314014D01*
X128856005Y-101332053D01*
X128870654Y-101349850D01*
X128884207Y-101367336D01*
X128896691Y-101384445D01*
X128908130Y-101401110D01*
X128918552Y-101417263D01*
X128689248Y-101579540D01*
X128678339Y-101564915D01*
X128666800Y-101550181D01*
X128654662Y-101535396D01*
X128641955Y-101520616D01*
X128628711Y-101505897D01*
X128614960Y-101491298D01*
X128600733Y-101476874D01*
X128586062Y-101462683D01*
X128570978Y-101448781D01*
X128555511Y-101435226D01*
X128539693Y-101422073D01*
X128523554Y-101409381D01*
X128507126Y-101397205D01*
X128490439Y-101385603D01*
X128473525Y-101374631D01*
X128456414Y-101364346D01*
X128437072Y-101352971D01*
X128417424Y-101342628D01*
X128397498Y-101333278D01*
X128377318Y-101324879D01*
X128356910Y-101317389D01*
X128336301Y-101310768D01*
X128315516Y-101304973D01*
X128294581Y-101299964D01*
X128273522Y-101295699D01*
X128252364Y-101292137D01*
X128231135Y-101289236D01*
X128209858Y-101286955D01*
X128188562Y-101285253D01*
X128167270Y-101284089D01*
X128146009Y-101283421D01*
X128124805Y-101283207D01*
X128079570Y-101284378D01*
X128036439Y-101287782D01*
X127995364Y-101293253D01*
X127956299Y-101300626D01*
X127919198Y-101309734D01*
X127884014Y-101320414D01*
X127850701Y-101332500D01*
X127819212Y-101345825D01*
X127789500Y-101360226D01*
X127761520Y-101375536D01*
X127735224Y-101391590D01*
X127710566Y-101408223D01*
X127687499Y-101425269D01*
X127665978Y-101442563D01*
X127645955Y-101459940D01*
X127627384Y-101477235D01*
X127604778Y-101501277D01*
X127583293Y-101527030D01*
X127562976Y-101554385D01*
X127543874Y-101583233D01*
X127526032Y-101613467D01*
X127509498Y-101644976D01*
X127494318Y-101677654D01*
X127480539Y-101711391D01*
X127468206Y-101746079D01*
X127457367Y-101781609D01*
X127448067Y-101817873D01*
X127440355Y-101854762D01*
X127434275Y-101892168D01*
X127429875Y-101929982D01*
X127427200Y-101968096D01*
X127426299Y-102006401D01*
X127427121Y-102042066D01*
X127429572Y-102077577D01*
X127433624Y-102112860D01*
X127439252Y-102147843D01*
X127446431Y-102182454D01*
X127455135Y-102216621D01*
X127465336Y-102250271D01*
X127477011Y-102283332D01*
X127490133Y-102315731D01*
X127504676Y-102347397D01*
X127520614Y-102378256D01*
X127537921Y-102408237D01*
X127556573Y-102437267D01*
X127576542Y-102465274D01*
X127597802Y-102492185D01*
X127620329Y-102517929D01*
X127645132Y-102542741D01*
X127670585Y-102565616D01*
X127696680Y-102586599D01*
X127723405Y-102605738D01*
X127750751Y-102623078D01*
X127778706Y-102638666D01*
X127807261Y-102652549D01*
X127836405Y-102664773D01*
X127866128Y-102675385D01*
X127896419Y-102684431D01*
X127927268Y-102691957D01*
X127958665Y-102698011D01*
X127990599Y-102702639D01*
X128023060Y-102705887D01*
X128056038Y-102707801D01*
X128089522Y-102708429D01*
X128119662Y-102707846D01*
X128149234Y-102706080D01*
X128178247Y-102703104D01*
X128206713Y-102698893D01*
X128234641Y-102693422D01*
X128262042Y-102686663D01*
X128288926Y-102678592D01*
X128315303Y-102669183D01*
X128341185Y-102658409D01*
X128366581Y-102646246D01*
X128391501Y-102632666D01*
X128415956Y-102617644D01*
X128439956Y-102601155D01*
X128463512Y-102583173D01*
X128486634Y-102563671D01*
X128509332Y-102542624D01*
X128528439Y-102523362D01*
X128546105Y-102503949D01*
X128562375Y-102484403D01*
X128577297Y-102464737D01*
X128590916Y-102444968D01*
X128603279Y-102425112D01*
X128614433Y-102405183D01*
X128624424Y-102385197D01*
X128633299Y-102365170D01*
X128641105Y-102345117D01*
X128647887Y-102325053D01*
X128653692Y-102304995D01*
X128658568Y-102284958D01*
X128662560Y-102264956D01*
X128665715Y-102245007D01*
X128668079Y-102225124D01*
X128198881Y-102225124D01*
X128198881Y-101953485D01*
X128974994Y-101953485D01*
X128974994Y-101967596D01*
X128973880Y-102027081D01*
X128970543Y-102085129D01*
X128964995Y-102141709D01*
X128957245Y-102196791D01*
X128947304Y-102250344D01*
X128935183Y-102302335D01*
X128920891Y-102352735D01*
X128904439Y-102401513D01*
X128885837Y-102448636D01*
X128865096Y-102494075D01*
X128842226Y-102537799D01*
X128817237Y-102579775D01*
X128790140Y-102619975D01*
X128760945Y-102658365D01*
X128729663Y-102694916D01*
X128696303Y-102729596D01*
X128659482Y-102763683D01*
X128621839Y-102794598D01*
X128583463Y-102822474D01*
X128544441Y-102847446D01*
X128504861Y-102869648D01*
X128464811Y-102889214D01*
X128424378Y-102906279D01*
X128383651Y-102920978D01*
X128342717Y-102933444D01*
X128301664Y-102943812D01*
X128260581Y-102952216D01*
X128219554Y-102958791D01*
X128178672Y-102963671D01*
X128138023Y-102966990D01*
X128097694Y-102968884D01*
X128057773Y-102969485D01*
X128007117Y-102968569D01*
X127958279Y-102965798D01*
X127911178Y-102961136D01*
X127865730Y-102954547D01*
X127821854Y-102945994D01*
X127779465Y-102935440D01*
X127738483Y-102922851D01*
X127698823Y-102908190D01*
X127660404Y-102891420D01*
X127623142Y-102872506D01*
X127586955Y-102851410D01*
X127551760Y-102828098D01*
X127517475Y-102802533D01*
X127484016Y-102774679D01*
X127451302Y-102744499D01*
X127419249Y-102711957D01*
X127385888Y-102675545D01*
X127354605Y-102637784D01*
X127325409Y-102598731D01*
X127298312Y-102558444D01*
X127273323Y-102516978D01*
X127250453Y-102474390D01*
X127229712Y-102430738D01*
X127211111Y-102386079D01*
X127194659Y-102340468D01*
X127180368Y-102293964D01*
X127168246Y-102246622D01*
X127158306Y-102198500D01*
X127150557Y-102149655D01*
X127145008Y-102100143D01*
X127141672Y-102050021D01*
X127140558Y-101999346D01*
X127141942Y-101944915D01*
X127146015Y-101891480D01*
X127152650Y-101839131D01*
X127161724Y-101787955D01*
X127173114Y-101738040D01*
X127186694Y-101689474D01*
X127202342Y-101642344D01*
X127219932Y-101596739D01*
X127239342Y-101552746D01*
X127260447Y-101510453D01*
X127283122Y-101469948D01*
X127307245Y-101431319D01*
X127332691Y-101394654D01*
X127359335Y-101360040D01*
X127387054Y-101327566D01*
X127415724Y-101297319D01*
X127447213Y-101267407D01*
X127480774Y-101238601D01*
X127516330Y-101211014D01*
X127553803Y-101184761D01*
X127593116Y-101159954D01*
X127634190Y-101136709D01*
X127676950Y-101115137D01*
X127721316Y-101095354D01*
X127767213Y-101077472D01*
X127814561Y-101061606D01*
X127863284Y-101047868D01*
X127913304Y-101036374D01*
X127964544Y-101027236D01*
X128016925Y-101020568D01*
X128070372Y-101016484D01*
X128124805Y-101015097D01*
X128156628Y-101015514D01*
G37*
G36*
X110814003Y-126683198D02*
G01*
X110814120Y-126722466D01*
X110814940Y-126763180D01*
X110817166Y-126804804D01*
X110819025Y-126825789D01*
X110821499Y-126846799D01*
X110824676Y-126867769D01*
X110828644Y-126888630D01*
X110833490Y-126909315D01*
X110839302Y-126929757D01*
X110846168Y-126949889D01*
X110854176Y-126969644D01*
X110863415Y-126988954D01*
X110873970Y-127007753D01*
X110885373Y-127025629D01*
X110898383Y-127043437D01*
X110912954Y-127061029D01*
X110929038Y-127078254D01*
X110946590Y-127094962D01*
X110965563Y-127111003D01*
X110985911Y-127126228D01*
X110996586Y-127133488D01*
X111007587Y-127140487D01*
X111018908Y-127147207D01*
X111030544Y-127153630D01*
X111042489Y-127159735D01*
X111054737Y-127165506D01*
X111067282Y-127170922D01*
X111080118Y-127175966D01*
X111093239Y-127180619D01*
X111106641Y-127184861D01*
X111120316Y-127188674D01*
X111134259Y-127192040D01*
X111148465Y-127194939D01*
X111162927Y-127197353D01*
X111177640Y-127199263D01*
X111192597Y-127200651D01*
X111207794Y-127201497D01*
X111223223Y-127201784D01*
X111253850Y-127200651D01*
X111283520Y-127197353D01*
X111312188Y-127192040D01*
X111339806Y-127184861D01*
X111366329Y-127175967D01*
X111391710Y-127165507D01*
X111415903Y-127153630D01*
X111438860Y-127140488D01*
X111460536Y-127126230D01*
X111480884Y-127111005D01*
X111499857Y-127094963D01*
X111517409Y-127078255D01*
X111533493Y-127061030D01*
X111548064Y-127043438D01*
X111561074Y-127025629D01*
X111572477Y-127007753D01*
X111582452Y-126988954D01*
X111591260Y-126969644D01*
X111598972Y-126949889D01*
X111605661Y-126929757D01*
X111611399Y-126909315D01*
X111616258Y-126888630D01*
X111620311Y-126867769D01*
X111623631Y-126846799D01*
X111626288Y-126825789D01*
X111628357Y-126804804D01*
X111631016Y-126763180D01*
X111632187Y-126722466D01*
X111632449Y-126683198D01*
X111632449Y-125550783D01*
X111921730Y-125550783D01*
X111921730Y-126760810D01*
X111921338Y-126788989D01*
X111920083Y-126817902D01*
X111917847Y-126847456D01*
X111914509Y-126877558D01*
X111909952Y-126908114D01*
X111904057Y-126939032D01*
X111896704Y-126970219D01*
X111887775Y-127001581D01*
X111877151Y-127033026D01*
X111864714Y-127064461D01*
X111850343Y-127095793D01*
X111833921Y-127126928D01*
X111815328Y-127157773D01*
X111794446Y-127188237D01*
X111771156Y-127218224D01*
X111745338Y-127247644D01*
X111726027Y-127267541D01*
X111705107Y-127287427D01*
X111682545Y-127307128D01*
X111658303Y-127326467D01*
X111632345Y-127345269D01*
X111604635Y-127363357D01*
X111575138Y-127380557D01*
X111543816Y-127396692D01*
X111510633Y-127411587D01*
X111475554Y-127425066D01*
X111457293Y-127431219D01*
X111438543Y-127436953D01*
X111419301Y-127442245D01*
X111399562Y-127447073D01*
X111379323Y-127451416D01*
X111358577Y-127455250D01*
X111337321Y-127458555D01*
X111315550Y-127461308D01*
X111293260Y-127463488D01*
X111270446Y-127465072D01*
X111247104Y-127466039D01*
X111223229Y-127466366D01*
X111176011Y-127465072D01*
X111130907Y-127461308D01*
X111087881Y-127455250D01*
X111046895Y-127447073D01*
X111007915Y-127436953D01*
X110970904Y-127425066D01*
X110935825Y-127411587D01*
X110902643Y-127396692D01*
X110871322Y-127380557D01*
X110841824Y-127363357D01*
X110814114Y-127345269D01*
X110788157Y-127326467D01*
X110763914Y-127307128D01*
X110741351Y-127287427D01*
X110720431Y-127267541D01*
X110701119Y-127247644D01*
X110675302Y-127217643D01*
X110652013Y-127187224D01*
X110631131Y-127156463D01*
X110612539Y-127125440D01*
X110596117Y-127094230D01*
X110581747Y-127062911D01*
X110569310Y-127031562D01*
X110558686Y-127000259D01*
X110549758Y-126969080D01*
X110542405Y-126938102D01*
X110536510Y-126907404D01*
X110531953Y-126877062D01*
X110528616Y-126847154D01*
X110526379Y-126817758D01*
X110525124Y-126788950D01*
X110524732Y-126760810D01*
X110524732Y-125550783D01*
X110814003Y-125550783D01*
X110814003Y-126683198D01*
G37*
G36*
X66910821Y-109636980D02*
G01*
X66543931Y-110296675D01*
X66321681Y-110173203D01*
X66688570Y-109513508D01*
X66910821Y-109636980D01*
G37*
G36*
X63926318Y-125554308D02*
G01*
X63922791Y-125554308D01*
X63922791Y-125550783D01*
X63926318Y-125554308D01*
G37*
G36*
X77504729Y-113404650D02*
G01*
X77151951Y-114039649D01*
X76929701Y-113916178D01*
X77282479Y-113281178D01*
X77504729Y-113404650D01*
G37*
G36*
X76100674Y-115937593D02*
G01*
X75747898Y-116572593D01*
X75525649Y-116449121D01*
X75878427Y-115814123D01*
X76100674Y-115937593D01*
G37*
G36*
X80341065Y-108846761D02*
G01*
X80118815Y-108970232D01*
X80044731Y-108836177D01*
X79970645Y-108970232D01*
X79748398Y-108846761D01*
X80044731Y-108314066D01*
X80341065Y-108846761D01*
G37*
G36*
X73267870Y-118982064D02*
G01*
X73045621Y-119105536D01*
X72692843Y-118474064D01*
X72915095Y-118350592D01*
X73267870Y-118982064D01*
G37*
G36*
X73356066Y-126055249D02*
G01*
X72424733Y-126496222D01*
X73356066Y-126937194D01*
X73356066Y-127208838D01*
X72131925Y-126612642D01*
X72131925Y-126379808D01*
X73356066Y-125783612D01*
X73356066Y-126055249D01*
G37*
G36*
X63922791Y-127162978D02*
G01*
X64476652Y-127162978D01*
X64476652Y-127434615D01*
X63637040Y-127434615D01*
X63637040Y-125554308D01*
X63922791Y-125554308D01*
X63922791Y-127162978D01*
G37*
G36*
X81046621Y-110106183D02*
G01*
X80824374Y-110229654D01*
X80471596Y-109594655D01*
X80693845Y-109471183D01*
X81046621Y-110106183D01*
G37*
G36*
X92314333Y-109622872D02*
G01*
X91961555Y-110257871D01*
X91739306Y-110134400D01*
X92092084Y-109499400D01*
X92314333Y-109622872D01*
G37*
G36*
X69704817Y-101554847D02*
G01*
X68773484Y-101995818D01*
X69704817Y-102436790D01*
X69704817Y-102708429D01*
X68480678Y-102112235D01*
X68480678Y-101879402D01*
X69704817Y-101283207D01*
X69704817Y-101554847D01*
G37*
G36*
X68350148Y-110116762D02*
G01*
X68127897Y-110240234D01*
X67775119Y-109608761D01*
X67997370Y-109485290D01*
X68350148Y-110116762D01*
G37*
G36*
X85967866Y-118996176D02*
G01*
X85745617Y-119119647D01*
X85392839Y-118484646D01*
X85615088Y-118361174D01*
X85967866Y-118996176D01*
G37*
G36*
X74696621Y-118470536D02*
G01*
X74343843Y-119105536D01*
X74121594Y-118982064D01*
X74474372Y-118347065D01*
X74696621Y-118470536D01*
G37*
D11*
X123240800Y-108585000D02*
X142748000Y-116992400D01*
D10*
G36*
X104957890Y-110208484D02*
G01*
X104559249Y-110889345D01*
X104340530Y-110762345D01*
X104739171Y-110081484D01*
X104957890Y-110208484D01*
G37*
G36*
X69754204Y-112649706D02*
G01*
X69531954Y-112773178D01*
X69179176Y-112141706D01*
X69401426Y-112018234D01*
X69754204Y-112649706D01*
G37*
G36*
X70456232Y-113916178D02*
G01*
X70233981Y-114039649D01*
X69881204Y-113408177D01*
X70103455Y-113284706D01*
X70456232Y-113916178D01*
G37*
G36*
X87005034Y-126358644D02*
G01*
X85780895Y-126358644D01*
X85780895Y-126122283D01*
X87005034Y-126122283D01*
X87005034Y-126358644D01*
G37*
G36*
X93041061Y-108864400D02*
G01*
X92818812Y-108987873D01*
X92744728Y-108853817D01*
X92670641Y-108987873D01*
X92448395Y-108864400D01*
X92744728Y-108331705D01*
X93041061Y-108864400D01*
G37*
G36*
X87396618Y-118488173D02*
G01*
X87043840Y-119123172D01*
X86821590Y-118999701D01*
X87174368Y-118364701D01*
X87396618Y-118488173D01*
G37*
G36*
X88098644Y-117221701D02*
G01*
X87745866Y-117856703D01*
X87523616Y-117733232D01*
X87876395Y-117098230D01*
X88098644Y-117221701D01*
G37*
G36*
X75105844Y-126055249D02*
G01*
X74174511Y-126496222D01*
X75105844Y-126937194D01*
X75105844Y-127208838D01*
X73881706Y-126612642D01*
X73881706Y-126379808D01*
X75105844Y-125783612D01*
X75105844Y-126055249D01*
G37*
G36*
X90906751Y-112155815D02*
G01*
X90553973Y-112790816D01*
X90331724Y-112667343D01*
X90684502Y-112032344D01*
X90906751Y-112155815D01*
G37*
G36*
X63241930Y-116233924D02*
G01*
X63058485Y-116569063D01*
X62836236Y-116445591D01*
X63019681Y-116110452D01*
X63241930Y-116233924D01*
G37*
G36*
X94455695Y-111400871D02*
G01*
X94233446Y-111524343D01*
X93880668Y-110892871D01*
X94102917Y-110769399D01*
X94455695Y-111400871D01*
G37*
G36*
X97263810Y-116466760D02*
G01*
X97041556Y-116590232D01*
X96688778Y-115958760D01*
X96911032Y-115835288D01*
X97263810Y-116466760D01*
G37*
G36*
X60211570Y-126683198D02*
G01*
X60211687Y-126722466D01*
X60212507Y-126763180D01*
X60214733Y-126804804D01*
X60216592Y-126825789D01*
X60219067Y-126846799D01*
X60222244Y-126867769D01*
X60226212Y-126888630D01*
X60231058Y-126909315D01*
X60236871Y-126929757D01*
X60243738Y-126949889D01*
X60251747Y-126969644D01*
X60260986Y-126988954D01*
X60271542Y-127007753D01*
X60282945Y-127025629D01*
X60295954Y-127043437D01*
X60310524Y-127061029D01*
X60326609Y-127078254D01*
X60344161Y-127094962D01*
X60363133Y-127111003D01*
X60383481Y-127126228D01*
X60394156Y-127133488D01*
X60405157Y-127140487D01*
X60416478Y-127147207D01*
X60428114Y-127153630D01*
X60440059Y-127159735D01*
X60452306Y-127165506D01*
X60464851Y-127170922D01*
X60477687Y-127175966D01*
X60490809Y-127180619D01*
X60504210Y-127184861D01*
X60517885Y-127188674D01*
X60531828Y-127192040D01*
X60546034Y-127194939D01*
X60560496Y-127197353D01*
X60575208Y-127199263D01*
X60590166Y-127200651D01*
X60605362Y-127201497D01*
X60620792Y-127201784D01*
X60651418Y-127200651D01*
X60681088Y-127197353D01*
X60709755Y-127192040D01*
X60737374Y-127184861D01*
X60763897Y-127175967D01*
X60789278Y-127165507D01*
X60813470Y-127153630D01*
X60836427Y-127140488D01*
X60858103Y-127126230D01*
X60878451Y-127111005D01*
X60897424Y-127094963D01*
X60914976Y-127078255D01*
X60931060Y-127061030D01*
X60945630Y-127043438D01*
X60958640Y-127025629D01*
X60970042Y-127007753D01*
X60980017Y-126988954D01*
X60988824Y-126969644D01*
X60996536Y-126949889D01*
X61003225Y-126929757D01*
X61008963Y-126909315D01*
X61013822Y-126888630D01*
X61017875Y-126867769D01*
X61021194Y-126846799D01*
X61023852Y-126825789D01*
X61025921Y-126804804D01*
X61028581Y-126763180D01*
X61029752Y-126722466D01*
X61030014Y-126683198D01*
X61030014Y-125550783D01*
X61319291Y-125550783D01*
X61319291Y-126760810D01*
X61318899Y-126788989D01*
X61317645Y-126817902D01*
X61315408Y-126847456D01*
X61312070Y-126877558D01*
X61307513Y-126908114D01*
X61301618Y-126939032D01*
X61294265Y-126970219D01*
X61285337Y-127001581D01*
X61274713Y-127033026D01*
X61262275Y-127064461D01*
X61247905Y-127095793D01*
X61231483Y-127126928D01*
X61212891Y-127157773D01*
X61192009Y-127188237D01*
X61168720Y-127218224D01*
X61142903Y-127247644D01*
X61123591Y-127267541D01*
X61102671Y-127287427D01*
X61080108Y-127307128D01*
X61055866Y-127326467D01*
X61029908Y-127345269D01*
X61002198Y-127363357D01*
X60972701Y-127380557D01*
X60941379Y-127396692D01*
X60908196Y-127411587D01*
X60873117Y-127425066D01*
X60854856Y-127431219D01*
X60836106Y-127436953D01*
X60816864Y-127442245D01*
X60797126Y-127447073D01*
X60776886Y-127451416D01*
X60756140Y-127455250D01*
X60734884Y-127458555D01*
X60713113Y-127461308D01*
X60690823Y-127463488D01*
X60668009Y-127465072D01*
X60644667Y-127466039D01*
X60620792Y-127466366D01*
X60573574Y-127465072D01*
X60528470Y-127461308D01*
X60485444Y-127455250D01*
X60444458Y-127447073D01*
X60405478Y-127436953D01*
X60368467Y-127425066D01*
X60333388Y-127411587D01*
X60300205Y-127396692D01*
X60268883Y-127380557D01*
X60239386Y-127363357D01*
X60211676Y-127345269D01*
X60185718Y-127326467D01*
X60161476Y-127307128D01*
X60138913Y-127287427D01*
X60117994Y-127267541D01*
X60098681Y-127247644D01*
X60072865Y-127217643D01*
X60049575Y-127187224D01*
X60028693Y-127156463D01*
X60010101Y-127125440D01*
X59993679Y-127094230D01*
X59979309Y-127062911D01*
X59966871Y-127031562D01*
X59956247Y-127000259D01*
X59947318Y-126969080D01*
X59939966Y-126938102D01*
X59934070Y-126907404D01*
X59929513Y-126877062D01*
X59926176Y-126847154D01*
X59923939Y-126817758D01*
X59922684Y-126788950D01*
X59922292Y-126760810D01*
X59922292Y-125550783D01*
X60211570Y-125550783D01*
X60211570Y-126683198D01*
G37*
G36*
X80655035Y-101554847D02*
G01*
X79723702Y-101995818D01*
X80655035Y-102436790D01*
X80655035Y-102708429D01*
X79430896Y-102112235D01*
X79430896Y-101879402D01*
X80655035Y-101283207D01*
X80655035Y-101554847D01*
G37*
G36*
X93355033Y-101879402D02*
G01*
X93355033Y-102112235D01*
X92130892Y-102708429D01*
X92130892Y-102436790D01*
X93062225Y-101995818D01*
X92130892Y-101554847D01*
X92130892Y-101283207D01*
X93355033Y-101879402D01*
G37*
G36*
X83156232Y-113916179D02*
G01*
X82933982Y-114039651D01*
X82581204Y-113404651D01*
X82803454Y-113281180D01*
X83156232Y-113916179D01*
G37*
D12*
X151043080Y-131566462D02*
X151071307Y-131569266D01*
X151099297Y-131573890D01*
X151126971Y-131580291D01*
X151154253Y-131588428D01*
X151181064Y-131598260D01*
X151207327Y-131609746D01*
X151232965Y-131622844D01*
X151257900Y-131637513D01*
X151282055Y-131653712D01*
X151305353Y-131671399D01*
X151327715Y-131690533D01*
X151349065Y-131711072D01*
X151369324Y-131732976D01*
X151388416Y-131756202D01*
X151406263Y-131780710D01*
X151409803Y-131784240D01*
X151847242Y-132362795D01*
X151859436Y-132378950D01*
X151870882Y-132395626D01*
X151881573Y-132412768D01*
X151891504Y-132430318D01*
X151900670Y-132448220D01*
X151909067Y-132466416D01*
X151916688Y-132484850D01*
X151923529Y-132503465D01*
X151929585Y-132522204D01*
X151934850Y-132541010D01*
X151939319Y-132559826D01*
X151942987Y-132578596D01*
X151945849Y-132597263D01*
X151947900Y-132615769D01*
X151949134Y-132634058D01*
X151949547Y-132652073D01*
X151948843Y-132674551D01*
X151946729Y-132696962D01*
X151943199Y-132719239D01*
X151938248Y-132741314D01*
X151931870Y-132763120D01*
X151924062Y-132784591D01*
X151914816Y-132805659D01*
X151904129Y-132826256D01*
X151891995Y-132846316D01*
X151885384Y-132856124D01*
X151878409Y-132865772D01*
X151871069Y-132875252D01*
X151863365Y-132884556D01*
X151855295Y-132893674D01*
X151846859Y-132902600D01*
X151838056Y-132911325D01*
X151828885Y-132919839D01*
X151819346Y-132928135D01*
X151809439Y-132936204D01*
X151799161Y-132944038D01*
X151788514Y-132951629D01*
X151777495Y-132958968D01*
X151766106Y-132966046D01*
X151750934Y-132974977D01*
X151735834Y-132983257D01*
X151720796Y-132990896D01*
X151705809Y-132997905D01*
X151690864Y-133004294D01*
X151675948Y-133010073D01*
X151661054Y-133015253D01*
X151646169Y-133019843D01*
X151631284Y-133023855D01*
X151616389Y-133027298D01*
X151601473Y-133030184D01*
X151586525Y-133032521D01*
X151571536Y-133034321D01*
X151556495Y-133035594D01*
X151541393Y-133036350D01*
X151526217Y-133036600D01*
X151497829Y-133035656D01*
X151469602Y-133032852D01*
X151441612Y-133028228D01*
X151413938Y-133021827D01*
X151386656Y-133013690D01*
X151359845Y-133003857D01*
X151333582Y-132992371D01*
X151307944Y-132979273D01*
X151283009Y-132964603D01*
X151258854Y-132948404D01*
X151235556Y-132930717D01*
X151213194Y-132911583D01*
X151191845Y-132891044D01*
X151171585Y-132869140D01*
X151152493Y-132845913D01*
X151134646Y-132821405D01*
X150736005Y-132253433D01*
X150710546Y-132217968D01*
X150685128Y-132180727D01*
X150672757Y-132161607D01*
X150660784Y-132142245D01*
X150649338Y-132122707D01*
X150638549Y-132103060D01*
X150628545Y-132083372D01*
X150619455Y-132063710D01*
X150611410Y-132044141D01*
X150604537Y-132024732D01*
X150598967Y-132005551D01*
X150594828Y-131986664D01*
X150592250Y-131968138D01*
X150591587Y-131959033D01*
X150591362Y-131950042D01*
X150592066Y-131927564D01*
X150594180Y-131905153D01*
X150597710Y-131882877D01*
X150602661Y-131860802D01*
X150609039Y-131838995D01*
X150616848Y-131817525D01*
X150626093Y-131796457D01*
X150636780Y-131775860D01*
X150648914Y-131755800D01*
X150655526Y-131745992D01*
X150662500Y-131736344D01*
X150669840Y-131726864D01*
X150677544Y-131717561D01*
X150685614Y-131708442D01*
X150694050Y-131699516D01*
X150702853Y-131690792D01*
X150712024Y-131682278D01*
X150721563Y-131673982D01*
X150731471Y-131665913D01*
X150741748Y-131658079D01*
X150752395Y-131650489D01*
X150763414Y-131643150D01*
X150774803Y-131636072D01*
X150789977Y-131627141D01*
X150805078Y-131618860D01*
X150820117Y-131611221D01*
X150835104Y-131604212D01*
X150850050Y-131597823D01*
X150864965Y-131592044D01*
X150879860Y-131586864D01*
X150894744Y-131582274D01*
X150909628Y-131578262D01*
X150924523Y-131574819D01*
X150939439Y-131571934D01*
X150954386Y-131569597D01*
X150969374Y-131567797D01*
X150984414Y-131566524D01*
X150999517Y-131565768D01*
X151014692Y-131565518D01*
X151043080Y-131566462D01*
D10*
G36*
X64709486Y-113595148D02*
G01*
X64342597Y-114254842D01*
X64120347Y-114131370D01*
X64487235Y-113471677D01*
X64709486Y-113595148D01*
G37*
G36*
X78908781Y-110871707D02*
G01*
X78556006Y-111506706D01*
X78333756Y-111383235D01*
X78686532Y-110748235D01*
X78908781Y-110871707D01*
G37*
G36*
X110242496Y-115299065D02*
G01*
X109907362Y-116787785D01*
X108446862Y-116346813D01*
X108520943Y-116103398D01*
X109720386Y-116466758D01*
X109995552Y-115242620D01*
X110242496Y-115299065D01*
G37*
G36*
X65443264Y-112275759D02*
G01*
X65076376Y-112935453D01*
X64854125Y-112811981D01*
X65221014Y-112152288D01*
X65443264Y-112275759D01*
G37*
G36*
X98667868Y-118999701D02*
G01*
X98445618Y-119123172D01*
X98092840Y-118491700D01*
X98315090Y-118368229D01*
X98667868Y-118999701D01*
G37*
G36*
X76802702Y-114671122D02*
G01*
X76449924Y-115306122D01*
X76227675Y-115182649D01*
X76580453Y-114547650D01*
X76802702Y-114671122D01*
G37*
G36*
X83858258Y-115186178D02*
G01*
X83636009Y-115309651D01*
X83283231Y-114674650D01*
X83505480Y-114551179D01*
X83858258Y-115186178D01*
G37*
G36*
X71158260Y-115182649D02*
G01*
X70936010Y-115306122D01*
X70583232Y-114674649D01*
X70805482Y-114551177D01*
X71158260Y-115182649D01*
G37*
G36*
X104305251Y-101879402D02*
G01*
X104305251Y-102112235D01*
X103081115Y-102708429D01*
X103081115Y-102436790D01*
X104012445Y-101995818D01*
X103081115Y-101554847D01*
X103081115Y-101283207D01*
X104305251Y-101879402D01*
G37*
G36*
X72655659Y-96086665D02*
G01*
X72708146Y-96090381D01*
X72757770Y-96096308D01*
X72804588Y-96104230D01*
X72848656Y-96113930D01*
X72890033Y-96125190D01*
X72928774Y-96137794D01*
X72964936Y-96151524D01*
X72998576Y-96166164D01*
X73029752Y-96181497D01*
X73058519Y-96197304D01*
X73084935Y-96213371D01*
X73109057Y-96229478D01*
X73130941Y-96245410D01*
X73168224Y-96275878D01*
X73182191Y-96288815D01*
X73196281Y-96302474D01*
X73210454Y-96316837D01*
X73224669Y-96331882D01*
X73238883Y-96347588D01*
X73253056Y-96363935D01*
X73267147Y-96380902D01*
X73281113Y-96398469D01*
X73294914Y-96416614D01*
X73308509Y-96435317D01*
X73321855Y-96454558D01*
X73334912Y-96474316D01*
X73347638Y-96494570D01*
X73359992Y-96515299D01*
X73371933Y-96536483D01*
X73383419Y-96558101D01*
X73037697Y-96762712D01*
X73037697Y-96759184D01*
X73032899Y-96747320D01*
X73027754Y-96735543D01*
X73022248Y-96723860D01*
X73016365Y-96712275D01*
X73010089Y-96700794D01*
X73003405Y-96689421D01*
X72996296Y-96678161D01*
X72988749Y-96667021D01*
X72980747Y-96656004D01*
X72972275Y-96645117D01*
X72963316Y-96634364D01*
X72953857Y-96623750D01*
X72943881Y-96613281D01*
X72933372Y-96602963D01*
X72922316Y-96592799D01*
X72910696Y-96582795D01*
X72894073Y-96570019D01*
X72877258Y-96558142D01*
X72860227Y-96547154D01*
X72842952Y-96537044D01*
X72825409Y-96527803D01*
X72807571Y-96519419D01*
X72789413Y-96511883D01*
X72770909Y-96505184D01*
X72752032Y-96499312D01*
X72732758Y-96494256D01*
X72713059Y-96490006D01*
X72692912Y-96486553D01*
X72672288Y-96483884D01*
X72651164Y-96481991D01*
X72629512Y-96480863D01*
X72607307Y-96480489D01*
X72583196Y-96480940D01*
X72559810Y-96482277D01*
X72537153Y-96484477D01*
X72515227Y-96487517D01*
X72494035Y-96491374D01*
X72473579Y-96496023D01*
X72453863Y-96501443D01*
X72434888Y-96507609D01*
X72416657Y-96514499D01*
X72399172Y-96522089D01*
X72382437Y-96530356D01*
X72366454Y-96539276D01*
X72351226Y-96548828D01*
X72336754Y-96558986D01*
X72323042Y-96569728D01*
X72310093Y-96581031D01*
X72297908Y-96592871D01*
X72286490Y-96605226D01*
X72275843Y-96618071D01*
X72265968Y-96631384D01*
X72256868Y-96645142D01*
X72248546Y-96659321D01*
X72241004Y-96673897D01*
X72234245Y-96688849D01*
X72228272Y-96704151D01*
X72223087Y-96719782D01*
X72218692Y-96735718D01*
X72215091Y-96751935D01*
X72212285Y-96768411D01*
X72210278Y-96785122D01*
X72209072Y-96802044D01*
X72208669Y-96819156D01*
X72209053Y-96835750D01*
X72210419Y-96853683D01*
X72213087Y-96872804D01*
X72217378Y-96892964D01*
X72223612Y-96914012D01*
X72227558Y-96924823D01*
X72232109Y-96935800D01*
X72237307Y-96946924D01*
X72243191Y-96958177D01*
X72249800Y-96969539D01*
X72257176Y-96980993D01*
X72265358Y-96992519D01*
X72274386Y-97004098D01*
X72284300Y-97015712D01*
X72295141Y-97027343D01*
X72306948Y-97038971D01*
X72319761Y-97050578D01*
X72333621Y-97062144D01*
X72348568Y-97073652D01*
X72364641Y-97085082D01*
X72381880Y-97096416D01*
X72400326Y-97107635D01*
X72420019Y-97118721D01*
X72440999Y-97129654D01*
X72463305Y-97140415D01*
X72486978Y-97150987D01*
X72512058Y-97161350D01*
X72794280Y-97274239D01*
X72887769Y-97314904D01*
X72931275Y-97335954D01*
X72972680Y-97357466D01*
X73012029Y-97379430D01*
X73049365Y-97401836D01*
X73084732Y-97424672D01*
X73118174Y-97447927D01*
X73149735Y-97471591D01*
X73179458Y-97495651D01*
X73207389Y-97520098D01*
X73233570Y-97544920D01*
X73258047Y-97570107D01*
X73280861Y-97595647D01*
X73302058Y-97621529D01*
X73321682Y-97647743D01*
X73339776Y-97674277D01*
X73356385Y-97701120D01*
X73371551Y-97728262D01*
X73385320Y-97755691D01*
X73408840Y-97811368D01*
X73427295Y-97868063D01*
X73441037Y-97925689D01*
X73450418Y-97984156D01*
X73455789Y-98043378D01*
X73457501Y-98103267D01*
X73456392Y-98153046D01*
X73453093Y-98201816D01*
X73447647Y-98249539D01*
X73440097Y-98296178D01*
X73430484Y-98341697D01*
X73418853Y-98386056D01*
X73405244Y-98429219D01*
X73389702Y-98471148D01*
X73372268Y-98511806D01*
X73352986Y-98551155D01*
X73331897Y-98589158D01*
X73309045Y-98625778D01*
X73284473Y-98660976D01*
X73258222Y-98694716D01*
X73230335Y-98726959D01*
X73200856Y-98757669D01*
X73169826Y-98786809D01*
X73137289Y-98814340D01*
X73103286Y-98840224D01*
X73067861Y-98864426D01*
X73031057Y-98886907D01*
X72992915Y-98907629D01*
X72953479Y-98926556D01*
X72912791Y-98943649D01*
X72870894Y-98958872D01*
X72827830Y-98972187D01*
X72783642Y-98983556D01*
X72738373Y-98992942D01*
X72692065Y-99000307D01*
X72644762Y-99005615D01*
X72596504Y-99008826D01*
X72547336Y-99009905D01*
X72487992Y-99008480D01*
X72431588Y-99004290D01*
X72378006Y-98997464D01*
X72327126Y-98988132D01*
X72278830Y-98976423D01*
X72232999Y-98962466D01*
X72189514Y-98946391D01*
X72148257Y-98928325D01*
X72109107Y-98908400D01*
X72071948Y-98886743D01*
X72036659Y-98863484D01*
X72003121Y-98838753D01*
X71971217Y-98812678D01*
X71940827Y-98785388D01*
X71911832Y-98757014D01*
X71884113Y-98727683D01*
X71856654Y-98695729D01*
X71831128Y-98663377D01*
X71807483Y-98630643D01*
X71785667Y-98597541D01*
X71765628Y-98564089D01*
X71747316Y-98530300D01*
X71730678Y-98496191D01*
X71715662Y-98461777D01*
X71702218Y-98427074D01*
X71690293Y-98392096D01*
X71679835Y-98356861D01*
X71670793Y-98321382D01*
X71663116Y-98285677D01*
X71656751Y-98249759D01*
X71651647Y-98213645D01*
X71647752Y-98177350D01*
X72074614Y-98085627D01*
X72075186Y-98111954D01*
X72076874Y-98137986D01*
X72079637Y-98163677D01*
X72083434Y-98188980D01*
X72088222Y-98213850D01*
X72093962Y-98238238D01*
X72100611Y-98262100D01*
X72108128Y-98285388D01*
X72116472Y-98308056D01*
X72125602Y-98330057D01*
X72135475Y-98351345D01*
X72146052Y-98371874D01*
X72157289Y-98391596D01*
X72169147Y-98410466D01*
X72181584Y-98428436D01*
X72194558Y-98445461D01*
X72210190Y-98464222D01*
X72226674Y-98482110D01*
X72244036Y-98499078D01*
X72262303Y-98515079D01*
X72281500Y-98530068D01*
X72301653Y-98543997D01*
X72322788Y-98556821D01*
X72344930Y-98568492D01*
X72368107Y-98578964D01*
X72392342Y-98588191D01*
X72404865Y-98592323D01*
X72417663Y-98596126D01*
X72430738Y-98599594D01*
X72444094Y-98602722D01*
X72457735Y-98605504D01*
X72471663Y-98607934D01*
X72485882Y-98610006D01*
X72500394Y-98611714D01*
X72515204Y-98613053D01*
X72530314Y-98614016D01*
X72561448Y-98614794D01*
X72585752Y-98614239D01*
X72609698Y-98612586D01*
X72633260Y-98609853D01*
X72656409Y-98606057D01*
X72679119Y-98601218D01*
X72701362Y-98595353D01*
X72723112Y-98588481D01*
X72744341Y-98580619D01*
X72765023Y-98571785D01*
X72785129Y-98561998D01*
X72804634Y-98551276D01*
X72823509Y-98539636D01*
X72841729Y-98527097D01*
X72859264Y-98513677D01*
X72876090Y-98499394D01*
X72892177Y-98484266D01*
X72907500Y-98468312D01*
X72922031Y-98451548D01*
X72935742Y-98433994D01*
X72948608Y-98415668D01*
X72960600Y-98396587D01*
X72971692Y-98376769D01*
X72981856Y-98356233D01*
X72991065Y-98334997D01*
X72999293Y-98313079D01*
X73006511Y-98290497D01*
X73012694Y-98267269D01*
X73017813Y-98243413D01*
X73021842Y-98218947D01*
X73024753Y-98193890D01*
X73026520Y-98168258D01*
X73027115Y-98142072D01*
X73026481Y-98116075D01*
X73024613Y-98090988D01*
X73021554Y-98066790D01*
X73017351Y-98043459D01*
X73012050Y-98020977D01*
X73005697Y-97999321D01*
X72998338Y-97978471D01*
X72990018Y-97958407D01*
X72980783Y-97939108D01*
X72970680Y-97920552D01*
X72959753Y-97902721D01*
X72948050Y-97885592D01*
X72935615Y-97869145D01*
X72922495Y-97853359D01*
X72908735Y-97838215D01*
X72894382Y-97823690D01*
X72864078Y-97796419D01*
X72831950Y-97771380D01*
X72798364Y-97748408D01*
X72763689Y-97727338D01*
X72728289Y-97708004D01*
X72692533Y-97690241D01*
X72656788Y-97673884D01*
X72621419Y-97658767D01*
X72349780Y-97545878D01*
X72304952Y-97526208D01*
X72258223Y-97504109D01*
X72210254Y-97479386D01*
X72161705Y-97451840D01*
X72113240Y-97421277D01*
X72065518Y-97387500D01*
X72019203Y-97350312D01*
X71974954Y-97309517D01*
X71953811Y-97287705D01*
X71933434Y-97264918D01*
X71913903Y-97241131D01*
X71895303Y-97216320D01*
X71877716Y-97190460D01*
X71861224Y-97163526D01*
X71845911Y-97135494D01*
X71831858Y-97106339D01*
X71819149Y-97076037D01*
X71807867Y-97044563D01*
X71798093Y-97011893D01*
X71789911Y-96978002D01*
X71783403Y-96942866D01*
X71778652Y-96906460D01*
X71775741Y-96868759D01*
X71774752Y-96829739D01*
X71775619Y-96794083D01*
X71778210Y-96758593D01*
X71782514Y-96723333D01*
X71788519Y-96688366D01*
X71796214Y-96653756D01*
X71805588Y-96619566D01*
X71816628Y-96585859D01*
X71829323Y-96552698D01*
X71843661Y-96520148D01*
X71859631Y-96488270D01*
X71877221Y-96457129D01*
X71896419Y-96426787D01*
X71917215Y-96397309D01*
X71939595Y-96368756D01*
X71963549Y-96341194D01*
X71989065Y-96314684D01*
X72016131Y-96289290D01*
X72044736Y-96265076D01*
X72074868Y-96242105D01*
X72106515Y-96220440D01*
X72139666Y-96200144D01*
X72174309Y-96181281D01*
X72210433Y-96163914D01*
X72248026Y-96148107D01*
X72287076Y-96133922D01*
X72327571Y-96121423D01*
X72369501Y-96110673D01*
X72412853Y-96101736D01*
X72457616Y-96094674D01*
X72503778Y-96089552D01*
X72551327Y-96086432D01*
X72600253Y-96085378D01*
X72655659Y-96086665D01*
G37*
G36*
X95157722Y-112667343D02*
G01*
X94935472Y-112790816D01*
X94582694Y-112155815D01*
X94804944Y-112032344D01*
X95157722Y-112667343D01*
G37*
G36*
X66177043Y-110956370D02*
G01*
X65810153Y-111616064D01*
X65587903Y-111492592D01*
X65954792Y-110832898D01*
X66177043Y-110956370D01*
G37*
G36*
X150555321Y-129404644D02*
G01*
X150727896Y-129419912D01*
X150887035Y-129444855D01*
X150961637Y-129460825D01*
X151032965Y-129479058D01*
X151101048Y-129499503D01*
X151165914Y-129522108D01*
X151227592Y-129546821D01*
X151286110Y-129573591D01*
X151341496Y-129602366D01*
X151393779Y-129633094D01*
X151442987Y-129665725D01*
X151489149Y-129700205D01*
X151532293Y-129736483D01*
X151572447Y-129774509D01*
X151609640Y-129814229D01*
X151643901Y-129855592D01*
X151675258Y-129898548D01*
X151703739Y-129943043D01*
X151729372Y-129989026D01*
X151752187Y-130036446D01*
X151772211Y-130085251D01*
X151789472Y-130135389D01*
X151815824Y-130239459D01*
X151831468Y-130348242D01*
X151836632Y-130461324D01*
X151833970Y-130541967D01*
X151825918Y-130619805D01*
X151812377Y-130694759D01*
X151803519Y-130731131D01*
X151793251Y-130766752D01*
X151781562Y-130801614D01*
X151768440Y-130835707D01*
X151753873Y-130869020D01*
X151737847Y-130901545D01*
X151720351Y-130933272D01*
X151701373Y-130964190D01*
X151680900Y-130994291D01*
X151658920Y-131023564D01*
X151635421Y-131052000D01*
X151610390Y-131079589D01*
X151583816Y-131106321D01*
X151555685Y-131132188D01*
X151525986Y-131157178D01*
X151494707Y-131181283D01*
X151461834Y-131204492D01*
X151427357Y-131226797D01*
X151391262Y-131248187D01*
X151353537Y-131268652D01*
X151314170Y-131288183D01*
X151273149Y-131306771D01*
X151186096Y-131341076D01*
X151092278Y-131371490D01*
X150566643Y-131519658D01*
X150566653Y-131516128D01*
X150541330Y-131520657D01*
X150516946Y-131523708D01*
X150493489Y-131525355D01*
X150470949Y-131525671D01*
X150449312Y-131524729D01*
X150428569Y-131522601D01*
X150408707Y-131519360D01*
X150389714Y-131515081D01*
X150371579Y-131509835D01*
X150354290Y-131503696D01*
X150337835Y-131496736D01*
X150322204Y-131489029D01*
X150307384Y-131480648D01*
X150293363Y-131471665D01*
X150280131Y-131462154D01*
X150267675Y-131452187D01*
X150245046Y-131431180D01*
X150225383Y-131409227D01*
X150208593Y-131386912D01*
X150194583Y-131364820D01*
X150183260Y-131343533D01*
X150174531Y-131323637D01*
X150168303Y-131305715D01*
X150164483Y-131290351D01*
X150162529Y-131275442D01*
X150161298Y-131260499D01*
X150160789Y-131245549D01*
X150161001Y-131230620D01*
X150161935Y-131215741D01*
X150163589Y-131200938D01*
X150165962Y-131186240D01*
X150169055Y-131171675D01*
X150172866Y-131157269D01*
X150177394Y-131143052D01*
X150182639Y-131129050D01*
X150188601Y-131115292D01*
X150195279Y-131101805D01*
X150202672Y-131088617D01*
X150210779Y-131075757D01*
X150219600Y-131063250D01*
X150229134Y-131051126D01*
X150239381Y-131039413D01*
X150250339Y-131028137D01*
X150262009Y-131017327D01*
X150274389Y-131007010D01*
X150287480Y-130997215D01*
X150301279Y-130987969D01*
X150315788Y-130979299D01*
X150331004Y-130971235D01*
X150346928Y-130963802D01*
X150363558Y-130957030D01*
X150380895Y-130950946D01*
X150398937Y-130945577D01*
X150417683Y-130940952D01*
X150437134Y-130937098D01*
X150457288Y-130934044D01*
X150507400Y-130926642D01*
X150555739Y-130916336D01*
X150602104Y-130903116D01*
X150646295Y-130886971D01*
X150688108Y-130867890D01*
X150708061Y-130857246D01*
X150727343Y-130845864D01*
X150745931Y-130833743D01*
X150763798Y-130820882D01*
X150780921Y-130807279D01*
X150797272Y-130792934D01*
X150812828Y-130777844D01*
X150827563Y-130762009D01*
X150841451Y-130745427D01*
X150854468Y-130728097D01*
X150866589Y-130710018D01*
X150877788Y-130691188D01*
X150888040Y-130671607D01*
X150897319Y-130651272D01*
X150905602Y-130630183D01*
X150912862Y-130608338D01*
X150919074Y-130585735D01*
X150924213Y-130562375D01*
X150928254Y-130538255D01*
X150931171Y-130513374D01*
X150932940Y-130487731D01*
X150933536Y-130461324D01*
X150932704Y-130430181D01*
X150930231Y-130400244D01*
X150926149Y-130371498D01*
X150920493Y-130343929D01*
X150913293Y-130317522D01*
X150904584Y-130292265D01*
X150894398Y-130268141D01*
X150882769Y-130245137D01*
X150869729Y-130223240D01*
X150855311Y-130202434D01*
X150839548Y-130182705D01*
X150822473Y-130164040D01*
X150804120Y-130146423D01*
X150784520Y-130129842D01*
X150763707Y-130114281D01*
X150741714Y-130099727D01*
X150718573Y-130086164D01*
X150694318Y-130073580D01*
X150668982Y-130061959D01*
X150642598Y-130051288D01*
X150615198Y-130041553D01*
X150586815Y-130032738D01*
X150557483Y-130024831D01*
X150527235Y-130017816D01*
X150496102Y-130011679D01*
X150464119Y-130006407D01*
X150397732Y-129998399D01*
X150328337Y-129993678D01*
X150256198Y-129992129D01*
X150072757Y-129992129D01*
X150057259Y-129992624D01*
X150042537Y-129994107D01*
X150035476Y-129995216D01*
X150028620Y-129996571D01*
X150021974Y-129998169D01*
X150015541Y-130000012D01*
X150009325Y-130002097D01*
X150003330Y-130004424D01*
X149997560Y-130006993D01*
X149992018Y-130009803D01*
X149986709Y-130012853D01*
X149981636Y-130016143D01*
X149976804Y-130019672D01*
X149972216Y-130023439D01*
X149967875Y-130027444D01*
X149963787Y-130031685D01*
X149959955Y-130036164D01*
X149956382Y-130040878D01*
X149953073Y-130045827D01*
X149950031Y-130051011D01*
X149947260Y-130056428D01*
X149944765Y-130062079D01*
X149942549Y-130067962D01*
X149940615Y-130074077D01*
X149938969Y-130080423D01*
X149937613Y-130087000D01*
X149936551Y-130093807D01*
X149935788Y-130100843D01*
X149935328Y-130108108D01*
X149935174Y-130115600D01*
X149935174Y-132616793D01*
X149934689Y-132640365D01*
X149933243Y-132663444D01*
X149930845Y-132686015D01*
X149927504Y-132708060D01*
X149923231Y-132729563D01*
X149918034Y-132750506D01*
X149911924Y-132770872D01*
X149904911Y-132790646D01*
X149897003Y-132809810D01*
X149888211Y-132828348D01*
X149878544Y-132846242D01*
X149868013Y-132863476D01*
X149856626Y-132880033D01*
X149844393Y-132895896D01*
X149831325Y-132911048D01*
X149817430Y-132925474D01*
X149802719Y-132939155D01*
X149787202Y-132952075D01*
X149770887Y-132964218D01*
X149753784Y-132975566D01*
X149735904Y-132986102D01*
X149717256Y-132995811D01*
X149697850Y-133004674D01*
X149677694Y-133012676D01*
X149656800Y-133019800D01*
X149635177Y-133026028D01*
X149612834Y-133031344D01*
X149589781Y-133035731D01*
X149566028Y-133039172D01*
X149541585Y-133041651D01*
X149516460Y-133043151D01*
X149490665Y-133043655D01*
X149464859Y-133043151D01*
X149439706Y-133041651D01*
X149415215Y-133039172D01*
X149391398Y-133035731D01*
X149368265Y-133031344D01*
X149345829Y-133026028D01*
X149324099Y-133019800D01*
X149303087Y-133012676D01*
X149282803Y-133004674D01*
X149263260Y-132995811D01*
X149244466Y-132986102D01*
X149226435Y-132975566D01*
X149209176Y-132964218D01*
X149192701Y-132952075D01*
X149177020Y-132939155D01*
X149162144Y-132925474D01*
X149148086Y-132911048D01*
X149134854Y-132895896D01*
X149122461Y-132880033D01*
X149110918Y-132863476D01*
X149100235Y-132846242D01*
X149090423Y-132828348D01*
X149081494Y-132809810D01*
X149073458Y-132790646D01*
X149066326Y-132770872D01*
X149060109Y-132750506D01*
X149054819Y-132729563D01*
X149050466Y-132708060D01*
X149047062Y-132686015D01*
X149044616Y-132663444D01*
X149043141Y-132640365D01*
X149042647Y-132616793D01*
X149042647Y-129910988D01*
X149043244Y-129880965D01*
X149045028Y-129851758D01*
X149047986Y-129823375D01*
X149052106Y-129795826D01*
X149057376Y-129769118D01*
X149063784Y-129743262D01*
X149071316Y-129718267D01*
X149079962Y-129694141D01*
X149089708Y-129670893D01*
X149100543Y-129648533D01*
X149112454Y-129627069D01*
X149125429Y-129606512D01*
X149139455Y-129586868D01*
X149154521Y-129568149D01*
X149170613Y-129550362D01*
X149187721Y-129533517D01*
X149205831Y-129517623D01*
X149224931Y-129502689D01*
X149245009Y-129488724D01*
X149266053Y-129475736D01*
X149288050Y-129463736D01*
X149310989Y-129452732D01*
X149334857Y-129442733D01*
X149359641Y-129433748D01*
X149385329Y-129425786D01*
X149411910Y-129418857D01*
X149439370Y-129412968D01*
X149467698Y-129408130D01*
X149496881Y-129404352D01*
X149526907Y-129401641D01*
X149557764Y-129400009D01*
X149589440Y-129399462D01*
X150369083Y-129399462D01*
X150555321Y-129404644D01*
G37*
G36*
X99098252Y-119772286D02*
G01*
X99175863Y-119634703D01*
X99394583Y-119761702D01*
X99091197Y-120283811D01*
X98798396Y-119754647D01*
X99020641Y-119631173D01*
X99098252Y-119772286D01*
G37*
G36*
X93753669Y-110134400D02*
G01*
X93531420Y-110257871D01*
X93178642Y-109622872D01*
X93400891Y-109499400D01*
X93753669Y-110134400D01*
G37*
G36*
X79610810Y-109605234D02*
G01*
X79258032Y-110240234D01*
X79035782Y-110116762D01*
X79388560Y-109481763D01*
X79610810Y-109605234D01*
G37*
G36*
X63975707Y-114914537D02*
G01*
X63608819Y-115574231D01*
X63386568Y-115450759D01*
X63753458Y-114791066D01*
X63975707Y-114914537D01*
G37*
G36*
X113322242Y-125822422D02*
G01*
X112891863Y-125822422D01*
X112891863Y-127434617D01*
X112602582Y-127434617D01*
X112602582Y-125822422D01*
X112172193Y-125822422D01*
X112172193Y-125550786D01*
X113322242Y-125550786D01*
X113322242Y-125822422D01*
G37*
G36*
X109879138Y-116484397D02*
G01*
X109656889Y-116614926D01*
X109466388Y-116283314D01*
X109685107Y-116156315D01*
X109879138Y-116484397D01*
G37*
G36*
X72565844Y-117715595D02*
G01*
X72343595Y-117839067D01*
X71990817Y-117207592D01*
X72213066Y-117084120D01*
X72565844Y-117715595D01*
G37*
G36*
X106055027Y-101879402D02*
G01*
X106055027Y-102112235D01*
X104830891Y-102708429D01*
X104830891Y-102436790D01*
X105762221Y-101995818D01*
X104830891Y-101554847D01*
X104830891Y-101283207D01*
X106055027Y-101879402D01*
G37*
G36*
X109240156Y-125516736D02*
G01*
X109291683Y-125520394D01*
X109342226Y-125526425D01*
X109391737Y-125534776D01*
X109440168Y-125545393D01*
X109487471Y-125558223D01*
X109533598Y-125573211D01*
X109578502Y-125590304D01*
X109622135Y-125609449D01*
X109664448Y-125630592D01*
X109705395Y-125653679D01*
X109744927Y-125678657D01*
X109782997Y-125705472D01*
X109819557Y-125734070D01*
X109854558Y-125764399D01*
X109887954Y-125796403D01*
X109919696Y-125830031D01*
X109949736Y-125865227D01*
X109978028Y-125901938D01*
X110004522Y-125940112D01*
X110029171Y-125979693D01*
X110051928Y-126020630D01*
X110072745Y-126062867D01*
X110091573Y-126106351D01*
X110108365Y-126151029D01*
X110123073Y-126196848D01*
X110135649Y-126243753D01*
X110146047Y-126291690D01*
X110154216Y-126340607D01*
X110160111Y-126390450D01*
X110163683Y-126441165D01*
X110164884Y-126492698D01*
X110163673Y-126544231D01*
X110160072Y-126594945D01*
X110154132Y-126644788D01*
X110145902Y-126693705D01*
X110135432Y-126741643D01*
X110122771Y-126788548D01*
X110107969Y-126834366D01*
X110091077Y-126879044D01*
X110072143Y-126922529D01*
X110051218Y-126964766D01*
X110028351Y-127005702D01*
X110003593Y-127045283D01*
X109976992Y-127083457D01*
X109948598Y-127120169D01*
X109918462Y-127155365D01*
X109886632Y-127188992D01*
X109853159Y-127220996D01*
X109818093Y-127251325D01*
X109781483Y-127279923D01*
X109743379Y-127306738D01*
X109703830Y-127331716D01*
X109662887Y-127354803D01*
X109620598Y-127375946D01*
X109577015Y-127395091D01*
X109532186Y-127412184D01*
X109486162Y-127427172D01*
X109438992Y-127440002D01*
X109390725Y-127450619D01*
X109341412Y-127458970D01*
X109291102Y-127465001D01*
X109239845Y-127468659D01*
X109187691Y-127469891D01*
X109135537Y-127468659D01*
X109084280Y-127465001D01*
X109033970Y-127458970D01*
X108984656Y-127450619D01*
X108936389Y-127440002D01*
X108889218Y-127427172D01*
X108843194Y-127412184D01*
X108798365Y-127395091D01*
X108754781Y-127375946D01*
X108712493Y-127354803D01*
X108671549Y-127331716D01*
X108632000Y-127306738D01*
X108593896Y-127279923D01*
X108557286Y-127251325D01*
X108522219Y-127220996D01*
X108488746Y-127188992D01*
X108456917Y-127155365D01*
X108426780Y-127120169D01*
X108398386Y-127083457D01*
X108371785Y-127045283D01*
X108347026Y-127005702D01*
X108324159Y-126964766D01*
X108303234Y-126922529D01*
X108284301Y-126879044D01*
X108267408Y-126834366D01*
X108252607Y-126788548D01*
X108239946Y-126741643D01*
X108229476Y-126693705D01*
X108221246Y-126644788D01*
X108215305Y-126594945D01*
X108211705Y-126544231D01*
X108210493Y-126492698D01*
X108492715Y-126492698D01*
X108493557Y-126531357D01*
X108496062Y-126569262D01*
X108500197Y-126606381D01*
X108505930Y-126642684D01*
X108513229Y-126678139D01*
X108522062Y-126712716D01*
X108532395Y-126746384D01*
X108544198Y-126779110D01*
X108557437Y-126810866D01*
X108572081Y-126841618D01*
X108588096Y-126871338D01*
X108605451Y-126899992D01*
X108624114Y-126927552D01*
X108644052Y-126953984D01*
X108665232Y-126979259D01*
X108687623Y-127003346D01*
X108711193Y-127026212D01*
X108735908Y-127047829D01*
X108761737Y-127068164D01*
X108788647Y-127087186D01*
X108816606Y-127104864D01*
X108845582Y-127121168D01*
X108875543Y-127136066D01*
X108906455Y-127149528D01*
X108938287Y-127161522D01*
X108971007Y-127172018D01*
X109004582Y-127180984D01*
X109038981Y-127188389D01*
X109074169Y-127194203D01*
X109110116Y-127198394D01*
X109146790Y-127200931D01*
X109184156Y-127201784D01*
X109221524Y-127200931D01*
X109258197Y-127198394D01*
X109294145Y-127194203D01*
X109329334Y-127188389D01*
X109363732Y-127180984D01*
X109397308Y-127172018D01*
X109430028Y-127161522D01*
X109461861Y-127149528D01*
X109492774Y-127136066D01*
X109522734Y-127121168D01*
X109551710Y-127104864D01*
X109579670Y-127087186D01*
X109606580Y-127068164D01*
X109632409Y-127047829D01*
X109657124Y-127026212D01*
X109680694Y-127003346D01*
X109703085Y-126979259D01*
X109724266Y-126953984D01*
X109744204Y-126927552D01*
X109762866Y-126899992D01*
X109780222Y-126871338D01*
X109796237Y-126841618D01*
X109810881Y-126810866D01*
X109824120Y-126779110D01*
X109835923Y-126746384D01*
X109846256Y-126712716D01*
X109855089Y-126678139D01*
X109862388Y-126642684D01*
X109868121Y-126606381D01*
X109872256Y-126569262D01*
X109874761Y-126531357D01*
X109875603Y-126492698D01*
X109874761Y-126454039D01*
X109872256Y-126416134D01*
X109868121Y-126379015D01*
X109862388Y-126342712D01*
X109855089Y-126307257D01*
X109846256Y-126272680D01*
X109835923Y-126239013D01*
X109824120Y-126206286D01*
X109810881Y-126174531D01*
X109796237Y-126143778D01*
X109780222Y-126114059D01*
X109762866Y-126085405D01*
X109744204Y-126057846D01*
X109724266Y-126031413D01*
X109703085Y-126006138D01*
X109680694Y-125982052D01*
X109657124Y-125959185D01*
X109632409Y-125937569D01*
X109606580Y-125917234D01*
X109579670Y-125898212D01*
X109551710Y-125880533D01*
X109522734Y-125864230D01*
X109492774Y-125849331D01*
X109461861Y-125835869D01*
X109430028Y-125823875D01*
X109397308Y-125813380D01*
X109363732Y-125804414D01*
X109329334Y-125797009D01*
X109294145Y-125791195D01*
X109258197Y-125787004D01*
X109221524Y-125784467D01*
X109184156Y-125783614D01*
X109146790Y-125784467D01*
X109110116Y-125787004D01*
X109074169Y-125791195D01*
X109038981Y-125797009D01*
X109004582Y-125804414D01*
X108971007Y-125813380D01*
X108938287Y-125823875D01*
X108906455Y-125835869D01*
X108875543Y-125849331D01*
X108845582Y-125864230D01*
X108816606Y-125880533D01*
X108788647Y-125898212D01*
X108761737Y-125917234D01*
X108735908Y-125937569D01*
X108711193Y-125959185D01*
X108687623Y-125982052D01*
X108665232Y-126006138D01*
X108644052Y-126031413D01*
X108624114Y-126057846D01*
X108605451Y-126085405D01*
X108588096Y-126114059D01*
X108572081Y-126143778D01*
X108557437Y-126174531D01*
X108544198Y-126206286D01*
X108532395Y-126239013D01*
X108522062Y-126272680D01*
X108513229Y-126307257D01*
X108505930Y-126342712D01*
X108500197Y-126379015D01*
X108496062Y-126416134D01*
X108493557Y-126454039D01*
X108492715Y-126492698D01*
X108210493Y-126492698D01*
X108211695Y-126441165D01*
X108215267Y-126390450D01*
X108221161Y-126340607D01*
X108229331Y-126291690D01*
X108239728Y-126243753D01*
X108252305Y-126196848D01*
X108267013Y-126151029D01*
X108283805Y-126106351D01*
X108302633Y-126062867D01*
X108323450Y-126020630D01*
X108346206Y-125979693D01*
X108370856Y-125940112D01*
X108397350Y-125901938D01*
X108425642Y-125865227D01*
X108455682Y-125830031D01*
X108487424Y-125796403D01*
X108520820Y-125764399D01*
X108555822Y-125734070D01*
X108592381Y-125705472D01*
X108630451Y-125678657D01*
X108669984Y-125653679D01*
X108710931Y-125630592D01*
X108753245Y-125609449D01*
X108796878Y-125590304D01*
X108841782Y-125573211D01*
X108887910Y-125558223D01*
X108935213Y-125545393D01*
X108983644Y-125534776D01*
X109033155Y-125526425D01*
X109083699Y-125520394D01*
X109135227Y-125516736D01*
X109187691Y-125515505D01*
X109240156Y-125516736D01*
G37*
G36*
X104164138Y-111570206D02*
G01*
X103765497Y-112254594D01*
X103546778Y-112127594D01*
X103945419Y-111443206D01*
X104164138Y-111570206D01*
G37*
G36*
X98756058Y-126379813D02*
G01*
X98756058Y-126612647D01*
X97531917Y-127208843D01*
X97531917Y-126937204D01*
X98463253Y-126496233D01*
X97531917Y-126055261D01*
X97531917Y-125783617D01*
X98756058Y-126379813D01*
G37*
G36*
X81748649Y-111376181D02*
G01*
X81526400Y-111499653D01*
X81173622Y-110864654D01*
X81395871Y-110741182D01*
X81748649Y-111376181D01*
G37*
G36*
X66205262Y-101554847D02*
G01*
X65273930Y-101995818D01*
X66205262Y-102436790D01*
X66205262Y-102708429D01*
X64981124Y-102112235D01*
X64981124Y-101879402D01*
X66205262Y-101283207D01*
X66205262Y-101554847D01*
G37*
G36*
X62719820Y-125822422D02*
G01*
X62289431Y-125822422D01*
X62289431Y-127434617D01*
X62000154Y-127434617D01*
X62000154Y-125822422D01*
X61569764Y-125822422D01*
X61569764Y-125550786D01*
X62719820Y-125550786D01*
X62719820Y-125822422D01*
G37*
G36*
X134273709Y-102352124D02*
G01*
X134273709Y-101050374D01*
X134562990Y-101050374D01*
X134562990Y-103047096D01*
X133197741Y-101618346D01*
X133197741Y-102934206D01*
X132911995Y-102934206D01*
X132908465Y-102930679D01*
X132908465Y-100923374D01*
X134273709Y-102352124D01*
G37*
G36*
X87005034Y-126817257D02*
G01*
X85780895Y-126817257D01*
X85780895Y-126580896D01*
X87005034Y-126580896D01*
X87005034Y-126817257D01*
G37*
G36*
X97965836Y-117733232D02*
G01*
X97743587Y-117856703D01*
X97390809Y-117221701D01*
X97613058Y-117098230D01*
X97965836Y-117733232D01*
G37*
G36*
X67955039Y-101554847D02*
G01*
X67023707Y-101995818D01*
X67955039Y-102436790D01*
X67955039Y-102708429D01*
X66730901Y-102112235D01*
X66730901Y-101879402D01*
X67955039Y-101283207D01*
X67955039Y-101554847D01*
G37*
G36*
X114653227Y-125552154D02*
G01*
X114691555Y-125553922D01*
X114728178Y-125556461D01*
X114763188Y-125559805D01*
X114796680Y-125563992D01*
X114828745Y-125569057D01*
X114859477Y-125575037D01*
X114888968Y-125581967D01*
X114917313Y-125589885D01*
X114944603Y-125598826D01*
X114970932Y-125608826D01*
X114996394Y-125619922D01*
X115021080Y-125632149D01*
X115045084Y-125645544D01*
X115068498Y-125660143D01*
X115087138Y-125673282D01*
X115104713Y-125686877D01*
X115121255Y-125700887D01*
X115136794Y-125715271D01*
X115151361Y-125729988D01*
X115164988Y-125744998D01*
X115177706Y-125760260D01*
X115189545Y-125775732D01*
X115200536Y-125791376D01*
X115210711Y-125807149D01*
X115228736Y-125838922D01*
X115243867Y-125870727D01*
X115256352Y-125902236D01*
X115266439Y-125933126D01*
X115274377Y-125963070D01*
X115280412Y-125991743D01*
X115284795Y-126018819D01*
X115287771Y-126043972D01*
X115289590Y-126066878D01*
X115290748Y-126104644D01*
X115290264Y-126129891D01*
X115288825Y-126154691D01*
X115286443Y-126179033D01*
X115283134Y-126202904D01*
X115278913Y-126226292D01*
X115273796Y-126249185D01*
X115267795Y-126271569D01*
X115260928Y-126293434D01*
X115253207Y-126314767D01*
X115244649Y-126335555D01*
X115235268Y-126355786D01*
X115225078Y-126375448D01*
X115214096Y-126394529D01*
X115202335Y-126413016D01*
X115189811Y-126430897D01*
X115176538Y-126448160D01*
X115162531Y-126464793D01*
X115147805Y-126480783D01*
X115132375Y-126496118D01*
X115116256Y-126510785D01*
X115099462Y-126524773D01*
X115082009Y-126538070D01*
X115063912Y-126550662D01*
X115045184Y-126562538D01*
X115005899Y-126584091D01*
X114964273Y-126602631D01*
X114920424Y-126618061D01*
X114874473Y-126630281D01*
X115460090Y-127434615D01*
X115114366Y-127434615D01*
X114574617Y-126665559D01*
X114525230Y-126665559D01*
X114525230Y-127434615D01*
X114235949Y-127434615D01*
X114235949Y-126415086D01*
X114235949Y-125818893D01*
X114525220Y-125818893D01*
X114525220Y-126415086D01*
X114613410Y-126415086D01*
X114652974Y-126414198D01*
X114679345Y-126412459D01*
X114708992Y-126409299D01*
X114741078Y-126404299D01*
X114774766Y-126397041D01*
X114809219Y-126387106D01*
X114826471Y-126381004D01*
X114843600Y-126374076D01*
X114860501Y-126366269D01*
X114877071Y-126357532D01*
X114893204Y-126347811D01*
X114908796Y-126337055D01*
X114923741Y-126325211D01*
X114937936Y-126312227D01*
X114951276Y-126298051D01*
X114963656Y-126282629D01*
X114974971Y-126265911D01*
X114985117Y-126247843D01*
X114993990Y-126228374D01*
X115001483Y-126207450D01*
X115007494Y-126185020D01*
X115011917Y-126161031D01*
X115014648Y-126135432D01*
X115015581Y-126108169D01*
X115014858Y-126084060D01*
X115012734Y-126061318D01*
X115009273Y-126039903D01*
X115004543Y-126019775D01*
X114998608Y-126000895D01*
X114991535Y-125983223D01*
X114983390Y-125966721D01*
X114974239Y-125951349D01*
X114964147Y-125937066D01*
X114953180Y-125923835D01*
X114941405Y-125911616D01*
X114928887Y-125900368D01*
X114915692Y-125890054D01*
X114901886Y-125880632D01*
X114887534Y-125872065D01*
X114872703Y-125864312D01*
X114857459Y-125857335D01*
X114841868Y-125851093D01*
X114825994Y-125845547D01*
X114809905Y-125840658D01*
X114793667Y-125836387D01*
X114777344Y-125832694D01*
X114744710Y-125826885D01*
X114712531Y-125822915D01*
X114681334Y-125820470D01*
X114651646Y-125819234D01*
X114623995Y-125818893D01*
X114525220Y-125818893D01*
X114235949Y-125818893D01*
X114235949Y-125554308D01*
X114571087Y-125554308D01*
X114571082Y-125550783D01*
X114653227Y-125552154D01*
G37*
G36*
X91612307Y-110889344D02*
G01*
X91259529Y-111524343D01*
X91037280Y-111400871D01*
X91390058Y-110765872D01*
X91612307Y-110889344D01*
G37*
G36*
X75398647Y-117204065D02*
G01*
X75045869Y-117839067D01*
X74823620Y-117715595D01*
X75176398Y-117080593D01*
X75398647Y-117204065D01*
G37*
G36*
X88800670Y-115955232D02*
G01*
X88447892Y-116590232D01*
X88225645Y-116466760D01*
X88578421Y-115831761D01*
X88800670Y-115955232D01*
G37*
G36*
X84560284Y-116456178D02*
G01*
X84338035Y-116579650D01*
X83985257Y-115944650D01*
X84207506Y-115821179D01*
X84560284Y-116456178D01*
G37*
G36*
X100191864Y-118396452D02*
G01*
X99793224Y-119080842D01*
X99574504Y-118953840D01*
X99973145Y-118269451D01*
X100191864Y-118396452D01*
G37*
G36*
X105744582Y-109393566D02*
G01*
X105525863Y-109520566D01*
X105444727Y-109379455D01*
X105363580Y-109520566D01*
X105141336Y-109393566D01*
X105444727Y-108874982D01*
X105744582Y-109393566D01*
G37*
G36*
X89502699Y-114688759D02*
G01*
X89149921Y-115323759D01*
X88927671Y-115200287D01*
X89280449Y-114565288D01*
X89502699Y-114688759D01*
G37*
G36*
X107896529Y-113080092D02*
G01*
X107677809Y-113207092D01*
X107317971Y-112593258D01*
X107536691Y-112466258D01*
X107896529Y-113080092D01*
G37*
G36*
X82454203Y-112646180D02*
G01*
X82231956Y-112769652D01*
X81879178Y-112134652D01*
X82101427Y-112011181D01*
X82454203Y-112646180D01*
G37*
G36*
X101779363Y-115669481D02*
G01*
X101380722Y-116350341D01*
X101162003Y-116223342D01*
X101560644Y-115542481D01*
X101779363Y-115669481D01*
G37*
G36*
X78206755Y-112138178D02*
G01*
X77853977Y-112773178D01*
X77631727Y-112649706D01*
X77984506Y-112014707D01*
X78206755Y-112138178D01*
G37*
M02*
