%TF.GenerationSoftware,KiCad,Pcbnew,8.0.2*%
%TF.CreationDate,2025-03-16T16:58:37-07:00*%
%TF.ProjectId,Exits-1U,45786974-732d-4315-952e-6b696361645f,2.1*%
%TF.SameCoordinates,Original*%
%TF.FileFunction,Drillmap*%
%TF.FilePolarity,Positive*%
%FSLAX45Y45*%
G04 Gerber Fmt 4.5, Leading zero omitted, Abs format (unit mm)*
G04 Created by KiCad (PCBNEW 8.0.2) date 2025-03-16 16:58:37*
%MOMM*%
%LPD*%
G01*
G04 APERTURE LIST*
%ADD10C,0.025400*%
%ADD11C,0.200000*%
%ADD12C,0.100000*%
%ADD13C,0.101600*%
%ADD14C,0.110000*%
G04 APERTURE END LIST*
D10*
X5207000Y-10287000D02*
X13462000Y-10287000D01*
X13462000Y-12573000D01*
X5207000Y-12573000D01*
X5207000Y-10287000D01*
X5207000Y-12700000D02*
X15113000Y-12700000D01*
X15113000Y-14986000D01*
X5207000Y-14986000D01*
X5207000Y-12700000D01*
D11*
D12*
X6935470Y-11400790D02*
X6973570Y-11438890D01*
X6973570Y-11400790D02*
X6935470Y-11438890D01*
X6955790Y-10323830D02*
X6993890Y-10361930D01*
X6993890Y-10323830D02*
X6955790Y-10361930D01*
X7585710Y-12457430D02*
X7623810Y-12495530D01*
X7623810Y-12457430D02*
X7585710Y-12495530D01*
X7595870Y-11400790D02*
X7633970Y-11438890D01*
X7633970Y-11400790D02*
X7595870Y-11438890D01*
X7682230Y-13757910D02*
X7720330Y-13796010D01*
X7720330Y-13757910D02*
X7682230Y-13796010D01*
X7849870Y-14118590D02*
X7887970Y-14156690D01*
X7887970Y-14118590D02*
X7849870Y-14156690D01*
X7981950Y-13315950D02*
X8020050Y-13354050D01*
X8020050Y-13315950D02*
X7981950Y-13354050D01*
X8114030Y-13336270D02*
X8152130Y-13374370D01*
X8152130Y-13336270D02*
X8114030Y-13374370D01*
X8210550Y-11400790D02*
X8248650Y-11438890D01*
X8248650Y-11400790D02*
X8210550Y-11438890D01*
X8225790Y-10323830D02*
X8263890Y-10361930D01*
X8263890Y-10323830D02*
X8225790Y-10361930D01*
X8233410Y-13356590D02*
X8271510Y-13394690D01*
X8271510Y-13356590D02*
X8233410Y-13394690D01*
X8233410Y-14311630D02*
X8271510Y-14349730D01*
X8271510Y-14311630D02*
X8233410Y-14349730D01*
X8362950Y-14296390D02*
X8401050Y-14334490D01*
X8401050Y-14296390D02*
X8362950Y-14334490D01*
X8469630Y-13356590D02*
X8507730Y-13394690D01*
X8507730Y-13356590D02*
X8469630Y-13394690D01*
X8530590Y-14184630D02*
X8568690Y-14222730D01*
X8568690Y-14184630D02*
X8530590Y-14222730D01*
X8891270Y-12457430D02*
X8929370Y-12495530D01*
X8929370Y-12457430D02*
X8891270Y-12495530D01*
X8901430Y-11400790D02*
X8939530Y-11438890D01*
X8939530Y-11400790D02*
X8901430Y-11438890D01*
X9373870Y-14331950D02*
X9411970Y-14370050D01*
X9411970Y-14331950D02*
X9373870Y-14370050D01*
X9378950Y-13315950D02*
X9417050Y-13354050D01*
X9417050Y-13315950D02*
X9378950Y-13354050D01*
X9511030Y-10323830D02*
X9549130Y-10361930D01*
X9549130Y-10323830D02*
X9511030Y-10361930D01*
X9531350Y-13346430D02*
X9569450Y-13384530D01*
X9569450Y-13346430D02*
X9531350Y-13384530D01*
X9541510Y-11400790D02*
X9579610Y-11438890D01*
X9579610Y-11400790D02*
X9541510Y-11438890D01*
X9749790Y-14306550D02*
X9787890Y-14344650D01*
X9787890Y-14306550D02*
X9749790Y-14344650D01*
X10161270Y-12457430D02*
X10199370Y-12495530D01*
X10199370Y-12457430D02*
X10161270Y-12495530D01*
X10166350Y-11400790D02*
X10204450Y-11438890D01*
X10204450Y-11400790D02*
X10166350Y-11438890D01*
X10666340Y-13341350D02*
X10704440Y-13379450D01*
X10704440Y-13341350D02*
X10666340Y-13379450D01*
X10791190Y-10323830D02*
X10829290Y-10361930D01*
X10829290Y-10323830D02*
X10791190Y-10361930D01*
X10796270Y-11400790D02*
X10834370Y-11438890D01*
X10834370Y-11400790D02*
X10796270Y-11438890D01*
X10862108Y-13412268D02*
X10900208Y-13450368D01*
X10900208Y-13412268D02*
X10862108Y-13450368D01*
X11014710Y-14306550D02*
X11052810Y-14344650D01*
X11052810Y-14306550D02*
X11014710Y-14344650D01*
X11163630Y-12936550D02*
X11201730Y-12974650D01*
X11201730Y-12936550D02*
X11163630Y-12974650D01*
X11213032Y-13554710D02*
X11251132Y-13592810D01*
X11251132Y-13554710D02*
X11213032Y-13592810D01*
X11883390Y-13437870D02*
X11921490Y-13475970D01*
X11921490Y-13437870D02*
X11883390Y-13475970D01*
X12045950Y-13346430D02*
X12084050Y-13384530D01*
X12084050Y-13346430D02*
X12045950Y-13384530D01*
X12157710Y-13839190D02*
X12195810Y-13877290D01*
X12195810Y-13839190D02*
X12157710Y-13877290D01*
X12338440Y-14280075D02*
X12376540Y-14318175D01*
X12376540Y-14280075D02*
X12338440Y-14318175D01*
X12345670Y-11487150D02*
X12383770Y-11525250D01*
X12383770Y-11487150D02*
X12345670Y-11525250D01*
X12442190Y-14733270D02*
X12480290Y-14771370D01*
X12480290Y-14733270D02*
X12442190Y-14771370D01*
X12606020Y-13934440D02*
X12644120Y-13972540D01*
X12644120Y-13934440D02*
X12606020Y-13972540D01*
X8808080Y-13443680D02*
G75*
G02*
X8728080Y-13443680I-40000J0D01*
G01*
X8728080Y-13443680D02*
G75*
G02*
X8808080Y-13443680I40000J0D01*
G01*
X8808080Y-14203680D02*
G75*
G02*
X8728080Y-14203680I-40000J0D01*
G01*
X8728080Y-14203680D02*
G75*
G02*
X8808080Y-14203680I40000J0D01*
G01*
X9062080Y-13443680D02*
G75*
G02*
X8982080Y-13443680I-40000J0D01*
G01*
X8982080Y-13443680D02*
G75*
G02*
X9062080Y-13443680I40000J0D01*
G01*
X9062080Y-14203680D02*
G75*
G02*
X8982080Y-14203680I-40000J0D01*
G01*
X8982080Y-14203680D02*
G75*
G02*
X9062080Y-14203680I40000J0D01*
G01*
X5461000Y-10491000D02*
X5461000Y-10591000D01*
X5411000Y-10541000D02*
X5511000Y-10541000D01*
X5461000Y-10745000D02*
X5461000Y-10845000D01*
X5411000Y-10795000D02*
X5511000Y-10795000D01*
X5461000Y-10999000D02*
X5461000Y-11099000D01*
X5411000Y-11049000D02*
X5511000Y-11049000D01*
X5461000Y-11253000D02*
X5461000Y-11353000D01*
X5411000Y-11303000D02*
X5511000Y-11303000D01*
X5466080Y-12904000D02*
X5466080Y-13004000D01*
X5416080Y-12954000D02*
X5516080Y-12954000D01*
X5466080Y-13158000D02*
X5466080Y-13258000D01*
X5416080Y-13208000D02*
X5516080Y-13208000D01*
X5466080Y-13412000D02*
X5466080Y-13512000D01*
X5416080Y-13462000D02*
X5516080Y-13462000D01*
X5466080Y-13666000D02*
X5466080Y-13766000D01*
X5416080Y-13716000D02*
X5516080Y-13716000D01*
X6121400Y-13279920D02*
X6121400Y-13379920D01*
X6071400Y-13329920D02*
X6171400Y-13329920D01*
X6121400Y-13533920D02*
X6121400Y-13633920D01*
X6071400Y-13583920D02*
X6171400Y-13583920D01*
X6121400Y-13787920D02*
X6121400Y-13887920D01*
X6071400Y-13837920D02*
X6171400Y-13837920D01*
X6121400Y-14041920D02*
X6121400Y-14141920D01*
X6071400Y-14091920D02*
X6171400Y-14091920D01*
X6121400Y-14295920D02*
X6121400Y-14395920D01*
X6071400Y-14345920D02*
X6171400Y-14345920D01*
X6375400Y-13279920D02*
X6375400Y-13379920D01*
X6325400Y-13329920D02*
X6425400Y-13329920D01*
X6375400Y-13533920D02*
X6375400Y-13633920D01*
X6325400Y-13583920D02*
X6425400Y-13583920D01*
X6375400Y-13787920D02*
X6375400Y-13887920D01*
X6325400Y-13837920D02*
X6425400Y-13837920D01*
X6375400Y-14041920D02*
X6375400Y-14141920D01*
X6325400Y-14091920D02*
X6425400Y-14091920D01*
X6375400Y-14295920D02*
X6375400Y-14395920D01*
X6325400Y-14345920D02*
X6425400Y-14345920D01*
X11420340Y-13540500D02*
X11420340Y-13640500D01*
X11370340Y-13590500D02*
X11470340Y-13590500D01*
X11420340Y-13794500D02*
X11420340Y-13894500D01*
X11370340Y-13844500D02*
X11470340Y-13844500D01*
X11420340Y-14048500D02*
X11420340Y-14148500D01*
X11370340Y-14098500D02*
X11470340Y-14098500D01*
X11674340Y-13540500D02*
X11674340Y-13640500D01*
X11624340Y-13590500D02*
X11724340Y-13590500D01*
X11674340Y-13794500D02*
X11674340Y-13894500D01*
X11624340Y-13844500D02*
X11724340Y-13844500D01*
X11674340Y-14048500D02*
X11674340Y-14148500D01*
X11624340Y-14098500D02*
X11724340Y-14098500D01*
X12069000Y-11622000D02*
X12069000Y-11722000D01*
X12019000Y-11672000D02*
X12119000Y-11672000D01*
X12069000Y-11872000D02*
X12069000Y-11972000D01*
X12019000Y-11922000D02*
X12119000Y-11922000D01*
X12319000Y-11622000D02*
X12319000Y-11722000D01*
X12269000Y-11672000D02*
X12369000Y-11672000D01*
X12319000Y-11872000D02*
X12319000Y-11972000D01*
X12269000Y-11922000D02*
X12369000Y-11922000D01*
X12569000Y-11622000D02*
X12569000Y-11722000D01*
X12519000Y-11672000D02*
X12619000Y-11672000D01*
X12569000Y-11872000D02*
X12569000Y-11972000D01*
X12519000Y-11922000D02*
X12619000Y-11922000D01*
X13274040Y-10907560D02*
X13274040Y-11007560D01*
X13224040Y-10957560D02*
X13324040Y-10957560D01*
X13274040Y-11161560D02*
X13274040Y-11261560D01*
X13224040Y-11211560D02*
X13324040Y-11211560D01*
X13274040Y-11415560D02*
X13274040Y-11515560D01*
X13224040Y-11465560D02*
X13324040Y-11465560D01*
X13274040Y-11669560D02*
X13274040Y-11769560D01*
X13224040Y-11719560D02*
X13324040Y-11719560D01*
X13274040Y-11923560D02*
X13274040Y-12023560D01*
X13224040Y-11973560D02*
X13324040Y-11973560D01*
X13274040Y-12177560D02*
X13274040Y-12277560D01*
X13224040Y-12227560D02*
X13324040Y-12227560D01*
X13279120Y-13320560D02*
X13279120Y-13420560D01*
X13229120Y-13370560D02*
X13329120Y-13370560D01*
X13279120Y-13574560D02*
X13279120Y-13674560D01*
X13229120Y-13624560D02*
X13329120Y-13624560D01*
X13279120Y-13828560D02*
X13279120Y-13928560D01*
X13229120Y-13878560D02*
X13329120Y-13878560D01*
X13279120Y-14082560D02*
X13279120Y-14182560D01*
X13229120Y-14132560D02*
X13329120Y-14132560D01*
X13279120Y-14336560D02*
X13279120Y-14436560D01*
X13229120Y-14386560D02*
X13329120Y-14386560D01*
X13279120Y-14590560D02*
X13279120Y-14690560D01*
X13229120Y-14640560D02*
X13329120Y-14640560D01*
X13665440Y-13843000D02*
X13665440Y-13943000D01*
X13615440Y-13893000D02*
X13715440Y-13893000D01*
X13615440Y-13818000D02*
X13615440Y-13968000D01*
X13715440Y-13968000D02*
G75*
G02*
X13615440Y-13968000I-50000J0D01*
G01*
X13715440Y-13968000D02*
X13715440Y-13818000D01*
X13715440Y-13818000D02*
G75*
G03*
X13615440Y-13818000I-50000J0D01*
G01*
X14365440Y-13143000D02*
X14365440Y-13243000D01*
X14315440Y-13193000D02*
X14415440Y-13193000D01*
X14290440Y-13243000D02*
X14440440Y-13243000D01*
X14440440Y-13143000D02*
G75*
G02*
X14440440Y-13243000I0J-50000D01*
G01*
X14440440Y-13143000D02*
X14290440Y-13143000D01*
X14290440Y-13143000D02*
G75*
G03*
X14290440Y-13243000I0J-50000D01*
G01*
X14775040Y-14252600D02*
X14775040Y-14352600D01*
X14725040Y-14302600D02*
X14825040Y-14302600D01*
X14792717Y-14214212D02*
X14686652Y-14320277D01*
X14757363Y-14390988D02*
G75*
G02*
X14686652Y-14320277I-35355J35355D01*
G01*
X14757363Y-14390988D02*
X14863428Y-14284923D01*
X14863428Y-14284923D02*
G75*
G03*
X14792717Y-14214212I-35355J35355D01*
G01*
D13*
X5560421Y-11973921D02*
X5560421Y-11902079D01*
X5488579Y-11902079D01*
X5488579Y-11973921D01*
X5560421Y-11973921D01*
X5814421Y-11973921D02*
X5814421Y-11902079D01*
X5742579Y-11902079D01*
X5742579Y-11973921D01*
X5814421Y-11973921D01*
X6195421Y-10957921D02*
X6195421Y-10886079D01*
X6123579Y-10886079D01*
X6123579Y-10957921D01*
X6195421Y-10957921D01*
X6449421Y-10957921D02*
X6449421Y-10886079D01*
X6377579Y-10886079D01*
X6377579Y-10957921D01*
X6449421Y-10957921D01*
X6576421Y-11973921D02*
X6576421Y-11902079D01*
X6504579Y-11902079D01*
X6504579Y-11973921D01*
X6576421Y-11973921D01*
X6830421Y-11973921D02*
X6830421Y-11902079D01*
X6758579Y-11902079D01*
X6758579Y-11973921D01*
X6830421Y-11973921D01*
X7084421Y-11973921D02*
X7084421Y-11902079D01*
X7012579Y-11902079D01*
X7012579Y-11973921D01*
X7084421Y-11973921D01*
X7211421Y-10957921D02*
X7211421Y-10886079D01*
X7139579Y-10886079D01*
X7139579Y-10957921D01*
X7211421Y-10957921D01*
X7465421Y-10957921D02*
X7465421Y-10886079D01*
X7393579Y-10886079D01*
X7393579Y-10957921D01*
X7465421Y-10957921D01*
X7719421Y-10957921D02*
X7719421Y-10886079D01*
X7647579Y-10886079D01*
X7647579Y-10957921D01*
X7719421Y-10957921D01*
X7846421Y-11973921D02*
X7846421Y-11902079D01*
X7774579Y-11902079D01*
X7774579Y-11973921D01*
X7846421Y-11973921D01*
X8100421Y-11973921D02*
X8100421Y-11902079D01*
X8028579Y-11902079D01*
X8028579Y-11973921D01*
X8100421Y-11973921D01*
X8354421Y-11973921D02*
X8354421Y-11902079D01*
X8282579Y-11902079D01*
X8282579Y-11973921D01*
X8354421Y-11973921D01*
X8481421Y-10957921D02*
X8481421Y-10886079D01*
X8409579Y-10886079D01*
X8409579Y-10957921D01*
X8481421Y-10957921D01*
X8735201Y-10957921D02*
X8735201Y-10886079D01*
X8663359Y-10886079D01*
X8663359Y-10957921D01*
X8735201Y-10957921D01*
X8989201Y-10957921D02*
X8989201Y-10886079D01*
X8917359Y-10886079D01*
X8917359Y-10957921D01*
X8989201Y-10957921D01*
X9116421Y-11973921D02*
X9116421Y-11902079D01*
X9044579Y-11902079D01*
X9044579Y-11973921D01*
X9116421Y-11973921D01*
X9370201Y-11973921D02*
X9370201Y-11902079D01*
X9298359Y-11902079D01*
X9298359Y-11973921D01*
X9370201Y-11973921D01*
X9624201Y-11973921D02*
X9624201Y-11902079D01*
X9552359Y-11902079D01*
X9552359Y-11973921D01*
X9624201Y-11973921D01*
X9751201Y-10957921D02*
X9751201Y-10886079D01*
X9679359Y-10886079D01*
X9679359Y-10957921D01*
X9751201Y-10957921D01*
X10005421Y-10957921D02*
X10005421Y-10886079D01*
X9933579Y-10886079D01*
X9933579Y-10957921D01*
X10005421Y-10957921D01*
X10259421Y-10957921D02*
X10259421Y-10886079D01*
X10187579Y-10886079D01*
X10187579Y-10957921D01*
X10259421Y-10957921D01*
X10386201Y-11973921D02*
X10386201Y-11902079D01*
X10314359Y-11902079D01*
X10314359Y-11973921D01*
X10386201Y-11973921D01*
X10645501Y-11973921D02*
X10645501Y-11902079D01*
X10573659Y-11902079D01*
X10573659Y-11973921D01*
X10645501Y-11973921D01*
X10899501Y-11973921D02*
X10899501Y-11902079D01*
X10827659Y-11902079D01*
X10827659Y-11973921D01*
X10899501Y-11973921D01*
X11021421Y-10957921D02*
X11021421Y-10886079D01*
X10949579Y-10886079D01*
X10949579Y-10957921D01*
X11021421Y-10957921D01*
X11661501Y-11973921D02*
X11661501Y-11902079D01*
X11589659Y-11902079D01*
X11589659Y-11973921D01*
X11661501Y-11973921D01*
D14*
X11844000Y-10977000D02*
X11899000Y-10922000D01*
X11844000Y-10867000D01*
X11789000Y-10922000D01*
X11844000Y-10977000D01*
D12*
X11899000Y-10957000D02*
X11899000Y-10887000D01*
X11789000Y-10887000D02*
G75*
G02*
X11899000Y-10887000I55000J0D01*
G01*
X11789000Y-10887000D02*
X11789000Y-10957000D01*
X11789000Y-10957000D02*
G75*
G03*
X11899000Y-10957000I55000J0D01*
G01*
D14*
X12794000Y-10977000D02*
X12849000Y-10922000D01*
X12794000Y-10867000D01*
X12739000Y-10922000D01*
X12794000Y-10977000D01*
D12*
X12849000Y-10957000D02*
X12849000Y-10887000D01*
X12739000Y-10887000D02*
G75*
G02*
X12849000Y-10887000I55000J0D01*
G01*
X12739000Y-10887000D02*
X12739000Y-10957000D01*
X12739000Y-10957000D02*
G75*
G03*
X12849000Y-10957000I55000J0D01*
G01*
D11*
X5466507Y-15298754D02*
X5466507Y-15098754D01*
X5466507Y-15098754D02*
X5514126Y-15098754D01*
X5514126Y-15098754D02*
X5542697Y-15108278D01*
X5542697Y-15108278D02*
X5561745Y-15127325D01*
X5561745Y-15127325D02*
X5571269Y-15146373D01*
X5571269Y-15146373D02*
X5580793Y-15184468D01*
X5580793Y-15184468D02*
X5580793Y-15213039D01*
X5580793Y-15213039D02*
X5571269Y-15251135D01*
X5571269Y-15251135D02*
X5561745Y-15270182D01*
X5561745Y-15270182D02*
X5542697Y-15289230D01*
X5542697Y-15289230D02*
X5514126Y-15298754D01*
X5514126Y-15298754D02*
X5466507Y-15298754D01*
X5666507Y-15298754D02*
X5666507Y-15165420D01*
X5666507Y-15203516D02*
X5676031Y-15184468D01*
X5676031Y-15184468D02*
X5685554Y-15174944D01*
X5685554Y-15174944D02*
X5704602Y-15165420D01*
X5704602Y-15165420D02*
X5723650Y-15165420D01*
X5790316Y-15298754D02*
X5790316Y-15165420D01*
X5790316Y-15098754D02*
X5780792Y-15108278D01*
X5780792Y-15108278D02*
X5790316Y-15117801D01*
X5790316Y-15117801D02*
X5799840Y-15108278D01*
X5799840Y-15108278D02*
X5790316Y-15098754D01*
X5790316Y-15098754D02*
X5790316Y-15117801D01*
X5914126Y-15298754D02*
X5895078Y-15289230D01*
X5895078Y-15289230D02*
X5885554Y-15270182D01*
X5885554Y-15270182D02*
X5885554Y-15098754D01*
X6018888Y-15298754D02*
X5999840Y-15289230D01*
X5999840Y-15289230D02*
X5990316Y-15270182D01*
X5990316Y-15270182D02*
X5990316Y-15098754D01*
X6247459Y-15298754D02*
X6247459Y-15098754D01*
X6247459Y-15098754D02*
X6314126Y-15241611D01*
X6314126Y-15241611D02*
X6380792Y-15098754D01*
X6380792Y-15098754D02*
X6380792Y-15298754D01*
X6561745Y-15298754D02*
X6561745Y-15193992D01*
X6561745Y-15193992D02*
X6552221Y-15174944D01*
X6552221Y-15174944D02*
X6533173Y-15165420D01*
X6533173Y-15165420D02*
X6495078Y-15165420D01*
X6495078Y-15165420D02*
X6476031Y-15174944D01*
X6561745Y-15289230D02*
X6542697Y-15298754D01*
X6542697Y-15298754D02*
X6495078Y-15298754D01*
X6495078Y-15298754D02*
X6476031Y-15289230D01*
X6476031Y-15289230D02*
X6466507Y-15270182D01*
X6466507Y-15270182D02*
X6466507Y-15251135D01*
X6466507Y-15251135D02*
X6476031Y-15232087D01*
X6476031Y-15232087D02*
X6495078Y-15222563D01*
X6495078Y-15222563D02*
X6542697Y-15222563D01*
X6542697Y-15222563D02*
X6561745Y-15213039D01*
X6656983Y-15165420D02*
X6656983Y-15365420D01*
X6656983Y-15174944D02*
X6676031Y-15165420D01*
X6676031Y-15165420D02*
X6714126Y-15165420D01*
X6714126Y-15165420D02*
X6733173Y-15174944D01*
X6733173Y-15174944D02*
X6742697Y-15184468D01*
X6742697Y-15184468D02*
X6752221Y-15203516D01*
X6752221Y-15203516D02*
X6752221Y-15260658D01*
X6752221Y-15260658D02*
X6742697Y-15279706D01*
X6742697Y-15279706D02*
X6733173Y-15289230D01*
X6733173Y-15289230D02*
X6714126Y-15298754D01*
X6714126Y-15298754D02*
X6676031Y-15298754D01*
X6676031Y-15298754D02*
X6656983Y-15289230D01*
X6837935Y-15279706D02*
X6847459Y-15289230D01*
X6847459Y-15289230D02*
X6837935Y-15298754D01*
X6837935Y-15298754D02*
X6828412Y-15289230D01*
X6828412Y-15289230D02*
X6837935Y-15279706D01*
X6837935Y-15279706D02*
X6837935Y-15298754D01*
X6837935Y-15174944D02*
X6847459Y-15184468D01*
X6847459Y-15184468D02*
X6837935Y-15193992D01*
X6837935Y-15193992D02*
X6828412Y-15184468D01*
X6828412Y-15184468D02*
X6837935Y-15174944D01*
X6837935Y-15174944D02*
X6837935Y-15193992D01*
D12*
X5167630Y-15608220D02*
X5205730Y-15646320D01*
X5205730Y-15608220D02*
X5167630Y-15646320D01*
D11*
X5504602Y-15518754D02*
X5523650Y-15518754D01*
X5523650Y-15518754D02*
X5542697Y-15528278D01*
X5542697Y-15528278D02*
X5552221Y-15537801D01*
X5552221Y-15537801D02*
X5561745Y-15556849D01*
X5561745Y-15556849D02*
X5571269Y-15594944D01*
X5571269Y-15594944D02*
X5571269Y-15642563D01*
X5571269Y-15642563D02*
X5561745Y-15680658D01*
X5561745Y-15680658D02*
X5552221Y-15699706D01*
X5552221Y-15699706D02*
X5542697Y-15709230D01*
X5542697Y-15709230D02*
X5523650Y-15718754D01*
X5523650Y-15718754D02*
X5504602Y-15718754D01*
X5504602Y-15718754D02*
X5485554Y-15709230D01*
X5485554Y-15709230D02*
X5476031Y-15699706D01*
X5476031Y-15699706D02*
X5466507Y-15680658D01*
X5466507Y-15680658D02*
X5456983Y-15642563D01*
X5456983Y-15642563D02*
X5456983Y-15594944D01*
X5456983Y-15594944D02*
X5466507Y-15556849D01*
X5466507Y-15556849D02*
X5476031Y-15537801D01*
X5476031Y-15537801D02*
X5485554Y-15528278D01*
X5485554Y-15528278D02*
X5504602Y-15518754D01*
X5656983Y-15699706D02*
X5666507Y-15709230D01*
X5666507Y-15709230D02*
X5656983Y-15718754D01*
X5656983Y-15718754D02*
X5647459Y-15709230D01*
X5647459Y-15709230D02*
X5656983Y-15699706D01*
X5656983Y-15699706D02*
X5656983Y-15718754D01*
X5733173Y-15518754D02*
X5856983Y-15518754D01*
X5856983Y-15518754D02*
X5790316Y-15594944D01*
X5790316Y-15594944D02*
X5818888Y-15594944D01*
X5818888Y-15594944D02*
X5837935Y-15604468D01*
X5837935Y-15604468D02*
X5847459Y-15613992D01*
X5847459Y-15613992D02*
X5856983Y-15633039D01*
X5856983Y-15633039D02*
X5856983Y-15680658D01*
X5856983Y-15680658D02*
X5847459Y-15699706D01*
X5847459Y-15699706D02*
X5837935Y-15709230D01*
X5837935Y-15709230D02*
X5818888Y-15718754D01*
X5818888Y-15718754D02*
X5761745Y-15718754D01*
X5761745Y-15718754D02*
X5742697Y-15709230D01*
X5742697Y-15709230D02*
X5733173Y-15699706D01*
X5971269Y-15604468D02*
X5952221Y-15594944D01*
X5952221Y-15594944D02*
X5942697Y-15585420D01*
X5942697Y-15585420D02*
X5933173Y-15566373D01*
X5933173Y-15566373D02*
X5933173Y-15556849D01*
X5933173Y-15556849D02*
X5942697Y-15537801D01*
X5942697Y-15537801D02*
X5952221Y-15528278D01*
X5952221Y-15528278D02*
X5971269Y-15518754D01*
X5971269Y-15518754D02*
X6009364Y-15518754D01*
X6009364Y-15518754D02*
X6028412Y-15528278D01*
X6028412Y-15528278D02*
X6037935Y-15537801D01*
X6037935Y-15537801D02*
X6047459Y-15556849D01*
X6047459Y-15556849D02*
X6047459Y-15566373D01*
X6047459Y-15566373D02*
X6037935Y-15585420D01*
X6037935Y-15585420D02*
X6028412Y-15594944D01*
X6028412Y-15594944D02*
X6009364Y-15604468D01*
X6009364Y-15604468D02*
X5971269Y-15604468D01*
X5971269Y-15604468D02*
X5952221Y-15613992D01*
X5952221Y-15613992D02*
X5942697Y-15623516D01*
X5942697Y-15623516D02*
X5933173Y-15642563D01*
X5933173Y-15642563D02*
X5933173Y-15680658D01*
X5933173Y-15680658D02*
X5942697Y-15699706D01*
X5942697Y-15699706D02*
X5952221Y-15709230D01*
X5952221Y-15709230D02*
X5971269Y-15718754D01*
X5971269Y-15718754D02*
X6009364Y-15718754D01*
X6009364Y-15718754D02*
X6028412Y-15709230D01*
X6028412Y-15709230D02*
X6037935Y-15699706D01*
X6037935Y-15699706D02*
X6047459Y-15680658D01*
X6047459Y-15680658D02*
X6047459Y-15642563D01*
X6047459Y-15642563D02*
X6037935Y-15623516D01*
X6037935Y-15623516D02*
X6028412Y-15613992D01*
X6028412Y-15613992D02*
X6009364Y-15604468D01*
X6237935Y-15718754D02*
X6123650Y-15718754D01*
X6180792Y-15718754D02*
X6180792Y-15518754D01*
X6180792Y-15518754D02*
X6161745Y-15547325D01*
X6161745Y-15547325D02*
X6142697Y-15566373D01*
X6142697Y-15566373D02*
X6123650Y-15575897D01*
X6323650Y-15718754D02*
X6323650Y-15585420D01*
X6323650Y-15604468D02*
X6333173Y-15594944D01*
X6333173Y-15594944D02*
X6352221Y-15585420D01*
X6352221Y-15585420D02*
X6380793Y-15585420D01*
X6380793Y-15585420D02*
X6399840Y-15594944D01*
X6399840Y-15594944D02*
X6409364Y-15613992D01*
X6409364Y-15613992D02*
X6409364Y-15718754D01*
X6409364Y-15613992D02*
X6418888Y-15594944D01*
X6418888Y-15594944D02*
X6437935Y-15585420D01*
X6437935Y-15585420D02*
X6466507Y-15585420D01*
X6466507Y-15585420D02*
X6485554Y-15594944D01*
X6485554Y-15594944D02*
X6495078Y-15613992D01*
X6495078Y-15613992D02*
X6495078Y-15718754D01*
X6590316Y-15718754D02*
X6590316Y-15585420D01*
X6590316Y-15604468D02*
X6599840Y-15594944D01*
X6599840Y-15594944D02*
X6618888Y-15585420D01*
X6618888Y-15585420D02*
X6647459Y-15585420D01*
X6647459Y-15585420D02*
X6666507Y-15594944D01*
X6666507Y-15594944D02*
X6676031Y-15613992D01*
X6676031Y-15613992D02*
X6676031Y-15718754D01*
X6676031Y-15613992D02*
X6685554Y-15594944D01*
X6685554Y-15594944D02*
X6704602Y-15585420D01*
X6704602Y-15585420D02*
X6733173Y-15585420D01*
X6733173Y-15585420D02*
X6752221Y-15594944D01*
X6752221Y-15594944D02*
X6761745Y-15613992D01*
X6761745Y-15613992D02*
X6761745Y-15718754D01*
X7152221Y-15509230D02*
X6980793Y-15766373D01*
X7409364Y-15518754D02*
X7428412Y-15518754D01*
X7428412Y-15518754D02*
X7447459Y-15528278D01*
X7447459Y-15528278D02*
X7456983Y-15537801D01*
X7456983Y-15537801D02*
X7466507Y-15556849D01*
X7466507Y-15556849D02*
X7476031Y-15594944D01*
X7476031Y-15594944D02*
X7476031Y-15642563D01*
X7476031Y-15642563D02*
X7466507Y-15680658D01*
X7466507Y-15680658D02*
X7456983Y-15699706D01*
X7456983Y-15699706D02*
X7447459Y-15709230D01*
X7447459Y-15709230D02*
X7428412Y-15718754D01*
X7428412Y-15718754D02*
X7409364Y-15718754D01*
X7409364Y-15718754D02*
X7390316Y-15709230D01*
X7390316Y-15709230D02*
X7380793Y-15699706D01*
X7380793Y-15699706D02*
X7371269Y-15680658D01*
X7371269Y-15680658D02*
X7361745Y-15642563D01*
X7361745Y-15642563D02*
X7361745Y-15594944D01*
X7361745Y-15594944D02*
X7371269Y-15556849D01*
X7371269Y-15556849D02*
X7380793Y-15537801D01*
X7380793Y-15537801D02*
X7390316Y-15528278D01*
X7390316Y-15528278D02*
X7409364Y-15518754D01*
X7561745Y-15699706D02*
X7571269Y-15709230D01*
X7571269Y-15709230D02*
X7561745Y-15718754D01*
X7561745Y-15718754D02*
X7552221Y-15709230D01*
X7552221Y-15709230D02*
X7561745Y-15699706D01*
X7561745Y-15699706D02*
X7561745Y-15718754D01*
X7695078Y-15518754D02*
X7714126Y-15518754D01*
X7714126Y-15518754D02*
X7733174Y-15528278D01*
X7733174Y-15528278D02*
X7742697Y-15537801D01*
X7742697Y-15537801D02*
X7752221Y-15556849D01*
X7752221Y-15556849D02*
X7761745Y-15594944D01*
X7761745Y-15594944D02*
X7761745Y-15642563D01*
X7761745Y-15642563D02*
X7752221Y-15680658D01*
X7752221Y-15680658D02*
X7742697Y-15699706D01*
X7742697Y-15699706D02*
X7733174Y-15709230D01*
X7733174Y-15709230D02*
X7714126Y-15718754D01*
X7714126Y-15718754D02*
X7695078Y-15718754D01*
X7695078Y-15718754D02*
X7676031Y-15709230D01*
X7676031Y-15709230D02*
X7666507Y-15699706D01*
X7666507Y-15699706D02*
X7656983Y-15680658D01*
X7656983Y-15680658D02*
X7647459Y-15642563D01*
X7647459Y-15642563D02*
X7647459Y-15594944D01*
X7647459Y-15594944D02*
X7656983Y-15556849D01*
X7656983Y-15556849D02*
X7666507Y-15537801D01*
X7666507Y-15537801D02*
X7676031Y-15528278D01*
X7676031Y-15528278D02*
X7695078Y-15518754D01*
X7952221Y-15718754D02*
X7837936Y-15718754D01*
X7895078Y-15718754D02*
X7895078Y-15518754D01*
X7895078Y-15518754D02*
X7876031Y-15547325D01*
X7876031Y-15547325D02*
X7856983Y-15566373D01*
X7856983Y-15566373D02*
X7837936Y-15575897D01*
X8133174Y-15518754D02*
X8037936Y-15518754D01*
X8037936Y-15518754D02*
X8028412Y-15613992D01*
X8028412Y-15613992D02*
X8037936Y-15604468D01*
X8037936Y-15604468D02*
X8056983Y-15594944D01*
X8056983Y-15594944D02*
X8104602Y-15594944D01*
X8104602Y-15594944D02*
X8123650Y-15604468D01*
X8123650Y-15604468D02*
X8133174Y-15613992D01*
X8133174Y-15613992D02*
X8142697Y-15633039D01*
X8142697Y-15633039D02*
X8142697Y-15680658D01*
X8142697Y-15680658D02*
X8133174Y-15699706D01*
X8133174Y-15699706D02*
X8123650Y-15709230D01*
X8123650Y-15709230D02*
X8104602Y-15718754D01*
X8104602Y-15718754D02*
X8056983Y-15718754D01*
X8056983Y-15718754D02*
X8037936Y-15709230D01*
X8037936Y-15709230D02*
X8028412Y-15699706D01*
X8266507Y-15518754D02*
X8285555Y-15518754D01*
X8285555Y-15518754D02*
X8304602Y-15528278D01*
X8304602Y-15528278D02*
X8314126Y-15537801D01*
X8314126Y-15537801D02*
X8323650Y-15556849D01*
X8323650Y-15556849D02*
X8333174Y-15594944D01*
X8333174Y-15594944D02*
X8333174Y-15642563D01*
X8333174Y-15642563D02*
X8323650Y-15680658D01*
X8323650Y-15680658D02*
X8314126Y-15699706D01*
X8314126Y-15699706D02*
X8304602Y-15709230D01*
X8304602Y-15709230D02*
X8285555Y-15718754D01*
X8285555Y-15718754D02*
X8266507Y-15718754D01*
X8266507Y-15718754D02*
X8247459Y-15709230D01*
X8247459Y-15709230D02*
X8237936Y-15699706D01*
X8237936Y-15699706D02*
X8228412Y-15680658D01*
X8228412Y-15680658D02*
X8218888Y-15642563D01*
X8218888Y-15642563D02*
X8218888Y-15594944D01*
X8218888Y-15594944D02*
X8228412Y-15556849D01*
X8228412Y-15556849D02*
X8237936Y-15537801D01*
X8237936Y-15537801D02*
X8247459Y-15528278D01*
X8247459Y-15528278D02*
X8266507Y-15518754D01*
X8409364Y-15518754D02*
X8409364Y-15556849D01*
X8485555Y-15518754D02*
X8485555Y-15556849D01*
X8780793Y-15794944D02*
X8771269Y-15785420D01*
X8771269Y-15785420D02*
X8752221Y-15756849D01*
X8752221Y-15756849D02*
X8742698Y-15737801D01*
X8742698Y-15737801D02*
X8733174Y-15709230D01*
X8733174Y-15709230D02*
X8723650Y-15661611D01*
X8723650Y-15661611D02*
X8723650Y-15623516D01*
X8723650Y-15623516D02*
X8733174Y-15575897D01*
X8733174Y-15575897D02*
X8742698Y-15547325D01*
X8742698Y-15547325D02*
X8752221Y-15528278D01*
X8752221Y-15528278D02*
X8771269Y-15499706D01*
X8771269Y-15499706D02*
X8780793Y-15490182D01*
X8837936Y-15518754D02*
X8961745Y-15518754D01*
X8961745Y-15518754D02*
X8895079Y-15594944D01*
X8895079Y-15594944D02*
X8923650Y-15594944D01*
X8923650Y-15594944D02*
X8942698Y-15604468D01*
X8942698Y-15604468D02*
X8952221Y-15613992D01*
X8952221Y-15613992D02*
X8961745Y-15633039D01*
X8961745Y-15633039D02*
X8961745Y-15680658D01*
X8961745Y-15680658D02*
X8952221Y-15699706D01*
X8952221Y-15699706D02*
X8942698Y-15709230D01*
X8942698Y-15709230D02*
X8923650Y-15718754D01*
X8923650Y-15718754D02*
X8866507Y-15718754D01*
X8866507Y-15718754D02*
X8847460Y-15709230D01*
X8847460Y-15709230D02*
X8837936Y-15699706D01*
X9056983Y-15718754D02*
X9095079Y-15718754D01*
X9095079Y-15718754D02*
X9114126Y-15709230D01*
X9114126Y-15709230D02*
X9123650Y-15699706D01*
X9123650Y-15699706D02*
X9142698Y-15671135D01*
X9142698Y-15671135D02*
X9152221Y-15633039D01*
X9152221Y-15633039D02*
X9152221Y-15556849D01*
X9152221Y-15556849D02*
X9142698Y-15537801D01*
X9142698Y-15537801D02*
X9133174Y-15528278D01*
X9133174Y-15528278D02*
X9114126Y-15518754D01*
X9114126Y-15518754D02*
X9076031Y-15518754D01*
X9076031Y-15518754D02*
X9056983Y-15528278D01*
X9056983Y-15528278D02*
X9047460Y-15537801D01*
X9047460Y-15537801D02*
X9037936Y-15556849D01*
X9037936Y-15556849D02*
X9037936Y-15604468D01*
X9037936Y-15604468D02*
X9047460Y-15623516D01*
X9047460Y-15623516D02*
X9056983Y-15633039D01*
X9056983Y-15633039D02*
X9076031Y-15642563D01*
X9076031Y-15642563D02*
X9114126Y-15642563D01*
X9114126Y-15642563D02*
X9133174Y-15633039D01*
X9133174Y-15633039D02*
X9142698Y-15623516D01*
X9142698Y-15623516D02*
X9152221Y-15604468D01*
X9390317Y-15718754D02*
X9390317Y-15518754D01*
X9476031Y-15718754D02*
X9476031Y-15613992D01*
X9476031Y-15613992D02*
X9466507Y-15594944D01*
X9466507Y-15594944D02*
X9447460Y-15585420D01*
X9447460Y-15585420D02*
X9418888Y-15585420D01*
X9418888Y-15585420D02*
X9399841Y-15594944D01*
X9399841Y-15594944D02*
X9390317Y-15604468D01*
X9599841Y-15718754D02*
X9580793Y-15709230D01*
X9580793Y-15709230D02*
X9571269Y-15699706D01*
X9571269Y-15699706D02*
X9561745Y-15680658D01*
X9561745Y-15680658D02*
X9561745Y-15623516D01*
X9561745Y-15623516D02*
X9571269Y-15604468D01*
X9571269Y-15604468D02*
X9580793Y-15594944D01*
X9580793Y-15594944D02*
X9599841Y-15585420D01*
X9599841Y-15585420D02*
X9628412Y-15585420D01*
X9628412Y-15585420D02*
X9647460Y-15594944D01*
X9647460Y-15594944D02*
X9656983Y-15604468D01*
X9656983Y-15604468D02*
X9666507Y-15623516D01*
X9666507Y-15623516D02*
X9666507Y-15680658D01*
X9666507Y-15680658D02*
X9656983Y-15699706D01*
X9656983Y-15699706D02*
X9647460Y-15709230D01*
X9647460Y-15709230D02*
X9628412Y-15718754D01*
X9628412Y-15718754D02*
X9599841Y-15718754D01*
X9780793Y-15718754D02*
X9761745Y-15709230D01*
X9761745Y-15709230D02*
X9752222Y-15690182D01*
X9752222Y-15690182D02*
X9752222Y-15518754D01*
X9933174Y-15709230D02*
X9914126Y-15718754D01*
X9914126Y-15718754D02*
X9876031Y-15718754D01*
X9876031Y-15718754D02*
X9856983Y-15709230D01*
X9856983Y-15709230D02*
X9847460Y-15690182D01*
X9847460Y-15690182D02*
X9847460Y-15613992D01*
X9847460Y-15613992D02*
X9856983Y-15594944D01*
X9856983Y-15594944D02*
X9876031Y-15585420D01*
X9876031Y-15585420D02*
X9914126Y-15585420D01*
X9914126Y-15585420D02*
X9933174Y-15594944D01*
X9933174Y-15594944D02*
X9942698Y-15613992D01*
X9942698Y-15613992D02*
X9942698Y-15633039D01*
X9942698Y-15633039D02*
X9847460Y-15652087D01*
X10018888Y-15709230D02*
X10037936Y-15718754D01*
X10037936Y-15718754D02*
X10076031Y-15718754D01*
X10076031Y-15718754D02*
X10095079Y-15709230D01*
X10095079Y-15709230D02*
X10104603Y-15690182D01*
X10104603Y-15690182D02*
X10104603Y-15680658D01*
X10104603Y-15680658D02*
X10095079Y-15661611D01*
X10095079Y-15661611D02*
X10076031Y-15652087D01*
X10076031Y-15652087D02*
X10047460Y-15652087D01*
X10047460Y-15652087D02*
X10028412Y-15642563D01*
X10028412Y-15642563D02*
X10018888Y-15623516D01*
X10018888Y-15623516D02*
X10018888Y-15613992D01*
X10018888Y-15613992D02*
X10028412Y-15594944D01*
X10028412Y-15594944D02*
X10047460Y-15585420D01*
X10047460Y-15585420D02*
X10076031Y-15585420D01*
X10076031Y-15585420D02*
X10095079Y-15594944D01*
X10171269Y-15794944D02*
X10180793Y-15785420D01*
X10180793Y-15785420D02*
X10199841Y-15756849D01*
X10199841Y-15756849D02*
X10209364Y-15737801D01*
X10209364Y-15737801D02*
X10218888Y-15709230D01*
X10218888Y-15709230D02*
X10228412Y-15661611D01*
X10228412Y-15661611D02*
X10228412Y-15623516D01*
X10228412Y-15623516D02*
X10218888Y-15575897D01*
X10218888Y-15575897D02*
X10209364Y-15547325D01*
X10209364Y-15547325D02*
X10199841Y-15528278D01*
X10199841Y-15528278D02*
X10180793Y-15499706D01*
X10180793Y-15499706D02*
X10171269Y-15490182D01*
D12*
X5205730Y-15891270D02*
G75*
G02*
X5125730Y-15891270I-40000J0D01*
G01*
X5125730Y-15891270D02*
G75*
G02*
X5205730Y-15891270I40000J0D01*
G01*
D11*
X5504602Y-15782754D02*
X5523650Y-15782754D01*
X5523650Y-15782754D02*
X5542697Y-15792278D01*
X5542697Y-15792278D02*
X5552221Y-15801801D01*
X5552221Y-15801801D02*
X5561745Y-15820849D01*
X5561745Y-15820849D02*
X5571269Y-15858944D01*
X5571269Y-15858944D02*
X5571269Y-15906563D01*
X5571269Y-15906563D02*
X5561745Y-15944658D01*
X5561745Y-15944658D02*
X5552221Y-15963706D01*
X5552221Y-15963706D02*
X5542697Y-15973230D01*
X5542697Y-15973230D02*
X5523650Y-15982754D01*
X5523650Y-15982754D02*
X5504602Y-15982754D01*
X5504602Y-15982754D02*
X5485554Y-15973230D01*
X5485554Y-15973230D02*
X5476031Y-15963706D01*
X5476031Y-15963706D02*
X5466507Y-15944658D01*
X5466507Y-15944658D02*
X5456983Y-15906563D01*
X5456983Y-15906563D02*
X5456983Y-15858944D01*
X5456983Y-15858944D02*
X5466507Y-15820849D01*
X5466507Y-15820849D02*
X5476031Y-15801801D01*
X5476031Y-15801801D02*
X5485554Y-15792278D01*
X5485554Y-15792278D02*
X5504602Y-15782754D01*
X5656983Y-15963706D02*
X5666507Y-15973230D01*
X5666507Y-15973230D02*
X5656983Y-15982754D01*
X5656983Y-15982754D02*
X5647459Y-15973230D01*
X5647459Y-15973230D02*
X5656983Y-15963706D01*
X5656983Y-15963706D02*
X5656983Y-15982754D01*
X5780792Y-15868468D02*
X5761745Y-15858944D01*
X5761745Y-15858944D02*
X5752221Y-15849420D01*
X5752221Y-15849420D02*
X5742697Y-15830373D01*
X5742697Y-15830373D02*
X5742697Y-15820849D01*
X5742697Y-15820849D02*
X5752221Y-15801801D01*
X5752221Y-15801801D02*
X5761745Y-15792278D01*
X5761745Y-15792278D02*
X5780792Y-15782754D01*
X5780792Y-15782754D02*
X5818888Y-15782754D01*
X5818888Y-15782754D02*
X5837935Y-15792278D01*
X5837935Y-15792278D02*
X5847459Y-15801801D01*
X5847459Y-15801801D02*
X5856983Y-15820849D01*
X5856983Y-15820849D02*
X5856983Y-15830373D01*
X5856983Y-15830373D02*
X5847459Y-15849420D01*
X5847459Y-15849420D02*
X5837935Y-15858944D01*
X5837935Y-15858944D02*
X5818888Y-15868468D01*
X5818888Y-15868468D02*
X5780792Y-15868468D01*
X5780792Y-15868468D02*
X5761745Y-15877992D01*
X5761745Y-15877992D02*
X5752221Y-15887516D01*
X5752221Y-15887516D02*
X5742697Y-15906563D01*
X5742697Y-15906563D02*
X5742697Y-15944658D01*
X5742697Y-15944658D02*
X5752221Y-15963706D01*
X5752221Y-15963706D02*
X5761745Y-15973230D01*
X5761745Y-15973230D02*
X5780792Y-15982754D01*
X5780792Y-15982754D02*
X5818888Y-15982754D01*
X5818888Y-15982754D02*
X5837935Y-15973230D01*
X5837935Y-15973230D02*
X5847459Y-15963706D01*
X5847459Y-15963706D02*
X5856983Y-15944658D01*
X5856983Y-15944658D02*
X5856983Y-15906563D01*
X5856983Y-15906563D02*
X5847459Y-15887516D01*
X5847459Y-15887516D02*
X5837935Y-15877992D01*
X5837935Y-15877992D02*
X5818888Y-15868468D01*
X5980792Y-15782754D02*
X5999840Y-15782754D01*
X5999840Y-15782754D02*
X6018888Y-15792278D01*
X6018888Y-15792278D02*
X6028412Y-15801801D01*
X6028412Y-15801801D02*
X6037935Y-15820849D01*
X6037935Y-15820849D02*
X6047459Y-15858944D01*
X6047459Y-15858944D02*
X6047459Y-15906563D01*
X6047459Y-15906563D02*
X6037935Y-15944658D01*
X6037935Y-15944658D02*
X6028412Y-15963706D01*
X6028412Y-15963706D02*
X6018888Y-15973230D01*
X6018888Y-15973230D02*
X5999840Y-15982754D01*
X5999840Y-15982754D02*
X5980792Y-15982754D01*
X5980792Y-15982754D02*
X5961745Y-15973230D01*
X5961745Y-15973230D02*
X5952221Y-15963706D01*
X5952221Y-15963706D02*
X5942697Y-15944658D01*
X5942697Y-15944658D02*
X5933173Y-15906563D01*
X5933173Y-15906563D02*
X5933173Y-15858944D01*
X5933173Y-15858944D02*
X5942697Y-15820849D01*
X5942697Y-15820849D02*
X5952221Y-15801801D01*
X5952221Y-15801801D02*
X5961745Y-15792278D01*
X5961745Y-15792278D02*
X5980792Y-15782754D01*
X6171269Y-15782754D02*
X6190316Y-15782754D01*
X6190316Y-15782754D02*
X6209364Y-15792278D01*
X6209364Y-15792278D02*
X6218888Y-15801801D01*
X6218888Y-15801801D02*
X6228412Y-15820849D01*
X6228412Y-15820849D02*
X6237935Y-15858944D01*
X6237935Y-15858944D02*
X6237935Y-15906563D01*
X6237935Y-15906563D02*
X6228412Y-15944658D01*
X6228412Y-15944658D02*
X6218888Y-15963706D01*
X6218888Y-15963706D02*
X6209364Y-15973230D01*
X6209364Y-15973230D02*
X6190316Y-15982754D01*
X6190316Y-15982754D02*
X6171269Y-15982754D01*
X6171269Y-15982754D02*
X6152221Y-15973230D01*
X6152221Y-15973230D02*
X6142697Y-15963706D01*
X6142697Y-15963706D02*
X6133173Y-15944658D01*
X6133173Y-15944658D02*
X6123650Y-15906563D01*
X6123650Y-15906563D02*
X6123650Y-15858944D01*
X6123650Y-15858944D02*
X6133173Y-15820849D01*
X6133173Y-15820849D02*
X6142697Y-15801801D01*
X6142697Y-15801801D02*
X6152221Y-15792278D01*
X6152221Y-15792278D02*
X6171269Y-15782754D01*
X6323650Y-15982754D02*
X6323650Y-15849420D01*
X6323650Y-15868468D02*
X6333173Y-15858944D01*
X6333173Y-15858944D02*
X6352221Y-15849420D01*
X6352221Y-15849420D02*
X6380793Y-15849420D01*
X6380793Y-15849420D02*
X6399840Y-15858944D01*
X6399840Y-15858944D02*
X6409364Y-15877992D01*
X6409364Y-15877992D02*
X6409364Y-15982754D01*
X6409364Y-15877992D02*
X6418888Y-15858944D01*
X6418888Y-15858944D02*
X6437935Y-15849420D01*
X6437935Y-15849420D02*
X6466507Y-15849420D01*
X6466507Y-15849420D02*
X6485554Y-15858944D01*
X6485554Y-15858944D02*
X6495078Y-15877992D01*
X6495078Y-15877992D02*
X6495078Y-15982754D01*
X6590316Y-15982754D02*
X6590316Y-15849420D01*
X6590316Y-15868468D02*
X6599840Y-15858944D01*
X6599840Y-15858944D02*
X6618888Y-15849420D01*
X6618888Y-15849420D02*
X6647459Y-15849420D01*
X6647459Y-15849420D02*
X6666507Y-15858944D01*
X6666507Y-15858944D02*
X6676031Y-15877992D01*
X6676031Y-15877992D02*
X6676031Y-15982754D01*
X6676031Y-15877992D02*
X6685554Y-15858944D01*
X6685554Y-15858944D02*
X6704602Y-15849420D01*
X6704602Y-15849420D02*
X6733173Y-15849420D01*
X6733173Y-15849420D02*
X6752221Y-15858944D01*
X6752221Y-15858944D02*
X6761745Y-15877992D01*
X6761745Y-15877992D02*
X6761745Y-15982754D01*
X7152221Y-15773230D02*
X6980793Y-16030373D01*
X7409364Y-15782754D02*
X7428412Y-15782754D01*
X7428412Y-15782754D02*
X7447459Y-15792278D01*
X7447459Y-15792278D02*
X7456983Y-15801801D01*
X7456983Y-15801801D02*
X7466507Y-15820849D01*
X7466507Y-15820849D02*
X7476031Y-15858944D01*
X7476031Y-15858944D02*
X7476031Y-15906563D01*
X7476031Y-15906563D02*
X7466507Y-15944658D01*
X7466507Y-15944658D02*
X7456983Y-15963706D01*
X7456983Y-15963706D02*
X7447459Y-15973230D01*
X7447459Y-15973230D02*
X7428412Y-15982754D01*
X7428412Y-15982754D02*
X7409364Y-15982754D01*
X7409364Y-15982754D02*
X7390316Y-15973230D01*
X7390316Y-15973230D02*
X7380793Y-15963706D01*
X7380793Y-15963706D02*
X7371269Y-15944658D01*
X7371269Y-15944658D02*
X7361745Y-15906563D01*
X7361745Y-15906563D02*
X7361745Y-15858944D01*
X7361745Y-15858944D02*
X7371269Y-15820849D01*
X7371269Y-15820849D02*
X7380793Y-15801801D01*
X7380793Y-15801801D02*
X7390316Y-15792278D01*
X7390316Y-15792278D02*
X7409364Y-15782754D01*
X7561745Y-15963706D02*
X7571269Y-15973230D01*
X7571269Y-15973230D02*
X7561745Y-15982754D01*
X7561745Y-15982754D02*
X7552221Y-15973230D01*
X7552221Y-15973230D02*
X7561745Y-15963706D01*
X7561745Y-15963706D02*
X7561745Y-15982754D01*
X7695078Y-15782754D02*
X7714126Y-15782754D01*
X7714126Y-15782754D02*
X7733174Y-15792278D01*
X7733174Y-15792278D02*
X7742697Y-15801801D01*
X7742697Y-15801801D02*
X7752221Y-15820849D01*
X7752221Y-15820849D02*
X7761745Y-15858944D01*
X7761745Y-15858944D02*
X7761745Y-15906563D01*
X7761745Y-15906563D02*
X7752221Y-15944658D01*
X7752221Y-15944658D02*
X7742697Y-15963706D01*
X7742697Y-15963706D02*
X7733174Y-15973230D01*
X7733174Y-15973230D02*
X7714126Y-15982754D01*
X7714126Y-15982754D02*
X7695078Y-15982754D01*
X7695078Y-15982754D02*
X7676031Y-15973230D01*
X7676031Y-15973230D02*
X7666507Y-15963706D01*
X7666507Y-15963706D02*
X7656983Y-15944658D01*
X7656983Y-15944658D02*
X7647459Y-15906563D01*
X7647459Y-15906563D02*
X7647459Y-15858944D01*
X7647459Y-15858944D02*
X7656983Y-15820849D01*
X7656983Y-15820849D02*
X7666507Y-15801801D01*
X7666507Y-15801801D02*
X7676031Y-15792278D01*
X7676031Y-15792278D02*
X7695078Y-15782754D01*
X7828412Y-15782754D02*
X7952221Y-15782754D01*
X7952221Y-15782754D02*
X7885555Y-15858944D01*
X7885555Y-15858944D02*
X7914126Y-15858944D01*
X7914126Y-15858944D02*
X7933174Y-15868468D01*
X7933174Y-15868468D02*
X7942697Y-15877992D01*
X7942697Y-15877992D02*
X7952221Y-15897039D01*
X7952221Y-15897039D02*
X7952221Y-15944658D01*
X7952221Y-15944658D02*
X7942697Y-15963706D01*
X7942697Y-15963706D02*
X7933174Y-15973230D01*
X7933174Y-15973230D02*
X7914126Y-15982754D01*
X7914126Y-15982754D02*
X7856983Y-15982754D01*
X7856983Y-15982754D02*
X7837936Y-15973230D01*
X7837936Y-15973230D02*
X7828412Y-15963706D01*
X8142697Y-15982754D02*
X8028412Y-15982754D01*
X8085555Y-15982754D02*
X8085555Y-15782754D01*
X8085555Y-15782754D02*
X8066507Y-15811325D01*
X8066507Y-15811325D02*
X8047459Y-15830373D01*
X8047459Y-15830373D02*
X8028412Y-15839897D01*
X8323650Y-15782754D02*
X8228412Y-15782754D01*
X8228412Y-15782754D02*
X8218888Y-15877992D01*
X8218888Y-15877992D02*
X8228412Y-15868468D01*
X8228412Y-15868468D02*
X8247459Y-15858944D01*
X8247459Y-15858944D02*
X8295078Y-15858944D01*
X8295078Y-15858944D02*
X8314126Y-15868468D01*
X8314126Y-15868468D02*
X8323650Y-15877992D01*
X8323650Y-15877992D02*
X8333174Y-15897039D01*
X8333174Y-15897039D02*
X8333174Y-15944658D01*
X8333174Y-15944658D02*
X8323650Y-15963706D01*
X8323650Y-15963706D02*
X8314126Y-15973230D01*
X8314126Y-15973230D02*
X8295078Y-15982754D01*
X8295078Y-15982754D02*
X8247459Y-15982754D01*
X8247459Y-15982754D02*
X8228412Y-15973230D01*
X8228412Y-15973230D02*
X8218888Y-15963706D01*
X8409364Y-15782754D02*
X8409364Y-15820849D01*
X8485555Y-15782754D02*
X8485555Y-15820849D01*
X8780793Y-16058944D02*
X8771269Y-16049420D01*
X8771269Y-16049420D02*
X8752221Y-16020849D01*
X8752221Y-16020849D02*
X8742698Y-16001801D01*
X8742698Y-16001801D02*
X8733174Y-15973230D01*
X8733174Y-15973230D02*
X8723650Y-15925611D01*
X8723650Y-15925611D02*
X8723650Y-15887516D01*
X8723650Y-15887516D02*
X8733174Y-15839897D01*
X8733174Y-15839897D02*
X8742698Y-15811325D01*
X8742698Y-15811325D02*
X8752221Y-15792278D01*
X8752221Y-15792278D02*
X8771269Y-15763706D01*
X8771269Y-15763706D02*
X8780793Y-15754182D01*
X8942698Y-15849420D02*
X8942698Y-15982754D01*
X8895079Y-15773230D02*
X8847460Y-15916087D01*
X8847460Y-15916087D02*
X8971269Y-15916087D01*
X9199841Y-15982754D02*
X9199841Y-15782754D01*
X9285555Y-15982754D02*
X9285555Y-15877992D01*
X9285555Y-15877992D02*
X9276031Y-15858944D01*
X9276031Y-15858944D02*
X9256983Y-15849420D01*
X9256983Y-15849420D02*
X9228412Y-15849420D01*
X9228412Y-15849420D02*
X9209364Y-15858944D01*
X9209364Y-15858944D02*
X9199841Y-15868468D01*
X9409364Y-15982754D02*
X9390317Y-15973230D01*
X9390317Y-15973230D02*
X9380793Y-15963706D01*
X9380793Y-15963706D02*
X9371269Y-15944658D01*
X9371269Y-15944658D02*
X9371269Y-15887516D01*
X9371269Y-15887516D02*
X9380793Y-15868468D01*
X9380793Y-15868468D02*
X9390317Y-15858944D01*
X9390317Y-15858944D02*
X9409364Y-15849420D01*
X9409364Y-15849420D02*
X9437936Y-15849420D01*
X9437936Y-15849420D02*
X9456983Y-15858944D01*
X9456983Y-15858944D02*
X9466507Y-15868468D01*
X9466507Y-15868468D02*
X9476031Y-15887516D01*
X9476031Y-15887516D02*
X9476031Y-15944658D01*
X9476031Y-15944658D02*
X9466507Y-15963706D01*
X9466507Y-15963706D02*
X9456983Y-15973230D01*
X9456983Y-15973230D02*
X9437936Y-15982754D01*
X9437936Y-15982754D02*
X9409364Y-15982754D01*
X9590317Y-15982754D02*
X9571269Y-15973230D01*
X9571269Y-15973230D02*
X9561745Y-15954182D01*
X9561745Y-15954182D02*
X9561745Y-15782754D01*
X9742698Y-15973230D02*
X9723650Y-15982754D01*
X9723650Y-15982754D02*
X9685555Y-15982754D01*
X9685555Y-15982754D02*
X9666507Y-15973230D01*
X9666507Y-15973230D02*
X9656983Y-15954182D01*
X9656983Y-15954182D02*
X9656983Y-15877992D01*
X9656983Y-15877992D02*
X9666507Y-15858944D01*
X9666507Y-15858944D02*
X9685555Y-15849420D01*
X9685555Y-15849420D02*
X9723650Y-15849420D01*
X9723650Y-15849420D02*
X9742698Y-15858944D01*
X9742698Y-15858944D02*
X9752222Y-15877992D01*
X9752222Y-15877992D02*
X9752222Y-15897039D01*
X9752222Y-15897039D02*
X9656983Y-15916087D01*
X9828412Y-15973230D02*
X9847460Y-15982754D01*
X9847460Y-15982754D02*
X9885555Y-15982754D01*
X9885555Y-15982754D02*
X9904603Y-15973230D01*
X9904603Y-15973230D02*
X9914126Y-15954182D01*
X9914126Y-15954182D02*
X9914126Y-15944658D01*
X9914126Y-15944658D02*
X9904603Y-15925611D01*
X9904603Y-15925611D02*
X9885555Y-15916087D01*
X9885555Y-15916087D02*
X9856983Y-15916087D01*
X9856983Y-15916087D02*
X9837936Y-15906563D01*
X9837936Y-15906563D02*
X9828412Y-15887516D01*
X9828412Y-15887516D02*
X9828412Y-15877992D01*
X9828412Y-15877992D02*
X9837936Y-15858944D01*
X9837936Y-15858944D02*
X9856983Y-15849420D01*
X9856983Y-15849420D02*
X9885555Y-15849420D01*
X9885555Y-15849420D02*
X9904603Y-15858944D01*
X9980793Y-16058944D02*
X9990317Y-16049420D01*
X9990317Y-16049420D02*
X10009364Y-16020849D01*
X10009364Y-16020849D02*
X10018888Y-16001801D01*
X10018888Y-16001801D02*
X10028412Y-15973230D01*
X10028412Y-15973230D02*
X10037936Y-15925611D01*
X10037936Y-15925611D02*
X10037936Y-15887516D01*
X10037936Y-15887516D02*
X10028412Y-15839897D01*
X10028412Y-15839897D02*
X10018888Y-15811325D01*
X10018888Y-15811325D02*
X10009364Y-15792278D01*
X10009364Y-15792278D02*
X9990317Y-15763706D01*
X9990317Y-15763706D02*
X9980793Y-15754182D01*
D12*
X5155730Y-16105270D02*
X5155730Y-16205270D01*
X5105730Y-16155270D02*
X5205730Y-16155270D01*
D11*
X5571269Y-16246754D02*
X5456983Y-16246754D01*
X5514126Y-16246754D02*
X5514126Y-16046754D01*
X5514126Y-16046754D02*
X5495078Y-16075325D01*
X5495078Y-16075325D02*
X5476031Y-16094373D01*
X5476031Y-16094373D02*
X5456983Y-16103897D01*
X5656983Y-16227706D02*
X5666507Y-16237230D01*
X5666507Y-16237230D02*
X5656983Y-16246754D01*
X5656983Y-16246754D02*
X5647459Y-16237230D01*
X5647459Y-16237230D02*
X5656983Y-16227706D01*
X5656983Y-16227706D02*
X5656983Y-16246754D01*
X5790316Y-16046754D02*
X5809364Y-16046754D01*
X5809364Y-16046754D02*
X5828412Y-16056278D01*
X5828412Y-16056278D02*
X5837935Y-16065801D01*
X5837935Y-16065801D02*
X5847459Y-16084849D01*
X5847459Y-16084849D02*
X5856983Y-16122944D01*
X5856983Y-16122944D02*
X5856983Y-16170563D01*
X5856983Y-16170563D02*
X5847459Y-16208658D01*
X5847459Y-16208658D02*
X5837935Y-16227706D01*
X5837935Y-16227706D02*
X5828412Y-16237230D01*
X5828412Y-16237230D02*
X5809364Y-16246754D01*
X5809364Y-16246754D02*
X5790316Y-16246754D01*
X5790316Y-16246754D02*
X5771269Y-16237230D01*
X5771269Y-16237230D02*
X5761745Y-16227706D01*
X5761745Y-16227706D02*
X5752221Y-16208658D01*
X5752221Y-16208658D02*
X5742697Y-16170563D01*
X5742697Y-16170563D02*
X5742697Y-16122944D01*
X5742697Y-16122944D02*
X5752221Y-16084849D01*
X5752221Y-16084849D02*
X5761745Y-16065801D01*
X5761745Y-16065801D02*
X5771269Y-16056278D01*
X5771269Y-16056278D02*
X5790316Y-16046754D01*
X5980792Y-16046754D02*
X5999840Y-16046754D01*
X5999840Y-16046754D02*
X6018888Y-16056278D01*
X6018888Y-16056278D02*
X6028412Y-16065801D01*
X6028412Y-16065801D02*
X6037935Y-16084849D01*
X6037935Y-16084849D02*
X6047459Y-16122944D01*
X6047459Y-16122944D02*
X6047459Y-16170563D01*
X6047459Y-16170563D02*
X6037935Y-16208658D01*
X6037935Y-16208658D02*
X6028412Y-16227706D01*
X6028412Y-16227706D02*
X6018888Y-16237230D01*
X6018888Y-16237230D02*
X5999840Y-16246754D01*
X5999840Y-16246754D02*
X5980792Y-16246754D01*
X5980792Y-16246754D02*
X5961745Y-16237230D01*
X5961745Y-16237230D02*
X5952221Y-16227706D01*
X5952221Y-16227706D02*
X5942697Y-16208658D01*
X5942697Y-16208658D02*
X5933173Y-16170563D01*
X5933173Y-16170563D02*
X5933173Y-16122944D01*
X5933173Y-16122944D02*
X5942697Y-16084849D01*
X5942697Y-16084849D02*
X5952221Y-16065801D01*
X5952221Y-16065801D02*
X5961745Y-16056278D01*
X5961745Y-16056278D02*
X5980792Y-16046754D01*
X6171269Y-16046754D02*
X6190316Y-16046754D01*
X6190316Y-16046754D02*
X6209364Y-16056278D01*
X6209364Y-16056278D02*
X6218888Y-16065801D01*
X6218888Y-16065801D02*
X6228412Y-16084849D01*
X6228412Y-16084849D02*
X6237935Y-16122944D01*
X6237935Y-16122944D02*
X6237935Y-16170563D01*
X6237935Y-16170563D02*
X6228412Y-16208658D01*
X6228412Y-16208658D02*
X6218888Y-16227706D01*
X6218888Y-16227706D02*
X6209364Y-16237230D01*
X6209364Y-16237230D02*
X6190316Y-16246754D01*
X6190316Y-16246754D02*
X6171269Y-16246754D01*
X6171269Y-16246754D02*
X6152221Y-16237230D01*
X6152221Y-16237230D02*
X6142697Y-16227706D01*
X6142697Y-16227706D02*
X6133173Y-16208658D01*
X6133173Y-16208658D02*
X6123650Y-16170563D01*
X6123650Y-16170563D02*
X6123650Y-16122944D01*
X6123650Y-16122944D02*
X6133173Y-16084849D01*
X6133173Y-16084849D02*
X6142697Y-16065801D01*
X6142697Y-16065801D02*
X6152221Y-16056278D01*
X6152221Y-16056278D02*
X6171269Y-16046754D01*
X6323650Y-16246754D02*
X6323650Y-16113420D01*
X6323650Y-16132468D02*
X6333173Y-16122944D01*
X6333173Y-16122944D02*
X6352221Y-16113420D01*
X6352221Y-16113420D02*
X6380793Y-16113420D01*
X6380793Y-16113420D02*
X6399840Y-16122944D01*
X6399840Y-16122944D02*
X6409364Y-16141992D01*
X6409364Y-16141992D02*
X6409364Y-16246754D01*
X6409364Y-16141992D02*
X6418888Y-16122944D01*
X6418888Y-16122944D02*
X6437935Y-16113420D01*
X6437935Y-16113420D02*
X6466507Y-16113420D01*
X6466507Y-16113420D02*
X6485554Y-16122944D01*
X6485554Y-16122944D02*
X6495078Y-16141992D01*
X6495078Y-16141992D02*
X6495078Y-16246754D01*
X6590316Y-16246754D02*
X6590316Y-16113420D01*
X6590316Y-16132468D02*
X6599840Y-16122944D01*
X6599840Y-16122944D02*
X6618888Y-16113420D01*
X6618888Y-16113420D02*
X6647459Y-16113420D01*
X6647459Y-16113420D02*
X6666507Y-16122944D01*
X6666507Y-16122944D02*
X6676031Y-16141992D01*
X6676031Y-16141992D02*
X6676031Y-16246754D01*
X6676031Y-16141992D02*
X6685554Y-16122944D01*
X6685554Y-16122944D02*
X6704602Y-16113420D01*
X6704602Y-16113420D02*
X6733173Y-16113420D01*
X6733173Y-16113420D02*
X6752221Y-16122944D01*
X6752221Y-16122944D02*
X6761745Y-16141992D01*
X6761745Y-16141992D02*
X6761745Y-16246754D01*
X7152221Y-16037230D02*
X6980793Y-16294373D01*
X7409364Y-16046754D02*
X7428412Y-16046754D01*
X7428412Y-16046754D02*
X7447459Y-16056278D01*
X7447459Y-16056278D02*
X7456983Y-16065801D01*
X7456983Y-16065801D02*
X7466507Y-16084849D01*
X7466507Y-16084849D02*
X7476031Y-16122944D01*
X7476031Y-16122944D02*
X7476031Y-16170563D01*
X7476031Y-16170563D02*
X7466507Y-16208658D01*
X7466507Y-16208658D02*
X7456983Y-16227706D01*
X7456983Y-16227706D02*
X7447459Y-16237230D01*
X7447459Y-16237230D02*
X7428412Y-16246754D01*
X7428412Y-16246754D02*
X7409364Y-16246754D01*
X7409364Y-16246754D02*
X7390316Y-16237230D01*
X7390316Y-16237230D02*
X7380793Y-16227706D01*
X7380793Y-16227706D02*
X7371269Y-16208658D01*
X7371269Y-16208658D02*
X7361745Y-16170563D01*
X7361745Y-16170563D02*
X7361745Y-16122944D01*
X7361745Y-16122944D02*
X7371269Y-16084849D01*
X7371269Y-16084849D02*
X7380793Y-16065801D01*
X7380793Y-16065801D02*
X7390316Y-16056278D01*
X7390316Y-16056278D02*
X7409364Y-16046754D01*
X7561745Y-16227706D02*
X7571269Y-16237230D01*
X7571269Y-16237230D02*
X7561745Y-16246754D01*
X7561745Y-16246754D02*
X7552221Y-16237230D01*
X7552221Y-16237230D02*
X7561745Y-16227706D01*
X7561745Y-16227706D02*
X7561745Y-16246754D01*
X7695078Y-16046754D02*
X7714126Y-16046754D01*
X7714126Y-16046754D02*
X7733174Y-16056278D01*
X7733174Y-16056278D02*
X7742697Y-16065801D01*
X7742697Y-16065801D02*
X7752221Y-16084849D01*
X7752221Y-16084849D02*
X7761745Y-16122944D01*
X7761745Y-16122944D02*
X7761745Y-16170563D01*
X7761745Y-16170563D02*
X7752221Y-16208658D01*
X7752221Y-16208658D02*
X7742697Y-16227706D01*
X7742697Y-16227706D02*
X7733174Y-16237230D01*
X7733174Y-16237230D02*
X7714126Y-16246754D01*
X7714126Y-16246754D02*
X7695078Y-16246754D01*
X7695078Y-16246754D02*
X7676031Y-16237230D01*
X7676031Y-16237230D02*
X7666507Y-16227706D01*
X7666507Y-16227706D02*
X7656983Y-16208658D01*
X7656983Y-16208658D02*
X7647459Y-16170563D01*
X7647459Y-16170563D02*
X7647459Y-16122944D01*
X7647459Y-16122944D02*
X7656983Y-16084849D01*
X7656983Y-16084849D02*
X7666507Y-16065801D01*
X7666507Y-16065801D02*
X7676031Y-16056278D01*
X7676031Y-16056278D02*
X7695078Y-16046754D01*
X7828412Y-16046754D02*
X7952221Y-16046754D01*
X7952221Y-16046754D02*
X7885555Y-16122944D01*
X7885555Y-16122944D02*
X7914126Y-16122944D01*
X7914126Y-16122944D02*
X7933174Y-16132468D01*
X7933174Y-16132468D02*
X7942697Y-16141992D01*
X7942697Y-16141992D02*
X7952221Y-16161039D01*
X7952221Y-16161039D02*
X7952221Y-16208658D01*
X7952221Y-16208658D02*
X7942697Y-16227706D01*
X7942697Y-16227706D02*
X7933174Y-16237230D01*
X7933174Y-16237230D02*
X7914126Y-16246754D01*
X7914126Y-16246754D02*
X7856983Y-16246754D01*
X7856983Y-16246754D02*
X7837936Y-16237230D01*
X7837936Y-16237230D02*
X7828412Y-16227706D01*
X8047459Y-16246754D02*
X8085555Y-16246754D01*
X8085555Y-16246754D02*
X8104602Y-16237230D01*
X8104602Y-16237230D02*
X8114126Y-16227706D01*
X8114126Y-16227706D02*
X8133174Y-16199135D01*
X8133174Y-16199135D02*
X8142697Y-16161039D01*
X8142697Y-16161039D02*
X8142697Y-16084849D01*
X8142697Y-16084849D02*
X8133174Y-16065801D01*
X8133174Y-16065801D02*
X8123650Y-16056278D01*
X8123650Y-16056278D02*
X8104602Y-16046754D01*
X8104602Y-16046754D02*
X8066507Y-16046754D01*
X8066507Y-16046754D02*
X8047459Y-16056278D01*
X8047459Y-16056278D02*
X8037936Y-16065801D01*
X8037936Y-16065801D02*
X8028412Y-16084849D01*
X8028412Y-16084849D02*
X8028412Y-16132468D01*
X8028412Y-16132468D02*
X8037936Y-16151516D01*
X8037936Y-16151516D02*
X8047459Y-16161039D01*
X8047459Y-16161039D02*
X8066507Y-16170563D01*
X8066507Y-16170563D02*
X8104602Y-16170563D01*
X8104602Y-16170563D02*
X8123650Y-16161039D01*
X8123650Y-16161039D02*
X8133174Y-16151516D01*
X8133174Y-16151516D02*
X8142697Y-16132468D01*
X8314126Y-16113420D02*
X8314126Y-16246754D01*
X8266507Y-16037230D02*
X8218888Y-16180087D01*
X8218888Y-16180087D02*
X8342697Y-16180087D01*
X8409364Y-16046754D02*
X8409364Y-16084849D01*
X8485555Y-16046754D02*
X8485555Y-16084849D01*
X8780793Y-16322944D02*
X8771269Y-16313420D01*
X8771269Y-16313420D02*
X8752221Y-16284849D01*
X8752221Y-16284849D02*
X8742698Y-16265801D01*
X8742698Y-16265801D02*
X8733174Y-16237230D01*
X8733174Y-16237230D02*
X8723650Y-16189611D01*
X8723650Y-16189611D02*
X8723650Y-16151516D01*
X8723650Y-16151516D02*
X8733174Y-16103897D01*
X8733174Y-16103897D02*
X8742698Y-16075325D01*
X8742698Y-16075325D02*
X8752221Y-16056278D01*
X8752221Y-16056278D02*
X8771269Y-16027706D01*
X8771269Y-16027706D02*
X8780793Y-16018182D01*
X8942698Y-16113420D02*
X8942698Y-16246754D01*
X8895079Y-16037230D02*
X8847460Y-16180087D01*
X8847460Y-16180087D02*
X8971269Y-16180087D01*
X9037936Y-16065801D02*
X9047460Y-16056278D01*
X9047460Y-16056278D02*
X9066507Y-16046754D01*
X9066507Y-16046754D02*
X9114126Y-16046754D01*
X9114126Y-16046754D02*
X9133174Y-16056278D01*
X9133174Y-16056278D02*
X9142698Y-16065801D01*
X9142698Y-16065801D02*
X9152221Y-16084849D01*
X9152221Y-16084849D02*
X9152221Y-16103897D01*
X9152221Y-16103897D02*
X9142698Y-16132468D01*
X9142698Y-16132468D02*
X9028412Y-16246754D01*
X9028412Y-16246754D02*
X9152221Y-16246754D01*
X9390317Y-16246754D02*
X9390317Y-16046754D01*
X9476031Y-16246754D02*
X9476031Y-16141992D01*
X9476031Y-16141992D02*
X9466507Y-16122944D01*
X9466507Y-16122944D02*
X9447460Y-16113420D01*
X9447460Y-16113420D02*
X9418888Y-16113420D01*
X9418888Y-16113420D02*
X9399841Y-16122944D01*
X9399841Y-16122944D02*
X9390317Y-16132468D01*
X9599841Y-16246754D02*
X9580793Y-16237230D01*
X9580793Y-16237230D02*
X9571269Y-16227706D01*
X9571269Y-16227706D02*
X9561745Y-16208658D01*
X9561745Y-16208658D02*
X9561745Y-16151516D01*
X9561745Y-16151516D02*
X9571269Y-16132468D01*
X9571269Y-16132468D02*
X9580793Y-16122944D01*
X9580793Y-16122944D02*
X9599841Y-16113420D01*
X9599841Y-16113420D02*
X9628412Y-16113420D01*
X9628412Y-16113420D02*
X9647460Y-16122944D01*
X9647460Y-16122944D02*
X9656983Y-16132468D01*
X9656983Y-16132468D02*
X9666507Y-16151516D01*
X9666507Y-16151516D02*
X9666507Y-16208658D01*
X9666507Y-16208658D02*
X9656983Y-16227706D01*
X9656983Y-16227706D02*
X9647460Y-16237230D01*
X9647460Y-16237230D02*
X9628412Y-16246754D01*
X9628412Y-16246754D02*
X9599841Y-16246754D01*
X9780793Y-16246754D02*
X9761745Y-16237230D01*
X9761745Y-16237230D02*
X9752222Y-16218182D01*
X9752222Y-16218182D02*
X9752222Y-16046754D01*
X9933174Y-16237230D02*
X9914126Y-16246754D01*
X9914126Y-16246754D02*
X9876031Y-16246754D01*
X9876031Y-16246754D02*
X9856983Y-16237230D01*
X9856983Y-16237230D02*
X9847460Y-16218182D01*
X9847460Y-16218182D02*
X9847460Y-16141992D01*
X9847460Y-16141992D02*
X9856983Y-16122944D01*
X9856983Y-16122944D02*
X9876031Y-16113420D01*
X9876031Y-16113420D02*
X9914126Y-16113420D01*
X9914126Y-16113420D02*
X9933174Y-16122944D01*
X9933174Y-16122944D02*
X9942698Y-16141992D01*
X9942698Y-16141992D02*
X9942698Y-16161039D01*
X9942698Y-16161039D02*
X9847460Y-16180087D01*
X10018888Y-16237230D02*
X10037936Y-16246754D01*
X10037936Y-16246754D02*
X10076031Y-16246754D01*
X10076031Y-16246754D02*
X10095079Y-16237230D01*
X10095079Y-16237230D02*
X10104603Y-16218182D01*
X10104603Y-16218182D02*
X10104603Y-16208658D01*
X10104603Y-16208658D02*
X10095079Y-16189611D01*
X10095079Y-16189611D02*
X10076031Y-16180087D01*
X10076031Y-16180087D02*
X10047460Y-16180087D01*
X10047460Y-16180087D02*
X10028412Y-16170563D01*
X10028412Y-16170563D02*
X10018888Y-16151516D01*
X10018888Y-16151516D02*
X10018888Y-16141992D01*
X10018888Y-16141992D02*
X10028412Y-16122944D01*
X10028412Y-16122944D02*
X10047460Y-16113420D01*
X10047460Y-16113420D02*
X10076031Y-16113420D01*
X10076031Y-16113420D02*
X10095079Y-16122944D01*
X10342698Y-16170563D02*
X10495079Y-16170563D01*
X10418888Y-16246754D02*
X10418888Y-16094373D01*
X10723650Y-16046754D02*
X10847460Y-16046754D01*
X10847460Y-16046754D02*
X10780793Y-16122944D01*
X10780793Y-16122944D02*
X10809365Y-16122944D01*
X10809365Y-16122944D02*
X10828412Y-16132468D01*
X10828412Y-16132468D02*
X10837936Y-16141992D01*
X10837936Y-16141992D02*
X10847460Y-16161039D01*
X10847460Y-16161039D02*
X10847460Y-16208658D01*
X10847460Y-16208658D02*
X10837936Y-16227706D01*
X10837936Y-16227706D02*
X10828412Y-16237230D01*
X10828412Y-16237230D02*
X10809365Y-16246754D01*
X10809365Y-16246754D02*
X10752222Y-16246754D01*
X10752222Y-16246754D02*
X10733174Y-16237230D01*
X10733174Y-16237230D02*
X10723650Y-16227706D01*
X11076031Y-16237230D02*
X11095079Y-16246754D01*
X11095079Y-16246754D02*
X11133174Y-16246754D01*
X11133174Y-16246754D02*
X11152222Y-16237230D01*
X11152222Y-16237230D02*
X11161746Y-16218182D01*
X11161746Y-16218182D02*
X11161746Y-16208658D01*
X11161746Y-16208658D02*
X11152222Y-16189611D01*
X11152222Y-16189611D02*
X11133174Y-16180087D01*
X11133174Y-16180087D02*
X11104603Y-16180087D01*
X11104603Y-16180087D02*
X11085555Y-16170563D01*
X11085555Y-16170563D02*
X11076031Y-16151516D01*
X11076031Y-16151516D02*
X11076031Y-16141992D01*
X11076031Y-16141992D02*
X11085555Y-16122944D01*
X11085555Y-16122944D02*
X11104603Y-16113420D01*
X11104603Y-16113420D02*
X11133174Y-16113420D01*
X11133174Y-16113420D02*
X11152222Y-16122944D01*
X11276031Y-16246754D02*
X11256984Y-16237230D01*
X11256984Y-16237230D02*
X11247460Y-16218182D01*
X11247460Y-16218182D02*
X11247460Y-16046754D01*
X11380793Y-16246754D02*
X11361745Y-16237230D01*
X11361745Y-16237230D02*
X11352222Y-16227706D01*
X11352222Y-16227706D02*
X11342698Y-16208658D01*
X11342698Y-16208658D02*
X11342698Y-16151516D01*
X11342698Y-16151516D02*
X11352222Y-16132468D01*
X11352222Y-16132468D02*
X11361745Y-16122944D01*
X11361745Y-16122944D02*
X11380793Y-16113420D01*
X11380793Y-16113420D02*
X11409365Y-16113420D01*
X11409365Y-16113420D02*
X11428412Y-16122944D01*
X11428412Y-16122944D02*
X11437936Y-16132468D01*
X11437936Y-16132468D02*
X11447460Y-16151516D01*
X11447460Y-16151516D02*
X11447460Y-16208658D01*
X11447460Y-16208658D02*
X11437936Y-16227706D01*
X11437936Y-16227706D02*
X11428412Y-16237230D01*
X11428412Y-16237230D02*
X11409365Y-16246754D01*
X11409365Y-16246754D02*
X11380793Y-16246754D01*
X11504603Y-16113420D02*
X11580793Y-16113420D01*
X11533174Y-16046754D02*
X11533174Y-16218182D01*
X11533174Y-16218182D02*
X11542698Y-16237230D01*
X11542698Y-16237230D02*
X11561745Y-16246754D01*
X11561745Y-16246754D02*
X11580793Y-16246754D01*
X11637936Y-16237230D02*
X11656984Y-16246754D01*
X11656984Y-16246754D02*
X11695079Y-16246754D01*
X11695079Y-16246754D02*
X11714126Y-16237230D01*
X11714126Y-16237230D02*
X11723650Y-16218182D01*
X11723650Y-16218182D02*
X11723650Y-16208658D01*
X11723650Y-16208658D02*
X11714126Y-16189611D01*
X11714126Y-16189611D02*
X11695079Y-16180087D01*
X11695079Y-16180087D02*
X11666507Y-16180087D01*
X11666507Y-16180087D02*
X11647460Y-16170563D01*
X11647460Y-16170563D02*
X11637936Y-16151516D01*
X11637936Y-16151516D02*
X11637936Y-16141992D01*
X11637936Y-16141992D02*
X11647460Y-16122944D01*
X11647460Y-16122944D02*
X11666507Y-16113420D01*
X11666507Y-16113420D02*
X11695079Y-16113420D01*
X11695079Y-16113420D02*
X11714126Y-16122944D01*
X11790317Y-16322944D02*
X11799841Y-16313420D01*
X11799841Y-16313420D02*
X11818888Y-16284849D01*
X11818888Y-16284849D02*
X11828412Y-16265801D01*
X11828412Y-16265801D02*
X11837936Y-16237230D01*
X11837936Y-16237230D02*
X11847460Y-16189611D01*
X11847460Y-16189611D02*
X11847460Y-16151516D01*
X11847460Y-16151516D02*
X11837936Y-16103897D01*
X11837936Y-16103897D02*
X11828412Y-16075325D01*
X11828412Y-16075325D02*
X11818888Y-16056278D01*
X11818888Y-16056278D02*
X11799841Y-16027706D01*
X11799841Y-16027706D02*
X11790317Y-16018182D01*
D13*
X5190851Y-16455191D02*
X5190851Y-16383349D01*
X5119009Y-16383349D01*
X5119009Y-16455191D01*
X5190851Y-16455191D01*
D11*
X5571269Y-16510754D02*
X5456983Y-16510754D01*
X5514126Y-16510754D02*
X5514126Y-16310754D01*
X5514126Y-16310754D02*
X5495078Y-16339325D01*
X5495078Y-16339325D02*
X5476031Y-16358373D01*
X5476031Y-16358373D02*
X5456983Y-16367897D01*
X5656983Y-16491706D02*
X5666507Y-16501230D01*
X5666507Y-16501230D02*
X5656983Y-16510754D01*
X5656983Y-16510754D02*
X5647459Y-16501230D01*
X5647459Y-16501230D02*
X5656983Y-16491706D01*
X5656983Y-16491706D02*
X5656983Y-16510754D01*
X5790316Y-16310754D02*
X5809364Y-16310754D01*
X5809364Y-16310754D02*
X5828412Y-16320278D01*
X5828412Y-16320278D02*
X5837935Y-16329801D01*
X5837935Y-16329801D02*
X5847459Y-16348849D01*
X5847459Y-16348849D02*
X5856983Y-16386944D01*
X5856983Y-16386944D02*
X5856983Y-16434563D01*
X5856983Y-16434563D02*
X5847459Y-16472658D01*
X5847459Y-16472658D02*
X5837935Y-16491706D01*
X5837935Y-16491706D02*
X5828412Y-16501230D01*
X5828412Y-16501230D02*
X5809364Y-16510754D01*
X5809364Y-16510754D02*
X5790316Y-16510754D01*
X5790316Y-16510754D02*
X5771269Y-16501230D01*
X5771269Y-16501230D02*
X5761745Y-16491706D01*
X5761745Y-16491706D02*
X5752221Y-16472658D01*
X5752221Y-16472658D02*
X5742697Y-16434563D01*
X5742697Y-16434563D02*
X5742697Y-16386944D01*
X5742697Y-16386944D02*
X5752221Y-16348849D01*
X5752221Y-16348849D02*
X5761745Y-16329801D01*
X5761745Y-16329801D02*
X5771269Y-16320278D01*
X5771269Y-16320278D02*
X5790316Y-16310754D01*
X6047459Y-16510754D02*
X5933173Y-16510754D01*
X5990316Y-16510754D02*
X5990316Y-16310754D01*
X5990316Y-16310754D02*
X5971269Y-16339325D01*
X5971269Y-16339325D02*
X5952221Y-16358373D01*
X5952221Y-16358373D02*
X5933173Y-16367897D01*
X6218888Y-16310754D02*
X6180792Y-16310754D01*
X6180792Y-16310754D02*
X6161745Y-16320278D01*
X6161745Y-16320278D02*
X6152221Y-16329801D01*
X6152221Y-16329801D02*
X6133173Y-16358373D01*
X6133173Y-16358373D02*
X6123650Y-16396468D01*
X6123650Y-16396468D02*
X6123650Y-16472658D01*
X6123650Y-16472658D02*
X6133173Y-16491706D01*
X6133173Y-16491706D02*
X6142697Y-16501230D01*
X6142697Y-16501230D02*
X6161745Y-16510754D01*
X6161745Y-16510754D02*
X6199840Y-16510754D01*
X6199840Y-16510754D02*
X6218888Y-16501230D01*
X6218888Y-16501230D02*
X6228412Y-16491706D01*
X6228412Y-16491706D02*
X6237935Y-16472658D01*
X6237935Y-16472658D02*
X6237935Y-16425039D01*
X6237935Y-16425039D02*
X6228412Y-16405992D01*
X6228412Y-16405992D02*
X6218888Y-16396468D01*
X6218888Y-16396468D02*
X6199840Y-16386944D01*
X6199840Y-16386944D02*
X6161745Y-16386944D01*
X6161745Y-16386944D02*
X6142697Y-16396468D01*
X6142697Y-16396468D02*
X6133173Y-16405992D01*
X6133173Y-16405992D02*
X6123650Y-16425039D01*
X6323650Y-16510754D02*
X6323650Y-16377420D01*
X6323650Y-16396468D02*
X6333173Y-16386944D01*
X6333173Y-16386944D02*
X6352221Y-16377420D01*
X6352221Y-16377420D02*
X6380793Y-16377420D01*
X6380793Y-16377420D02*
X6399840Y-16386944D01*
X6399840Y-16386944D02*
X6409364Y-16405992D01*
X6409364Y-16405992D02*
X6409364Y-16510754D01*
X6409364Y-16405992D02*
X6418888Y-16386944D01*
X6418888Y-16386944D02*
X6437935Y-16377420D01*
X6437935Y-16377420D02*
X6466507Y-16377420D01*
X6466507Y-16377420D02*
X6485554Y-16386944D01*
X6485554Y-16386944D02*
X6495078Y-16405992D01*
X6495078Y-16405992D02*
X6495078Y-16510754D01*
X6590316Y-16510754D02*
X6590316Y-16377420D01*
X6590316Y-16396468D02*
X6599840Y-16386944D01*
X6599840Y-16386944D02*
X6618888Y-16377420D01*
X6618888Y-16377420D02*
X6647459Y-16377420D01*
X6647459Y-16377420D02*
X6666507Y-16386944D01*
X6666507Y-16386944D02*
X6676031Y-16405992D01*
X6676031Y-16405992D02*
X6676031Y-16510754D01*
X6676031Y-16405992D02*
X6685554Y-16386944D01*
X6685554Y-16386944D02*
X6704602Y-16377420D01*
X6704602Y-16377420D02*
X6733173Y-16377420D01*
X6733173Y-16377420D02*
X6752221Y-16386944D01*
X6752221Y-16386944D02*
X6761745Y-16405992D01*
X6761745Y-16405992D02*
X6761745Y-16510754D01*
X7152221Y-16301230D02*
X6980793Y-16558373D01*
X7409364Y-16310754D02*
X7428412Y-16310754D01*
X7428412Y-16310754D02*
X7447459Y-16320278D01*
X7447459Y-16320278D02*
X7456983Y-16329801D01*
X7456983Y-16329801D02*
X7466507Y-16348849D01*
X7466507Y-16348849D02*
X7476031Y-16386944D01*
X7476031Y-16386944D02*
X7476031Y-16434563D01*
X7476031Y-16434563D02*
X7466507Y-16472658D01*
X7466507Y-16472658D02*
X7456983Y-16491706D01*
X7456983Y-16491706D02*
X7447459Y-16501230D01*
X7447459Y-16501230D02*
X7428412Y-16510754D01*
X7428412Y-16510754D02*
X7409364Y-16510754D01*
X7409364Y-16510754D02*
X7390316Y-16501230D01*
X7390316Y-16501230D02*
X7380793Y-16491706D01*
X7380793Y-16491706D02*
X7371269Y-16472658D01*
X7371269Y-16472658D02*
X7361745Y-16434563D01*
X7361745Y-16434563D02*
X7361745Y-16386944D01*
X7361745Y-16386944D02*
X7371269Y-16348849D01*
X7371269Y-16348849D02*
X7380793Y-16329801D01*
X7380793Y-16329801D02*
X7390316Y-16320278D01*
X7390316Y-16320278D02*
X7409364Y-16310754D01*
X7561745Y-16491706D02*
X7571269Y-16501230D01*
X7571269Y-16501230D02*
X7561745Y-16510754D01*
X7561745Y-16510754D02*
X7552221Y-16501230D01*
X7552221Y-16501230D02*
X7561745Y-16491706D01*
X7561745Y-16491706D02*
X7561745Y-16510754D01*
X7695078Y-16310754D02*
X7714126Y-16310754D01*
X7714126Y-16310754D02*
X7733174Y-16320278D01*
X7733174Y-16320278D02*
X7742697Y-16329801D01*
X7742697Y-16329801D02*
X7752221Y-16348849D01*
X7752221Y-16348849D02*
X7761745Y-16386944D01*
X7761745Y-16386944D02*
X7761745Y-16434563D01*
X7761745Y-16434563D02*
X7752221Y-16472658D01*
X7752221Y-16472658D02*
X7742697Y-16491706D01*
X7742697Y-16491706D02*
X7733174Y-16501230D01*
X7733174Y-16501230D02*
X7714126Y-16510754D01*
X7714126Y-16510754D02*
X7695078Y-16510754D01*
X7695078Y-16510754D02*
X7676031Y-16501230D01*
X7676031Y-16501230D02*
X7666507Y-16491706D01*
X7666507Y-16491706D02*
X7656983Y-16472658D01*
X7656983Y-16472658D02*
X7647459Y-16434563D01*
X7647459Y-16434563D02*
X7647459Y-16386944D01*
X7647459Y-16386944D02*
X7656983Y-16348849D01*
X7656983Y-16348849D02*
X7666507Y-16329801D01*
X7666507Y-16329801D02*
X7676031Y-16320278D01*
X7676031Y-16320278D02*
X7695078Y-16310754D01*
X7933174Y-16377420D02*
X7933174Y-16510754D01*
X7885555Y-16301230D02*
X7837936Y-16444087D01*
X7837936Y-16444087D02*
X7961745Y-16444087D01*
X8076031Y-16310754D02*
X8095078Y-16310754D01*
X8095078Y-16310754D02*
X8114126Y-16320278D01*
X8114126Y-16320278D02*
X8123650Y-16329801D01*
X8123650Y-16329801D02*
X8133174Y-16348849D01*
X8133174Y-16348849D02*
X8142697Y-16386944D01*
X8142697Y-16386944D02*
X8142697Y-16434563D01*
X8142697Y-16434563D02*
X8133174Y-16472658D01*
X8133174Y-16472658D02*
X8123650Y-16491706D01*
X8123650Y-16491706D02*
X8114126Y-16501230D01*
X8114126Y-16501230D02*
X8095078Y-16510754D01*
X8095078Y-16510754D02*
X8076031Y-16510754D01*
X8076031Y-16510754D02*
X8056983Y-16501230D01*
X8056983Y-16501230D02*
X8047459Y-16491706D01*
X8047459Y-16491706D02*
X8037936Y-16472658D01*
X8037936Y-16472658D02*
X8028412Y-16434563D01*
X8028412Y-16434563D02*
X8028412Y-16386944D01*
X8028412Y-16386944D02*
X8037936Y-16348849D01*
X8037936Y-16348849D02*
X8047459Y-16329801D01*
X8047459Y-16329801D02*
X8056983Y-16320278D01*
X8056983Y-16320278D02*
X8076031Y-16310754D01*
X8266507Y-16310754D02*
X8285555Y-16310754D01*
X8285555Y-16310754D02*
X8304602Y-16320278D01*
X8304602Y-16320278D02*
X8314126Y-16329801D01*
X8314126Y-16329801D02*
X8323650Y-16348849D01*
X8323650Y-16348849D02*
X8333174Y-16386944D01*
X8333174Y-16386944D02*
X8333174Y-16434563D01*
X8333174Y-16434563D02*
X8323650Y-16472658D01*
X8323650Y-16472658D02*
X8314126Y-16491706D01*
X8314126Y-16491706D02*
X8304602Y-16501230D01*
X8304602Y-16501230D02*
X8285555Y-16510754D01*
X8285555Y-16510754D02*
X8266507Y-16510754D01*
X8266507Y-16510754D02*
X8247459Y-16501230D01*
X8247459Y-16501230D02*
X8237936Y-16491706D01*
X8237936Y-16491706D02*
X8228412Y-16472658D01*
X8228412Y-16472658D02*
X8218888Y-16434563D01*
X8218888Y-16434563D02*
X8218888Y-16386944D01*
X8218888Y-16386944D02*
X8228412Y-16348849D01*
X8228412Y-16348849D02*
X8237936Y-16329801D01*
X8237936Y-16329801D02*
X8247459Y-16320278D01*
X8247459Y-16320278D02*
X8266507Y-16310754D01*
X8409364Y-16310754D02*
X8409364Y-16348849D01*
X8485555Y-16310754D02*
X8485555Y-16348849D01*
X8780793Y-16586944D02*
X8771269Y-16577420D01*
X8771269Y-16577420D02*
X8752221Y-16548849D01*
X8752221Y-16548849D02*
X8742698Y-16529801D01*
X8742698Y-16529801D02*
X8733174Y-16501230D01*
X8733174Y-16501230D02*
X8723650Y-16453611D01*
X8723650Y-16453611D02*
X8723650Y-16415516D01*
X8723650Y-16415516D02*
X8733174Y-16367897D01*
X8733174Y-16367897D02*
X8742698Y-16339325D01*
X8742698Y-16339325D02*
X8752221Y-16320278D01*
X8752221Y-16320278D02*
X8771269Y-16291706D01*
X8771269Y-16291706D02*
X8780793Y-16282182D01*
X8847460Y-16329801D02*
X8856983Y-16320278D01*
X8856983Y-16320278D02*
X8876031Y-16310754D01*
X8876031Y-16310754D02*
X8923650Y-16310754D01*
X8923650Y-16310754D02*
X8942698Y-16320278D01*
X8942698Y-16320278D02*
X8952221Y-16329801D01*
X8952221Y-16329801D02*
X8961745Y-16348849D01*
X8961745Y-16348849D02*
X8961745Y-16367897D01*
X8961745Y-16367897D02*
X8952221Y-16396468D01*
X8952221Y-16396468D02*
X8837936Y-16510754D01*
X8837936Y-16510754D02*
X8961745Y-16510754D01*
X9028412Y-16310754D02*
X9161745Y-16310754D01*
X9161745Y-16310754D02*
X9076031Y-16510754D01*
X9390317Y-16510754D02*
X9390317Y-16310754D01*
X9476031Y-16510754D02*
X9476031Y-16405992D01*
X9476031Y-16405992D02*
X9466507Y-16386944D01*
X9466507Y-16386944D02*
X9447460Y-16377420D01*
X9447460Y-16377420D02*
X9418888Y-16377420D01*
X9418888Y-16377420D02*
X9399841Y-16386944D01*
X9399841Y-16386944D02*
X9390317Y-16396468D01*
X9599841Y-16510754D02*
X9580793Y-16501230D01*
X9580793Y-16501230D02*
X9571269Y-16491706D01*
X9571269Y-16491706D02*
X9561745Y-16472658D01*
X9561745Y-16472658D02*
X9561745Y-16415516D01*
X9561745Y-16415516D02*
X9571269Y-16396468D01*
X9571269Y-16396468D02*
X9580793Y-16386944D01*
X9580793Y-16386944D02*
X9599841Y-16377420D01*
X9599841Y-16377420D02*
X9628412Y-16377420D01*
X9628412Y-16377420D02*
X9647460Y-16386944D01*
X9647460Y-16386944D02*
X9656983Y-16396468D01*
X9656983Y-16396468D02*
X9666507Y-16415516D01*
X9666507Y-16415516D02*
X9666507Y-16472658D01*
X9666507Y-16472658D02*
X9656983Y-16491706D01*
X9656983Y-16491706D02*
X9647460Y-16501230D01*
X9647460Y-16501230D02*
X9628412Y-16510754D01*
X9628412Y-16510754D02*
X9599841Y-16510754D01*
X9780793Y-16510754D02*
X9761745Y-16501230D01*
X9761745Y-16501230D02*
X9752222Y-16482182D01*
X9752222Y-16482182D02*
X9752222Y-16310754D01*
X9933174Y-16501230D02*
X9914126Y-16510754D01*
X9914126Y-16510754D02*
X9876031Y-16510754D01*
X9876031Y-16510754D02*
X9856983Y-16501230D01*
X9856983Y-16501230D02*
X9847460Y-16482182D01*
X9847460Y-16482182D02*
X9847460Y-16405992D01*
X9847460Y-16405992D02*
X9856983Y-16386944D01*
X9856983Y-16386944D02*
X9876031Y-16377420D01*
X9876031Y-16377420D02*
X9914126Y-16377420D01*
X9914126Y-16377420D02*
X9933174Y-16386944D01*
X9933174Y-16386944D02*
X9942698Y-16405992D01*
X9942698Y-16405992D02*
X9942698Y-16425039D01*
X9942698Y-16425039D02*
X9847460Y-16444087D01*
X10018888Y-16501230D02*
X10037936Y-16510754D01*
X10037936Y-16510754D02*
X10076031Y-16510754D01*
X10076031Y-16510754D02*
X10095079Y-16501230D01*
X10095079Y-16501230D02*
X10104603Y-16482182D01*
X10104603Y-16482182D02*
X10104603Y-16472658D01*
X10104603Y-16472658D02*
X10095079Y-16453611D01*
X10095079Y-16453611D02*
X10076031Y-16444087D01*
X10076031Y-16444087D02*
X10047460Y-16444087D01*
X10047460Y-16444087D02*
X10028412Y-16434563D01*
X10028412Y-16434563D02*
X10018888Y-16415516D01*
X10018888Y-16415516D02*
X10018888Y-16405992D01*
X10018888Y-16405992D02*
X10028412Y-16386944D01*
X10028412Y-16386944D02*
X10047460Y-16377420D01*
X10047460Y-16377420D02*
X10076031Y-16377420D01*
X10076031Y-16377420D02*
X10095079Y-16386944D01*
X10171269Y-16586944D02*
X10180793Y-16577420D01*
X10180793Y-16577420D02*
X10199841Y-16548849D01*
X10199841Y-16548849D02*
X10209364Y-16529801D01*
X10209364Y-16529801D02*
X10218888Y-16501230D01*
X10218888Y-16501230D02*
X10228412Y-16453611D01*
X10228412Y-16453611D02*
X10228412Y-16415516D01*
X10228412Y-16415516D02*
X10218888Y-16367897D01*
X10218888Y-16367897D02*
X10209364Y-16339325D01*
X10209364Y-16339325D02*
X10199841Y-16320278D01*
X10199841Y-16320278D02*
X10180793Y-16291706D01*
X10180793Y-16291706D02*
X10171269Y-16282182D01*
D14*
X5150730Y-16738270D02*
X5205730Y-16683270D01*
X5150730Y-16628270D01*
X5095730Y-16683270D01*
X5150730Y-16738270D01*
D11*
X5571269Y-16774754D02*
X5456983Y-16774754D01*
X5514126Y-16774754D02*
X5514126Y-16574754D01*
X5514126Y-16574754D02*
X5495078Y-16603325D01*
X5495078Y-16603325D02*
X5476031Y-16622373D01*
X5476031Y-16622373D02*
X5456983Y-16631897D01*
X5656983Y-16755706D02*
X5666507Y-16765230D01*
X5666507Y-16765230D02*
X5656983Y-16774754D01*
X5656983Y-16774754D02*
X5647459Y-16765230D01*
X5647459Y-16765230D02*
X5656983Y-16755706D01*
X5656983Y-16755706D02*
X5656983Y-16774754D01*
X5856983Y-16774754D02*
X5742697Y-16774754D01*
X5799840Y-16774754D02*
X5799840Y-16574754D01*
X5799840Y-16574754D02*
X5780792Y-16603325D01*
X5780792Y-16603325D02*
X5761745Y-16622373D01*
X5761745Y-16622373D02*
X5742697Y-16631897D01*
X5980792Y-16574754D02*
X5999840Y-16574754D01*
X5999840Y-16574754D02*
X6018888Y-16584278D01*
X6018888Y-16584278D02*
X6028412Y-16593801D01*
X6028412Y-16593801D02*
X6037935Y-16612849D01*
X6037935Y-16612849D02*
X6047459Y-16650944D01*
X6047459Y-16650944D02*
X6047459Y-16698563D01*
X6047459Y-16698563D02*
X6037935Y-16736658D01*
X6037935Y-16736658D02*
X6028412Y-16755706D01*
X6028412Y-16755706D02*
X6018888Y-16765230D01*
X6018888Y-16765230D02*
X5999840Y-16774754D01*
X5999840Y-16774754D02*
X5980792Y-16774754D01*
X5980792Y-16774754D02*
X5961745Y-16765230D01*
X5961745Y-16765230D02*
X5952221Y-16755706D01*
X5952221Y-16755706D02*
X5942697Y-16736658D01*
X5942697Y-16736658D02*
X5933173Y-16698563D01*
X5933173Y-16698563D02*
X5933173Y-16650944D01*
X5933173Y-16650944D02*
X5942697Y-16612849D01*
X5942697Y-16612849D02*
X5952221Y-16593801D01*
X5952221Y-16593801D02*
X5961745Y-16584278D01*
X5961745Y-16584278D02*
X5980792Y-16574754D01*
X6171269Y-16574754D02*
X6190316Y-16574754D01*
X6190316Y-16574754D02*
X6209364Y-16584278D01*
X6209364Y-16584278D02*
X6218888Y-16593801D01*
X6218888Y-16593801D02*
X6228412Y-16612849D01*
X6228412Y-16612849D02*
X6237935Y-16650944D01*
X6237935Y-16650944D02*
X6237935Y-16698563D01*
X6237935Y-16698563D02*
X6228412Y-16736658D01*
X6228412Y-16736658D02*
X6218888Y-16755706D01*
X6218888Y-16755706D02*
X6209364Y-16765230D01*
X6209364Y-16765230D02*
X6190316Y-16774754D01*
X6190316Y-16774754D02*
X6171269Y-16774754D01*
X6171269Y-16774754D02*
X6152221Y-16765230D01*
X6152221Y-16765230D02*
X6142697Y-16755706D01*
X6142697Y-16755706D02*
X6133173Y-16736658D01*
X6133173Y-16736658D02*
X6123650Y-16698563D01*
X6123650Y-16698563D02*
X6123650Y-16650944D01*
X6123650Y-16650944D02*
X6133173Y-16612849D01*
X6133173Y-16612849D02*
X6142697Y-16593801D01*
X6142697Y-16593801D02*
X6152221Y-16584278D01*
X6152221Y-16584278D02*
X6171269Y-16574754D01*
X6323650Y-16774754D02*
X6323650Y-16641420D01*
X6323650Y-16660468D02*
X6333173Y-16650944D01*
X6333173Y-16650944D02*
X6352221Y-16641420D01*
X6352221Y-16641420D02*
X6380793Y-16641420D01*
X6380793Y-16641420D02*
X6399840Y-16650944D01*
X6399840Y-16650944D02*
X6409364Y-16669992D01*
X6409364Y-16669992D02*
X6409364Y-16774754D01*
X6409364Y-16669992D02*
X6418888Y-16650944D01*
X6418888Y-16650944D02*
X6437935Y-16641420D01*
X6437935Y-16641420D02*
X6466507Y-16641420D01*
X6466507Y-16641420D02*
X6485554Y-16650944D01*
X6485554Y-16650944D02*
X6495078Y-16669992D01*
X6495078Y-16669992D02*
X6495078Y-16774754D01*
X6590316Y-16774754D02*
X6590316Y-16641420D01*
X6590316Y-16660468D02*
X6599840Y-16650944D01*
X6599840Y-16650944D02*
X6618888Y-16641420D01*
X6618888Y-16641420D02*
X6647459Y-16641420D01*
X6647459Y-16641420D02*
X6666507Y-16650944D01*
X6666507Y-16650944D02*
X6676031Y-16669992D01*
X6676031Y-16669992D02*
X6676031Y-16774754D01*
X6676031Y-16669992D02*
X6685554Y-16650944D01*
X6685554Y-16650944D02*
X6704602Y-16641420D01*
X6704602Y-16641420D02*
X6733173Y-16641420D01*
X6733173Y-16641420D02*
X6752221Y-16650944D01*
X6752221Y-16650944D02*
X6761745Y-16669992D01*
X6761745Y-16669992D02*
X6761745Y-16774754D01*
X7152221Y-16565230D02*
X6980793Y-16822373D01*
X7409364Y-16574754D02*
X7428412Y-16574754D01*
X7428412Y-16574754D02*
X7447459Y-16584278D01*
X7447459Y-16584278D02*
X7456983Y-16593801D01*
X7456983Y-16593801D02*
X7466507Y-16612849D01*
X7466507Y-16612849D02*
X7476031Y-16650944D01*
X7476031Y-16650944D02*
X7476031Y-16698563D01*
X7476031Y-16698563D02*
X7466507Y-16736658D01*
X7466507Y-16736658D02*
X7456983Y-16755706D01*
X7456983Y-16755706D02*
X7447459Y-16765230D01*
X7447459Y-16765230D02*
X7428412Y-16774754D01*
X7428412Y-16774754D02*
X7409364Y-16774754D01*
X7409364Y-16774754D02*
X7390316Y-16765230D01*
X7390316Y-16765230D02*
X7380793Y-16755706D01*
X7380793Y-16755706D02*
X7371269Y-16736658D01*
X7371269Y-16736658D02*
X7361745Y-16698563D01*
X7361745Y-16698563D02*
X7361745Y-16650944D01*
X7361745Y-16650944D02*
X7371269Y-16612849D01*
X7371269Y-16612849D02*
X7380793Y-16593801D01*
X7380793Y-16593801D02*
X7390316Y-16584278D01*
X7390316Y-16584278D02*
X7409364Y-16574754D01*
X7561745Y-16755706D02*
X7571269Y-16765230D01*
X7571269Y-16765230D02*
X7561745Y-16774754D01*
X7561745Y-16774754D02*
X7552221Y-16765230D01*
X7552221Y-16765230D02*
X7561745Y-16755706D01*
X7561745Y-16755706D02*
X7561745Y-16774754D01*
X7695078Y-16574754D02*
X7714126Y-16574754D01*
X7714126Y-16574754D02*
X7733174Y-16584278D01*
X7733174Y-16584278D02*
X7742697Y-16593801D01*
X7742697Y-16593801D02*
X7752221Y-16612849D01*
X7752221Y-16612849D02*
X7761745Y-16650944D01*
X7761745Y-16650944D02*
X7761745Y-16698563D01*
X7761745Y-16698563D02*
X7752221Y-16736658D01*
X7752221Y-16736658D02*
X7742697Y-16755706D01*
X7742697Y-16755706D02*
X7733174Y-16765230D01*
X7733174Y-16765230D02*
X7714126Y-16774754D01*
X7714126Y-16774754D02*
X7695078Y-16774754D01*
X7695078Y-16774754D02*
X7676031Y-16765230D01*
X7676031Y-16765230D02*
X7666507Y-16755706D01*
X7666507Y-16755706D02*
X7656983Y-16736658D01*
X7656983Y-16736658D02*
X7647459Y-16698563D01*
X7647459Y-16698563D02*
X7647459Y-16650944D01*
X7647459Y-16650944D02*
X7656983Y-16612849D01*
X7656983Y-16612849D02*
X7666507Y-16593801D01*
X7666507Y-16593801D02*
X7676031Y-16584278D01*
X7676031Y-16584278D02*
X7695078Y-16574754D01*
X7933174Y-16641420D02*
X7933174Y-16774754D01*
X7885555Y-16565230D02*
X7837936Y-16708087D01*
X7837936Y-16708087D02*
X7961745Y-16708087D01*
X8018888Y-16574754D02*
X8142697Y-16574754D01*
X8142697Y-16574754D02*
X8076031Y-16650944D01*
X8076031Y-16650944D02*
X8104602Y-16650944D01*
X8104602Y-16650944D02*
X8123650Y-16660468D01*
X8123650Y-16660468D02*
X8133174Y-16669992D01*
X8133174Y-16669992D02*
X8142697Y-16689039D01*
X8142697Y-16689039D02*
X8142697Y-16736658D01*
X8142697Y-16736658D02*
X8133174Y-16755706D01*
X8133174Y-16755706D02*
X8123650Y-16765230D01*
X8123650Y-16765230D02*
X8104602Y-16774754D01*
X8104602Y-16774754D02*
X8047459Y-16774754D01*
X8047459Y-16774754D02*
X8028412Y-16765230D01*
X8028412Y-16765230D02*
X8018888Y-16755706D01*
X8209364Y-16574754D02*
X8333174Y-16574754D01*
X8333174Y-16574754D02*
X8266507Y-16650944D01*
X8266507Y-16650944D02*
X8295078Y-16650944D01*
X8295078Y-16650944D02*
X8314126Y-16660468D01*
X8314126Y-16660468D02*
X8323650Y-16669992D01*
X8323650Y-16669992D02*
X8333174Y-16689039D01*
X8333174Y-16689039D02*
X8333174Y-16736658D01*
X8333174Y-16736658D02*
X8323650Y-16755706D01*
X8323650Y-16755706D02*
X8314126Y-16765230D01*
X8314126Y-16765230D02*
X8295078Y-16774754D01*
X8295078Y-16774754D02*
X8237936Y-16774754D01*
X8237936Y-16774754D02*
X8218888Y-16765230D01*
X8218888Y-16765230D02*
X8209364Y-16755706D01*
X8409364Y-16574754D02*
X8409364Y-16612849D01*
X8485555Y-16574754D02*
X8485555Y-16612849D01*
X8780793Y-16850944D02*
X8771269Y-16841420D01*
X8771269Y-16841420D02*
X8752221Y-16812849D01*
X8752221Y-16812849D02*
X8742698Y-16793801D01*
X8742698Y-16793801D02*
X8733174Y-16765230D01*
X8733174Y-16765230D02*
X8723650Y-16717611D01*
X8723650Y-16717611D02*
X8723650Y-16679516D01*
X8723650Y-16679516D02*
X8733174Y-16631897D01*
X8733174Y-16631897D02*
X8742698Y-16603325D01*
X8742698Y-16603325D02*
X8752221Y-16584278D01*
X8752221Y-16584278D02*
X8771269Y-16555706D01*
X8771269Y-16555706D02*
X8780793Y-16546182D01*
X8895079Y-16574754D02*
X8914126Y-16574754D01*
X8914126Y-16574754D02*
X8933174Y-16584278D01*
X8933174Y-16584278D02*
X8942698Y-16593801D01*
X8942698Y-16593801D02*
X8952221Y-16612849D01*
X8952221Y-16612849D02*
X8961745Y-16650944D01*
X8961745Y-16650944D02*
X8961745Y-16698563D01*
X8961745Y-16698563D02*
X8952221Y-16736658D01*
X8952221Y-16736658D02*
X8942698Y-16755706D01*
X8942698Y-16755706D02*
X8933174Y-16765230D01*
X8933174Y-16765230D02*
X8914126Y-16774754D01*
X8914126Y-16774754D02*
X8895079Y-16774754D01*
X8895079Y-16774754D02*
X8876031Y-16765230D01*
X8876031Y-16765230D02*
X8866507Y-16755706D01*
X8866507Y-16755706D02*
X8856983Y-16736658D01*
X8856983Y-16736658D02*
X8847460Y-16698563D01*
X8847460Y-16698563D02*
X8847460Y-16650944D01*
X8847460Y-16650944D02*
X8856983Y-16612849D01*
X8856983Y-16612849D02*
X8866507Y-16593801D01*
X8866507Y-16593801D02*
X8876031Y-16584278D01*
X8876031Y-16584278D02*
X8895079Y-16574754D01*
X9199841Y-16774754D02*
X9199841Y-16574754D01*
X9285555Y-16774754D02*
X9285555Y-16669992D01*
X9285555Y-16669992D02*
X9276031Y-16650944D01*
X9276031Y-16650944D02*
X9256983Y-16641420D01*
X9256983Y-16641420D02*
X9228412Y-16641420D01*
X9228412Y-16641420D02*
X9209364Y-16650944D01*
X9209364Y-16650944D02*
X9199841Y-16660468D01*
X9409364Y-16774754D02*
X9390317Y-16765230D01*
X9390317Y-16765230D02*
X9380793Y-16755706D01*
X9380793Y-16755706D02*
X9371269Y-16736658D01*
X9371269Y-16736658D02*
X9371269Y-16679516D01*
X9371269Y-16679516D02*
X9380793Y-16660468D01*
X9380793Y-16660468D02*
X9390317Y-16650944D01*
X9390317Y-16650944D02*
X9409364Y-16641420D01*
X9409364Y-16641420D02*
X9437936Y-16641420D01*
X9437936Y-16641420D02*
X9456983Y-16650944D01*
X9456983Y-16650944D02*
X9466507Y-16660468D01*
X9466507Y-16660468D02*
X9476031Y-16679516D01*
X9476031Y-16679516D02*
X9476031Y-16736658D01*
X9476031Y-16736658D02*
X9466507Y-16755706D01*
X9466507Y-16755706D02*
X9456983Y-16765230D01*
X9456983Y-16765230D02*
X9437936Y-16774754D01*
X9437936Y-16774754D02*
X9409364Y-16774754D01*
X9590317Y-16774754D02*
X9571269Y-16765230D01*
X9571269Y-16765230D02*
X9561745Y-16746182D01*
X9561745Y-16746182D02*
X9561745Y-16574754D01*
X9742698Y-16765230D02*
X9723650Y-16774754D01*
X9723650Y-16774754D02*
X9685555Y-16774754D01*
X9685555Y-16774754D02*
X9666507Y-16765230D01*
X9666507Y-16765230D02*
X9656983Y-16746182D01*
X9656983Y-16746182D02*
X9656983Y-16669992D01*
X9656983Y-16669992D02*
X9666507Y-16650944D01*
X9666507Y-16650944D02*
X9685555Y-16641420D01*
X9685555Y-16641420D02*
X9723650Y-16641420D01*
X9723650Y-16641420D02*
X9742698Y-16650944D01*
X9742698Y-16650944D02*
X9752222Y-16669992D01*
X9752222Y-16669992D02*
X9752222Y-16689039D01*
X9752222Y-16689039D02*
X9656983Y-16708087D01*
X9828412Y-16765230D02*
X9847460Y-16774754D01*
X9847460Y-16774754D02*
X9885555Y-16774754D01*
X9885555Y-16774754D02*
X9904603Y-16765230D01*
X9904603Y-16765230D02*
X9914126Y-16746182D01*
X9914126Y-16746182D02*
X9914126Y-16736658D01*
X9914126Y-16736658D02*
X9904603Y-16717611D01*
X9904603Y-16717611D02*
X9885555Y-16708087D01*
X9885555Y-16708087D02*
X9856983Y-16708087D01*
X9856983Y-16708087D02*
X9837936Y-16698563D01*
X9837936Y-16698563D02*
X9828412Y-16679516D01*
X9828412Y-16679516D02*
X9828412Y-16669992D01*
X9828412Y-16669992D02*
X9837936Y-16650944D01*
X9837936Y-16650944D02*
X9856983Y-16641420D01*
X9856983Y-16641420D02*
X9885555Y-16641420D01*
X9885555Y-16641420D02*
X9904603Y-16650944D01*
X10152222Y-16698563D02*
X10304603Y-16698563D01*
X10228412Y-16774754D02*
X10228412Y-16622373D01*
X10542698Y-16593801D02*
X10552222Y-16584278D01*
X10552222Y-16584278D02*
X10571269Y-16574754D01*
X10571269Y-16574754D02*
X10618888Y-16574754D01*
X10618888Y-16574754D02*
X10637936Y-16584278D01*
X10637936Y-16584278D02*
X10647460Y-16593801D01*
X10647460Y-16593801D02*
X10656984Y-16612849D01*
X10656984Y-16612849D02*
X10656984Y-16631897D01*
X10656984Y-16631897D02*
X10647460Y-16660468D01*
X10647460Y-16660468D02*
X10533174Y-16774754D01*
X10533174Y-16774754D02*
X10656984Y-16774754D01*
X10885555Y-16765230D02*
X10904603Y-16774754D01*
X10904603Y-16774754D02*
X10942698Y-16774754D01*
X10942698Y-16774754D02*
X10961746Y-16765230D01*
X10961746Y-16765230D02*
X10971269Y-16746182D01*
X10971269Y-16746182D02*
X10971269Y-16736658D01*
X10971269Y-16736658D02*
X10961746Y-16717611D01*
X10961746Y-16717611D02*
X10942698Y-16708087D01*
X10942698Y-16708087D02*
X10914126Y-16708087D01*
X10914126Y-16708087D02*
X10895079Y-16698563D01*
X10895079Y-16698563D02*
X10885555Y-16679516D01*
X10885555Y-16679516D02*
X10885555Y-16669992D01*
X10885555Y-16669992D02*
X10895079Y-16650944D01*
X10895079Y-16650944D02*
X10914126Y-16641420D01*
X10914126Y-16641420D02*
X10942698Y-16641420D01*
X10942698Y-16641420D02*
X10961746Y-16650944D01*
X11085555Y-16774754D02*
X11066507Y-16765230D01*
X11066507Y-16765230D02*
X11056984Y-16746182D01*
X11056984Y-16746182D02*
X11056984Y-16574754D01*
X11190317Y-16774754D02*
X11171269Y-16765230D01*
X11171269Y-16765230D02*
X11161746Y-16755706D01*
X11161746Y-16755706D02*
X11152222Y-16736658D01*
X11152222Y-16736658D02*
X11152222Y-16679516D01*
X11152222Y-16679516D02*
X11161746Y-16660468D01*
X11161746Y-16660468D02*
X11171269Y-16650944D01*
X11171269Y-16650944D02*
X11190317Y-16641420D01*
X11190317Y-16641420D02*
X11218888Y-16641420D01*
X11218888Y-16641420D02*
X11237936Y-16650944D01*
X11237936Y-16650944D02*
X11247460Y-16660468D01*
X11247460Y-16660468D02*
X11256984Y-16679516D01*
X11256984Y-16679516D02*
X11256984Y-16736658D01*
X11256984Y-16736658D02*
X11247460Y-16755706D01*
X11247460Y-16755706D02*
X11237936Y-16765230D01*
X11237936Y-16765230D02*
X11218888Y-16774754D01*
X11218888Y-16774754D02*
X11190317Y-16774754D01*
X11314126Y-16641420D02*
X11390317Y-16641420D01*
X11342698Y-16574754D02*
X11342698Y-16746182D01*
X11342698Y-16746182D02*
X11352222Y-16765230D01*
X11352222Y-16765230D02*
X11371269Y-16774754D01*
X11371269Y-16774754D02*
X11390317Y-16774754D01*
X11447460Y-16765230D02*
X11466507Y-16774754D01*
X11466507Y-16774754D02*
X11504603Y-16774754D01*
X11504603Y-16774754D02*
X11523650Y-16765230D01*
X11523650Y-16765230D02*
X11533174Y-16746182D01*
X11533174Y-16746182D02*
X11533174Y-16736658D01*
X11533174Y-16736658D02*
X11523650Y-16717611D01*
X11523650Y-16717611D02*
X11504603Y-16708087D01*
X11504603Y-16708087D02*
X11476031Y-16708087D01*
X11476031Y-16708087D02*
X11456984Y-16698563D01*
X11456984Y-16698563D02*
X11447460Y-16679516D01*
X11447460Y-16679516D02*
X11447460Y-16669992D01*
X11447460Y-16669992D02*
X11456984Y-16650944D01*
X11456984Y-16650944D02*
X11476031Y-16641420D01*
X11476031Y-16641420D02*
X11504603Y-16641420D01*
X11504603Y-16641420D02*
X11523650Y-16650944D01*
X11599841Y-16850944D02*
X11609365Y-16841420D01*
X11609365Y-16841420D02*
X11628412Y-16812849D01*
X11628412Y-16812849D02*
X11637936Y-16793801D01*
X11637936Y-16793801D02*
X11647460Y-16765230D01*
X11647460Y-16765230D02*
X11656984Y-16717611D01*
X11656984Y-16717611D02*
X11656984Y-16679516D01*
X11656984Y-16679516D02*
X11647460Y-16631897D01*
X11647460Y-16631897D02*
X11637936Y-16603325D01*
X11637936Y-16603325D02*
X11628412Y-16584278D01*
X11628412Y-16584278D02*
X11609365Y-16555706D01*
X11609365Y-16555706D02*
X11599841Y-16546182D01*
M02*
