G04 #@! TF.GenerationSoftware,KiCad,Pcbnew,8.0.2*
G04 #@! TF.CreationDate,2025-05-17T16:19:13-07:00*
G04 #@! TF.ProjectId,Exits-1U,45786974-732d-4315-952e-6b696361645f,2.1*
G04 #@! TF.SameCoordinates,Original*
G04 #@! TF.FileFunction,Copper,L1,Top*
G04 #@! TF.FilePolarity,Positive*
%FSLAX46Y46*%
G04 Gerber Fmt 4.6, Leading zero omitted, Abs format (unit mm)*
G04 Created by KiCad (PCBNEW 8.0.2) date 2025-05-17 16:19:13*
%MOMM*%
%LPD*%
G01*
G04 APERTURE LIST*
G04 Aperture macros list*
%AMRoundRect*
0 Rectangle with rounded corners*
0 $1 Rounding radius*
0 $2 $3 $4 $5 $6 $7 $8 $9 X,Y pos of 4 corners*
0 Add a 4 corners polygon primitive as box body*
4,1,4,$2,$3,$4,$5,$6,$7,$8,$9,$2,$3,0*
0 Add four circle primitives for the rounded corners*
1,1,$1+$1,$2,$3*
1,1,$1+$1,$4,$5*
1,1,$1+$1,$6,$7*
1,1,$1+$1,$8,$9*
0 Add four rect primitives between the rounded corners*
20,1,$1+$1,$2,$3,$4,$5,0*
20,1,$1+$1,$4,$5,$6,$7,0*
20,1,$1+$1,$6,$7,$8,$9,0*
20,1,$1+$1,$8,$9,$2,$3,0*%
%AMHorizOval*
0 Thick line with rounded ends*
0 $1 width*
0 $2 $3 position (X,Y) of the first rounded end (center of the circle)*
0 $4 $5 position (X,Y) of the second rounded end (center of the circle)*
0 Add line between two ends*
20,1,$1,$2,$3,$4,$5,0*
0 Add two circle primitives to create the rounded ends*
1,1,$1,$2,$3*
1,1,$1,$4,$5*%
G04 Aperture macros list end*
G04 #@! TA.AperFunction,SMDPad,CuDef*
%ADD10RoundRect,0.150000X-0.150000X0.825000X-0.150000X-0.825000X0.150000X-0.825000X0.150000X0.825000X0*%
G04 #@! TD*
G04 #@! TA.AperFunction,ComponentPad*
%ADD11C,1.727200*%
G04 #@! TD*
G04 #@! TA.AperFunction,SMDPad,CuDef*
%ADD12RoundRect,0.250000X-0.350000X-0.450000X0.350000X-0.450000X0.350000X0.450000X-0.350000X0.450000X0*%
G04 #@! TD*
G04 #@! TA.AperFunction,ComponentPad*
%ADD13O,2.720000X3.240000*%
G04 #@! TD*
G04 #@! TA.AperFunction,ComponentPad*
%ADD14R,1.800000X1.800000*%
G04 #@! TD*
G04 #@! TA.AperFunction,ComponentPad*
%ADD15C,1.800000*%
G04 #@! TD*
G04 #@! TA.AperFunction,SMDPad,CuDef*
%ADD16RoundRect,0.250000X-0.337500X-0.475000X0.337500X-0.475000X0.337500X0.475000X-0.337500X0.475000X0*%
G04 #@! TD*
G04 #@! TA.AperFunction,ComponentPad*
%ADD17HorizOval,1.508000X-0.533159X-0.533159X0.533159X0.533159X0*%
G04 #@! TD*
G04 #@! TA.AperFunction,ComponentPad*
%ADD18O,1.508000X3.016000*%
G04 #@! TD*
G04 #@! TA.AperFunction,ComponentPad*
%ADD19O,3.016000X1.508000*%
G04 #@! TD*
G04 #@! TA.AperFunction,SMDPad,CuDef*
%ADD20RoundRect,0.250000X-0.450000X0.350000X-0.450000X-0.350000X0.450000X-0.350000X0.450000X0.350000X0*%
G04 #@! TD*
G04 #@! TA.AperFunction,SMDPad,CuDef*
%ADD21RoundRect,0.250000X0.450000X-0.350000X0.450000X0.350000X-0.450000X0.350000X-0.450000X-0.350000X0*%
G04 #@! TD*
G04 #@! TA.AperFunction,SMDPad,CuDef*
%ADD22RoundRect,0.250000X0.337500X0.475000X-0.337500X0.475000X-0.337500X-0.475000X0.337500X-0.475000X0*%
G04 #@! TD*
G04 #@! TA.AperFunction,ComponentPad*
%ADD23R,1.700000X1.700000*%
G04 #@! TD*
G04 #@! TA.AperFunction,ComponentPad*
%ADD24O,1.700000X1.700000*%
G04 #@! TD*
G04 #@! TA.AperFunction,ComponentPad*
%ADD25RoundRect,0.250000X0.600000X0.600000X-0.600000X0.600000X-0.600000X-0.600000X0.600000X-0.600000X0*%
G04 #@! TD*
G04 #@! TA.AperFunction,ComponentPad*
%ADD26C,1.700000*%
G04 #@! TD*
G04 #@! TA.AperFunction,ComponentPad*
%ADD27C,1.300000*%
G04 #@! TD*
G04 #@! TA.AperFunction,ViaPad*
%ADD28C,0.762000*%
G04 #@! TD*
G04 #@! TA.AperFunction,Conductor*
%ADD29C,0.304800*%
G04 #@! TD*
G04 #@! TA.AperFunction,Conductor*
%ADD30C,0.635000*%
G04 #@! TD*
G04 #@! TA.AperFunction,Conductor*
%ADD31C,0.508000*%
G04 #@! TD*
G04 APERTURE END LIST*
D10*
X124358400Y-135802600D03*
X123088400Y-135802600D03*
X121818400Y-135802600D03*
X120548400Y-135802600D03*
X120548400Y-140752600D03*
X121818400Y-140752600D03*
X123088400Y-140752600D03*
X124358400Y-140752600D03*
D11*
X67945000Y-119354600D03*
X70485000Y-119354600D03*
X78105000Y-119354600D03*
D10*
X97713800Y-136005800D03*
X96443800Y-136005800D03*
X95173800Y-136005800D03*
X93903800Y-136005800D03*
X93903800Y-140955800D03*
X95173800Y-140955800D03*
X96443800Y-140955800D03*
X97713800Y-140955800D03*
D11*
X55245000Y-119354600D03*
X57785000Y-119354600D03*
X65405000Y-119354600D03*
D12*
X82312000Y-132080000D03*
X84312000Y-132080000D03*
D11*
X61595000Y-107924600D03*
X64135000Y-107924600D03*
X71755000Y-107924600D03*
D12*
X98212400Y-129235200D03*
X100212400Y-129235200D03*
D13*
X118414800Y-107950000D03*
X127914800Y-107950000D03*
D14*
X120664800Y-115450000D03*
D15*
X123164800Y-115450000D03*
X125664800Y-115450000D03*
X120664800Y-117950000D03*
X123164800Y-117950000D03*
X125664800Y-117950000D03*
D12*
X95418400Y-148132800D03*
X97418400Y-148132800D03*
D10*
X83794600Y-135853400D03*
X82524600Y-135853400D03*
X81254600Y-135853400D03*
X79984600Y-135853400D03*
X79984600Y-140803400D03*
X81254600Y-140803400D03*
X82524600Y-140803400D03*
X83794600Y-140803400D03*
D16*
X95380900Y-145592800D03*
X97455900Y-145592800D03*
D12*
X127457200Y-128930400D03*
X129457200Y-128930400D03*
X86680800Y-139446000D03*
X88680800Y-139446000D03*
X107153200Y-131775200D03*
X109153200Y-131775200D03*
X127355600Y-145999200D03*
X129355600Y-145999200D03*
X118446800Y-144424400D03*
X120446800Y-144424400D03*
D11*
X106095800Y-119354600D03*
X108635800Y-119354600D03*
X116255800Y-119354600D03*
D17*
X147293200Y-145718400D03*
D18*
X136197200Y-141622400D03*
D19*
X143197200Y-134622400D03*
D12*
X80788000Y-144983200D03*
X82788000Y-144983200D03*
D20*
X100431600Y-145812000D03*
X100431600Y-147812000D03*
D11*
X93342800Y-119354600D03*
X95882800Y-119354600D03*
X103502800Y-119354600D03*
D21*
X102971600Y-131556000D03*
X102971600Y-129556000D03*
D22*
X129545500Y-142494000D03*
X127470500Y-142494000D03*
D11*
X74345800Y-107924600D03*
X76885800Y-107924600D03*
X84505800Y-107924600D03*
D23*
X54660800Y-137160000D03*
D24*
X54660800Y-134620000D03*
X54660800Y-132080000D03*
X54660800Y-129540000D03*
D11*
X80645000Y-119354600D03*
X83185000Y-119354600D03*
X90805000Y-119354600D03*
D12*
X127406400Y-148386800D03*
X129406400Y-148386800D03*
D10*
X110642400Y-136070800D03*
X109372400Y-136070800D03*
X108102400Y-136070800D03*
X106832400Y-136070800D03*
X106832400Y-141020800D03*
X108102400Y-141020800D03*
X109372400Y-141020800D03*
X110642400Y-141020800D03*
D11*
X86992800Y-107924600D03*
X89532800Y-107924600D03*
X97152800Y-107924600D03*
D12*
X127355600Y-131724400D03*
X129355600Y-131724400D03*
D11*
X99695000Y-107924600D03*
X102235000Y-107924600D03*
X109855000Y-107924600D03*
D16*
X98073300Y-131775200D03*
X100148300Y-131775200D03*
D12*
X87900000Y-132029200D03*
X89900000Y-132029200D03*
X86731600Y-136855200D03*
X88731600Y-136855200D03*
D22*
X129443900Y-137414000D03*
X127368900Y-137414000D03*
D12*
X90440000Y-145694400D03*
X92440000Y-145694400D03*
D23*
X132588000Y-133705600D03*
D24*
X132588000Y-136245600D03*
X132588000Y-138785600D03*
X132588000Y-141325600D03*
X132588000Y-143865600D03*
X132588000Y-146405600D03*
D23*
X132588000Y-108915200D03*
D24*
X132588000Y-111455200D03*
X132588000Y-113995200D03*
X132588000Y-116535200D03*
X132588000Y-119075200D03*
X132588000Y-121615200D03*
D23*
X116743400Y-135905000D03*
D24*
X114203400Y-135905000D03*
X116743400Y-138445000D03*
X114203400Y-138445000D03*
X116743400Y-140985000D03*
X114203400Y-140985000D03*
D25*
X63754000Y-133299200D03*
D26*
X61214000Y-133299200D03*
X63754000Y-135839200D03*
X61214000Y-135839200D03*
X63754000Y-138379200D03*
X61214000Y-138379200D03*
X63754000Y-140919200D03*
X61214000Y-140919200D03*
X63754000Y-143459200D03*
X61214000Y-143459200D03*
D27*
X90220800Y-142036800D03*
X87680800Y-142036800D03*
X90220800Y-134436800D03*
X87680800Y-134436800D03*
D23*
X54610000Y-112369600D03*
D24*
X54610000Y-109829600D03*
X54610000Y-107289600D03*
X54610000Y-104749600D03*
D28*
X108811576Y-134313176D03*
X112320824Y-135737600D03*
X126949200Y-139598400D03*
X121767600Y-138582400D03*
X118770400Y-146202400D03*
X95504000Y-133654800D03*
X78689200Y-141376400D03*
X93929200Y-143510000D03*
X105054400Y-131775200D03*
X81330800Y-133553200D03*
X123574900Y-142991250D03*
X110337600Y-143256000D03*
X97688400Y-143256000D03*
X83820000Y-143154400D03*
X106853900Y-133604000D03*
X120650000Y-133654800D03*
X80010000Y-133350000D03*
X93980000Y-133350000D03*
X84886800Y-133756400D03*
X77012800Y-137769600D03*
X82524600Y-133756400D03*
X82448400Y-102768400D03*
X76047600Y-124104400D03*
X95300800Y-102768400D03*
X69748400Y-102768400D03*
X89103200Y-124104400D03*
X101803200Y-124104400D03*
X108102400Y-102768400D03*
X69545200Y-113538000D03*
X101854000Y-113538000D03*
X82296000Y-113538000D03*
X76149200Y-113538000D03*
X89204800Y-113538000D03*
X95605600Y-113538000D03*
X108153200Y-113538000D03*
X124612400Y-147523200D03*
X125628400Y-112877600D03*
X111826800Y-129556000D03*
X119024400Y-134569200D03*
X85496400Y-142036800D03*
X82524600Y-143306800D03*
D29*
X112320824Y-135737600D02*
X112369600Y-135737600D01*
X106832400Y-139446000D02*
X108102400Y-138176000D01*
X115798600Y-132867400D02*
X123397100Y-132867400D01*
X109286800Y-131775200D02*
X109286800Y-133837952D01*
X112369600Y-135737600D02*
X114706400Y-133400800D01*
X109286800Y-133837952D02*
X108811576Y-134313176D01*
X123397100Y-132867400D02*
X127368900Y-136839200D01*
X108811576Y-134313176D02*
X108102400Y-135022352D01*
X108102400Y-135022352D02*
X108102400Y-136070800D01*
X114706400Y-133400800D02*
X115265200Y-133400800D01*
X106832400Y-141020800D02*
X106832400Y-139446000D01*
X127368900Y-136839200D02*
X127368900Y-137414000D01*
X115265200Y-133400800D02*
X115798600Y-132867400D01*
X108102400Y-138176000D02*
X108102400Y-136070800D01*
X131419600Y-137414000D02*
X132791200Y-138785600D01*
X130018700Y-137414000D02*
X131419600Y-137414000D01*
X120548400Y-139954000D02*
X121767600Y-138734800D01*
X127673700Y-140322900D02*
X127673700Y-142494000D01*
X120446800Y-144424400D02*
X120599200Y-144272000D01*
X126949200Y-139598400D02*
X127673700Y-140322900D01*
X121767600Y-138582400D02*
X121767600Y-135874400D01*
X120599200Y-144272000D02*
X120599200Y-141249400D01*
X120599200Y-141249400D02*
X120589400Y-141239600D01*
X120589400Y-140089300D02*
X120589400Y-141239600D01*
X121767600Y-138734800D02*
X121767600Y-138582400D01*
X121767600Y-135874400D02*
X121818400Y-135874400D01*
X120548400Y-140752600D02*
X120548400Y-139954000D01*
X131419600Y-142494000D02*
X130171100Y-142494000D01*
X132842000Y-143916400D02*
X131419600Y-142494000D01*
X96443800Y-132105400D02*
X96367600Y-132029200D01*
X98073300Y-131775200D02*
X98073300Y-129374300D01*
X96367600Y-132029200D02*
X97819300Y-132029200D01*
X96443800Y-135480800D02*
X96443800Y-132105400D01*
X98073300Y-129374300D02*
X98212400Y-129235200D01*
X97819300Y-132029200D02*
X98073300Y-131775200D01*
X89900000Y-132029200D02*
X96367600Y-132029200D01*
X100148300Y-131775200D02*
X102752400Y-131775200D01*
X100148300Y-133046300D02*
X100148300Y-131775200D01*
X102752400Y-131775200D02*
X102971600Y-131556000D01*
X97713800Y-135480800D02*
X100148300Y-133046300D01*
X95380900Y-145592800D02*
X95380900Y-141687900D01*
X95418400Y-148132800D02*
X95418400Y-145630300D01*
X95380900Y-141687900D02*
X95173800Y-141480800D01*
X95418400Y-145630300D02*
X95380900Y-145592800D01*
X92440000Y-145694400D02*
X95279300Y-145694400D01*
X95279300Y-145694400D02*
X95380900Y-145592800D01*
X100212400Y-145592800D02*
X100431600Y-145812000D01*
X97455900Y-145592800D02*
X100212400Y-145592800D01*
X96443800Y-144580700D02*
X96443800Y-141480800D01*
X97455900Y-145592800D02*
X96443800Y-144580700D01*
D30*
X93903800Y-141480800D02*
X93903800Y-143484600D01*
D29*
X107153200Y-131775200D02*
X105054400Y-131775200D01*
D30*
X79984600Y-141328400D02*
X78737200Y-141328400D01*
D29*
X118446800Y-145878800D02*
X118770400Y-146202400D01*
D30*
X95173800Y-135480800D02*
X95173800Y-133985000D01*
X95173800Y-133985000D02*
X95504000Y-133654800D01*
X81254600Y-135328400D02*
X81254600Y-133629400D01*
X81254600Y-133629400D02*
X81330800Y-133553200D01*
X93903800Y-143484600D02*
X93929200Y-143510000D01*
D29*
X118446800Y-144424400D02*
X118446800Y-145878800D01*
D30*
X78737200Y-141328400D02*
X78689200Y-141376400D01*
D29*
X110642400Y-142951200D02*
X110337600Y-143256000D01*
D31*
X83820000Y-143154400D02*
X83820000Y-141353800D01*
D29*
X124358400Y-140752600D02*
X124358400Y-141727599D01*
X123574900Y-142511099D02*
X123574900Y-142991250D01*
D31*
X83820000Y-141353800D02*
X83794600Y-141328400D01*
D30*
X97688400Y-141506200D02*
X97713800Y-141480800D01*
X97688400Y-143256000D02*
X97688400Y-141506200D01*
D29*
X110642400Y-141020800D02*
X110642400Y-142951200D01*
X124358400Y-141727599D02*
X123574900Y-142511099D01*
X106832400Y-133625500D02*
X106853900Y-133604000D01*
X106832400Y-136070800D02*
X106832400Y-133625500D01*
X120589400Y-135315600D02*
X120589400Y-133715400D01*
D30*
X80010000Y-135303000D02*
X79984600Y-135328400D01*
X80010000Y-133350000D02*
X80010000Y-135303000D01*
X93980000Y-133350000D02*
X93980000Y-135404600D01*
X93980000Y-135404600D02*
X93903800Y-135480800D01*
D29*
X120589400Y-133715400D02*
X120650000Y-133654800D01*
X109372400Y-136070800D02*
X110642400Y-136070800D01*
X110617000Y-133324600D02*
X115011200Y-128930400D01*
X110642400Y-136070800D02*
X110617000Y-136045400D01*
X115011200Y-128930400D02*
X127457200Y-128930400D01*
X110617000Y-136045400D02*
X110617000Y-133324600D01*
X109372400Y-141020800D02*
X109372400Y-140045801D01*
X111533424Y-134393424D02*
X114202448Y-131724400D01*
X114202448Y-131724400D02*
X127355600Y-131724400D01*
X109372400Y-141020800D02*
X108102400Y-141020800D01*
X109372400Y-140045801D02*
X111533424Y-137884777D01*
X111533424Y-137884777D02*
X111533424Y-134393424D01*
X125476000Y-137464800D02*
X125463300Y-137477500D01*
X127355600Y-145576800D02*
X127355600Y-145999200D01*
X125476000Y-136920200D02*
X125476000Y-137464800D01*
X125463300Y-137477500D02*
X125463300Y-143684500D01*
X124358400Y-135802600D02*
X125476000Y-136920200D01*
X125463300Y-143684500D02*
X127355600Y-145576800D01*
X124358400Y-135802600D02*
X123088400Y-135802600D01*
X126902448Y-148386800D02*
X121818400Y-143302752D01*
X127406400Y-148386800D02*
X126902448Y-148386800D01*
X121818400Y-143302752D02*
X121818400Y-140752600D01*
X123088400Y-140752600D02*
X121818400Y-140752600D01*
X69596000Y-130962400D02*
X76403200Y-137769600D01*
X82524600Y-135328400D02*
X82524600Y-133756400D01*
X82524600Y-132292600D02*
X82312000Y-132080000D01*
X82524600Y-133756400D02*
X82524600Y-132292600D01*
X57505600Y-130962400D02*
X69596000Y-130962400D01*
X76403200Y-137769600D02*
X77012800Y-137769600D01*
X86731600Y-135601200D02*
X84886800Y-133756400D01*
X57505600Y-134315200D02*
X57505600Y-130962400D01*
X86731600Y-136855200D02*
X86731600Y-135601200D01*
X54660800Y-137160000D02*
X57505600Y-134315200D01*
X81254600Y-144516600D02*
X80788000Y-144983200D01*
X86512400Y-139614400D02*
X86680800Y-139446000D01*
X81254600Y-140803400D02*
X81254600Y-139828401D01*
X70966199Y-129540000D02*
X54660800Y-129540000D01*
X80788000Y-144983200D02*
X81894400Y-146089600D01*
X81254600Y-141328400D02*
X81254600Y-144516600D01*
X81254600Y-139828401D02*
X70966199Y-129540000D01*
X81254600Y-141328400D02*
X81254600Y-140589000D01*
X81894400Y-146089600D02*
X86512400Y-146089600D01*
X86512400Y-146089600D02*
X86512400Y-139614400D01*
X53176200Y-122823000D02*
X54457600Y-124104400D01*
X82448400Y-102768400D02*
X95300800Y-102768400D01*
X69748400Y-102768400D02*
X82448400Y-102768400D01*
X89103200Y-124104400D02*
X101803200Y-124104400D01*
X54457600Y-124104400D02*
X76047600Y-124104400D01*
X54432600Y-104333200D02*
X53176200Y-105589600D01*
X53176200Y-105589600D02*
X53176200Y-122823000D01*
X76047600Y-124104400D02*
X89103200Y-124104400D01*
X58724800Y-103174800D02*
X59131200Y-102768400D01*
X95300800Y-102768400D02*
X108102400Y-102768400D01*
X59131200Y-102768400D02*
X69748400Y-102768400D01*
X57566400Y-104333200D02*
X58724800Y-103174800D01*
X54432600Y-104333200D02*
X57566400Y-104333200D01*
X54432600Y-111953200D02*
X60035600Y-111953200D01*
X89204800Y-113538000D02*
X95605600Y-113538000D01*
X60035600Y-111953200D02*
X61620400Y-113538000D01*
X101854000Y-113538000D02*
X108153200Y-113538000D01*
X82296000Y-113538000D02*
X89204800Y-113538000D01*
X61620400Y-113538000D02*
X69545200Y-113538000D01*
X95605600Y-113538000D02*
X101854000Y-113538000D01*
X76149200Y-113538000D02*
X82296000Y-113538000D01*
X69545200Y-113538000D02*
X76149200Y-113538000D01*
X125509200Y-120294400D02*
X123164800Y-117950000D01*
X132740400Y-119075200D02*
X131521200Y-120294400D01*
X131521200Y-120294400D02*
X125509200Y-120294400D01*
X132740400Y-113995200D02*
X124619600Y-113995200D01*
X124619600Y-113995200D02*
X123164800Y-115450000D01*
X125690000Y-117924800D02*
X125690000Y-118559600D01*
X112947000Y-139701400D02*
X114203400Y-138445000D01*
X100431600Y-147812000D02*
X112947000Y-147812000D01*
X124323600Y-147812000D02*
X124612400Y-147523200D01*
X132740400Y-116535200D02*
X131521200Y-117754400D01*
X125860400Y-117754400D02*
X125690000Y-117924800D01*
X112947000Y-147812000D02*
X124323600Y-147812000D01*
X100110800Y-148132800D02*
X100431600Y-147812000D01*
X97418400Y-148132800D02*
X100110800Y-148132800D01*
X112947000Y-147812000D02*
X112947000Y-139701400D01*
X131521200Y-117754400D02*
X125860400Y-117754400D01*
X100212400Y-129235200D02*
X102650800Y-129235200D01*
X118186200Y-114325400D02*
X69750600Y-114325400D01*
X69750600Y-114325400D02*
X65405000Y-118671000D01*
X125577600Y-112826800D02*
X125628400Y-112877600D01*
X118186200Y-114325400D02*
X119684800Y-112826800D01*
X114203400Y-135905000D02*
X115539200Y-134569200D01*
X119684800Y-112826800D02*
X125577600Y-112826800D01*
X102650800Y-129235200D02*
X102971600Y-129556000D01*
X102971600Y-129556000D02*
X111826800Y-129556000D01*
X115539200Y-134569200D02*
X119024400Y-134569200D01*
X138785600Y-128930400D02*
X129457200Y-128930400D01*
X143197200Y-134622400D02*
X143197200Y-133342000D01*
X129457200Y-131622800D02*
X129355600Y-131724400D01*
X143197200Y-133342000D02*
X138785600Y-128930400D01*
X129457200Y-128930400D02*
X129457200Y-131622800D01*
X136197200Y-141622400D02*
X136197200Y-142105000D01*
X129406400Y-148386800D02*
X129406400Y-146050000D01*
X136194800Y-146964400D02*
X136194800Y-141624800D01*
X134772400Y-148386800D02*
X136194800Y-146964400D01*
X129406400Y-148386800D02*
X134772400Y-148386800D01*
X136194800Y-141624800D02*
X136197200Y-141622400D01*
X129406400Y-146050000D02*
X129355600Y-145999200D01*
X87849200Y-132080000D02*
X87900000Y-132029200D01*
X83794600Y-135328400D02*
X83794600Y-132597400D01*
X85496400Y-137030200D02*
X83794600Y-135328400D01*
X84312000Y-132080000D02*
X87849200Y-132080000D01*
X83794600Y-132597400D02*
X84312000Y-132080000D01*
X85496400Y-142036800D02*
X85496400Y-137030200D01*
X88731600Y-136855200D02*
X88731600Y-135487600D01*
X88731600Y-135487600D02*
X87680800Y-134436800D01*
X88680800Y-139446000D02*
X90220800Y-137906000D01*
X90220800Y-137906000D02*
X90220800Y-134436800D01*
X90440000Y-145694400D02*
X90440000Y-142256000D01*
X82524600Y-141328400D02*
X82524600Y-143306800D01*
X82524600Y-144719800D02*
X82788000Y-144983200D01*
X90440000Y-142256000D02*
X90220800Y-142036800D01*
X82524600Y-143306800D02*
X82524600Y-144719800D01*
M02*
