%TF.GenerationSoftware,KiCad,Pcbnew,8.0.2*%
%TF.CreationDate,2025-03-16T16:58:37-07:00*%
%TF.ProjectId,Exits-1U,45786974-732d-4315-952e-6b696361645f,2.1*%
%TF.SameCoordinates,Original*%
%TF.FileFunction,Drillmap*%
%TF.FilePolarity,Positive*%
%FSLAX45Y45*%
G04 Gerber Fmt 4.5, Leading zero omitted, Abs format (unit mm)*
G04 Created by KiCad (PCBNEW 8.0.2) date 2025-03-16 16:58:37*
%MOMM*%
%LPD*%
G01*
G04 APERTURE LIST*
%ADD10C,0.025400*%
%ADD11C,0.200000*%
%ADD12C,0.300000*%
G04 APERTURE END LIST*
D10*
X5207000Y-10287000D02*
X13462000Y-10287000D01*
X13462000Y-12573000D01*
X5207000Y-12573000D01*
X5207000Y-10287000D01*
X5207000Y-12700000D02*
X15113000Y-12700000D01*
X15113000Y-14986000D01*
X5207000Y-14986000D01*
X5207000Y-12700000D01*
D11*
D12*
X5946000Y-11788000D02*
X6246000Y-12088000D01*
X6246000Y-11788000D02*
X5946000Y-12088000D01*
X6581000Y-10772000D02*
X6881000Y-11072000D01*
X6881000Y-10772000D02*
X6581000Y-11072000D01*
X7216000Y-11788000D02*
X7516000Y-12088000D01*
X7516000Y-11788000D02*
X7216000Y-12088000D01*
X7851000Y-10772000D02*
X8151000Y-11072000D01*
X8151000Y-10772000D02*
X7851000Y-11072000D01*
X8486000Y-11788000D02*
X8786000Y-12088000D01*
X8786000Y-11788000D02*
X8486000Y-12088000D01*
X9120780Y-10772000D02*
X9420780Y-11072000D01*
X9420780Y-10772000D02*
X9120780Y-11072000D01*
X9755780Y-11788000D02*
X10055780Y-12088000D01*
X10055780Y-11788000D02*
X9755780Y-12088000D01*
X10391000Y-10772000D02*
X10691000Y-11072000D01*
X10691000Y-10772000D02*
X10391000Y-11072000D01*
X11031080Y-11788000D02*
X11331080Y-12088000D01*
X11331080Y-11788000D02*
X11031080Y-12088000D01*
D11*
X5466507Y-15298754D02*
X5466507Y-15098754D01*
X5466507Y-15098754D02*
X5514126Y-15098754D01*
X5514126Y-15098754D02*
X5542697Y-15108278D01*
X5542697Y-15108278D02*
X5561745Y-15127325D01*
X5561745Y-15127325D02*
X5571269Y-15146373D01*
X5571269Y-15146373D02*
X5580793Y-15184468D01*
X5580793Y-15184468D02*
X5580793Y-15213039D01*
X5580793Y-15213039D02*
X5571269Y-15251135D01*
X5571269Y-15251135D02*
X5561745Y-15270182D01*
X5561745Y-15270182D02*
X5542697Y-15289230D01*
X5542697Y-15289230D02*
X5514126Y-15298754D01*
X5514126Y-15298754D02*
X5466507Y-15298754D01*
X5666507Y-15298754D02*
X5666507Y-15165420D01*
X5666507Y-15203516D02*
X5676031Y-15184468D01*
X5676031Y-15184468D02*
X5685554Y-15174944D01*
X5685554Y-15174944D02*
X5704602Y-15165420D01*
X5704602Y-15165420D02*
X5723650Y-15165420D01*
X5790316Y-15298754D02*
X5790316Y-15165420D01*
X5790316Y-15098754D02*
X5780792Y-15108278D01*
X5780792Y-15108278D02*
X5790316Y-15117801D01*
X5790316Y-15117801D02*
X5799840Y-15108278D01*
X5799840Y-15108278D02*
X5790316Y-15098754D01*
X5790316Y-15098754D02*
X5790316Y-15117801D01*
X5914126Y-15298754D02*
X5895078Y-15289230D01*
X5895078Y-15289230D02*
X5885554Y-15270182D01*
X5885554Y-15270182D02*
X5885554Y-15098754D01*
X6018888Y-15298754D02*
X5999840Y-15289230D01*
X5999840Y-15289230D02*
X5990316Y-15270182D01*
X5990316Y-15270182D02*
X5990316Y-15098754D01*
X6247459Y-15298754D02*
X6247459Y-15098754D01*
X6247459Y-15098754D02*
X6314126Y-15241611D01*
X6314126Y-15241611D02*
X6380792Y-15098754D01*
X6380792Y-15098754D02*
X6380792Y-15298754D01*
X6561745Y-15298754D02*
X6561745Y-15193992D01*
X6561745Y-15193992D02*
X6552221Y-15174944D01*
X6552221Y-15174944D02*
X6533173Y-15165420D01*
X6533173Y-15165420D02*
X6495078Y-15165420D01*
X6495078Y-15165420D02*
X6476031Y-15174944D01*
X6561745Y-15289230D02*
X6542697Y-15298754D01*
X6542697Y-15298754D02*
X6495078Y-15298754D01*
X6495078Y-15298754D02*
X6476031Y-15289230D01*
X6476031Y-15289230D02*
X6466507Y-15270182D01*
X6466507Y-15270182D02*
X6466507Y-15251135D01*
X6466507Y-15251135D02*
X6476031Y-15232087D01*
X6476031Y-15232087D02*
X6495078Y-15222563D01*
X6495078Y-15222563D02*
X6542697Y-15222563D01*
X6542697Y-15222563D02*
X6561745Y-15213039D01*
X6656983Y-15165420D02*
X6656983Y-15365420D01*
X6656983Y-15174944D02*
X6676031Y-15165420D01*
X6676031Y-15165420D02*
X6714126Y-15165420D01*
X6714126Y-15165420D02*
X6733173Y-15174944D01*
X6733173Y-15174944D02*
X6742697Y-15184468D01*
X6742697Y-15184468D02*
X6752221Y-15203516D01*
X6752221Y-15203516D02*
X6752221Y-15260658D01*
X6752221Y-15260658D02*
X6742697Y-15279706D01*
X6742697Y-15279706D02*
X6733173Y-15289230D01*
X6733173Y-15289230D02*
X6714126Y-15298754D01*
X6714126Y-15298754D02*
X6676031Y-15298754D01*
X6676031Y-15298754D02*
X6656983Y-15289230D01*
X6837935Y-15279706D02*
X6847459Y-15289230D01*
X6847459Y-15289230D02*
X6837935Y-15298754D01*
X6837935Y-15298754D02*
X6828412Y-15289230D01*
X6828412Y-15289230D02*
X6837935Y-15279706D01*
X6837935Y-15279706D02*
X6837935Y-15298754D01*
X6837935Y-15174944D02*
X6847459Y-15184468D01*
X6847459Y-15184468D02*
X6837935Y-15193992D01*
X6837935Y-15193992D02*
X6828412Y-15184468D01*
X6828412Y-15184468D02*
X6837935Y-15174944D01*
X6837935Y-15174944D02*
X6837935Y-15193992D01*
X5005730Y-15527270D02*
X5205730Y-15727270D01*
X5205730Y-15527270D02*
X5005730Y-15727270D01*
X5447459Y-15518754D02*
X5571269Y-15518754D01*
X5571269Y-15518754D02*
X5504602Y-15594944D01*
X5504602Y-15594944D02*
X5533174Y-15594944D01*
X5533174Y-15594944D02*
X5552221Y-15604468D01*
X5552221Y-15604468D02*
X5561745Y-15613992D01*
X5561745Y-15613992D02*
X5571269Y-15633039D01*
X5571269Y-15633039D02*
X5571269Y-15680658D01*
X5571269Y-15680658D02*
X5561745Y-15699706D01*
X5561745Y-15699706D02*
X5552221Y-15709230D01*
X5552221Y-15709230D02*
X5533174Y-15718754D01*
X5533174Y-15718754D02*
X5476031Y-15718754D01*
X5476031Y-15718754D02*
X5456983Y-15709230D01*
X5456983Y-15709230D02*
X5447459Y-15699706D01*
X5656983Y-15699706D02*
X5666507Y-15709230D01*
X5666507Y-15709230D02*
X5656983Y-15718754D01*
X5656983Y-15718754D02*
X5647459Y-15709230D01*
X5647459Y-15709230D02*
X5656983Y-15699706D01*
X5656983Y-15699706D02*
X5656983Y-15718754D01*
X5790316Y-15518754D02*
X5809364Y-15518754D01*
X5809364Y-15518754D02*
X5828412Y-15528278D01*
X5828412Y-15528278D02*
X5837935Y-15537801D01*
X5837935Y-15537801D02*
X5847459Y-15556849D01*
X5847459Y-15556849D02*
X5856983Y-15594944D01*
X5856983Y-15594944D02*
X5856983Y-15642563D01*
X5856983Y-15642563D02*
X5847459Y-15680658D01*
X5847459Y-15680658D02*
X5837935Y-15699706D01*
X5837935Y-15699706D02*
X5828412Y-15709230D01*
X5828412Y-15709230D02*
X5809364Y-15718754D01*
X5809364Y-15718754D02*
X5790316Y-15718754D01*
X5790316Y-15718754D02*
X5771269Y-15709230D01*
X5771269Y-15709230D02*
X5761745Y-15699706D01*
X5761745Y-15699706D02*
X5752221Y-15680658D01*
X5752221Y-15680658D02*
X5742697Y-15642563D01*
X5742697Y-15642563D02*
X5742697Y-15594944D01*
X5742697Y-15594944D02*
X5752221Y-15556849D01*
X5752221Y-15556849D02*
X5761745Y-15537801D01*
X5761745Y-15537801D02*
X5771269Y-15528278D01*
X5771269Y-15528278D02*
X5790316Y-15518754D01*
X5980792Y-15518754D02*
X5999840Y-15518754D01*
X5999840Y-15518754D02*
X6018888Y-15528278D01*
X6018888Y-15528278D02*
X6028412Y-15537801D01*
X6028412Y-15537801D02*
X6037935Y-15556849D01*
X6037935Y-15556849D02*
X6047459Y-15594944D01*
X6047459Y-15594944D02*
X6047459Y-15642563D01*
X6047459Y-15642563D02*
X6037935Y-15680658D01*
X6037935Y-15680658D02*
X6028412Y-15699706D01*
X6028412Y-15699706D02*
X6018888Y-15709230D01*
X6018888Y-15709230D02*
X5999840Y-15718754D01*
X5999840Y-15718754D02*
X5980792Y-15718754D01*
X5980792Y-15718754D02*
X5961745Y-15709230D01*
X5961745Y-15709230D02*
X5952221Y-15699706D01*
X5952221Y-15699706D02*
X5942697Y-15680658D01*
X5942697Y-15680658D02*
X5933173Y-15642563D01*
X5933173Y-15642563D02*
X5933173Y-15594944D01*
X5933173Y-15594944D02*
X5942697Y-15556849D01*
X5942697Y-15556849D02*
X5952221Y-15537801D01*
X5952221Y-15537801D02*
X5961745Y-15528278D01*
X5961745Y-15528278D02*
X5980792Y-15518754D01*
X6171269Y-15518754D02*
X6190316Y-15518754D01*
X6190316Y-15518754D02*
X6209364Y-15528278D01*
X6209364Y-15528278D02*
X6218888Y-15537801D01*
X6218888Y-15537801D02*
X6228412Y-15556849D01*
X6228412Y-15556849D02*
X6237935Y-15594944D01*
X6237935Y-15594944D02*
X6237935Y-15642563D01*
X6237935Y-15642563D02*
X6228412Y-15680658D01*
X6228412Y-15680658D02*
X6218888Y-15699706D01*
X6218888Y-15699706D02*
X6209364Y-15709230D01*
X6209364Y-15709230D02*
X6190316Y-15718754D01*
X6190316Y-15718754D02*
X6171269Y-15718754D01*
X6171269Y-15718754D02*
X6152221Y-15709230D01*
X6152221Y-15709230D02*
X6142697Y-15699706D01*
X6142697Y-15699706D02*
X6133173Y-15680658D01*
X6133173Y-15680658D02*
X6123650Y-15642563D01*
X6123650Y-15642563D02*
X6123650Y-15594944D01*
X6123650Y-15594944D02*
X6133173Y-15556849D01*
X6133173Y-15556849D02*
X6142697Y-15537801D01*
X6142697Y-15537801D02*
X6152221Y-15528278D01*
X6152221Y-15528278D02*
X6171269Y-15518754D01*
X6323650Y-15718754D02*
X6323650Y-15585420D01*
X6323650Y-15604468D02*
X6333173Y-15594944D01*
X6333173Y-15594944D02*
X6352221Y-15585420D01*
X6352221Y-15585420D02*
X6380793Y-15585420D01*
X6380793Y-15585420D02*
X6399840Y-15594944D01*
X6399840Y-15594944D02*
X6409364Y-15613992D01*
X6409364Y-15613992D02*
X6409364Y-15718754D01*
X6409364Y-15613992D02*
X6418888Y-15594944D01*
X6418888Y-15594944D02*
X6437935Y-15585420D01*
X6437935Y-15585420D02*
X6466507Y-15585420D01*
X6466507Y-15585420D02*
X6485554Y-15594944D01*
X6485554Y-15594944D02*
X6495078Y-15613992D01*
X6495078Y-15613992D02*
X6495078Y-15718754D01*
X6590316Y-15718754D02*
X6590316Y-15585420D01*
X6590316Y-15604468D02*
X6599840Y-15594944D01*
X6599840Y-15594944D02*
X6618888Y-15585420D01*
X6618888Y-15585420D02*
X6647459Y-15585420D01*
X6647459Y-15585420D02*
X6666507Y-15594944D01*
X6666507Y-15594944D02*
X6676031Y-15613992D01*
X6676031Y-15613992D02*
X6676031Y-15718754D01*
X6676031Y-15613992D02*
X6685554Y-15594944D01*
X6685554Y-15594944D02*
X6704602Y-15585420D01*
X6704602Y-15585420D02*
X6733173Y-15585420D01*
X6733173Y-15585420D02*
X6752221Y-15594944D01*
X6752221Y-15594944D02*
X6761745Y-15613992D01*
X6761745Y-15613992D02*
X6761745Y-15718754D01*
X7152221Y-15509230D02*
X6980793Y-15766373D01*
X7409364Y-15518754D02*
X7428412Y-15518754D01*
X7428412Y-15518754D02*
X7447459Y-15528278D01*
X7447459Y-15528278D02*
X7456983Y-15537801D01*
X7456983Y-15537801D02*
X7466507Y-15556849D01*
X7466507Y-15556849D02*
X7476031Y-15594944D01*
X7476031Y-15594944D02*
X7476031Y-15642563D01*
X7476031Y-15642563D02*
X7466507Y-15680658D01*
X7466507Y-15680658D02*
X7456983Y-15699706D01*
X7456983Y-15699706D02*
X7447459Y-15709230D01*
X7447459Y-15709230D02*
X7428412Y-15718754D01*
X7428412Y-15718754D02*
X7409364Y-15718754D01*
X7409364Y-15718754D02*
X7390316Y-15709230D01*
X7390316Y-15709230D02*
X7380793Y-15699706D01*
X7380793Y-15699706D02*
X7371269Y-15680658D01*
X7371269Y-15680658D02*
X7361745Y-15642563D01*
X7361745Y-15642563D02*
X7361745Y-15594944D01*
X7361745Y-15594944D02*
X7371269Y-15556849D01*
X7371269Y-15556849D02*
X7380793Y-15537801D01*
X7380793Y-15537801D02*
X7390316Y-15528278D01*
X7390316Y-15528278D02*
X7409364Y-15518754D01*
X7561745Y-15699706D02*
X7571269Y-15709230D01*
X7571269Y-15709230D02*
X7561745Y-15718754D01*
X7561745Y-15718754D02*
X7552221Y-15709230D01*
X7552221Y-15709230D02*
X7561745Y-15699706D01*
X7561745Y-15699706D02*
X7561745Y-15718754D01*
X7761745Y-15718754D02*
X7647459Y-15718754D01*
X7704602Y-15718754D02*
X7704602Y-15518754D01*
X7704602Y-15518754D02*
X7685555Y-15547325D01*
X7685555Y-15547325D02*
X7666507Y-15566373D01*
X7666507Y-15566373D02*
X7647459Y-15575897D01*
X7952221Y-15718754D02*
X7837936Y-15718754D01*
X7895078Y-15718754D02*
X7895078Y-15518754D01*
X7895078Y-15518754D02*
X7876031Y-15547325D01*
X7876031Y-15547325D02*
X7856983Y-15566373D01*
X7856983Y-15566373D02*
X7837936Y-15575897D01*
X8066507Y-15604468D02*
X8047459Y-15594944D01*
X8047459Y-15594944D02*
X8037936Y-15585420D01*
X8037936Y-15585420D02*
X8028412Y-15566373D01*
X8028412Y-15566373D02*
X8028412Y-15556849D01*
X8028412Y-15556849D02*
X8037936Y-15537801D01*
X8037936Y-15537801D02*
X8047459Y-15528278D01*
X8047459Y-15528278D02*
X8066507Y-15518754D01*
X8066507Y-15518754D02*
X8104602Y-15518754D01*
X8104602Y-15518754D02*
X8123650Y-15528278D01*
X8123650Y-15528278D02*
X8133174Y-15537801D01*
X8133174Y-15537801D02*
X8142697Y-15556849D01*
X8142697Y-15556849D02*
X8142697Y-15566373D01*
X8142697Y-15566373D02*
X8133174Y-15585420D01*
X8133174Y-15585420D02*
X8123650Y-15594944D01*
X8123650Y-15594944D02*
X8104602Y-15604468D01*
X8104602Y-15604468D02*
X8066507Y-15604468D01*
X8066507Y-15604468D02*
X8047459Y-15613992D01*
X8047459Y-15613992D02*
X8037936Y-15623516D01*
X8037936Y-15623516D02*
X8028412Y-15642563D01*
X8028412Y-15642563D02*
X8028412Y-15680658D01*
X8028412Y-15680658D02*
X8037936Y-15699706D01*
X8037936Y-15699706D02*
X8047459Y-15709230D01*
X8047459Y-15709230D02*
X8066507Y-15718754D01*
X8066507Y-15718754D02*
X8104602Y-15718754D01*
X8104602Y-15718754D02*
X8123650Y-15709230D01*
X8123650Y-15709230D02*
X8133174Y-15699706D01*
X8133174Y-15699706D02*
X8142697Y-15680658D01*
X8142697Y-15680658D02*
X8142697Y-15642563D01*
X8142697Y-15642563D02*
X8133174Y-15623516D01*
X8133174Y-15623516D02*
X8123650Y-15613992D01*
X8123650Y-15613992D02*
X8104602Y-15604468D01*
X8333174Y-15718754D02*
X8218888Y-15718754D01*
X8276031Y-15718754D02*
X8276031Y-15518754D01*
X8276031Y-15518754D02*
X8256983Y-15547325D01*
X8256983Y-15547325D02*
X8237936Y-15566373D01*
X8237936Y-15566373D02*
X8218888Y-15575897D01*
X8409364Y-15518754D02*
X8409364Y-15556849D01*
X8485555Y-15518754D02*
X8485555Y-15556849D01*
X8780793Y-15794944D02*
X8771269Y-15785420D01*
X8771269Y-15785420D02*
X8752221Y-15756849D01*
X8752221Y-15756849D02*
X8742698Y-15737801D01*
X8742698Y-15737801D02*
X8733174Y-15709230D01*
X8733174Y-15709230D02*
X8723650Y-15661611D01*
X8723650Y-15661611D02*
X8723650Y-15623516D01*
X8723650Y-15623516D02*
X8733174Y-15575897D01*
X8733174Y-15575897D02*
X8742698Y-15547325D01*
X8742698Y-15547325D02*
X8752221Y-15528278D01*
X8752221Y-15528278D02*
X8771269Y-15499706D01*
X8771269Y-15499706D02*
X8780793Y-15490182D01*
X8866507Y-15718754D02*
X8904602Y-15718754D01*
X8904602Y-15718754D02*
X8923650Y-15709230D01*
X8923650Y-15709230D02*
X8933174Y-15699706D01*
X8933174Y-15699706D02*
X8952221Y-15671135D01*
X8952221Y-15671135D02*
X8961745Y-15633039D01*
X8961745Y-15633039D02*
X8961745Y-15556849D01*
X8961745Y-15556849D02*
X8952221Y-15537801D01*
X8952221Y-15537801D02*
X8942698Y-15528278D01*
X8942698Y-15528278D02*
X8923650Y-15518754D01*
X8923650Y-15518754D02*
X8885555Y-15518754D01*
X8885555Y-15518754D02*
X8866507Y-15528278D01*
X8866507Y-15528278D02*
X8856983Y-15537801D01*
X8856983Y-15537801D02*
X8847460Y-15556849D01*
X8847460Y-15556849D02*
X8847460Y-15604468D01*
X8847460Y-15604468D02*
X8856983Y-15623516D01*
X8856983Y-15623516D02*
X8866507Y-15633039D01*
X8866507Y-15633039D02*
X8885555Y-15642563D01*
X8885555Y-15642563D02*
X8923650Y-15642563D01*
X8923650Y-15642563D02*
X8942698Y-15633039D01*
X8942698Y-15633039D02*
X8952221Y-15623516D01*
X8952221Y-15623516D02*
X8961745Y-15604468D01*
X9199841Y-15718754D02*
X9199841Y-15518754D01*
X9285555Y-15718754D02*
X9285555Y-15613992D01*
X9285555Y-15613992D02*
X9276031Y-15594944D01*
X9276031Y-15594944D02*
X9256983Y-15585420D01*
X9256983Y-15585420D02*
X9228412Y-15585420D01*
X9228412Y-15585420D02*
X9209364Y-15594944D01*
X9209364Y-15594944D02*
X9199841Y-15604468D01*
X9409364Y-15718754D02*
X9390317Y-15709230D01*
X9390317Y-15709230D02*
X9380793Y-15699706D01*
X9380793Y-15699706D02*
X9371269Y-15680658D01*
X9371269Y-15680658D02*
X9371269Y-15623516D01*
X9371269Y-15623516D02*
X9380793Y-15604468D01*
X9380793Y-15604468D02*
X9390317Y-15594944D01*
X9390317Y-15594944D02*
X9409364Y-15585420D01*
X9409364Y-15585420D02*
X9437936Y-15585420D01*
X9437936Y-15585420D02*
X9456983Y-15594944D01*
X9456983Y-15594944D02*
X9466507Y-15604468D01*
X9466507Y-15604468D02*
X9476031Y-15623516D01*
X9476031Y-15623516D02*
X9476031Y-15680658D01*
X9476031Y-15680658D02*
X9466507Y-15699706D01*
X9466507Y-15699706D02*
X9456983Y-15709230D01*
X9456983Y-15709230D02*
X9437936Y-15718754D01*
X9437936Y-15718754D02*
X9409364Y-15718754D01*
X9590317Y-15718754D02*
X9571269Y-15709230D01*
X9571269Y-15709230D02*
X9561745Y-15690182D01*
X9561745Y-15690182D02*
X9561745Y-15518754D01*
X9742698Y-15709230D02*
X9723650Y-15718754D01*
X9723650Y-15718754D02*
X9685555Y-15718754D01*
X9685555Y-15718754D02*
X9666507Y-15709230D01*
X9666507Y-15709230D02*
X9656983Y-15690182D01*
X9656983Y-15690182D02*
X9656983Y-15613992D01*
X9656983Y-15613992D02*
X9666507Y-15594944D01*
X9666507Y-15594944D02*
X9685555Y-15585420D01*
X9685555Y-15585420D02*
X9723650Y-15585420D01*
X9723650Y-15585420D02*
X9742698Y-15594944D01*
X9742698Y-15594944D02*
X9752222Y-15613992D01*
X9752222Y-15613992D02*
X9752222Y-15633039D01*
X9752222Y-15633039D02*
X9656983Y-15652087D01*
X9828412Y-15709230D02*
X9847460Y-15718754D01*
X9847460Y-15718754D02*
X9885555Y-15718754D01*
X9885555Y-15718754D02*
X9904603Y-15709230D01*
X9904603Y-15709230D02*
X9914126Y-15690182D01*
X9914126Y-15690182D02*
X9914126Y-15680658D01*
X9914126Y-15680658D02*
X9904603Y-15661611D01*
X9904603Y-15661611D02*
X9885555Y-15652087D01*
X9885555Y-15652087D02*
X9856983Y-15652087D01*
X9856983Y-15652087D02*
X9837936Y-15642563D01*
X9837936Y-15642563D02*
X9828412Y-15623516D01*
X9828412Y-15623516D02*
X9828412Y-15613992D01*
X9828412Y-15613992D02*
X9837936Y-15594944D01*
X9837936Y-15594944D02*
X9856983Y-15585420D01*
X9856983Y-15585420D02*
X9885555Y-15585420D01*
X9885555Y-15585420D02*
X9904603Y-15594944D01*
X9980793Y-15794944D02*
X9990317Y-15785420D01*
X9990317Y-15785420D02*
X10009364Y-15756849D01*
X10009364Y-15756849D02*
X10018888Y-15737801D01*
X10018888Y-15737801D02*
X10028412Y-15709230D01*
X10028412Y-15709230D02*
X10037936Y-15661611D01*
X10037936Y-15661611D02*
X10037936Y-15623516D01*
X10037936Y-15623516D02*
X10028412Y-15575897D01*
X10028412Y-15575897D02*
X10018888Y-15547325D01*
X10018888Y-15547325D02*
X10009364Y-15528278D01*
X10009364Y-15528278D02*
X9990317Y-15499706D01*
X9990317Y-15499706D02*
X9980793Y-15490182D01*
X10342698Y-15794944D02*
X10333174Y-15785420D01*
X10333174Y-15785420D02*
X10314126Y-15756849D01*
X10314126Y-15756849D02*
X10304603Y-15737801D01*
X10304603Y-15737801D02*
X10295079Y-15709230D01*
X10295079Y-15709230D02*
X10285555Y-15661611D01*
X10285555Y-15661611D02*
X10285555Y-15623516D01*
X10285555Y-15623516D02*
X10295079Y-15575897D01*
X10295079Y-15575897D02*
X10304603Y-15547325D01*
X10304603Y-15547325D02*
X10314126Y-15528278D01*
X10314126Y-15528278D02*
X10333174Y-15499706D01*
X10333174Y-15499706D02*
X10342698Y-15490182D01*
X10418888Y-15585420D02*
X10418888Y-15718754D01*
X10418888Y-15604468D02*
X10428412Y-15594944D01*
X10428412Y-15594944D02*
X10447460Y-15585420D01*
X10447460Y-15585420D02*
X10476031Y-15585420D01*
X10476031Y-15585420D02*
X10495079Y-15594944D01*
X10495079Y-15594944D02*
X10504603Y-15613992D01*
X10504603Y-15613992D02*
X10504603Y-15718754D01*
X10628412Y-15718754D02*
X10609364Y-15709230D01*
X10609364Y-15709230D02*
X10599841Y-15699706D01*
X10599841Y-15699706D02*
X10590317Y-15680658D01*
X10590317Y-15680658D02*
X10590317Y-15623516D01*
X10590317Y-15623516D02*
X10599841Y-15604468D01*
X10599841Y-15604468D02*
X10609364Y-15594944D01*
X10609364Y-15594944D02*
X10628412Y-15585420D01*
X10628412Y-15585420D02*
X10656984Y-15585420D01*
X10656984Y-15585420D02*
X10676031Y-15594944D01*
X10676031Y-15594944D02*
X10685555Y-15604468D01*
X10685555Y-15604468D02*
X10695079Y-15623516D01*
X10695079Y-15623516D02*
X10695079Y-15680658D01*
X10695079Y-15680658D02*
X10685555Y-15699706D01*
X10685555Y-15699706D02*
X10676031Y-15709230D01*
X10676031Y-15709230D02*
X10656984Y-15718754D01*
X10656984Y-15718754D02*
X10628412Y-15718754D01*
X10752222Y-15585420D02*
X10828412Y-15585420D01*
X10780793Y-15518754D02*
X10780793Y-15690182D01*
X10780793Y-15690182D02*
X10790317Y-15709230D01*
X10790317Y-15709230D02*
X10809364Y-15718754D01*
X10809364Y-15718754D02*
X10828412Y-15718754D01*
X11047460Y-15585420D02*
X11047460Y-15785420D01*
X11047460Y-15594944D02*
X11066507Y-15585420D01*
X11066507Y-15585420D02*
X11104603Y-15585420D01*
X11104603Y-15585420D02*
X11123650Y-15594944D01*
X11123650Y-15594944D02*
X11133174Y-15604468D01*
X11133174Y-15604468D02*
X11142698Y-15623516D01*
X11142698Y-15623516D02*
X11142698Y-15680658D01*
X11142698Y-15680658D02*
X11133174Y-15699706D01*
X11133174Y-15699706D02*
X11123650Y-15709230D01*
X11123650Y-15709230D02*
X11104603Y-15718754D01*
X11104603Y-15718754D02*
X11066507Y-15718754D01*
X11066507Y-15718754D02*
X11047460Y-15709230D01*
X11256983Y-15718754D02*
X11237936Y-15709230D01*
X11237936Y-15709230D02*
X11228412Y-15690182D01*
X11228412Y-15690182D02*
X11228412Y-15518754D01*
X11418888Y-15718754D02*
X11418888Y-15613992D01*
X11418888Y-15613992D02*
X11409364Y-15594944D01*
X11409364Y-15594944D02*
X11390317Y-15585420D01*
X11390317Y-15585420D02*
X11352222Y-15585420D01*
X11352222Y-15585420D02*
X11333174Y-15594944D01*
X11418888Y-15709230D02*
X11399841Y-15718754D01*
X11399841Y-15718754D02*
X11352222Y-15718754D01*
X11352222Y-15718754D02*
X11333174Y-15709230D01*
X11333174Y-15709230D02*
X11323650Y-15690182D01*
X11323650Y-15690182D02*
X11323650Y-15671135D01*
X11323650Y-15671135D02*
X11333174Y-15652087D01*
X11333174Y-15652087D02*
X11352222Y-15642563D01*
X11352222Y-15642563D02*
X11399841Y-15642563D01*
X11399841Y-15642563D02*
X11418888Y-15633039D01*
X11485555Y-15585420D02*
X11561745Y-15585420D01*
X11514126Y-15518754D02*
X11514126Y-15690182D01*
X11514126Y-15690182D02*
X11523650Y-15709230D01*
X11523650Y-15709230D02*
X11542698Y-15718754D01*
X11542698Y-15718754D02*
X11561745Y-15718754D01*
X11704603Y-15709230D02*
X11685555Y-15718754D01*
X11685555Y-15718754D02*
X11647460Y-15718754D01*
X11647460Y-15718754D02*
X11628412Y-15709230D01*
X11628412Y-15709230D02*
X11618888Y-15690182D01*
X11618888Y-15690182D02*
X11618888Y-15613992D01*
X11618888Y-15613992D02*
X11628412Y-15594944D01*
X11628412Y-15594944D02*
X11647460Y-15585420D01*
X11647460Y-15585420D02*
X11685555Y-15585420D01*
X11685555Y-15585420D02*
X11704603Y-15594944D01*
X11704603Y-15594944D02*
X11714126Y-15613992D01*
X11714126Y-15613992D02*
X11714126Y-15633039D01*
X11714126Y-15633039D02*
X11618888Y-15652087D01*
X11885555Y-15718754D02*
X11885555Y-15518754D01*
X11885555Y-15709230D02*
X11866507Y-15718754D01*
X11866507Y-15718754D02*
X11828412Y-15718754D01*
X11828412Y-15718754D02*
X11809364Y-15709230D01*
X11809364Y-15709230D02*
X11799841Y-15699706D01*
X11799841Y-15699706D02*
X11790317Y-15680658D01*
X11790317Y-15680658D02*
X11790317Y-15623516D01*
X11790317Y-15623516D02*
X11799841Y-15604468D01*
X11799841Y-15604468D02*
X11809364Y-15594944D01*
X11809364Y-15594944D02*
X11828412Y-15585420D01*
X11828412Y-15585420D02*
X11866507Y-15585420D01*
X11866507Y-15585420D02*
X11885555Y-15594944D01*
X11961745Y-15794944D02*
X11971269Y-15785420D01*
X11971269Y-15785420D02*
X11990317Y-15756849D01*
X11990317Y-15756849D02*
X11999841Y-15737801D01*
X11999841Y-15737801D02*
X12009364Y-15709230D01*
X12009364Y-15709230D02*
X12018888Y-15661611D01*
X12018888Y-15661611D02*
X12018888Y-15623516D01*
X12018888Y-15623516D02*
X12009364Y-15575897D01*
X12009364Y-15575897D02*
X11999841Y-15547325D01*
X11999841Y-15547325D02*
X11990317Y-15528278D01*
X11990317Y-15528278D02*
X11971269Y-15499706D01*
X11971269Y-15499706D02*
X11961745Y-15490182D01*
M02*
