G04 #@! TF.GenerationSoftware,KiCad,Pcbnew,8.0.2*
G04 #@! TF.CreationDate,2025-05-17T16:19:13-07:00*
G04 #@! TF.ProjectId,Exits-1U,45786974-732d-4315-952e-6b696361645f,2.1*
G04 #@! TF.SameCoordinates,Original*
G04 #@! TF.FileFunction,Soldermask,Top*
G04 #@! TF.FilePolarity,Negative*
%FSLAX46Y46*%
G04 Gerber Fmt 4.6, Leading zero omitted, Abs format (unit mm)*
G04 Created by KiCad (PCBNEW 8.0.2) date 2025-05-17 16:19:13*
%MOMM*%
%LPD*%
G01*
G04 APERTURE LIST*
G04 Aperture macros list*
%AMRoundRect*
0 Rectangle with rounded corners*
0 $1 Rounding radius*
0 $2 $3 $4 $5 $6 $7 $8 $9 X,Y pos of 4 corners*
0 Add a 4 corners polygon primitive as box body*
4,1,4,$2,$3,$4,$5,$6,$7,$8,$9,$2,$3,0*
0 Add four circle primitives for the rounded corners*
1,1,$1+$1,$2,$3*
1,1,$1+$1,$4,$5*
1,1,$1+$1,$6,$7*
1,1,$1+$1,$8,$9*
0 Add four rect primitives between the rounded corners*
20,1,$1+$1,$2,$3,$4,$5,0*
20,1,$1+$1,$4,$5,$6,$7,0*
20,1,$1+$1,$6,$7,$8,$9,0*
20,1,$1+$1,$8,$9,$2,$3,0*%
%AMHorizOval*
0 Thick line with rounded ends*
0 $1 width*
0 $2 $3 position (X,Y) of the first rounded end (center of the circle)*
0 $4 $5 position (X,Y) of the second rounded end (center of the circle)*
0 Add line between two ends*
20,1,$1,$2,$3,$4,$5,0*
0 Add two circle primitives to create the rounded ends*
1,1,$1,$2,$3*
1,1,$1,$4,$5*%
G04 Aperture macros list end*
%ADD10RoundRect,0.200800X-0.200800X0.875800X-0.200800X-0.875800X0.200800X-0.875800X0.200800X0.875800X0*%
%ADD11C,3.203200*%
%ADD12C,1.930400*%
%ADD13RoundRect,0.292333X-0.409267X-0.509267X0.409267X-0.509267X0.409267X0.509267X-0.409267X0.509267X0*%
%ADD14O,2.923200X3.443200*%
%ADD15RoundRect,0.101600X0.900000X0.900000X-0.900000X0.900000X-0.900000X-0.900000X0.900000X-0.900000X0*%
%ADD16C,2.003200*%
%ADD17RoundRect,0.293234X-0.395866X-0.533366X0.395866X-0.533366X0.395866X0.533366X-0.395866X0.533366X0*%
%ADD18HorizOval,1.712000X-0.533159X-0.533159X0.533159X0.533159X0*%
%ADD19O,1.712000X3.220000*%
%ADD20O,3.220000X1.712000*%
%ADD21RoundRect,0.292333X-0.509267X0.409267X-0.509267X-0.409267X0.509267X-0.409267X0.509267X0.409267X0*%
%ADD22RoundRect,0.292333X0.509267X-0.409267X0.509267X0.409267X-0.509267X0.409267X-0.509267X-0.409267X0*%
%ADD23RoundRect,0.293234X0.395866X0.533366X-0.395866X0.533366X-0.395866X-0.533366X0.395866X-0.533366X0*%
%ADD24RoundRect,0.101600X0.850000X0.850000X-0.850000X0.850000X-0.850000X-0.850000X0.850000X-0.850000X0*%
%ADD25O,1.903200X1.903200*%
%ADD26RoundRect,0.101600X-0.850000X-0.850000X0.850000X-0.850000X0.850000X0.850000X-0.850000X0.850000X0*%
%ADD27RoundRect,0.279883X0.671717X0.671717X-0.671717X0.671717X-0.671717X-0.671717X0.671717X-0.671717X0*%
%ADD28C,1.903200*%
%ADD29C,1.503200*%
G04 APERTURE END LIST*
D10*
X124358400Y-135802600D03*
X123088400Y-135802600D03*
X121818400Y-135802600D03*
X120548400Y-135802600D03*
X120548400Y-140752600D03*
X121818400Y-140752600D03*
X123088400Y-140752600D03*
X124358400Y-140752600D03*
D11*
X73660000Y-119354600D03*
D12*
X67945000Y-119354600D03*
X70485000Y-119354600D03*
X78105000Y-119354600D03*
D10*
X97713800Y-136005800D03*
X96443800Y-136005800D03*
X95173800Y-136005800D03*
X93903800Y-136005800D03*
X93903800Y-140955800D03*
X95173800Y-140955800D03*
X96443800Y-140955800D03*
X97713800Y-140955800D03*
D11*
X60960000Y-119354600D03*
D12*
X55245000Y-119354600D03*
X57785000Y-119354600D03*
X65405000Y-119354600D03*
D13*
X82312000Y-132080000D03*
X84312000Y-132080000D03*
D11*
X67310000Y-107924600D03*
D12*
X61595000Y-107924600D03*
X64135000Y-107924600D03*
X71755000Y-107924600D03*
D13*
X98212400Y-129235200D03*
X100212400Y-129235200D03*
D14*
X118414800Y-107950000D03*
X127914800Y-107950000D03*
D15*
X120664800Y-115450000D03*
D16*
X123164800Y-115450000D03*
X125664800Y-115450000D03*
X120664800Y-117950000D03*
X123164800Y-117950000D03*
X125664800Y-117950000D03*
D13*
X95418400Y-148132800D03*
X97418400Y-148132800D03*
D10*
X83794600Y-135853400D03*
X82524600Y-135853400D03*
X81254600Y-135853400D03*
X79984600Y-135853400D03*
X79984600Y-140803400D03*
X81254600Y-140803400D03*
X82524600Y-140803400D03*
X83794600Y-140803400D03*
D17*
X95380900Y-145592800D03*
X97455900Y-145592800D03*
D13*
X127457200Y-128930400D03*
X129457200Y-128930400D03*
X86680800Y-139446000D03*
X88680800Y-139446000D03*
X107153200Y-131775200D03*
X109153200Y-131775200D03*
X127355600Y-145999200D03*
X129355600Y-145999200D03*
X118446800Y-144424400D03*
X120446800Y-144424400D03*
D11*
X111810800Y-119354600D03*
D12*
X106095800Y-119354600D03*
X108635800Y-119354600D03*
X116255800Y-119354600D03*
D18*
X147293200Y-145718400D03*
D19*
X136197200Y-141622400D03*
D20*
X143197200Y-134622400D03*
D13*
X80788000Y-144983200D03*
X82788000Y-144983200D03*
D21*
X100431600Y-145812000D03*
X100431600Y-147812000D03*
D11*
X99057800Y-119354600D03*
D12*
X93342800Y-119354600D03*
X95882800Y-119354600D03*
X103502800Y-119354600D03*
D22*
X102971600Y-131556000D03*
X102971600Y-129556000D03*
D23*
X129545500Y-142494000D03*
X127470500Y-142494000D03*
D11*
X80060800Y-107924600D03*
D12*
X74345800Y-107924600D03*
X76885800Y-107924600D03*
X84505800Y-107924600D03*
D24*
X54660800Y-137160000D03*
D25*
X54660800Y-134620000D03*
X54660800Y-132080000D03*
X54660800Y-129540000D03*
D11*
X86360000Y-119354600D03*
D12*
X80645000Y-119354600D03*
X83185000Y-119354600D03*
X90805000Y-119354600D03*
D13*
X127406400Y-148386800D03*
X129406400Y-148386800D03*
D10*
X110642400Y-136070800D03*
X109372400Y-136070800D03*
X108102400Y-136070800D03*
X106832400Y-136070800D03*
X106832400Y-141020800D03*
X108102400Y-141020800D03*
X109372400Y-141020800D03*
X110642400Y-141020800D03*
D11*
X92707800Y-107924600D03*
D12*
X86992800Y-107924600D03*
X89532800Y-107924600D03*
X97152800Y-107924600D03*
D13*
X127355600Y-131724400D03*
X129355600Y-131724400D03*
D11*
X105410000Y-107924600D03*
D12*
X99695000Y-107924600D03*
X102235000Y-107924600D03*
X109855000Y-107924600D03*
D17*
X98073300Y-131775200D03*
X100148300Y-131775200D03*
D13*
X87900000Y-132029200D03*
X89900000Y-132029200D03*
X86731600Y-136855200D03*
X88731600Y-136855200D03*
D23*
X129443900Y-137414000D03*
X127368900Y-137414000D03*
D13*
X90440000Y-145694400D03*
X92440000Y-145694400D03*
D26*
X132588000Y-133705600D03*
D25*
X132588000Y-136245600D03*
X132588000Y-138785600D03*
X132588000Y-141325600D03*
X132588000Y-143865600D03*
X132588000Y-146405600D03*
D24*
X132588000Y-108915200D03*
D25*
X132588000Y-111455200D03*
X132588000Y-113995200D03*
X132588000Y-116535200D03*
X132588000Y-119075200D03*
X132588000Y-121615200D03*
D24*
X116743400Y-135905000D03*
D25*
X114203400Y-135905000D03*
X116743400Y-138445000D03*
X114203400Y-138445000D03*
X116743400Y-140985000D03*
X114203400Y-140985000D03*
D27*
X63754000Y-133299200D03*
D28*
X61214000Y-133299200D03*
X63754000Y-135839200D03*
X61214000Y-135839200D03*
X63754000Y-138379200D03*
X61214000Y-138379200D03*
X63754000Y-140919200D03*
X61214000Y-140919200D03*
X63754000Y-143459200D03*
X61214000Y-143459200D03*
D29*
X90220800Y-142036800D03*
X87680800Y-142036800D03*
X90220800Y-134436800D03*
X87680800Y-134436800D03*
D26*
X54610000Y-112369600D03*
D25*
X54610000Y-109829600D03*
X54610000Y-107289600D03*
X54610000Y-104749600D03*
M02*
