G04 #@! TF.GenerationSoftware,KiCad,Pcbnew,8.0.2*
G04 #@! TF.CreationDate,2025-05-17T16:19:13-07:00*
G04 #@! TF.ProjectId,Exits-1U,45786974-732d-4315-952e-6b696361645f,2.1*
G04 #@! TF.SameCoordinates,Original*
G04 #@! TF.FileFunction,Legend,Bot*
G04 #@! TF.FilePolarity,Positive*
%FSLAX46Y46*%
G04 Gerber Fmt 4.6, Leading zero omitted, Abs format (unit mm)*
G04 Created by KiCad (PCBNEW 8.0.2) date 2025-05-17 16:19:13*
%MOMM*%
%LPD*%
G01*
G04 APERTURE LIST*
%ADD10C,0.101600*%
%ADD11C,0.300000*%
%ADD12C,0.100000*%
%ADD13C,0.150000*%
%ADD14C,0.254000*%
%ADD15C,0.120000*%
%ADD16C,0.200000*%
G04 APERTURE END LIST*
D10*
X149432719Y-128898590D02*
X149602053Y-128656685D01*
X149723005Y-128898590D02*
X149723005Y-128390590D01*
X149723005Y-128390590D02*
X149529481Y-128390590D01*
X149529481Y-128390590D02*
X149481100Y-128414780D01*
X149481100Y-128414780D02*
X149456910Y-128438971D01*
X149456910Y-128438971D02*
X149432719Y-128487352D01*
X149432719Y-128487352D02*
X149432719Y-128559923D01*
X149432719Y-128559923D02*
X149456910Y-128608304D01*
X149456910Y-128608304D02*
X149481100Y-128632495D01*
X149481100Y-128632495D02*
X149529481Y-128656685D01*
X149529481Y-128656685D02*
X149723005Y-128656685D01*
X149021481Y-128874400D02*
X149069862Y-128898590D01*
X149069862Y-128898590D02*
X149166624Y-128898590D01*
X149166624Y-128898590D02*
X149215005Y-128874400D01*
X149215005Y-128874400D02*
X149239196Y-128826019D01*
X149239196Y-128826019D02*
X149239196Y-128632495D01*
X149239196Y-128632495D02*
X149215005Y-128584114D01*
X149215005Y-128584114D02*
X149166624Y-128559923D01*
X149166624Y-128559923D02*
X149069862Y-128559923D01*
X149069862Y-128559923D02*
X149021481Y-128584114D01*
X149021481Y-128584114D02*
X148997291Y-128632495D01*
X148997291Y-128632495D02*
X148997291Y-128680876D01*
X148997291Y-128680876D02*
X149239196Y-128729257D01*
X148561862Y-128898590D02*
X148561862Y-128632495D01*
X148561862Y-128632495D02*
X148586052Y-128584114D01*
X148586052Y-128584114D02*
X148634433Y-128559923D01*
X148634433Y-128559923D02*
X148731195Y-128559923D01*
X148731195Y-128559923D02*
X148779576Y-128584114D01*
X148561862Y-128874400D02*
X148610243Y-128898590D01*
X148610243Y-128898590D02*
X148731195Y-128898590D01*
X148731195Y-128898590D02*
X148779576Y-128874400D01*
X148779576Y-128874400D02*
X148803767Y-128826019D01*
X148803767Y-128826019D02*
X148803767Y-128777638D01*
X148803767Y-128777638D02*
X148779576Y-128729257D01*
X148779576Y-128729257D02*
X148731195Y-128705066D01*
X148731195Y-128705066D02*
X148610243Y-128705066D01*
X148610243Y-128705066D02*
X148561862Y-128680876D01*
X148319957Y-128898590D02*
X148319957Y-128559923D01*
X148319957Y-128656685D02*
X148295767Y-128608304D01*
X148295767Y-128608304D02*
X148271576Y-128584114D01*
X148271576Y-128584114D02*
X148223195Y-128559923D01*
X148223195Y-128559923D02*
X148174814Y-128559923D01*
X148005481Y-128898590D02*
X148005481Y-128559923D01*
X148005481Y-128656685D02*
X147981291Y-128608304D01*
X147981291Y-128608304D02*
X147957100Y-128584114D01*
X147957100Y-128584114D02*
X147908719Y-128559923D01*
X147908719Y-128559923D02*
X147860338Y-128559923D01*
X147473291Y-128898590D02*
X147473291Y-128632495D01*
X147473291Y-128632495D02*
X147497481Y-128584114D01*
X147497481Y-128584114D02*
X147545862Y-128559923D01*
X147545862Y-128559923D02*
X147642624Y-128559923D01*
X147642624Y-128559923D02*
X147691005Y-128584114D01*
X147473291Y-128874400D02*
X147521672Y-128898590D01*
X147521672Y-128898590D02*
X147642624Y-128898590D01*
X147642624Y-128898590D02*
X147691005Y-128874400D01*
X147691005Y-128874400D02*
X147715196Y-128826019D01*
X147715196Y-128826019D02*
X147715196Y-128777638D01*
X147715196Y-128777638D02*
X147691005Y-128729257D01*
X147691005Y-128729257D02*
X147642624Y-128705066D01*
X147642624Y-128705066D02*
X147521672Y-128705066D01*
X147521672Y-128705066D02*
X147473291Y-128680876D01*
X147231386Y-128559923D02*
X147231386Y-128898590D01*
X147231386Y-128608304D02*
X147207196Y-128584114D01*
X147207196Y-128584114D02*
X147158815Y-128559923D01*
X147158815Y-128559923D02*
X147086243Y-128559923D01*
X147086243Y-128559923D02*
X147037862Y-128584114D01*
X147037862Y-128584114D02*
X147013672Y-128632495D01*
X147013672Y-128632495D02*
X147013672Y-128898590D01*
X146554053Y-128559923D02*
X146554053Y-128971161D01*
X146554053Y-128971161D02*
X146578243Y-129019542D01*
X146578243Y-129019542D02*
X146602434Y-129043733D01*
X146602434Y-129043733D02*
X146650815Y-129067923D01*
X146650815Y-129067923D02*
X146723386Y-129067923D01*
X146723386Y-129067923D02*
X146771767Y-129043733D01*
X146554053Y-128874400D02*
X146602434Y-128898590D01*
X146602434Y-128898590D02*
X146699196Y-128898590D01*
X146699196Y-128898590D02*
X146747577Y-128874400D01*
X146747577Y-128874400D02*
X146771767Y-128850209D01*
X146771767Y-128850209D02*
X146795958Y-128801828D01*
X146795958Y-128801828D02*
X146795958Y-128656685D01*
X146795958Y-128656685D02*
X146771767Y-128608304D01*
X146771767Y-128608304D02*
X146747577Y-128584114D01*
X146747577Y-128584114D02*
X146699196Y-128559923D01*
X146699196Y-128559923D02*
X146602434Y-128559923D01*
X146602434Y-128559923D02*
X146554053Y-128584114D01*
X146118624Y-128874400D02*
X146167005Y-128898590D01*
X146167005Y-128898590D02*
X146263767Y-128898590D01*
X146263767Y-128898590D02*
X146312148Y-128874400D01*
X146312148Y-128874400D02*
X146336339Y-128826019D01*
X146336339Y-128826019D02*
X146336339Y-128632495D01*
X146336339Y-128632495D02*
X146312148Y-128584114D01*
X146312148Y-128584114D02*
X146263767Y-128559923D01*
X146263767Y-128559923D02*
X146167005Y-128559923D01*
X146167005Y-128559923D02*
X146118624Y-128584114D01*
X146118624Y-128584114D02*
X146094434Y-128632495D01*
X146094434Y-128632495D02*
X146094434Y-128680876D01*
X146094434Y-128680876D02*
X146336339Y-128729257D01*
X145659005Y-128898590D02*
X145659005Y-128390590D01*
X145659005Y-128874400D02*
X145707386Y-128898590D01*
X145707386Y-128898590D02*
X145804148Y-128898590D01*
X145804148Y-128898590D02*
X145852529Y-128874400D01*
X145852529Y-128874400D02*
X145876719Y-128850209D01*
X145876719Y-128850209D02*
X145900910Y-128801828D01*
X145900910Y-128801828D02*
X145900910Y-128656685D01*
X145900910Y-128656685D02*
X145876719Y-128608304D01*
X145876719Y-128608304D02*
X145852529Y-128584114D01*
X145852529Y-128584114D02*
X145804148Y-128559923D01*
X145804148Y-128559923D02*
X145707386Y-128559923D01*
X145707386Y-128559923D02*
X145659005Y-128584114D01*
X145030052Y-128898590D02*
X145030052Y-128390590D01*
X145030052Y-128584114D02*
X144981671Y-128559923D01*
X144981671Y-128559923D02*
X144884909Y-128559923D01*
X144884909Y-128559923D02*
X144836528Y-128584114D01*
X144836528Y-128584114D02*
X144812338Y-128608304D01*
X144812338Y-128608304D02*
X144788147Y-128656685D01*
X144788147Y-128656685D02*
X144788147Y-128801828D01*
X144788147Y-128801828D02*
X144812338Y-128850209D01*
X144812338Y-128850209D02*
X144836528Y-128874400D01*
X144836528Y-128874400D02*
X144884909Y-128898590D01*
X144884909Y-128898590D02*
X144981671Y-128898590D01*
X144981671Y-128898590D02*
X145030052Y-128874400D01*
X144618814Y-128559923D02*
X144497862Y-128898590D01*
X144376909Y-128559923D02*
X144497862Y-128898590D01*
X144497862Y-128898590D02*
X144546243Y-129019542D01*
X144546243Y-129019542D02*
X144570433Y-129043733D01*
X144570433Y-129043733D02*
X144618814Y-129067923D01*
X143627004Y-128632495D02*
X143554432Y-128656685D01*
X143554432Y-128656685D02*
X143530242Y-128680876D01*
X143530242Y-128680876D02*
X143506051Y-128729257D01*
X143506051Y-128729257D02*
X143506051Y-128801828D01*
X143506051Y-128801828D02*
X143530242Y-128850209D01*
X143530242Y-128850209D02*
X143554432Y-128874400D01*
X143554432Y-128874400D02*
X143602813Y-128898590D01*
X143602813Y-128898590D02*
X143796337Y-128898590D01*
X143796337Y-128898590D02*
X143796337Y-128390590D01*
X143796337Y-128390590D02*
X143627004Y-128390590D01*
X143627004Y-128390590D02*
X143578623Y-128414780D01*
X143578623Y-128414780D02*
X143554432Y-128438971D01*
X143554432Y-128438971D02*
X143530242Y-128487352D01*
X143530242Y-128487352D02*
X143530242Y-128535733D01*
X143530242Y-128535733D02*
X143554432Y-128584114D01*
X143554432Y-128584114D02*
X143578623Y-128608304D01*
X143578623Y-128608304D02*
X143627004Y-128632495D01*
X143627004Y-128632495D02*
X143796337Y-128632495D01*
X143094813Y-128874400D02*
X143143194Y-128898590D01*
X143143194Y-128898590D02*
X143239956Y-128898590D01*
X143239956Y-128898590D02*
X143288337Y-128874400D01*
X143288337Y-128874400D02*
X143312528Y-128826019D01*
X143312528Y-128826019D02*
X143312528Y-128632495D01*
X143312528Y-128632495D02*
X143288337Y-128584114D01*
X143288337Y-128584114D02*
X143239956Y-128559923D01*
X143239956Y-128559923D02*
X143143194Y-128559923D01*
X143143194Y-128559923D02*
X143094813Y-128584114D01*
X143094813Y-128584114D02*
X143070623Y-128632495D01*
X143070623Y-128632495D02*
X143070623Y-128680876D01*
X143070623Y-128680876D02*
X143312528Y-128729257D01*
X142852908Y-128559923D02*
X142852908Y-128898590D01*
X142852908Y-128608304D02*
X142828718Y-128584114D01*
X142828718Y-128584114D02*
X142780337Y-128559923D01*
X142780337Y-128559923D02*
X142707765Y-128559923D01*
X142707765Y-128559923D02*
X142659384Y-128584114D01*
X142659384Y-128584114D02*
X142635194Y-128632495D01*
X142635194Y-128632495D02*
X142635194Y-128898590D01*
X141715955Y-128898590D02*
X141885289Y-128656685D01*
X142006241Y-128898590D02*
X142006241Y-128390590D01*
X142006241Y-128390590D02*
X141812717Y-128390590D01*
X141812717Y-128390590D02*
X141764336Y-128414780D01*
X141764336Y-128414780D02*
X141740146Y-128438971D01*
X141740146Y-128438971D02*
X141715955Y-128487352D01*
X141715955Y-128487352D02*
X141715955Y-128559923D01*
X141715955Y-128559923D02*
X141740146Y-128608304D01*
X141740146Y-128608304D02*
X141764336Y-128632495D01*
X141764336Y-128632495D02*
X141812717Y-128656685D01*
X141812717Y-128656685D02*
X142006241Y-128656685D01*
X141304717Y-128874400D02*
X141353098Y-128898590D01*
X141353098Y-128898590D02*
X141449860Y-128898590D01*
X141449860Y-128898590D02*
X141498241Y-128874400D01*
X141498241Y-128874400D02*
X141522432Y-128826019D01*
X141522432Y-128826019D02*
X141522432Y-128632495D01*
X141522432Y-128632495D02*
X141498241Y-128584114D01*
X141498241Y-128584114D02*
X141449860Y-128559923D01*
X141449860Y-128559923D02*
X141353098Y-128559923D01*
X141353098Y-128559923D02*
X141304717Y-128584114D01*
X141304717Y-128584114D02*
X141280527Y-128632495D01*
X141280527Y-128632495D02*
X141280527Y-128680876D01*
X141280527Y-128680876D02*
X141522432Y-128729257D01*
X140845098Y-128559923D02*
X140845098Y-128971161D01*
X140845098Y-128971161D02*
X140869288Y-129019542D01*
X140869288Y-129019542D02*
X140893479Y-129043733D01*
X140893479Y-129043733D02*
X140941860Y-129067923D01*
X140941860Y-129067923D02*
X141014431Y-129067923D01*
X141014431Y-129067923D02*
X141062812Y-129043733D01*
X140845098Y-128874400D02*
X140893479Y-128898590D01*
X140893479Y-128898590D02*
X140990241Y-128898590D01*
X140990241Y-128898590D02*
X141038622Y-128874400D01*
X141038622Y-128874400D02*
X141062812Y-128850209D01*
X141062812Y-128850209D02*
X141087003Y-128801828D01*
X141087003Y-128801828D02*
X141087003Y-128656685D01*
X141087003Y-128656685D02*
X141062812Y-128608304D01*
X141062812Y-128608304D02*
X141038622Y-128584114D01*
X141038622Y-128584114D02*
X140990241Y-128559923D01*
X140990241Y-128559923D02*
X140893479Y-128559923D01*
X140893479Y-128559923D02*
X140845098Y-128584114D01*
X140603193Y-128559923D02*
X140603193Y-128898590D01*
X140603193Y-128608304D02*
X140579003Y-128584114D01*
X140579003Y-128584114D02*
X140530622Y-128559923D01*
X140530622Y-128559923D02*
X140458050Y-128559923D01*
X140458050Y-128559923D02*
X140409669Y-128584114D01*
X140409669Y-128584114D02*
X140385479Y-128632495D01*
X140385479Y-128632495D02*
X140385479Y-128898590D01*
X140143574Y-128898590D02*
X140143574Y-128559923D01*
X140143574Y-128390590D02*
X140167765Y-128414780D01*
X140167765Y-128414780D02*
X140143574Y-128438971D01*
X140143574Y-128438971D02*
X140119384Y-128414780D01*
X140119384Y-128414780D02*
X140143574Y-128390590D01*
X140143574Y-128390590D02*
X140143574Y-128438971D01*
X139708145Y-128874400D02*
X139756526Y-128898590D01*
X139756526Y-128898590D02*
X139853288Y-128898590D01*
X139853288Y-128898590D02*
X139901669Y-128874400D01*
X139901669Y-128874400D02*
X139925860Y-128826019D01*
X139925860Y-128826019D02*
X139925860Y-128632495D01*
X139925860Y-128632495D02*
X139901669Y-128584114D01*
X139901669Y-128584114D02*
X139853288Y-128559923D01*
X139853288Y-128559923D02*
X139756526Y-128559923D01*
X139756526Y-128559923D02*
X139708145Y-128584114D01*
X139708145Y-128584114D02*
X139683955Y-128632495D01*
X139683955Y-128632495D02*
X139683955Y-128680876D01*
X139683955Y-128680876D02*
X139925860Y-128729257D01*
X139466240Y-128898590D02*
X139466240Y-128559923D01*
X139466240Y-128656685D02*
X139442050Y-128608304D01*
X139442050Y-128608304D02*
X139417859Y-128584114D01*
X139417859Y-128584114D02*
X139369478Y-128559923D01*
X139369478Y-128559923D02*
X139321097Y-128559923D01*
X138401859Y-128366400D02*
X138837288Y-129019542D01*
X137845478Y-128898590D02*
X137845478Y-128390590D01*
X137845478Y-128390590D02*
X137651954Y-128390590D01*
X137651954Y-128390590D02*
X137603573Y-128414780D01*
X137603573Y-128414780D02*
X137579383Y-128438971D01*
X137579383Y-128438971D02*
X137555192Y-128487352D01*
X137555192Y-128487352D02*
X137555192Y-128559923D01*
X137555192Y-128559923D02*
X137579383Y-128608304D01*
X137579383Y-128608304D02*
X137603573Y-128632495D01*
X137603573Y-128632495D02*
X137651954Y-128656685D01*
X137651954Y-128656685D02*
X137845478Y-128656685D01*
X137143954Y-128874400D02*
X137192335Y-128898590D01*
X137192335Y-128898590D02*
X137289097Y-128898590D01*
X137289097Y-128898590D02*
X137337478Y-128874400D01*
X137337478Y-128874400D02*
X137361669Y-128826019D01*
X137361669Y-128826019D02*
X137361669Y-128632495D01*
X137361669Y-128632495D02*
X137337478Y-128584114D01*
X137337478Y-128584114D02*
X137289097Y-128559923D01*
X137289097Y-128559923D02*
X137192335Y-128559923D01*
X137192335Y-128559923D02*
X137143954Y-128584114D01*
X137143954Y-128584114D02*
X137119764Y-128632495D01*
X137119764Y-128632495D02*
X137119764Y-128680876D01*
X137119764Y-128680876D02*
X137361669Y-128729257D01*
X136902049Y-128898590D02*
X136902049Y-128559923D01*
X136902049Y-128656685D02*
X136877859Y-128608304D01*
X136877859Y-128608304D02*
X136853668Y-128584114D01*
X136853668Y-128584114D02*
X136805287Y-128559923D01*
X136805287Y-128559923D02*
X136756906Y-128559923D01*
X136587573Y-128898590D02*
X136587573Y-128559923D01*
X136587573Y-128608304D02*
X136563383Y-128584114D01*
X136563383Y-128584114D02*
X136515002Y-128559923D01*
X136515002Y-128559923D02*
X136442430Y-128559923D01*
X136442430Y-128559923D02*
X136394049Y-128584114D01*
X136394049Y-128584114D02*
X136369859Y-128632495D01*
X136369859Y-128632495D02*
X136369859Y-128898590D01*
X136369859Y-128632495D02*
X136345668Y-128584114D01*
X136345668Y-128584114D02*
X136297287Y-128559923D01*
X136297287Y-128559923D02*
X136224716Y-128559923D01*
X136224716Y-128559923D02*
X136176335Y-128584114D01*
X136176335Y-128584114D02*
X136152145Y-128632495D01*
X136152145Y-128632495D02*
X136152145Y-128898590D01*
X135692526Y-128898590D02*
X135692526Y-128632495D01*
X135692526Y-128632495D02*
X135716716Y-128584114D01*
X135716716Y-128584114D02*
X135765097Y-128559923D01*
X135765097Y-128559923D02*
X135861859Y-128559923D01*
X135861859Y-128559923D02*
X135910240Y-128584114D01*
X135692526Y-128874400D02*
X135740907Y-128898590D01*
X135740907Y-128898590D02*
X135861859Y-128898590D01*
X135861859Y-128898590D02*
X135910240Y-128874400D01*
X135910240Y-128874400D02*
X135934431Y-128826019D01*
X135934431Y-128826019D02*
X135934431Y-128777638D01*
X135934431Y-128777638D02*
X135910240Y-128729257D01*
X135910240Y-128729257D02*
X135861859Y-128705066D01*
X135861859Y-128705066D02*
X135740907Y-128705066D01*
X135740907Y-128705066D02*
X135692526Y-128680876D01*
X135450621Y-128559923D02*
X135450621Y-128898590D01*
X135450621Y-128608304D02*
X135426431Y-128584114D01*
X135426431Y-128584114D02*
X135378050Y-128559923D01*
X135378050Y-128559923D02*
X135305478Y-128559923D01*
X135305478Y-128559923D02*
X135257097Y-128584114D01*
X135257097Y-128584114D02*
X135232907Y-128632495D01*
X135232907Y-128632495D02*
X135232907Y-128898590D01*
X134797478Y-128874400D02*
X134845859Y-128898590D01*
X134845859Y-128898590D02*
X134942621Y-128898590D01*
X134942621Y-128898590D02*
X134991002Y-128874400D01*
X134991002Y-128874400D02*
X135015193Y-128826019D01*
X135015193Y-128826019D02*
X135015193Y-128632495D01*
X135015193Y-128632495D02*
X134991002Y-128584114D01*
X134991002Y-128584114D02*
X134942621Y-128559923D01*
X134942621Y-128559923D02*
X134845859Y-128559923D01*
X134845859Y-128559923D02*
X134797478Y-128584114D01*
X134797478Y-128584114D02*
X134773288Y-128632495D01*
X134773288Y-128632495D02*
X134773288Y-128680876D01*
X134773288Y-128680876D02*
X135015193Y-128729257D01*
X134555573Y-128559923D02*
X134555573Y-128898590D01*
X134555573Y-128608304D02*
X134531383Y-128584114D01*
X134531383Y-128584114D02*
X134483002Y-128559923D01*
X134483002Y-128559923D02*
X134410430Y-128559923D01*
X134410430Y-128559923D02*
X134362049Y-128584114D01*
X134362049Y-128584114D02*
X134337859Y-128632495D01*
X134337859Y-128632495D02*
X134337859Y-128898590D01*
X134168526Y-128559923D02*
X133975002Y-128559923D01*
X134095954Y-128390590D02*
X134095954Y-128826019D01*
X134095954Y-128826019D02*
X134071764Y-128874400D01*
X134071764Y-128874400D02*
X134023383Y-128898590D01*
X134023383Y-128898590D02*
X133975002Y-128898590D01*
X133128334Y-128898590D02*
X133297668Y-128656685D01*
X133418620Y-128898590D02*
X133418620Y-128390590D01*
X133418620Y-128390590D02*
X133225096Y-128390590D01*
X133225096Y-128390590D02*
X133176715Y-128414780D01*
X133176715Y-128414780D02*
X133152525Y-128438971D01*
X133152525Y-128438971D02*
X133128334Y-128487352D01*
X133128334Y-128487352D02*
X133128334Y-128559923D01*
X133128334Y-128559923D02*
X133152525Y-128608304D01*
X133152525Y-128608304D02*
X133176715Y-128632495D01*
X133176715Y-128632495D02*
X133225096Y-128656685D01*
X133225096Y-128656685D02*
X133418620Y-128656685D01*
X132910620Y-128898590D02*
X132910620Y-128559923D01*
X132910620Y-128390590D02*
X132934811Y-128414780D01*
X132934811Y-128414780D02*
X132910620Y-128438971D01*
X132910620Y-128438971D02*
X132886430Y-128414780D01*
X132886430Y-128414780D02*
X132910620Y-128390590D01*
X132910620Y-128390590D02*
X132910620Y-128438971D01*
X132596144Y-128898590D02*
X132644525Y-128874400D01*
X132644525Y-128874400D02*
X132668715Y-128850209D01*
X132668715Y-128850209D02*
X132692906Y-128801828D01*
X132692906Y-128801828D02*
X132692906Y-128656685D01*
X132692906Y-128656685D02*
X132668715Y-128608304D01*
X132668715Y-128608304D02*
X132644525Y-128584114D01*
X132644525Y-128584114D02*
X132596144Y-128559923D01*
X132596144Y-128559923D02*
X132523572Y-128559923D01*
X132523572Y-128559923D02*
X132475191Y-128584114D01*
X132475191Y-128584114D02*
X132451001Y-128608304D01*
X132451001Y-128608304D02*
X132426810Y-128656685D01*
X132426810Y-128656685D02*
X132426810Y-128801828D01*
X132426810Y-128801828D02*
X132451001Y-128850209D01*
X132451001Y-128850209D02*
X132475191Y-128874400D01*
X132475191Y-128874400D02*
X132523572Y-128898590D01*
X132523572Y-128898590D02*
X132596144Y-128898590D01*
X132281668Y-128559923D02*
X132088144Y-128559923D01*
X132209096Y-128390590D02*
X132209096Y-128826019D01*
X132209096Y-128826019D02*
X132184906Y-128874400D01*
X132184906Y-128874400D02*
X132136525Y-128898590D01*
X132136525Y-128898590D02*
X132088144Y-128898590D01*
X149771386Y-129208442D02*
X149650434Y-129716442D01*
X149650434Y-129716442D02*
X149553672Y-129353585D01*
X149553672Y-129353585D02*
X149456910Y-129716442D01*
X149456910Y-129716442D02*
X149335958Y-129208442D01*
X149142434Y-129716442D02*
X149142434Y-129377775D01*
X149142434Y-129208442D02*
X149166625Y-129232632D01*
X149166625Y-129232632D02*
X149142434Y-129256823D01*
X149142434Y-129256823D02*
X149118244Y-129232632D01*
X149118244Y-129232632D02*
X149142434Y-129208442D01*
X149142434Y-129208442D02*
X149142434Y-129256823D01*
X148973101Y-129377775D02*
X148779577Y-129377775D01*
X148900529Y-129208442D02*
X148900529Y-129643871D01*
X148900529Y-129643871D02*
X148876339Y-129692252D01*
X148876339Y-129692252D02*
X148827958Y-129716442D01*
X148827958Y-129716442D02*
X148779577Y-129716442D01*
X148610243Y-129716442D02*
X148610243Y-129208442D01*
X148392529Y-129716442D02*
X148392529Y-129450347D01*
X148392529Y-129450347D02*
X148416719Y-129401966D01*
X148416719Y-129401966D02*
X148465100Y-129377775D01*
X148465100Y-129377775D02*
X148537672Y-129377775D01*
X148537672Y-129377775D02*
X148586053Y-129401966D01*
X148586053Y-129401966D02*
X148610243Y-129426156D01*
X147836148Y-129377775D02*
X147642624Y-129377775D01*
X147763576Y-129208442D02*
X147763576Y-129643871D01*
X147763576Y-129643871D02*
X147739386Y-129692252D01*
X147739386Y-129692252D02*
X147691005Y-129716442D01*
X147691005Y-129716442D02*
X147642624Y-129716442D01*
X147473290Y-129716442D02*
X147473290Y-129208442D01*
X147255576Y-129716442D02*
X147255576Y-129450347D01*
X147255576Y-129450347D02*
X147279766Y-129401966D01*
X147279766Y-129401966D02*
X147328147Y-129377775D01*
X147328147Y-129377775D02*
X147400719Y-129377775D01*
X147400719Y-129377775D02*
X147449100Y-129401966D01*
X147449100Y-129401966D02*
X147473290Y-129426156D01*
X146795957Y-129716442D02*
X146795957Y-129450347D01*
X146795957Y-129450347D02*
X146820147Y-129401966D01*
X146820147Y-129401966D02*
X146868528Y-129377775D01*
X146868528Y-129377775D02*
X146965290Y-129377775D01*
X146965290Y-129377775D02*
X147013671Y-129401966D01*
X146795957Y-129692252D02*
X146844338Y-129716442D01*
X146844338Y-129716442D02*
X146965290Y-129716442D01*
X146965290Y-129716442D02*
X147013671Y-129692252D01*
X147013671Y-129692252D02*
X147037862Y-129643871D01*
X147037862Y-129643871D02*
X147037862Y-129595490D01*
X147037862Y-129595490D02*
X147013671Y-129547109D01*
X147013671Y-129547109D02*
X146965290Y-129522918D01*
X146965290Y-129522918D02*
X146844338Y-129522918D01*
X146844338Y-129522918D02*
X146795957Y-129498728D01*
X146554052Y-129377775D02*
X146554052Y-129716442D01*
X146554052Y-129426156D02*
X146529862Y-129401966D01*
X146529862Y-129401966D02*
X146481481Y-129377775D01*
X146481481Y-129377775D02*
X146408909Y-129377775D01*
X146408909Y-129377775D02*
X146360528Y-129401966D01*
X146360528Y-129401966D02*
X146336338Y-129450347D01*
X146336338Y-129450347D02*
X146336338Y-129716442D01*
X146094433Y-129716442D02*
X146094433Y-129208442D01*
X146046052Y-129522918D02*
X145900909Y-129716442D01*
X145900909Y-129377775D02*
X146094433Y-129571299D01*
X145707386Y-129692252D02*
X145659005Y-129716442D01*
X145659005Y-129716442D02*
X145562243Y-129716442D01*
X145562243Y-129716442D02*
X145513862Y-129692252D01*
X145513862Y-129692252D02*
X145489671Y-129643871D01*
X145489671Y-129643871D02*
X145489671Y-129619680D01*
X145489671Y-129619680D02*
X145513862Y-129571299D01*
X145513862Y-129571299D02*
X145562243Y-129547109D01*
X145562243Y-129547109D02*
X145634814Y-129547109D01*
X145634814Y-129547109D02*
X145683195Y-129522918D01*
X145683195Y-129522918D02*
X145707386Y-129474537D01*
X145707386Y-129474537D02*
X145707386Y-129450347D01*
X145707386Y-129450347D02*
X145683195Y-129401966D01*
X145683195Y-129401966D02*
X145634814Y-129377775D01*
X145634814Y-129377775D02*
X145562243Y-129377775D01*
X145562243Y-129377775D02*
X145513862Y-129401966D01*
X144957481Y-129377775D02*
X144763957Y-129377775D01*
X144884909Y-129208442D02*
X144884909Y-129643871D01*
X144884909Y-129643871D02*
X144860719Y-129692252D01*
X144860719Y-129692252D02*
X144812338Y-129716442D01*
X144812338Y-129716442D02*
X144763957Y-129716442D01*
X144522052Y-129716442D02*
X144570433Y-129692252D01*
X144570433Y-129692252D02*
X144594623Y-129668061D01*
X144594623Y-129668061D02*
X144618814Y-129619680D01*
X144618814Y-129619680D02*
X144618814Y-129474537D01*
X144618814Y-129474537D02*
X144594623Y-129426156D01*
X144594623Y-129426156D02*
X144570433Y-129401966D01*
X144570433Y-129401966D02*
X144522052Y-129377775D01*
X144522052Y-129377775D02*
X144449480Y-129377775D01*
X144449480Y-129377775D02*
X144401099Y-129401966D01*
X144401099Y-129401966D02*
X144376909Y-129426156D01*
X144376909Y-129426156D02*
X144352718Y-129474537D01*
X144352718Y-129474537D02*
X144352718Y-129619680D01*
X144352718Y-129619680D02*
X144376909Y-129668061D01*
X144376909Y-129668061D02*
X144401099Y-129692252D01*
X144401099Y-129692252D02*
X144449480Y-129716442D01*
X144449480Y-129716442D02*
X144522052Y-129716442D01*
X143457670Y-129716442D02*
X143627004Y-129474537D01*
X143747956Y-129716442D02*
X143747956Y-129208442D01*
X143747956Y-129208442D02*
X143554432Y-129208442D01*
X143554432Y-129208442D02*
X143506051Y-129232632D01*
X143506051Y-129232632D02*
X143481861Y-129256823D01*
X143481861Y-129256823D02*
X143457670Y-129305204D01*
X143457670Y-129305204D02*
X143457670Y-129377775D01*
X143457670Y-129377775D02*
X143481861Y-129426156D01*
X143481861Y-129426156D02*
X143506051Y-129450347D01*
X143506051Y-129450347D02*
X143554432Y-129474537D01*
X143554432Y-129474537D02*
X143747956Y-129474537D01*
X143022242Y-129716442D02*
X143022242Y-129450347D01*
X143022242Y-129450347D02*
X143046432Y-129401966D01*
X143046432Y-129401966D02*
X143094813Y-129377775D01*
X143094813Y-129377775D02*
X143191575Y-129377775D01*
X143191575Y-129377775D02*
X143239956Y-129401966D01*
X143022242Y-129692252D02*
X143070623Y-129716442D01*
X143070623Y-129716442D02*
X143191575Y-129716442D01*
X143191575Y-129716442D02*
X143239956Y-129692252D01*
X143239956Y-129692252D02*
X143264147Y-129643871D01*
X143264147Y-129643871D02*
X143264147Y-129595490D01*
X143264147Y-129595490D02*
X143239956Y-129547109D01*
X143239956Y-129547109D02*
X143191575Y-129522918D01*
X143191575Y-129522918D02*
X143070623Y-129522918D01*
X143070623Y-129522918D02*
X143022242Y-129498728D01*
X142780337Y-129716442D02*
X142780337Y-129377775D01*
X142780337Y-129426156D02*
X142756147Y-129401966D01*
X142756147Y-129401966D02*
X142707766Y-129377775D01*
X142707766Y-129377775D02*
X142635194Y-129377775D01*
X142635194Y-129377775D02*
X142586813Y-129401966D01*
X142586813Y-129401966D02*
X142562623Y-129450347D01*
X142562623Y-129450347D02*
X142562623Y-129716442D01*
X142562623Y-129450347D02*
X142538432Y-129401966D01*
X142538432Y-129401966D02*
X142490051Y-129377775D01*
X142490051Y-129377775D02*
X142417480Y-129377775D01*
X142417480Y-129377775D02*
X142369099Y-129401966D01*
X142369099Y-129401966D02*
X142344909Y-129450347D01*
X142344909Y-129450347D02*
X142344909Y-129716442D01*
X142103004Y-129377775D02*
X142103004Y-129885775D01*
X142103004Y-129401966D02*
X142054623Y-129377775D01*
X142054623Y-129377775D02*
X141957861Y-129377775D01*
X141957861Y-129377775D02*
X141909480Y-129401966D01*
X141909480Y-129401966D02*
X141885290Y-129426156D01*
X141885290Y-129426156D02*
X141861099Y-129474537D01*
X141861099Y-129474537D02*
X141861099Y-129619680D01*
X141861099Y-129619680D02*
X141885290Y-129668061D01*
X141885290Y-129668061D02*
X141909480Y-129692252D01*
X141909480Y-129692252D02*
X141957861Y-129716442D01*
X141957861Y-129716442D02*
X142054623Y-129716442D01*
X142054623Y-129716442D02*
X142103004Y-129692252D01*
X141643385Y-129716442D02*
X141643385Y-129208442D01*
X141425671Y-129716442D02*
X141425671Y-129450347D01*
X141425671Y-129450347D02*
X141449861Y-129401966D01*
X141449861Y-129401966D02*
X141498242Y-129377775D01*
X141498242Y-129377775D02*
X141570814Y-129377775D01*
X141570814Y-129377775D02*
X141619195Y-129401966D01*
X141619195Y-129401966D02*
X141643385Y-129426156D01*
X140966052Y-129716442D02*
X140966052Y-129450347D01*
X140966052Y-129450347D02*
X140990242Y-129401966D01*
X140990242Y-129401966D02*
X141038623Y-129377775D01*
X141038623Y-129377775D02*
X141135385Y-129377775D01*
X141135385Y-129377775D02*
X141183766Y-129401966D01*
X140966052Y-129692252D02*
X141014433Y-129716442D01*
X141014433Y-129716442D02*
X141135385Y-129716442D01*
X141135385Y-129716442D02*
X141183766Y-129692252D01*
X141183766Y-129692252D02*
X141207957Y-129643871D01*
X141207957Y-129643871D02*
X141207957Y-129595490D01*
X141207957Y-129595490D02*
X141183766Y-129547109D01*
X141183766Y-129547109D02*
X141135385Y-129522918D01*
X141135385Y-129522918D02*
X141014433Y-129522918D01*
X141014433Y-129522918D02*
X140966052Y-129498728D01*
X140724147Y-129377775D02*
X140724147Y-129716442D01*
X140724147Y-129426156D02*
X140699957Y-129401966D01*
X140699957Y-129401966D02*
X140651576Y-129377775D01*
X140651576Y-129377775D02*
X140579004Y-129377775D01*
X140579004Y-129377775D02*
X140530623Y-129401966D01*
X140530623Y-129401966D02*
X140506433Y-129450347D01*
X140506433Y-129450347D02*
X140506433Y-129716442D01*
X140046814Y-129716442D02*
X140046814Y-129208442D01*
X140046814Y-129692252D02*
X140095195Y-129716442D01*
X140095195Y-129716442D02*
X140191957Y-129716442D01*
X140191957Y-129716442D02*
X140240338Y-129692252D01*
X140240338Y-129692252D02*
X140264528Y-129668061D01*
X140264528Y-129668061D02*
X140288719Y-129619680D01*
X140288719Y-129619680D02*
X140288719Y-129474537D01*
X140288719Y-129474537D02*
X140264528Y-129426156D01*
X140264528Y-129426156D02*
X140240338Y-129401966D01*
X140240338Y-129401966D02*
X140191957Y-129377775D01*
X140191957Y-129377775D02*
X140095195Y-129377775D01*
X140095195Y-129377775D02*
X140046814Y-129401966D01*
X139829100Y-129692252D02*
X139780719Y-129716442D01*
X139780719Y-129716442D02*
X139683957Y-129716442D01*
X139683957Y-129716442D02*
X139635576Y-129692252D01*
X139635576Y-129692252D02*
X139611385Y-129643871D01*
X139611385Y-129643871D02*
X139611385Y-129619680D01*
X139611385Y-129619680D02*
X139635576Y-129571299D01*
X139635576Y-129571299D02*
X139683957Y-129547109D01*
X139683957Y-129547109D02*
X139756528Y-129547109D01*
X139756528Y-129547109D02*
X139804909Y-129522918D01*
X139804909Y-129522918D02*
X139829100Y-129474537D01*
X139829100Y-129474537D02*
X139829100Y-129450347D01*
X139829100Y-129450347D02*
X139804909Y-129401966D01*
X139804909Y-129401966D02*
X139756528Y-129377775D01*
X139756528Y-129377775D02*
X139683957Y-129377775D01*
X139683957Y-129377775D02*
X139635576Y-129401966D01*
X138788909Y-129716442D02*
X138788909Y-129450347D01*
X138788909Y-129450347D02*
X138813099Y-129401966D01*
X138813099Y-129401966D02*
X138861480Y-129377775D01*
X138861480Y-129377775D02*
X138958242Y-129377775D01*
X138958242Y-129377775D02*
X139006623Y-129401966D01*
X138788909Y-129692252D02*
X138837290Y-129716442D01*
X138837290Y-129716442D02*
X138958242Y-129716442D01*
X138958242Y-129716442D02*
X139006623Y-129692252D01*
X139006623Y-129692252D02*
X139030814Y-129643871D01*
X139030814Y-129643871D02*
X139030814Y-129595490D01*
X139030814Y-129595490D02*
X139006623Y-129547109D01*
X139006623Y-129547109D02*
X138958242Y-129522918D01*
X138958242Y-129522918D02*
X138837290Y-129522918D01*
X138837290Y-129522918D02*
X138788909Y-129498728D01*
X138547004Y-129377775D02*
X138547004Y-129716442D01*
X138547004Y-129426156D02*
X138522814Y-129401966D01*
X138522814Y-129401966D02*
X138474433Y-129377775D01*
X138474433Y-129377775D02*
X138401861Y-129377775D01*
X138401861Y-129377775D02*
X138353480Y-129401966D01*
X138353480Y-129401966D02*
X138329290Y-129450347D01*
X138329290Y-129450347D02*
X138329290Y-129716442D01*
X137869671Y-129716442D02*
X137869671Y-129208442D01*
X137869671Y-129692252D02*
X137918052Y-129716442D01*
X137918052Y-129716442D02*
X138014814Y-129716442D01*
X138014814Y-129716442D02*
X138063195Y-129692252D01*
X138063195Y-129692252D02*
X138087385Y-129668061D01*
X138087385Y-129668061D02*
X138111576Y-129619680D01*
X138111576Y-129619680D02*
X138111576Y-129474537D01*
X138111576Y-129474537D02*
X138087385Y-129426156D01*
X138087385Y-129426156D02*
X138063195Y-129401966D01*
X138063195Y-129401966D02*
X138014814Y-129377775D01*
X138014814Y-129377775D02*
X137918052Y-129377775D01*
X137918052Y-129377775D02*
X137869671Y-129401966D01*
X137071385Y-129450347D02*
X136998813Y-129474537D01*
X136998813Y-129474537D02*
X136974623Y-129498728D01*
X136974623Y-129498728D02*
X136950432Y-129547109D01*
X136950432Y-129547109D02*
X136950432Y-129619680D01*
X136950432Y-129619680D02*
X136974623Y-129668061D01*
X136974623Y-129668061D02*
X136998813Y-129692252D01*
X136998813Y-129692252D02*
X137047194Y-129716442D01*
X137047194Y-129716442D02*
X137240718Y-129716442D01*
X137240718Y-129716442D02*
X137240718Y-129208442D01*
X137240718Y-129208442D02*
X137071385Y-129208442D01*
X137071385Y-129208442D02*
X137023004Y-129232632D01*
X137023004Y-129232632D02*
X136998813Y-129256823D01*
X136998813Y-129256823D02*
X136974623Y-129305204D01*
X136974623Y-129305204D02*
X136974623Y-129353585D01*
X136974623Y-129353585D02*
X136998813Y-129401966D01*
X136998813Y-129401966D02*
X137023004Y-129426156D01*
X137023004Y-129426156D02*
X137071385Y-129450347D01*
X137071385Y-129450347D02*
X137240718Y-129450347D01*
X136732718Y-129716442D02*
X136732718Y-129377775D01*
X136732718Y-129208442D02*
X136756909Y-129232632D01*
X136756909Y-129232632D02*
X136732718Y-129256823D01*
X136732718Y-129256823D02*
X136708528Y-129232632D01*
X136708528Y-129232632D02*
X136732718Y-129208442D01*
X136732718Y-129208442D02*
X136732718Y-129256823D01*
X136418242Y-129716442D02*
X136466623Y-129692252D01*
X136466623Y-129692252D02*
X136490813Y-129643871D01*
X136490813Y-129643871D02*
X136490813Y-129208442D01*
X136152147Y-129716442D02*
X136200528Y-129692252D01*
X136200528Y-129692252D02*
X136224718Y-129643871D01*
X136224718Y-129643871D02*
X136224718Y-129208442D01*
X136007004Y-129377775D02*
X135886052Y-129716442D01*
X135765099Y-129377775D02*
X135886052Y-129716442D01*
X135886052Y-129716442D02*
X135934433Y-129837394D01*
X135934433Y-129837394D02*
X135958623Y-129861585D01*
X135958623Y-129861585D02*
X136007004Y-129885775D01*
X135184527Y-129716442D02*
X135184527Y-129208442D01*
X135184527Y-129450347D02*
X134894241Y-129450347D01*
X134894241Y-129716442D02*
X134894241Y-129208442D01*
X134579766Y-129716442D02*
X134628147Y-129692252D01*
X134628147Y-129692252D02*
X134652337Y-129668061D01*
X134652337Y-129668061D02*
X134676528Y-129619680D01*
X134676528Y-129619680D02*
X134676528Y-129474537D01*
X134676528Y-129474537D02*
X134652337Y-129426156D01*
X134652337Y-129426156D02*
X134628147Y-129401966D01*
X134628147Y-129401966D02*
X134579766Y-129377775D01*
X134579766Y-129377775D02*
X134507194Y-129377775D01*
X134507194Y-129377775D02*
X134458813Y-129401966D01*
X134458813Y-129401966D02*
X134434623Y-129426156D01*
X134434623Y-129426156D02*
X134410432Y-129474537D01*
X134410432Y-129474537D02*
X134410432Y-129619680D01*
X134410432Y-129619680D02*
X134434623Y-129668061D01*
X134434623Y-129668061D02*
X134458813Y-129692252D01*
X134458813Y-129692252D02*
X134507194Y-129716442D01*
X134507194Y-129716442D02*
X134579766Y-129716442D01*
X134120147Y-129716442D02*
X134168528Y-129692252D01*
X134168528Y-129692252D02*
X134192718Y-129643871D01*
X134192718Y-129643871D02*
X134192718Y-129208442D01*
X133854052Y-129716442D02*
X133902433Y-129692252D01*
X133902433Y-129692252D02*
X133926623Y-129668061D01*
X133926623Y-129668061D02*
X133950814Y-129619680D01*
X133950814Y-129619680D02*
X133950814Y-129474537D01*
X133950814Y-129474537D02*
X133926623Y-129426156D01*
X133926623Y-129426156D02*
X133902433Y-129401966D01*
X133902433Y-129401966D02*
X133854052Y-129377775D01*
X133854052Y-129377775D02*
X133781480Y-129377775D01*
X133781480Y-129377775D02*
X133733099Y-129401966D01*
X133733099Y-129401966D02*
X133708909Y-129426156D01*
X133708909Y-129426156D02*
X133684718Y-129474537D01*
X133684718Y-129474537D02*
X133684718Y-129619680D01*
X133684718Y-129619680D02*
X133708909Y-129668061D01*
X133708909Y-129668061D02*
X133733099Y-129692252D01*
X133733099Y-129692252D02*
X133781480Y-129716442D01*
X133781480Y-129716442D02*
X133854052Y-129716442D01*
X133249290Y-129377775D02*
X133249290Y-129789013D01*
X133249290Y-129789013D02*
X133273480Y-129837394D01*
X133273480Y-129837394D02*
X133297671Y-129861585D01*
X133297671Y-129861585D02*
X133346052Y-129885775D01*
X133346052Y-129885775D02*
X133418623Y-129885775D01*
X133418623Y-129885775D02*
X133467004Y-129861585D01*
X133249290Y-129692252D02*
X133297671Y-129716442D01*
X133297671Y-129716442D02*
X133394433Y-129716442D01*
X133394433Y-129716442D02*
X133442814Y-129692252D01*
X133442814Y-129692252D02*
X133467004Y-129668061D01*
X133467004Y-129668061D02*
X133491195Y-129619680D01*
X133491195Y-129619680D02*
X133491195Y-129474537D01*
X133491195Y-129474537D02*
X133467004Y-129426156D01*
X133467004Y-129426156D02*
X133442814Y-129401966D01*
X133442814Y-129401966D02*
X133394433Y-129377775D01*
X133394433Y-129377775D02*
X133297671Y-129377775D01*
X133297671Y-129377775D02*
X133249290Y-129401966D01*
X133007385Y-129716442D02*
X133007385Y-129377775D01*
X133007385Y-129474537D02*
X132983195Y-129426156D01*
X132983195Y-129426156D02*
X132959004Y-129401966D01*
X132959004Y-129401966D02*
X132910623Y-129377775D01*
X132910623Y-129377775D02*
X132862242Y-129377775D01*
X132475195Y-129716442D02*
X132475195Y-129450347D01*
X132475195Y-129450347D02*
X132499385Y-129401966D01*
X132499385Y-129401966D02*
X132547766Y-129377775D01*
X132547766Y-129377775D02*
X132644528Y-129377775D01*
X132644528Y-129377775D02*
X132692909Y-129401966D01*
X132475195Y-129692252D02*
X132523576Y-129716442D01*
X132523576Y-129716442D02*
X132644528Y-129716442D01*
X132644528Y-129716442D02*
X132692909Y-129692252D01*
X132692909Y-129692252D02*
X132717100Y-129643871D01*
X132717100Y-129643871D02*
X132717100Y-129595490D01*
X132717100Y-129595490D02*
X132692909Y-129547109D01*
X132692909Y-129547109D02*
X132644528Y-129522918D01*
X132644528Y-129522918D02*
X132523576Y-129522918D01*
X132523576Y-129522918D02*
X132475195Y-129498728D01*
X132233290Y-129716442D02*
X132233290Y-129377775D01*
X132233290Y-129426156D02*
X132209100Y-129401966D01*
X132209100Y-129401966D02*
X132160719Y-129377775D01*
X132160719Y-129377775D02*
X132088147Y-129377775D01*
X132088147Y-129377775D02*
X132039766Y-129401966D01*
X132039766Y-129401966D02*
X132015576Y-129450347D01*
X132015576Y-129450347D02*
X132015576Y-129716442D01*
X132015576Y-129450347D02*
X131991385Y-129401966D01*
X131991385Y-129401966D02*
X131943004Y-129377775D01*
X131943004Y-129377775D02*
X131870433Y-129377775D01*
X131870433Y-129377775D02*
X131822052Y-129401966D01*
X131822052Y-129401966D02*
X131797862Y-129450347D01*
X131797862Y-129450347D02*
X131797862Y-129716442D01*
X149505291Y-130195627D02*
X149505291Y-130606865D01*
X149505291Y-130606865D02*
X149529481Y-130655246D01*
X149529481Y-130655246D02*
X149553672Y-130679437D01*
X149553672Y-130679437D02*
X149602053Y-130703627D01*
X149602053Y-130703627D02*
X149674624Y-130703627D01*
X149674624Y-130703627D02*
X149723005Y-130679437D01*
X149505291Y-130510104D02*
X149553672Y-130534294D01*
X149553672Y-130534294D02*
X149650434Y-130534294D01*
X149650434Y-130534294D02*
X149698815Y-130510104D01*
X149698815Y-130510104D02*
X149723005Y-130485913D01*
X149723005Y-130485913D02*
X149747196Y-130437532D01*
X149747196Y-130437532D02*
X149747196Y-130292389D01*
X149747196Y-130292389D02*
X149723005Y-130244008D01*
X149723005Y-130244008D02*
X149698815Y-130219818D01*
X149698815Y-130219818D02*
X149650434Y-130195627D01*
X149650434Y-130195627D02*
X149553672Y-130195627D01*
X149553672Y-130195627D02*
X149505291Y-130219818D01*
X149263386Y-130534294D02*
X149263386Y-130195627D01*
X149263386Y-130026294D02*
X149287577Y-130050484D01*
X149287577Y-130050484D02*
X149263386Y-130074675D01*
X149263386Y-130074675D02*
X149239196Y-130050484D01*
X149239196Y-130050484D02*
X149263386Y-130026294D01*
X149263386Y-130026294D02*
X149263386Y-130074675D01*
X149094053Y-130195627D02*
X148900529Y-130195627D01*
X149021481Y-130026294D02*
X149021481Y-130461723D01*
X149021481Y-130461723D02*
X148997291Y-130510104D01*
X148997291Y-130510104D02*
X148948910Y-130534294D01*
X148948910Y-130534294D02*
X148900529Y-130534294D01*
X148731195Y-130534294D02*
X148731195Y-130026294D01*
X148513481Y-130534294D02*
X148513481Y-130268199D01*
X148513481Y-130268199D02*
X148537671Y-130219818D01*
X148537671Y-130219818D02*
X148586052Y-130195627D01*
X148586052Y-130195627D02*
X148658624Y-130195627D01*
X148658624Y-130195627D02*
X148707005Y-130219818D01*
X148707005Y-130219818D02*
X148731195Y-130244008D01*
X148053862Y-130195627D02*
X148053862Y-130534294D01*
X148271576Y-130195627D02*
X148271576Y-130461723D01*
X148271576Y-130461723D02*
X148247386Y-130510104D01*
X148247386Y-130510104D02*
X148199005Y-130534294D01*
X148199005Y-130534294D02*
X148126433Y-130534294D01*
X148126433Y-130534294D02*
X148078052Y-130510104D01*
X148078052Y-130510104D02*
X148053862Y-130485913D01*
X147811957Y-130534294D02*
X147811957Y-130026294D01*
X147811957Y-130219818D02*
X147763576Y-130195627D01*
X147763576Y-130195627D02*
X147666814Y-130195627D01*
X147666814Y-130195627D02*
X147618433Y-130219818D01*
X147618433Y-130219818D02*
X147594243Y-130244008D01*
X147594243Y-130244008D02*
X147570052Y-130292389D01*
X147570052Y-130292389D02*
X147570052Y-130437532D01*
X147570052Y-130437532D02*
X147594243Y-130485913D01*
X147594243Y-130485913D02*
X147618433Y-130510104D01*
X147618433Y-130510104D02*
X147666814Y-130534294D01*
X147666814Y-130534294D02*
X147763576Y-130534294D01*
X147763576Y-130534294D02*
X147811957Y-130510104D01*
X147352338Y-130485913D02*
X147328148Y-130510104D01*
X147328148Y-130510104D02*
X147352338Y-130534294D01*
X147352338Y-130534294D02*
X147376529Y-130510104D01*
X147376529Y-130510104D02*
X147352338Y-130485913D01*
X147352338Y-130485913D02*
X147352338Y-130534294D01*
X146892719Y-130510104D02*
X146941100Y-130534294D01*
X146941100Y-130534294D02*
X147037862Y-130534294D01*
X147037862Y-130534294D02*
X147086243Y-130510104D01*
X147086243Y-130510104D02*
X147110433Y-130485913D01*
X147110433Y-130485913D02*
X147134624Y-130437532D01*
X147134624Y-130437532D02*
X147134624Y-130292389D01*
X147134624Y-130292389D02*
X147110433Y-130244008D01*
X147110433Y-130244008D02*
X147086243Y-130219818D01*
X147086243Y-130219818D02*
X147037862Y-130195627D01*
X147037862Y-130195627D02*
X146941100Y-130195627D01*
X146941100Y-130195627D02*
X146892719Y-130219818D01*
X146602433Y-130534294D02*
X146650814Y-130510104D01*
X146650814Y-130510104D02*
X146675004Y-130485913D01*
X146675004Y-130485913D02*
X146699195Y-130437532D01*
X146699195Y-130437532D02*
X146699195Y-130292389D01*
X146699195Y-130292389D02*
X146675004Y-130244008D01*
X146675004Y-130244008D02*
X146650814Y-130219818D01*
X146650814Y-130219818D02*
X146602433Y-130195627D01*
X146602433Y-130195627D02*
X146529861Y-130195627D01*
X146529861Y-130195627D02*
X146481480Y-130219818D01*
X146481480Y-130219818D02*
X146457290Y-130244008D01*
X146457290Y-130244008D02*
X146433099Y-130292389D01*
X146433099Y-130292389D02*
X146433099Y-130437532D01*
X146433099Y-130437532D02*
X146457290Y-130485913D01*
X146457290Y-130485913D02*
X146481480Y-130510104D01*
X146481480Y-130510104D02*
X146529861Y-130534294D01*
X146529861Y-130534294D02*
X146602433Y-130534294D01*
X146215385Y-130534294D02*
X146215385Y-130195627D01*
X146215385Y-130244008D02*
X146191195Y-130219818D01*
X146191195Y-130219818D02*
X146142814Y-130195627D01*
X146142814Y-130195627D02*
X146070242Y-130195627D01*
X146070242Y-130195627D02*
X146021861Y-130219818D01*
X146021861Y-130219818D02*
X145997671Y-130268199D01*
X145997671Y-130268199D02*
X145997671Y-130534294D01*
X145997671Y-130268199D02*
X145973480Y-130219818D01*
X145973480Y-130219818D02*
X145925099Y-130195627D01*
X145925099Y-130195627D02*
X145852528Y-130195627D01*
X145852528Y-130195627D02*
X145804147Y-130219818D01*
X145804147Y-130219818D02*
X145779957Y-130268199D01*
X145779957Y-130268199D02*
X145779957Y-130534294D01*
X145175195Y-130002104D02*
X145610624Y-130655246D01*
X145005862Y-130534294D02*
X145005862Y-130026294D01*
X145005862Y-130219818D02*
X144957481Y-130195627D01*
X144957481Y-130195627D02*
X144860719Y-130195627D01*
X144860719Y-130195627D02*
X144812338Y-130219818D01*
X144812338Y-130219818D02*
X144788148Y-130244008D01*
X144788148Y-130244008D02*
X144763957Y-130292389D01*
X144763957Y-130292389D02*
X144763957Y-130437532D01*
X144763957Y-130437532D02*
X144788148Y-130485913D01*
X144788148Y-130485913D02*
X144812338Y-130510104D01*
X144812338Y-130510104D02*
X144860719Y-130534294D01*
X144860719Y-130534294D02*
X144957481Y-130534294D01*
X144957481Y-130534294D02*
X145005862Y-130510104D01*
X144352719Y-130510104D02*
X144401100Y-130534294D01*
X144401100Y-130534294D02*
X144497862Y-130534294D01*
X144497862Y-130534294D02*
X144546243Y-130510104D01*
X144546243Y-130510104D02*
X144570434Y-130461723D01*
X144570434Y-130461723D02*
X144570434Y-130268199D01*
X144570434Y-130268199D02*
X144546243Y-130219818D01*
X144546243Y-130219818D02*
X144497862Y-130195627D01*
X144497862Y-130195627D02*
X144401100Y-130195627D01*
X144401100Y-130195627D02*
X144352719Y-130219818D01*
X144352719Y-130219818D02*
X144328529Y-130268199D01*
X144328529Y-130268199D02*
X144328529Y-130316580D01*
X144328529Y-130316580D02*
X144570434Y-130364961D01*
X144110814Y-130195627D02*
X144110814Y-130534294D01*
X144110814Y-130244008D02*
X144086624Y-130219818D01*
X144086624Y-130219818D02*
X144038243Y-130195627D01*
X144038243Y-130195627D02*
X143965671Y-130195627D01*
X143965671Y-130195627D02*
X143917290Y-130219818D01*
X143917290Y-130219818D02*
X143893100Y-130268199D01*
X143893100Y-130268199D02*
X143893100Y-130534294D01*
X143651195Y-130534294D02*
X143651195Y-130195627D01*
X143651195Y-130292389D02*
X143627005Y-130244008D01*
X143627005Y-130244008D02*
X143602814Y-130219818D01*
X143602814Y-130219818D02*
X143554433Y-130195627D01*
X143554433Y-130195627D02*
X143506052Y-130195627D01*
X143143195Y-130510104D02*
X143191576Y-130534294D01*
X143191576Y-130534294D02*
X143288338Y-130534294D01*
X143288338Y-130534294D02*
X143336719Y-130510104D01*
X143336719Y-130510104D02*
X143360910Y-130461723D01*
X143360910Y-130461723D02*
X143360910Y-130268199D01*
X143360910Y-130268199D02*
X143336719Y-130219818D01*
X143336719Y-130219818D02*
X143288338Y-130195627D01*
X143288338Y-130195627D02*
X143191576Y-130195627D01*
X143191576Y-130195627D02*
X143143195Y-130219818D01*
X143143195Y-130219818D02*
X143119005Y-130268199D01*
X143119005Y-130268199D02*
X143119005Y-130316580D01*
X143119005Y-130316580D02*
X143360910Y-130364961D01*
X142683576Y-130195627D02*
X142683576Y-130606865D01*
X142683576Y-130606865D02*
X142707766Y-130655246D01*
X142707766Y-130655246D02*
X142731957Y-130679437D01*
X142731957Y-130679437D02*
X142780338Y-130703627D01*
X142780338Y-130703627D02*
X142852909Y-130703627D01*
X142852909Y-130703627D02*
X142901290Y-130679437D01*
X142683576Y-130510104D02*
X142731957Y-130534294D01*
X142731957Y-130534294D02*
X142828719Y-130534294D01*
X142828719Y-130534294D02*
X142877100Y-130510104D01*
X142877100Y-130510104D02*
X142901290Y-130485913D01*
X142901290Y-130485913D02*
X142925481Y-130437532D01*
X142925481Y-130437532D02*
X142925481Y-130292389D01*
X142925481Y-130292389D02*
X142901290Y-130244008D01*
X142901290Y-130244008D02*
X142877100Y-130219818D01*
X142877100Y-130219818D02*
X142828719Y-130195627D01*
X142828719Y-130195627D02*
X142731957Y-130195627D01*
X142731957Y-130195627D02*
X142683576Y-130219818D01*
X142441671Y-130195627D02*
X142441671Y-130534294D01*
X142441671Y-130244008D02*
X142417481Y-130219818D01*
X142417481Y-130219818D02*
X142369100Y-130195627D01*
X142369100Y-130195627D02*
X142296528Y-130195627D01*
X142296528Y-130195627D02*
X142248147Y-130219818D01*
X142248147Y-130219818D02*
X142223957Y-130268199D01*
X142223957Y-130268199D02*
X142223957Y-130534294D01*
X141982052Y-130534294D02*
X141982052Y-130195627D01*
X141982052Y-130026294D02*
X142006243Y-130050484D01*
X142006243Y-130050484D02*
X141982052Y-130074675D01*
X141982052Y-130074675D02*
X141957862Y-130050484D01*
X141957862Y-130050484D02*
X141982052Y-130026294D01*
X141982052Y-130026294D02*
X141982052Y-130074675D01*
X141546623Y-130510104D02*
X141595004Y-130534294D01*
X141595004Y-130534294D02*
X141691766Y-130534294D01*
X141691766Y-130534294D02*
X141740147Y-130510104D01*
X141740147Y-130510104D02*
X141764338Y-130461723D01*
X141764338Y-130461723D02*
X141764338Y-130268199D01*
X141764338Y-130268199D02*
X141740147Y-130219818D01*
X141740147Y-130219818D02*
X141691766Y-130195627D01*
X141691766Y-130195627D02*
X141595004Y-130195627D01*
X141595004Y-130195627D02*
X141546623Y-130219818D01*
X141546623Y-130219818D02*
X141522433Y-130268199D01*
X141522433Y-130268199D02*
X141522433Y-130316580D01*
X141522433Y-130316580D02*
X141764338Y-130364961D01*
X141304718Y-130534294D02*
X141304718Y-130195627D01*
X141304718Y-130292389D02*
X141280528Y-130244008D01*
X141280528Y-130244008D02*
X141256337Y-130219818D01*
X141256337Y-130219818D02*
X141207956Y-130195627D01*
X141207956Y-130195627D02*
X141159575Y-130195627D01*
X140627385Y-130002104D02*
X141062814Y-130655246D01*
X140458052Y-130268199D02*
X140288719Y-130268199D01*
X140216147Y-130534294D02*
X140458052Y-130534294D01*
X140458052Y-130534294D02*
X140458052Y-130026294D01*
X140458052Y-130026294D02*
X140216147Y-130026294D01*
X140046814Y-130534294D02*
X139780719Y-130195627D01*
X140046814Y-130195627D02*
X139780719Y-130534294D01*
X139587195Y-130534294D02*
X139587195Y-130195627D01*
X139587195Y-130026294D02*
X139611386Y-130050484D01*
X139611386Y-130050484D02*
X139587195Y-130074675D01*
X139587195Y-130074675D02*
X139563005Y-130050484D01*
X139563005Y-130050484D02*
X139587195Y-130026294D01*
X139587195Y-130026294D02*
X139587195Y-130074675D01*
X139417862Y-130195627D02*
X139224338Y-130195627D01*
X139345290Y-130026294D02*
X139345290Y-130461723D01*
X139345290Y-130461723D02*
X139321100Y-130510104D01*
X139321100Y-130510104D02*
X139272719Y-130534294D01*
X139272719Y-130534294D02*
X139224338Y-130534294D01*
X139079195Y-130510104D02*
X139030814Y-130534294D01*
X139030814Y-130534294D02*
X138934052Y-130534294D01*
X138934052Y-130534294D02*
X138885671Y-130510104D01*
X138885671Y-130510104D02*
X138861480Y-130461723D01*
X138861480Y-130461723D02*
X138861480Y-130437532D01*
X138861480Y-130437532D02*
X138885671Y-130389151D01*
X138885671Y-130389151D02*
X138934052Y-130364961D01*
X138934052Y-130364961D02*
X139006623Y-130364961D01*
X139006623Y-130364961D02*
X139055004Y-130340770D01*
X139055004Y-130340770D02*
X139079195Y-130292389D01*
X139079195Y-130292389D02*
X139079195Y-130268199D01*
X139079195Y-130268199D02*
X139055004Y-130219818D01*
X139055004Y-130219818D02*
X139006623Y-130195627D01*
X139006623Y-130195627D02*
X138934052Y-130195627D01*
X138934052Y-130195627D02*
X138885671Y-130219818D01*
X138643766Y-130340770D02*
X138256719Y-130340770D01*
X137748719Y-130534294D02*
X138039005Y-130534294D01*
X137893862Y-130534294D02*
X137893862Y-130026294D01*
X137893862Y-130026294D02*
X137942243Y-130098865D01*
X137942243Y-130098865D02*
X137990624Y-130147246D01*
X137990624Y-130147246D02*
X138039005Y-130171437D01*
X137531004Y-130026294D02*
X137531004Y-130437532D01*
X137531004Y-130437532D02*
X137506814Y-130485913D01*
X137506814Y-130485913D02*
X137482623Y-130510104D01*
X137482623Y-130510104D02*
X137434242Y-130534294D01*
X137434242Y-130534294D02*
X137337480Y-130534294D01*
X137337480Y-130534294D02*
X137289099Y-130510104D01*
X137289099Y-130510104D02*
X137264909Y-130485913D01*
X137264909Y-130485913D02*
X137240718Y-130437532D01*
X137240718Y-130437532D02*
X137240718Y-130026294D01*
X149432719Y-131303765D02*
X149456910Y-131327956D01*
X149456910Y-131327956D02*
X149529481Y-131352146D01*
X149529481Y-131352146D02*
X149577862Y-131352146D01*
X149577862Y-131352146D02*
X149650434Y-131327956D01*
X149650434Y-131327956D02*
X149698815Y-131279575D01*
X149698815Y-131279575D02*
X149723005Y-131231194D01*
X149723005Y-131231194D02*
X149747196Y-131134432D01*
X149747196Y-131134432D02*
X149747196Y-131061860D01*
X149747196Y-131061860D02*
X149723005Y-130965098D01*
X149723005Y-130965098D02*
X149698815Y-130916717D01*
X149698815Y-130916717D02*
X149650434Y-130868336D01*
X149650434Y-130868336D02*
X149577862Y-130844146D01*
X149577862Y-130844146D02*
X149529481Y-130844146D01*
X149529481Y-130844146D02*
X149456910Y-130868336D01*
X149456910Y-130868336D02*
X149432719Y-130892527D01*
X148924719Y-131303765D02*
X148948910Y-131327956D01*
X148948910Y-131327956D02*
X149021481Y-131352146D01*
X149021481Y-131352146D02*
X149069862Y-131352146D01*
X149069862Y-131352146D02*
X149142434Y-131327956D01*
X149142434Y-131327956D02*
X149190815Y-131279575D01*
X149190815Y-131279575D02*
X149215005Y-131231194D01*
X149215005Y-131231194D02*
X149239196Y-131134432D01*
X149239196Y-131134432D02*
X149239196Y-131061860D01*
X149239196Y-131061860D02*
X149215005Y-130965098D01*
X149215005Y-130965098D02*
X149190815Y-130916717D01*
X149190815Y-130916717D02*
X149142434Y-130868336D01*
X149142434Y-130868336D02*
X149069862Y-130844146D01*
X149069862Y-130844146D02*
X149021481Y-130844146D01*
X149021481Y-130844146D02*
X148948910Y-130868336D01*
X148948910Y-130868336D02*
X148924719Y-130892527D01*
X148150624Y-131086051D02*
X148078052Y-131110241D01*
X148078052Y-131110241D02*
X148053862Y-131134432D01*
X148053862Y-131134432D02*
X148029671Y-131182813D01*
X148029671Y-131182813D02*
X148029671Y-131255384D01*
X148029671Y-131255384D02*
X148053862Y-131303765D01*
X148053862Y-131303765D02*
X148078052Y-131327956D01*
X148078052Y-131327956D02*
X148126433Y-131352146D01*
X148126433Y-131352146D02*
X148319957Y-131352146D01*
X148319957Y-131352146D02*
X148319957Y-130844146D01*
X148319957Y-130844146D02*
X148150624Y-130844146D01*
X148150624Y-130844146D02*
X148102243Y-130868336D01*
X148102243Y-130868336D02*
X148078052Y-130892527D01*
X148078052Y-130892527D02*
X148053862Y-130940908D01*
X148053862Y-130940908D02*
X148053862Y-130989289D01*
X148053862Y-130989289D02*
X148078052Y-131037670D01*
X148078052Y-131037670D02*
X148102243Y-131061860D01*
X148102243Y-131061860D02*
X148150624Y-131086051D01*
X148150624Y-131086051D02*
X148319957Y-131086051D01*
X147715195Y-131110241D02*
X147715195Y-131352146D01*
X147884529Y-130844146D02*
X147715195Y-131110241D01*
X147715195Y-131110241D02*
X147545862Y-130844146D01*
X147376528Y-131158622D02*
X146989481Y-131158622D01*
X146771767Y-131327956D02*
X146699195Y-131352146D01*
X146699195Y-131352146D02*
X146578243Y-131352146D01*
X146578243Y-131352146D02*
X146529862Y-131327956D01*
X146529862Y-131327956D02*
X146505671Y-131303765D01*
X146505671Y-131303765D02*
X146481481Y-131255384D01*
X146481481Y-131255384D02*
X146481481Y-131207003D01*
X146481481Y-131207003D02*
X146505671Y-131158622D01*
X146505671Y-131158622D02*
X146529862Y-131134432D01*
X146529862Y-131134432D02*
X146578243Y-131110241D01*
X146578243Y-131110241D02*
X146675005Y-131086051D01*
X146675005Y-131086051D02*
X146723386Y-131061860D01*
X146723386Y-131061860D02*
X146747576Y-131037670D01*
X146747576Y-131037670D02*
X146771767Y-130989289D01*
X146771767Y-130989289D02*
X146771767Y-130940908D01*
X146771767Y-130940908D02*
X146747576Y-130892527D01*
X146747576Y-130892527D02*
X146723386Y-130868336D01*
X146723386Y-130868336D02*
X146675005Y-130844146D01*
X146675005Y-130844146D02*
X146554052Y-130844146D01*
X146554052Y-130844146D02*
X146481481Y-130868336D01*
X146287957Y-131207003D02*
X146046052Y-131207003D01*
X146336338Y-131352146D02*
X146167004Y-130844146D01*
X146167004Y-130844146D02*
X145997671Y-131352146D01*
X145223575Y-131013479D02*
X145223575Y-131352146D01*
X145344527Y-130819956D02*
X145465480Y-131182813D01*
X145465480Y-131182813D02*
X145151003Y-131182813D01*
X144957479Y-131303765D02*
X144933289Y-131327956D01*
X144933289Y-131327956D02*
X144957479Y-131352146D01*
X144957479Y-131352146D02*
X144981670Y-131327956D01*
X144981670Y-131327956D02*
X144957479Y-131303765D01*
X144957479Y-131303765D02*
X144957479Y-131352146D01*
X144618812Y-130844146D02*
X144570431Y-130844146D01*
X144570431Y-130844146D02*
X144522050Y-130868336D01*
X144522050Y-130868336D02*
X144497860Y-130892527D01*
X144497860Y-130892527D02*
X144473669Y-130940908D01*
X144473669Y-130940908D02*
X144449479Y-131037670D01*
X144449479Y-131037670D02*
X144449479Y-131158622D01*
X144449479Y-131158622D02*
X144473669Y-131255384D01*
X144473669Y-131255384D02*
X144497860Y-131303765D01*
X144497860Y-131303765D02*
X144522050Y-131327956D01*
X144522050Y-131327956D02*
X144570431Y-131352146D01*
X144570431Y-131352146D02*
X144618812Y-131352146D01*
X144618812Y-131352146D02*
X144667193Y-131327956D01*
X144667193Y-131327956D02*
X144691384Y-131303765D01*
X144691384Y-131303765D02*
X144715574Y-131255384D01*
X144715574Y-131255384D02*
X144739765Y-131158622D01*
X144739765Y-131158622D02*
X144739765Y-131037670D01*
X144739765Y-131037670D02*
X144715574Y-130940908D01*
X144715574Y-130940908D02*
X144691384Y-130892527D01*
X144691384Y-130892527D02*
X144667193Y-130868336D01*
X144667193Y-130868336D02*
X144618812Y-130844146D01*
D11*
X67056000Y-129184400D02*
X58216800Y-129184400D01*
D12*
X58900382Y-140565128D02*
X58971811Y-140529414D01*
X58971811Y-140529414D02*
X59078953Y-140529414D01*
X59078953Y-140529414D02*
X59186096Y-140565128D01*
X59186096Y-140565128D02*
X59257525Y-140636557D01*
X59257525Y-140636557D02*
X59293239Y-140707985D01*
X59293239Y-140707985D02*
X59328953Y-140850842D01*
X59328953Y-140850842D02*
X59328953Y-140957985D01*
X59328953Y-140957985D02*
X59293239Y-141100842D01*
X59293239Y-141100842D02*
X59257525Y-141172271D01*
X59257525Y-141172271D02*
X59186096Y-141243700D01*
X59186096Y-141243700D02*
X59078953Y-141279414D01*
X59078953Y-141279414D02*
X59007525Y-141279414D01*
X59007525Y-141279414D02*
X58900382Y-141243700D01*
X58900382Y-141243700D02*
X58864668Y-141207985D01*
X58864668Y-141207985D02*
X58864668Y-140957985D01*
X58864668Y-140957985D02*
X59007525Y-140957985D01*
X58543239Y-141279414D02*
X58543239Y-140529414D01*
X58543239Y-140529414D02*
X58114668Y-141279414D01*
X58114668Y-141279414D02*
X58114668Y-140529414D01*
X57757525Y-141279414D02*
X57757525Y-140529414D01*
X57757525Y-140529414D02*
X57578954Y-140529414D01*
X57578954Y-140529414D02*
X57471811Y-140565128D01*
X57471811Y-140565128D02*
X57400382Y-140636557D01*
X57400382Y-140636557D02*
X57364668Y-140707985D01*
X57364668Y-140707985D02*
X57328954Y-140850842D01*
X57328954Y-140850842D02*
X57328954Y-140957985D01*
X57328954Y-140957985D02*
X57364668Y-141100842D01*
X57364668Y-141100842D02*
X57400382Y-141172271D01*
X57400382Y-141172271D02*
X57471811Y-141243700D01*
X57471811Y-141243700D02*
X57578954Y-141279414D01*
X57578954Y-141279414D02*
X57757525Y-141279414D01*
X59344039Y-133272100D02*
X58772611Y-133272100D01*
X58022611Y-133557814D02*
X58451182Y-133557814D01*
X58236897Y-133557814D02*
X58236897Y-132807814D01*
X58236897Y-132807814D02*
X58308325Y-132914957D01*
X58308325Y-132914957D02*
X58379754Y-132986385D01*
X58379754Y-132986385D02*
X58451182Y-133022100D01*
X57736896Y-132879242D02*
X57701182Y-132843528D01*
X57701182Y-132843528D02*
X57629754Y-132807814D01*
X57629754Y-132807814D02*
X57451182Y-132807814D01*
X57451182Y-132807814D02*
X57379754Y-132843528D01*
X57379754Y-132843528D02*
X57344039Y-132879242D01*
X57344039Y-132879242D02*
X57308325Y-132950671D01*
X57308325Y-132950671D02*
X57308325Y-133022100D01*
X57308325Y-133022100D02*
X57344039Y-133129242D01*
X57344039Y-133129242D02*
X57772611Y-133557814D01*
X57772611Y-133557814D02*
X57308325Y-133557814D01*
X57058325Y-133057814D02*
X56879753Y-133557814D01*
X56879753Y-133557814D02*
X56701182Y-133057814D01*
X66231487Y-128650419D02*
X66564820Y-128174228D01*
X66802915Y-128650419D02*
X66802915Y-127650419D01*
X66802915Y-127650419D02*
X66421963Y-127650419D01*
X66421963Y-127650419D02*
X66326725Y-127698038D01*
X66326725Y-127698038D02*
X66279106Y-127745657D01*
X66279106Y-127745657D02*
X66231487Y-127840895D01*
X66231487Y-127840895D02*
X66231487Y-127983752D01*
X66231487Y-127983752D02*
X66279106Y-128078990D01*
X66279106Y-128078990D02*
X66326725Y-128126609D01*
X66326725Y-128126609D02*
X66421963Y-128174228D01*
X66421963Y-128174228D02*
X66802915Y-128174228D01*
X65802915Y-128126609D02*
X65469582Y-128126609D01*
X65326725Y-128650419D02*
X65802915Y-128650419D01*
X65802915Y-128650419D02*
X65802915Y-127650419D01*
X65802915Y-127650419D02*
X65326725Y-127650419D01*
X64898153Y-128650419D02*
X64898153Y-127650419D01*
X64898153Y-127650419D02*
X64660058Y-127650419D01*
X64660058Y-127650419D02*
X64517201Y-127698038D01*
X64517201Y-127698038D02*
X64421963Y-127793276D01*
X64421963Y-127793276D02*
X64374344Y-127888514D01*
X64374344Y-127888514D02*
X64326725Y-128078990D01*
X64326725Y-128078990D02*
X64326725Y-128221847D01*
X64326725Y-128221847D02*
X64374344Y-128412323D01*
X64374344Y-128412323D02*
X64421963Y-128507561D01*
X64421963Y-128507561D02*
X64517201Y-128602800D01*
X64517201Y-128602800D02*
X64660058Y-128650419D01*
X64660058Y-128650419D02*
X64898153Y-128650419D01*
X63183867Y-128602800D02*
X63041010Y-128650419D01*
X63041010Y-128650419D02*
X62802915Y-128650419D01*
X62802915Y-128650419D02*
X62707677Y-128602800D01*
X62707677Y-128602800D02*
X62660058Y-128555180D01*
X62660058Y-128555180D02*
X62612439Y-128459942D01*
X62612439Y-128459942D02*
X62612439Y-128364704D01*
X62612439Y-128364704D02*
X62660058Y-128269466D01*
X62660058Y-128269466D02*
X62707677Y-128221847D01*
X62707677Y-128221847D02*
X62802915Y-128174228D01*
X62802915Y-128174228D02*
X62993391Y-128126609D01*
X62993391Y-128126609D02*
X63088629Y-128078990D01*
X63088629Y-128078990D02*
X63136248Y-128031371D01*
X63136248Y-128031371D02*
X63183867Y-127936133D01*
X63183867Y-127936133D02*
X63183867Y-127840895D01*
X63183867Y-127840895D02*
X63136248Y-127745657D01*
X63136248Y-127745657D02*
X63088629Y-127698038D01*
X63088629Y-127698038D02*
X62993391Y-127650419D01*
X62993391Y-127650419D02*
X62755296Y-127650419D01*
X62755296Y-127650419D02*
X62612439Y-127698038D01*
X62326724Y-127650419D02*
X61755296Y-127650419D01*
X62041010Y-128650419D02*
X62041010Y-127650419D01*
X60850534Y-128650419D02*
X61183867Y-128174228D01*
X61421962Y-128650419D02*
X61421962Y-127650419D01*
X61421962Y-127650419D02*
X61041010Y-127650419D01*
X61041010Y-127650419D02*
X60945772Y-127698038D01*
X60945772Y-127698038D02*
X60898153Y-127745657D01*
X60898153Y-127745657D02*
X60850534Y-127840895D01*
X60850534Y-127840895D02*
X60850534Y-127983752D01*
X60850534Y-127983752D02*
X60898153Y-128078990D01*
X60898153Y-128078990D02*
X60945772Y-128126609D01*
X60945772Y-128126609D02*
X61041010Y-128174228D01*
X61041010Y-128174228D02*
X61421962Y-128174228D01*
X60421962Y-128650419D02*
X60421962Y-127650419D01*
X59945772Y-128650419D02*
X59945772Y-127650419D01*
X59945772Y-127650419D02*
X59564820Y-127650419D01*
X59564820Y-127650419D02*
X59469582Y-127698038D01*
X59469582Y-127698038D02*
X59421963Y-127745657D01*
X59421963Y-127745657D02*
X59374344Y-127840895D01*
X59374344Y-127840895D02*
X59374344Y-127983752D01*
X59374344Y-127983752D02*
X59421963Y-128078990D01*
X59421963Y-128078990D02*
X59469582Y-128126609D01*
X59469582Y-128126609D02*
X59564820Y-128174228D01*
X59564820Y-128174228D02*
X59945772Y-128174228D01*
X58945772Y-128126609D02*
X58612439Y-128126609D01*
X58469582Y-128650419D02*
X58945772Y-128650419D01*
X58945772Y-128650419D02*
X58945772Y-127650419D01*
X58945772Y-127650419D02*
X58469582Y-127650419D01*
X58900382Y-138177528D02*
X58971811Y-138141814D01*
X58971811Y-138141814D02*
X59078953Y-138141814D01*
X59078953Y-138141814D02*
X59186096Y-138177528D01*
X59186096Y-138177528D02*
X59257525Y-138248957D01*
X59257525Y-138248957D02*
X59293239Y-138320385D01*
X59293239Y-138320385D02*
X59328953Y-138463242D01*
X59328953Y-138463242D02*
X59328953Y-138570385D01*
X59328953Y-138570385D02*
X59293239Y-138713242D01*
X59293239Y-138713242D02*
X59257525Y-138784671D01*
X59257525Y-138784671D02*
X59186096Y-138856100D01*
X59186096Y-138856100D02*
X59078953Y-138891814D01*
X59078953Y-138891814D02*
X59007525Y-138891814D01*
X59007525Y-138891814D02*
X58900382Y-138856100D01*
X58900382Y-138856100D02*
X58864668Y-138820385D01*
X58864668Y-138820385D02*
X58864668Y-138570385D01*
X58864668Y-138570385D02*
X59007525Y-138570385D01*
X58543239Y-138891814D02*
X58543239Y-138141814D01*
X58543239Y-138141814D02*
X58114668Y-138891814D01*
X58114668Y-138891814D02*
X58114668Y-138141814D01*
X57757525Y-138891814D02*
X57757525Y-138141814D01*
X57757525Y-138141814D02*
X57578954Y-138141814D01*
X57578954Y-138141814D02*
X57471811Y-138177528D01*
X57471811Y-138177528D02*
X57400382Y-138248957D01*
X57400382Y-138248957D02*
X57364668Y-138320385D01*
X57364668Y-138320385D02*
X57328954Y-138463242D01*
X57328954Y-138463242D02*
X57328954Y-138570385D01*
X57328954Y-138570385D02*
X57364668Y-138713242D01*
X57364668Y-138713242D02*
X57400382Y-138784671D01*
X57400382Y-138784671D02*
X57471811Y-138856100D01*
X57471811Y-138856100D02*
X57578954Y-138891814D01*
X57578954Y-138891814D02*
X57757525Y-138891814D01*
X58900382Y-135586728D02*
X58971811Y-135551014D01*
X58971811Y-135551014D02*
X59078953Y-135551014D01*
X59078953Y-135551014D02*
X59186096Y-135586728D01*
X59186096Y-135586728D02*
X59257525Y-135658157D01*
X59257525Y-135658157D02*
X59293239Y-135729585D01*
X59293239Y-135729585D02*
X59328953Y-135872442D01*
X59328953Y-135872442D02*
X59328953Y-135979585D01*
X59328953Y-135979585D02*
X59293239Y-136122442D01*
X59293239Y-136122442D02*
X59257525Y-136193871D01*
X59257525Y-136193871D02*
X59186096Y-136265300D01*
X59186096Y-136265300D02*
X59078953Y-136301014D01*
X59078953Y-136301014D02*
X59007525Y-136301014D01*
X59007525Y-136301014D02*
X58900382Y-136265300D01*
X58900382Y-136265300D02*
X58864668Y-136229585D01*
X58864668Y-136229585D02*
X58864668Y-135979585D01*
X58864668Y-135979585D02*
X59007525Y-135979585D01*
X58543239Y-136301014D02*
X58543239Y-135551014D01*
X58543239Y-135551014D02*
X58114668Y-136301014D01*
X58114668Y-136301014D02*
X58114668Y-135551014D01*
X57757525Y-136301014D02*
X57757525Y-135551014D01*
X57757525Y-135551014D02*
X57578954Y-135551014D01*
X57578954Y-135551014D02*
X57471811Y-135586728D01*
X57471811Y-135586728D02*
X57400382Y-135658157D01*
X57400382Y-135658157D02*
X57364668Y-135729585D01*
X57364668Y-135729585D02*
X57328954Y-135872442D01*
X57328954Y-135872442D02*
X57328954Y-135979585D01*
X57328954Y-135979585D02*
X57364668Y-136122442D01*
X57364668Y-136122442D02*
X57400382Y-136193871D01*
X57400382Y-136193871D02*
X57471811Y-136265300D01*
X57471811Y-136265300D02*
X57578954Y-136301014D01*
X57578954Y-136301014D02*
X57757525Y-136301014D01*
X59242439Y-143533700D02*
X58671011Y-143533700D01*
X58956725Y-143819414D02*
X58956725Y-143247985D01*
X57921011Y-143819414D02*
X58349582Y-143819414D01*
X58135297Y-143819414D02*
X58135297Y-143069414D01*
X58135297Y-143069414D02*
X58206725Y-143176557D01*
X58206725Y-143176557D02*
X58278154Y-143247985D01*
X58278154Y-143247985D02*
X58349582Y-143283700D01*
X57635296Y-143140842D02*
X57599582Y-143105128D01*
X57599582Y-143105128D02*
X57528154Y-143069414D01*
X57528154Y-143069414D02*
X57349582Y-143069414D01*
X57349582Y-143069414D02*
X57278154Y-143105128D01*
X57278154Y-143105128D02*
X57242439Y-143140842D01*
X57242439Y-143140842D02*
X57206725Y-143212271D01*
X57206725Y-143212271D02*
X57206725Y-143283700D01*
X57206725Y-143283700D02*
X57242439Y-143390842D01*
X57242439Y-143390842D02*
X57671011Y-143819414D01*
X57671011Y-143819414D02*
X57206725Y-143819414D01*
X56956725Y-143319414D02*
X56778153Y-143819414D01*
X56778153Y-143819414D02*
X56599582Y-143319414D01*
D13*
X78430780Y-131187333D02*
X78478400Y-131139714D01*
X78478400Y-131139714D02*
X78526019Y-130996857D01*
X78526019Y-130996857D02*
X78526019Y-130901619D01*
X78526019Y-130901619D02*
X78478400Y-130758762D01*
X78478400Y-130758762D02*
X78383161Y-130663524D01*
X78383161Y-130663524D02*
X78287923Y-130615905D01*
X78287923Y-130615905D02*
X78097447Y-130568286D01*
X78097447Y-130568286D02*
X77954590Y-130568286D01*
X77954590Y-130568286D02*
X77764114Y-130615905D01*
X77764114Y-130615905D02*
X77668876Y-130663524D01*
X77668876Y-130663524D02*
X77573638Y-130758762D01*
X77573638Y-130758762D02*
X77526019Y-130901619D01*
X77526019Y-130901619D02*
X77526019Y-130996857D01*
X77526019Y-130996857D02*
X77573638Y-131139714D01*
X77573638Y-131139714D02*
X77621257Y-131187333D01*
X77526019Y-132044476D02*
X77526019Y-131854000D01*
X77526019Y-131854000D02*
X77573638Y-131758762D01*
X77573638Y-131758762D02*
X77621257Y-131711143D01*
X77621257Y-131711143D02*
X77764114Y-131615905D01*
X77764114Y-131615905D02*
X77954590Y-131568286D01*
X77954590Y-131568286D02*
X78335542Y-131568286D01*
X78335542Y-131568286D02*
X78430780Y-131615905D01*
X78430780Y-131615905D02*
X78478400Y-131663524D01*
X78478400Y-131663524D02*
X78526019Y-131758762D01*
X78526019Y-131758762D02*
X78526019Y-131949238D01*
X78526019Y-131949238D02*
X78478400Y-132044476D01*
X78478400Y-132044476D02*
X78430780Y-132092095D01*
X78430780Y-132092095D02*
X78335542Y-132139714D01*
X78335542Y-132139714D02*
X78097447Y-132139714D01*
X78097447Y-132139714D02*
X78002209Y-132092095D01*
X78002209Y-132092095D02*
X77954590Y-132044476D01*
X77954590Y-132044476D02*
X77906971Y-131949238D01*
X77906971Y-131949238D02*
X77906971Y-131758762D01*
X77906971Y-131758762D02*
X77954590Y-131663524D01*
X77954590Y-131663524D02*
X78002209Y-131615905D01*
X78002209Y-131615905D02*
X78097447Y-131568286D01*
X95619866Y-110589219D02*
X95953199Y-110113028D01*
X96191294Y-110589219D02*
X96191294Y-109589219D01*
X96191294Y-109589219D02*
X95810342Y-109589219D01*
X95810342Y-109589219D02*
X95715104Y-109636838D01*
X95715104Y-109636838D02*
X95667485Y-109684457D01*
X95667485Y-109684457D02*
X95619866Y-109779695D01*
X95619866Y-109779695D02*
X95619866Y-109922552D01*
X95619866Y-109922552D02*
X95667485Y-110017790D01*
X95667485Y-110017790D02*
X95715104Y-110065409D01*
X95715104Y-110065409D02*
X95810342Y-110113028D01*
X95810342Y-110113028D02*
X96191294Y-110113028D01*
X95143675Y-110589219D02*
X94953199Y-110589219D01*
X94953199Y-110589219D02*
X94857961Y-110541600D01*
X94857961Y-110541600D02*
X94810342Y-110493980D01*
X94810342Y-110493980D02*
X94715104Y-110351123D01*
X94715104Y-110351123D02*
X94667485Y-110160647D01*
X94667485Y-110160647D02*
X94667485Y-109779695D01*
X94667485Y-109779695D02*
X94715104Y-109684457D01*
X94715104Y-109684457D02*
X94762723Y-109636838D01*
X94762723Y-109636838D02*
X94857961Y-109589219D01*
X94857961Y-109589219D02*
X95048437Y-109589219D01*
X95048437Y-109589219D02*
X95143675Y-109636838D01*
X95143675Y-109636838D02*
X95191294Y-109684457D01*
X95191294Y-109684457D02*
X95238913Y-109779695D01*
X95238913Y-109779695D02*
X95238913Y-110017790D01*
X95238913Y-110017790D02*
X95191294Y-110113028D01*
X95191294Y-110113028D02*
X95143675Y-110160647D01*
X95143675Y-110160647D02*
X95048437Y-110208266D01*
X95048437Y-110208266D02*
X94857961Y-110208266D01*
X94857961Y-110208266D02*
X94762723Y-110160647D01*
X94762723Y-110160647D02*
X94715104Y-110113028D01*
X94715104Y-110113028D02*
X94667485Y-110017790D01*
X116162057Y-146986419D02*
X116495390Y-146510228D01*
X116733485Y-146986419D02*
X116733485Y-145986419D01*
X116733485Y-145986419D02*
X116352533Y-145986419D01*
X116352533Y-145986419D02*
X116257295Y-146034038D01*
X116257295Y-146034038D02*
X116209676Y-146081657D01*
X116209676Y-146081657D02*
X116162057Y-146176895D01*
X116162057Y-146176895D02*
X116162057Y-146319752D01*
X116162057Y-146319752D02*
X116209676Y-146414990D01*
X116209676Y-146414990D02*
X116257295Y-146462609D01*
X116257295Y-146462609D02*
X116352533Y-146510228D01*
X116352533Y-146510228D02*
X116733485Y-146510228D01*
X115828723Y-145986419D02*
X115209676Y-145986419D01*
X115209676Y-145986419D02*
X115543009Y-146367371D01*
X115543009Y-146367371D02*
X115400152Y-146367371D01*
X115400152Y-146367371D02*
X115304914Y-146414990D01*
X115304914Y-146414990D02*
X115257295Y-146462609D01*
X115257295Y-146462609D02*
X115209676Y-146557847D01*
X115209676Y-146557847D02*
X115209676Y-146795942D01*
X115209676Y-146795942D02*
X115257295Y-146891180D01*
X115257295Y-146891180D02*
X115304914Y-146938800D01*
X115304914Y-146938800D02*
X115400152Y-146986419D01*
X115400152Y-146986419D02*
X115685866Y-146986419D01*
X115685866Y-146986419D02*
X115781104Y-146938800D01*
X115781104Y-146938800D02*
X115828723Y-146891180D01*
X114257295Y-146986419D02*
X114828723Y-146986419D01*
X114543009Y-146986419D02*
X114543009Y-145986419D01*
X114543009Y-145986419D02*
X114638247Y-146129276D01*
X114638247Y-146129276D02*
X114733485Y-146224514D01*
X114733485Y-146224514D02*
X114828723Y-146272133D01*
X133397523Y-105600019D02*
X133397523Y-106314304D01*
X133397523Y-106314304D02*
X133445142Y-106457161D01*
X133445142Y-106457161D02*
X133540380Y-106552400D01*
X133540380Y-106552400D02*
X133683237Y-106600019D01*
X133683237Y-106600019D02*
X133778475Y-106600019D01*
X132397523Y-106600019D02*
X132968951Y-106600019D01*
X132683237Y-106600019D02*
X132683237Y-105600019D01*
X132683237Y-105600019D02*
X132778475Y-105742876D01*
X132778475Y-105742876D02*
X132873713Y-105838114D01*
X132873713Y-105838114D02*
X132968951Y-105885733D01*
X131778475Y-105600019D02*
X131683237Y-105600019D01*
X131683237Y-105600019D02*
X131587999Y-105647638D01*
X131587999Y-105647638D02*
X131540380Y-105695257D01*
X131540380Y-105695257D02*
X131492761Y-105790495D01*
X131492761Y-105790495D02*
X131445142Y-105980971D01*
X131445142Y-105980971D02*
X131445142Y-106219066D01*
X131445142Y-106219066D02*
X131492761Y-106409542D01*
X131492761Y-106409542D02*
X131540380Y-106504780D01*
X131540380Y-106504780D02*
X131587999Y-106552400D01*
X131587999Y-106552400D02*
X131683237Y-106600019D01*
X131683237Y-106600019D02*
X131778475Y-106600019D01*
X131778475Y-106600019D02*
X131873713Y-106552400D01*
X131873713Y-106552400D02*
X131921332Y-106504780D01*
X131921332Y-106504780D02*
X131968951Y-106409542D01*
X131968951Y-106409542D02*
X132016570Y-106219066D01*
X132016570Y-106219066D02*
X132016570Y-105980971D01*
X132016570Y-105980971D02*
X131968951Y-105790495D01*
X131968951Y-105790495D02*
X131921332Y-105695257D01*
X131921332Y-105695257D02*
X131873713Y-105647638D01*
X131873713Y-105647638D02*
X131778475Y-105600019D01*
X116379523Y-142558419D02*
X116379523Y-143272704D01*
X116379523Y-143272704D02*
X116427142Y-143415561D01*
X116427142Y-143415561D02*
X116522380Y-143510800D01*
X116522380Y-143510800D02*
X116665237Y-143558419D01*
X116665237Y-143558419D02*
X116760475Y-143558419D01*
X115379523Y-143558419D02*
X115950951Y-143558419D01*
X115665237Y-143558419D02*
X115665237Y-142558419D01*
X115665237Y-142558419D02*
X115760475Y-142701276D01*
X115760475Y-142701276D02*
X115855713Y-142796514D01*
X115855713Y-142796514D02*
X115950951Y-142844133D01*
X114522380Y-142558419D02*
X114712856Y-142558419D01*
X114712856Y-142558419D02*
X114808094Y-142606038D01*
X114808094Y-142606038D02*
X114855713Y-142653657D01*
X114855713Y-142653657D02*
X114950951Y-142796514D01*
X114950951Y-142796514D02*
X114998570Y-142986990D01*
X114998570Y-142986990D02*
X114998570Y-143367942D01*
X114998570Y-143367942D02*
X114950951Y-143463180D01*
X114950951Y-143463180D02*
X114903332Y-143510800D01*
X114903332Y-143510800D02*
X114808094Y-143558419D01*
X114808094Y-143558419D02*
X114617618Y-143558419D01*
X114617618Y-143558419D02*
X114522380Y-143510800D01*
X114522380Y-143510800D02*
X114474761Y-143463180D01*
X114474761Y-143463180D02*
X114427142Y-143367942D01*
X114427142Y-143367942D02*
X114427142Y-143129847D01*
X114427142Y-143129847D02*
X114474761Y-143034609D01*
X114474761Y-143034609D02*
X114522380Y-142986990D01*
X114522380Y-142986990D02*
X114617618Y-142939371D01*
X114617618Y-142939371D02*
X114808094Y-142939371D01*
X114808094Y-142939371D02*
X114903332Y-142986990D01*
X114903332Y-142986990D02*
X114950951Y-143034609D01*
X114950951Y-143034609D02*
X114998570Y-143129847D01*
X63496723Y-130112419D02*
X63496723Y-130826704D01*
X63496723Y-130826704D02*
X63544342Y-130969561D01*
X63544342Y-130969561D02*
X63639580Y-131064800D01*
X63639580Y-131064800D02*
X63782437Y-131112419D01*
X63782437Y-131112419D02*
X63877675Y-131112419D01*
X62496723Y-131112419D02*
X63068151Y-131112419D01*
X62782437Y-131112419D02*
X62782437Y-130112419D01*
X62782437Y-130112419D02*
X62877675Y-130255276D01*
X62877675Y-130255276D02*
X62972913Y-130350514D01*
X62972913Y-130350514D02*
X63068151Y-130398133D01*
X62115770Y-130207657D02*
X62068151Y-130160038D01*
X62068151Y-130160038D02*
X61972913Y-130112419D01*
X61972913Y-130112419D02*
X61734818Y-130112419D01*
X61734818Y-130112419D02*
X61639580Y-130160038D01*
X61639580Y-130160038D02*
X61591961Y-130207657D01*
X61591961Y-130207657D02*
X61544342Y-130302895D01*
X61544342Y-130302895D02*
X61544342Y-130398133D01*
X61544342Y-130398133D02*
X61591961Y-130540990D01*
X61591961Y-130540990D02*
X62163389Y-131112419D01*
X62163389Y-131112419D02*
X61544342Y-131112419D01*
X89269866Y-120800019D02*
X89603199Y-120323828D01*
X89841294Y-120800019D02*
X89841294Y-119800019D01*
X89841294Y-119800019D02*
X89460342Y-119800019D01*
X89460342Y-119800019D02*
X89365104Y-119847638D01*
X89365104Y-119847638D02*
X89317485Y-119895257D01*
X89317485Y-119895257D02*
X89269866Y-119990495D01*
X89269866Y-119990495D02*
X89269866Y-120133352D01*
X89269866Y-120133352D02*
X89317485Y-120228590D01*
X89317485Y-120228590D02*
X89365104Y-120276209D01*
X89365104Y-120276209D02*
X89460342Y-120323828D01*
X89460342Y-120323828D02*
X89841294Y-120323828D01*
X88698437Y-120228590D02*
X88793675Y-120180971D01*
X88793675Y-120180971D02*
X88841294Y-120133352D01*
X88841294Y-120133352D02*
X88888913Y-120038114D01*
X88888913Y-120038114D02*
X88888913Y-119990495D01*
X88888913Y-119990495D02*
X88841294Y-119895257D01*
X88841294Y-119895257D02*
X88793675Y-119847638D01*
X88793675Y-119847638D02*
X88698437Y-119800019D01*
X88698437Y-119800019D02*
X88507961Y-119800019D01*
X88507961Y-119800019D02*
X88412723Y-119847638D01*
X88412723Y-119847638D02*
X88365104Y-119895257D01*
X88365104Y-119895257D02*
X88317485Y-119990495D01*
X88317485Y-119990495D02*
X88317485Y-120038114D01*
X88317485Y-120038114D02*
X88365104Y-120133352D01*
X88365104Y-120133352D02*
X88412723Y-120180971D01*
X88412723Y-120180971D02*
X88507961Y-120228590D01*
X88507961Y-120228590D02*
X88698437Y-120228590D01*
X88698437Y-120228590D02*
X88793675Y-120276209D01*
X88793675Y-120276209D02*
X88841294Y-120323828D01*
X88841294Y-120323828D02*
X88888913Y-120419066D01*
X88888913Y-120419066D02*
X88888913Y-120609542D01*
X88888913Y-120609542D02*
X88841294Y-120704780D01*
X88841294Y-120704780D02*
X88793675Y-120752400D01*
X88793675Y-120752400D02*
X88698437Y-120800019D01*
X88698437Y-120800019D02*
X88507961Y-120800019D01*
X88507961Y-120800019D02*
X88412723Y-120752400D01*
X88412723Y-120752400D02*
X88365104Y-120704780D01*
X88365104Y-120704780D02*
X88317485Y-120609542D01*
X88317485Y-120609542D02*
X88317485Y-120419066D01*
X88317485Y-120419066D02*
X88365104Y-120323828D01*
X88365104Y-120323828D02*
X88412723Y-120276209D01*
X88412723Y-120276209D02*
X88507961Y-120228590D01*
X84088266Y-130407580D02*
X84135885Y-130455200D01*
X84135885Y-130455200D02*
X84278742Y-130502819D01*
X84278742Y-130502819D02*
X84373980Y-130502819D01*
X84373980Y-130502819D02*
X84516837Y-130455200D01*
X84516837Y-130455200D02*
X84612075Y-130359961D01*
X84612075Y-130359961D02*
X84659694Y-130264723D01*
X84659694Y-130264723D02*
X84707313Y-130074247D01*
X84707313Y-130074247D02*
X84707313Y-129931390D01*
X84707313Y-129931390D02*
X84659694Y-129740914D01*
X84659694Y-129740914D02*
X84612075Y-129645676D01*
X84612075Y-129645676D02*
X84516837Y-129550438D01*
X84516837Y-129550438D02*
X84373980Y-129502819D01*
X84373980Y-129502819D02*
X84278742Y-129502819D01*
X84278742Y-129502819D02*
X84135885Y-129550438D01*
X84135885Y-129550438D02*
X84088266Y-129598057D01*
X83516837Y-129931390D02*
X83612075Y-129883771D01*
X83612075Y-129883771D02*
X83659694Y-129836152D01*
X83659694Y-129836152D02*
X83707313Y-129740914D01*
X83707313Y-129740914D02*
X83707313Y-129693295D01*
X83707313Y-129693295D02*
X83659694Y-129598057D01*
X83659694Y-129598057D02*
X83612075Y-129550438D01*
X83612075Y-129550438D02*
X83516837Y-129502819D01*
X83516837Y-129502819D02*
X83326361Y-129502819D01*
X83326361Y-129502819D02*
X83231123Y-129550438D01*
X83231123Y-129550438D02*
X83183504Y-129598057D01*
X83183504Y-129598057D02*
X83135885Y-129693295D01*
X83135885Y-129693295D02*
X83135885Y-129740914D01*
X83135885Y-129740914D02*
X83183504Y-129836152D01*
X83183504Y-129836152D02*
X83231123Y-129883771D01*
X83231123Y-129883771D02*
X83326361Y-129931390D01*
X83326361Y-129931390D02*
X83516837Y-129931390D01*
X83516837Y-129931390D02*
X83612075Y-129979009D01*
X83612075Y-129979009D02*
X83659694Y-130026628D01*
X83659694Y-130026628D02*
X83707313Y-130121866D01*
X83707313Y-130121866D02*
X83707313Y-130312342D01*
X83707313Y-130312342D02*
X83659694Y-130407580D01*
X83659694Y-130407580D02*
X83612075Y-130455200D01*
X83612075Y-130455200D02*
X83516837Y-130502819D01*
X83516837Y-130502819D02*
X83326361Y-130502819D01*
X83326361Y-130502819D02*
X83231123Y-130455200D01*
X83231123Y-130455200D02*
X83183504Y-130407580D01*
X83183504Y-130407580D02*
X83135885Y-130312342D01*
X83135885Y-130312342D02*
X83135885Y-130121866D01*
X83135885Y-130121866D02*
X83183504Y-130026628D01*
X83183504Y-130026628D02*
X83231123Y-129979009D01*
X83231123Y-129979009D02*
X83326361Y-129931390D01*
X70829466Y-110869619D02*
X71162799Y-110393428D01*
X71400894Y-110869619D02*
X71400894Y-109869619D01*
X71400894Y-109869619D02*
X71019942Y-109869619D01*
X71019942Y-109869619D02*
X70924704Y-109917238D01*
X70924704Y-109917238D02*
X70877085Y-109964857D01*
X70877085Y-109964857D02*
X70829466Y-110060095D01*
X70829466Y-110060095D02*
X70829466Y-110202952D01*
X70829466Y-110202952D02*
X70877085Y-110298190D01*
X70877085Y-110298190D02*
X70924704Y-110345809D01*
X70924704Y-110345809D02*
X71019942Y-110393428D01*
X71019942Y-110393428D02*
X71400894Y-110393428D01*
X69877085Y-110869619D02*
X70448513Y-110869619D01*
X70162799Y-110869619D02*
X70162799Y-109869619D01*
X70162799Y-109869619D02*
X70258037Y-110012476D01*
X70258037Y-110012476D02*
X70353275Y-110107714D01*
X70353275Y-110107714D02*
X70448513Y-110155333D01*
X122330357Y-130556380D02*
X122377976Y-130604000D01*
X122377976Y-130604000D02*
X122520833Y-130651619D01*
X122520833Y-130651619D02*
X122616071Y-130651619D01*
X122616071Y-130651619D02*
X122758928Y-130604000D01*
X122758928Y-130604000D02*
X122854166Y-130508761D01*
X122854166Y-130508761D02*
X122901785Y-130413523D01*
X122901785Y-130413523D02*
X122949404Y-130223047D01*
X122949404Y-130223047D02*
X122949404Y-130080190D01*
X122949404Y-130080190D02*
X122901785Y-129889714D01*
X122901785Y-129889714D02*
X122854166Y-129794476D01*
X122854166Y-129794476D02*
X122758928Y-129699238D01*
X122758928Y-129699238D02*
X122616071Y-129651619D01*
X122616071Y-129651619D02*
X122520833Y-129651619D01*
X122520833Y-129651619D02*
X122377976Y-129699238D01*
X122377976Y-129699238D02*
X122330357Y-129746857D01*
X121377976Y-130651619D02*
X121949404Y-130651619D01*
X121663690Y-130651619D02*
X121663690Y-129651619D01*
X121663690Y-129651619D02*
X121758928Y-129794476D01*
X121758928Y-129794476D02*
X121854166Y-129889714D01*
X121854166Y-129889714D02*
X121949404Y-129937333D01*
X120520833Y-129984952D02*
X120520833Y-130651619D01*
X120758928Y-129604000D02*
X120997023Y-130318285D01*
X120997023Y-130318285D02*
X120377976Y-130318285D01*
X123150957Y-143347230D02*
X123198576Y-143394850D01*
X123198576Y-143394850D02*
X123341433Y-143442469D01*
X123341433Y-143442469D02*
X123436671Y-143442469D01*
X123436671Y-143442469D02*
X123579528Y-143394850D01*
X123579528Y-143394850D02*
X123674766Y-143299611D01*
X123674766Y-143299611D02*
X123722385Y-143204373D01*
X123722385Y-143204373D02*
X123770004Y-143013897D01*
X123770004Y-143013897D02*
X123770004Y-142871040D01*
X123770004Y-142871040D02*
X123722385Y-142680564D01*
X123722385Y-142680564D02*
X123674766Y-142585326D01*
X123674766Y-142585326D02*
X123579528Y-142490088D01*
X123579528Y-142490088D02*
X123436671Y-142442469D01*
X123436671Y-142442469D02*
X123341433Y-142442469D01*
X123341433Y-142442469D02*
X123198576Y-142490088D01*
X123198576Y-142490088D02*
X123150957Y-142537707D01*
X122198576Y-143442469D02*
X122770004Y-143442469D01*
X122484290Y-143442469D02*
X122484290Y-142442469D01*
X122484290Y-142442469D02*
X122579528Y-142585326D01*
X122579528Y-142585326D02*
X122674766Y-142680564D01*
X122674766Y-142680564D02*
X122770004Y-142728183D01*
X121865242Y-142442469D02*
X121246195Y-142442469D01*
X121246195Y-142442469D02*
X121579528Y-142823421D01*
X121579528Y-142823421D02*
X121436671Y-142823421D01*
X121436671Y-142823421D02*
X121341433Y-142871040D01*
X121341433Y-142871040D02*
X121293814Y-142918659D01*
X121293814Y-142918659D02*
X121246195Y-143013897D01*
X121246195Y-143013897D02*
X121246195Y-143251992D01*
X121246195Y-143251992D02*
X121293814Y-143347230D01*
X121293814Y-143347230D02*
X121341433Y-143394850D01*
X121341433Y-143394850D02*
X121436671Y-143442469D01*
X121436671Y-143442469D02*
X121722385Y-143442469D01*
X121722385Y-143442469D02*
X121817623Y-143394850D01*
X121817623Y-143394850D02*
X121865242Y-143347230D01*
D14*
X89464642Y-137844180D02*
X89525118Y-138025609D01*
X89525118Y-138025609D02*
X89525118Y-138327990D01*
X89525118Y-138327990D02*
X89464642Y-138448942D01*
X89464642Y-138448942D02*
X89404165Y-138509418D01*
X89404165Y-138509418D02*
X89283213Y-138569895D01*
X89283213Y-138569895D02*
X89162261Y-138569895D01*
X89162261Y-138569895D02*
X89041308Y-138509418D01*
X89041308Y-138509418D02*
X88980832Y-138448942D01*
X88980832Y-138448942D02*
X88920356Y-138327990D01*
X88920356Y-138327990D02*
X88859880Y-138086085D01*
X88859880Y-138086085D02*
X88799403Y-137965133D01*
X88799403Y-137965133D02*
X88738927Y-137904656D01*
X88738927Y-137904656D02*
X88617975Y-137844180D01*
X88617975Y-137844180D02*
X88497022Y-137844180D01*
X88497022Y-137844180D02*
X88376070Y-137904656D01*
X88376070Y-137904656D02*
X88315594Y-137965133D01*
X88315594Y-137965133D02*
X88255118Y-138086085D01*
X88255118Y-138086085D02*
X88255118Y-138388466D01*
X88255118Y-138388466D02*
X88315594Y-138569895D01*
X89525118Y-139779419D02*
X89525118Y-139053704D01*
X89525118Y-139416561D02*
X88255118Y-139416561D01*
X88255118Y-139416561D02*
X88436546Y-139295609D01*
X88436546Y-139295609D02*
X88557499Y-139174657D01*
X88557499Y-139174657D02*
X88617975Y-139053704D01*
D13*
X96959657Y-104011619D02*
X97292990Y-103535428D01*
X97531085Y-104011619D02*
X97531085Y-103011619D01*
X97531085Y-103011619D02*
X97150133Y-103011619D01*
X97150133Y-103011619D02*
X97054895Y-103059238D01*
X97054895Y-103059238D02*
X97007276Y-103106857D01*
X97007276Y-103106857D02*
X96959657Y-103202095D01*
X96959657Y-103202095D02*
X96959657Y-103344952D01*
X96959657Y-103344952D02*
X97007276Y-103440190D01*
X97007276Y-103440190D02*
X97054895Y-103487809D01*
X97054895Y-103487809D02*
X97150133Y-103535428D01*
X97150133Y-103535428D02*
X97531085Y-103535428D01*
X96007276Y-104011619D02*
X96578704Y-104011619D01*
X96292990Y-104011619D02*
X96292990Y-103011619D01*
X96292990Y-103011619D02*
X96388228Y-103154476D01*
X96388228Y-103154476D02*
X96483466Y-103249714D01*
X96483466Y-103249714D02*
X96578704Y-103297333D01*
X95388228Y-103011619D02*
X95292990Y-103011619D01*
X95292990Y-103011619D02*
X95197752Y-103059238D01*
X95197752Y-103059238D02*
X95150133Y-103106857D01*
X95150133Y-103106857D02*
X95102514Y-103202095D01*
X95102514Y-103202095D02*
X95054895Y-103392571D01*
X95054895Y-103392571D02*
X95054895Y-103630666D01*
X95054895Y-103630666D02*
X95102514Y-103821142D01*
X95102514Y-103821142D02*
X95150133Y-103916380D01*
X95150133Y-103916380D02*
X95197752Y-103964000D01*
X95197752Y-103964000D02*
X95292990Y-104011619D01*
X95292990Y-104011619D02*
X95388228Y-104011619D01*
X95388228Y-104011619D02*
X95483466Y-103964000D01*
X95483466Y-103964000D02*
X95531085Y-103916380D01*
X95531085Y-103916380D02*
X95578704Y-103821142D01*
X95578704Y-103821142D02*
X95626323Y-103630666D01*
X95626323Y-103630666D02*
X95626323Y-103392571D01*
X95626323Y-103392571D02*
X95578704Y-103202095D01*
X95578704Y-103202095D02*
X95531085Y-103106857D01*
X95531085Y-103106857D02*
X95483466Y-103059238D01*
X95483466Y-103059238D02*
X95388228Y-103011619D01*
X95924666Y-143869580D02*
X95972285Y-143917200D01*
X95972285Y-143917200D02*
X96115142Y-143964819D01*
X96115142Y-143964819D02*
X96210380Y-143964819D01*
X96210380Y-143964819D02*
X96353237Y-143917200D01*
X96353237Y-143917200D02*
X96448475Y-143821961D01*
X96448475Y-143821961D02*
X96496094Y-143726723D01*
X96496094Y-143726723D02*
X96543713Y-143536247D01*
X96543713Y-143536247D02*
X96543713Y-143393390D01*
X96543713Y-143393390D02*
X96496094Y-143202914D01*
X96496094Y-143202914D02*
X96448475Y-143107676D01*
X96448475Y-143107676D02*
X96353237Y-143012438D01*
X96353237Y-143012438D02*
X96210380Y-142964819D01*
X96210380Y-142964819D02*
X96115142Y-142964819D01*
X96115142Y-142964819D02*
X95972285Y-143012438D01*
X95972285Y-143012438D02*
X95924666Y-143060057D01*
X95448475Y-143964819D02*
X95257999Y-143964819D01*
X95257999Y-143964819D02*
X95162761Y-143917200D01*
X95162761Y-143917200D02*
X95115142Y-143869580D01*
X95115142Y-143869580D02*
X95019904Y-143726723D01*
X95019904Y-143726723D02*
X94972285Y-143536247D01*
X94972285Y-143536247D02*
X94972285Y-143155295D01*
X94972285Y-143155295D02*
X95019904Y-143060057D01*
X95019904Y-143060057D02*
X95067523Y-143012438D01*
X95067523Y-143012438D02*
X95162761Y-142964819D01*
X95162761Y-142964819D02*
X95353237Y-142964819D01*
X95353237Y-142964819D02*
X95448475Y-143012438D01*
X95448475Y-143012438D02*
X95496094Y-143060057D01*
X95496094Y-143060057D02*
X95543713Y-143155295D01*
X95543713Y-143155295D02*
X95543713Y-143393390D01*
X95543713Y-143393390D02*
X95496094Y-143488628D01*
X95496094Y-143488628D02*
X95448475Y-143536247D01*
X95448475Y-143536247D02*
X95353237Y-143583866D01*
X95353237Y-143583866D02*
X95162761Y-143583866D01*
X95162761Y-143583866D02*
X95067523Y-143536247D01*
X95067523Y-143536247D02*
X95019904Y-143488628D01*
X95019904Y-143488628D02*
X94972285Y-143393390D01*
X70203219Y-141095505D02*
X69203219Y-141095505D01*
X69203219Y-141095505D02*
X69203219Y-141333600D01*
X69203219Y-141333600D02*
X69250838Y-141476457D01*
X69250838Y-141476457D02*
X69346076Y-141571695D01*
X69346076Y-141571695D02*
X69441314Y-141619314D01*
X69441314Y-141619314D02*
X69631790Y-141666933D01*
X69631790Y-141666933D02*
X69774647Y-141666933D01*
X69774647Y-141666933D02*
X69965123Y-141619314D01*
X69965123Y-141619314D02*
X70060361Y-141571695D01*
X70060361Y-141571695D02*
X70155600Y-141476457D01*
X70155600Y-141476457D02*
X70203219Y-141333600D01*
X70203219Y-141333600D02*
X70203219Y-141095505D01*
X70203219Y-142619314D02*
X70203219Y-142047886D01*
X70203219Y-142333600D02*
X69203219Y-142333600D01*
X69203219Y-142333600D02*
X69346076Y-142238362D01*
X69346076Y-142238362D02*
X69441314Y-142143124D01*
X69441314Y-142143124D02*
X69488933Y-142047886D01*
X109796057Y-104113219D02*
X110129390Y-103637028D01*
X110367485Y-104113219D02*
X110367485Y-103113219D01*
X110367485Y-103113219D02*
X109986533Y-103113219D01*
X109986533Y-103113219D02*
X109891295Y-103160838D01*
X109891295Y-103160838D02*
X109843676Y-103208457D01*
X109843676Y-103208457D02*
X109796057Y-103303695D01*
X109796057Y-103303695D02*
X109796057Y-103446552D01*
X109796057Y-103446552D02*
X109843676Y-103541790D01*
X109843676Y-103541790D02*
X109891295Y-103589409D01*
X109891295Y-103589409D02*
X109986533Y-103637028D01*
X109986533Y-103637028D02*
X110367485Y-103637028D01*
X108843676Y-104113219D02*
X109415104Y-104113219D01*
X109129390Y-104113219D02*
X109129390Y-103113219D01*
X109129390Y-103113219D02*
X109224628Y-103256076D01*
X109224628Y-103256076D02*
X109319866Y-103351314D01*
X109319866Y-103351314D02*
X109415104Y-103398933D01*
X107986533Y-103446552D02*
X107986533Y-104113219D01*
X108224628Y-103065600D02*
X108462723Y-103779885D01*
X108462723Y-103779885D02*
X107843676Y-103779885D01*
X54943333Y-114594419D02*
X54943333Y-115308704D01*
X54943333Y-115308704D02*
X54990952Y-115451561D01*
X54990952Y-115451561D02*
X55086190Y-115546800D01*
X55086190Y-115546800D02*
X55229047Y-115594419D01*
X55229047Y-115594419D02*
X55324285Y-115594419D01*
X54419523Y-115594419D02*
X54229047Y-115594419D01*
X54229047Y-115594419D02*
X54133809Y-115546800D01*
X54133809Y-115546800D02*
X54086190Y-115499180D01*
X54086190Y-115499180D02*
X53990952Y-115356323D01*
X53990952Y-115356323D02*
X53943333Y-115165847D01*
X53943333Y-115165847D02*
X53943333Y-114784895D01*
X53943333Y-114784895D02*
X53990952Y-114689657D01*
X53990952Y-114689657D02*
X54038571Y-114642038D01*
X54038571Y-114642038D02*
X54133809Y-114594419D01*
X54133809Y-114594419D02*
X54324285Y-114594419D01*
X54324285Y-114594419D02*
X54419523Y-114642038D01*
X54419523Y-114642038D02*
X54467142Y-114689657D01*
X54467142Y-114689657D02*
X54514761Y-114784895D01*
X54514761Y-114784895D02*
X54514761Y-115022990D01*
X54514761Y-115022990D02*
X54467142Y-115118228D01*
X54467142Y-115118228D02*
X54419523Y-115165847D01*
X54419523Y-115165847D02*
X54324285Y-115213466D01*
X54324285Y-115213466D02*
X54133809Y-115213466D01*
X54133809Y-115213466D02*
X54038571Y-115165847D01*
X54038571Y-115165847D02*
X53990952Y-115118228D01*
X53990952Y-115118228D02*
X53943333Y-115022990D01*
X103496857Y-114273219D02*
X103830190Y-113797028D01*
X104068285Y-114273219D02*
X104068285Y-113273219D01*
X104068285Y-113273219D02*
X103687333Y-113273219D01*
X103687333Y-113273219D02*
X103592095Y-113320838D01*
X103592095Y-113320838D02*
X103544476Y-113368457D01*
X103544476Y-113368457D02*
X103496857Y-113463695D01*
X103496857Y-113463695D02*
X103496857Y-113606552D01*
X103496857Y-113606552D02*
X103544476Y-113701790D01*
X103544476Y-113701790D02*
X103592095Y-113749409D01*
X103592095Y-113749409D02*
X103687333Y-113797028D01*
X103687333Y-113797028D02*
X104068285Y-113797028D01*
X102544476Y-114273219D02*
X103115904Y-114273219D01*
X102830190Y-114273219D02*
X102830190Y-113273219D01*
X102830190Y-113273219D02*
X102925428Y-113416076D01*
X102925428Y-113416076D02*
X103020666Y-113511314D01*
X103020666Y-113511314D02*
X103115904Y-113558933D01*
X101592095Y-114273219D02*
X102163523Y-114273219D01*
X101877809Y-114273219D02*
X101877809Y-113273219D01*
X101877809Y-113273219D02*
X101973047Y-113416076D01*
X101973047Y-113416076D02*
X102068285Y-113511314D01*
X102068285Y-113511314D02*
X102163523Y-113558933D01*
X78430780Y-144562533D02*
X78478400Y-144514914D01*
X78478400Y-144514914D02*
X78526019Y-144372057D01*
X78526019Y-144372057D02*
X78526019Y-144276819D01*
X78526019Y-144276819D02*
X78478400Y-144133962D01*
X78478400Y-144133962D02*
X78383161Y-144038724D01*
X78383161Y-144038724D02*
X78287923Y-143991105D01*
X78287923Y-143991105D02*
X78097447Y-143943486D01*
X78097447Y-143943486D02*
X77954590Y-143943486D01*
X77954590Y-143943486D02*
X77764114Y-143991105D01*
X77764114Y-143991105D02*
X77668876Y-144038724D01*
X77668876Y-144038724D02*
X77573638Y-144133962D01*
X77573638Y-144133962D02*
X77526019Y-144276819D01*
X77526019Y-144276819D02*
X77526019Y-144372057D01*
X77526019Y-144372057D02*
X77573638Y-144514914D01*
X77573638Y-144514914D02*
X77621257Y-144562533D01*
X77526019Y-145467295D02*
X77526019Y-144991105D01*
X77526019Y-144991105D02*
X78002209Y-144943486D01*
X78002209Y-144943486D02*
X77954590Y-144991105D01*
X77954590Y-144991105D02*
X77906971Y-145086343D01*
X77906971Y-145086343D02*
X77906971Y-145324438D01*
X77906971Y-145324438D02*
X77954590Y-145419676D01*
X77954590Y-145419676D02*
X78002209Y-145467295D01*
X78002209Y-145467295D02*
X78097447Y-145514914D01*
X78097447Y-145514914D02*
X78335542Y-145514914D01*
X78335542Y-145514914D02*
X78430780Y-145467295D01*
X78430780Y-145467295D02*
X78478400Y-145419676D01*
X78478400Y-145419676D02*
X78526019Y-145324438D01*
X78526019Y-145324438D02*
X78526019Y-145086343D01*
X78526019Y-145086343D02*
X78478400Y-144991105D01*
X78478400Y-144991105D02*
X78430780Y-144943486D01*
X109745257Y-110666419D02*
X110078590Y-110190228D01*
X110316685Y-110666419D02*
X110316685Y-109666419D01*
X110316685Y-109666419D02*
X109935733Y-109666419D01*
X109935733Y-109666419D02*
X109840495Y-109714038D01*
X109840495Y-109714038D02*
X109792876Y-109761657D01*
X109792876Y-109761657D02*
X109745257Y-109856895D01*
X109745257Y-109856895D02*
X109745257Y-109999752D01*
X109745257Y-109999752D02*
X109792876Y-110094990D01*
X109792876Y-110094990D02*
X109840495Y-110142609D01*
X109840495Y-110142609D02*
X109935733Y-110190228D01*
X109935733Y-110190228D02*
X110316685Y-110190228D01*
X108792876Y-110666419D02*
X109364304Y-110666419D01*
X109078590Y-110666419D02*
X109078590Y-109666419D01*
X109078590Y-109666419D02*
X109173828Y-109809276D01*
X109173828Y-109809276D02*
X109269066Y-109904514D01*
X109269066Y-109904514D02*
X109364304Y-109952133D01*
X108459542Y-109666419D02*
X107840495Y-109666419D01*
X107840495Y-109666419D02*
X108173828Y-110047371D01*
X108173828Y-110047371D02*
X108030971Y-110047371D01*
X108030971Y-110047371D02*
X107935733Y-110094990D01*
X107935733Y-110094990D02*
X107888114Y-110142609D01*
X107888114Y-110142609D02*
X107840495Y-110237847D01*
X107840495Y-110237847D02*
X107840495Y-110475942D01*
X107840495Y-110475942D02*
X107888114Y-110571180D01*
X107888114Y-110571180D02*
X107935733Y-110618800D01*
X107935733Y-110618800D02*
X108030971Y-110666419D01*
X108030971Y-110666419D02*
X108316685Y-110666419D01*
X108316685Y-110666419D02*
X108411923Y-110618800D01*
X108411923Y-110618800D02*
X108459542Y-110571180D01*
X108512757Y-130454780D02*
X108560376Y-130502400D01*
X108560376Y-130502400D02*
X108703233Y-130550019D01*
X108703233Y-130550019D02*
X108798471Y-130550019D01*
X108798471Y-130550019D02*
X108941328Y-130502400D01*
X108941328Y-130502400D02*
X109036566Y-130407161D01*
X109036566Y-130407161D02*
X109084185Y-130311923D01*
X109084185Y-130311923D02*
X109131804Y-130121447D01*
X109131804Y-130121447D02*
X109131804Y-129978590D01*
X109131804Y-129978590D02*
X109084185Y-129788114D01*
X109084185Y-129788114D02*
X109036566Y-129692876D01*
X109036566Y-129692876D02*
X108941328Y-129597638D01*
X108941328Y-129597638D02*
X108798471Y-129550019D01*
X108798471Y-129550019D02*
X108703233Y-129550019D01*
X108703233Y-129550019D02*
X108560376Y-129597638D01*
X108560376Y-129597638D02*
X108512757Y-129645257D01*
X107560376Y-130550019D02*
X108131804Y-130550019D01*
X107846090Y-130550019D02*
X107846090Y-129550019D01*
X107846090Y-129550019D02*
X107941328Y-129692876D01*
X107941328Y-129692876D02*
X108036566Y-129788114D01*
X108036566Y-129788114D02*
X108131804Y-129835733D01*
X107179423Y-129645257D02*
X107131804Y-129597638D01*
X107131804Y-129597638D02*
X107036566Y-129550019D01*
X107036566Y-129550019D02*
X106798471Y-129550019D01*
X106798471Y-129550019D02*
X106703233Y-129597638D01*
X106703233Y-129597638D02*
X106655614Y-129645257D01*
X106655614Y-129645257D02*
X106607995Y-129740495D01*
X106607995Y-129740495D02*
X106607995Y-129835733D01*
X106607995Y-129835733D02*
X106655614Y-129978590D01*
X106655614Y-129978590D02*
X107227042Y-130550019D01*
X107227042Y-130550019D02*
X106607995Y-130550019D01*
X70915066Y-104164019D02*
X71248399Y-103687828D01*
X71486494Y-104164019D02*
X71486494Y-103164019D01*
X71486494Y-103164019D02*
X71105542Y-103164019D01*
X71105542Y-103164019D02*
X71010304Y-103211638D01*
X71010304Y-103211638D02*
X70962685Y-103259257D01*
X70962685Y-103259257D02*
X70915066Y-103354495D01*
X70915066Y-103354495D02*
X70915066Y-103497352D01*
X70915066Y-103497352D02*
X70962685Y-103592590D01*
X70962685Y-103592590D02*
X71010304Y-103640209D01*
X71010304Y-103640209D02*
X71105542Y-103687828D01*
X71105542Y-103687828D02*
X71486494Y-103687828D01*
X70534113Y-103259257D02*
X70486494Y-103211638D01*
X70486494Y-103211638D02*
X70391256Y-103164019D01*
X70391256Y-103164019D02*
X70153161Y-103164019D01*
X70153161Y-103164019D02*
X70057923Y-103211638D01*
X70057923Y-103211638D02*
X70010304Y-103259257D01*
X70010304Y-103259257D02*
X69962685Y-103354495D01*
X69962685Y-103354495D02*
X69962685Y-103449733D01*
X69962685Y-103449733D02*
X70010304Y-103592590D01*
X70010304Y-103592590D02*
X70581732Y-104164019D01*
X70581732Y-104164019D02*
X69962685Y-104164019D01*
X83478666Y-110564819D02*
X83811999Y-110088628D01*
X84050094Y-110564819D02*
X84050094Y-109564819D01*
X84050094Y-109564819D02*
X83669142Y-109564819D01*
X83669142Y-109564819D02*
X83573904Y-109612438D01*
X83573904Y-109612438D02*
X83526285Y-109660057D01*
X83526285Y-109660057D02*
X83478666Y-109755295D01*
X83478666Y-109755295D02*
X83478666Y-109898152D01*
X83478666Y-109898152D02*
X83526285Y-109993390D01*
X83526285Y-109993390D02*
X83573904Y-110041009D01*
X83573904Y-110041009D02*
X83669142Y-110088628D01*
X83669142Y-110088628D02*
X84050094Y-110088628D01*
X82573904Y-109564819D02*
X83050094Y-109564819D01*
X83050094Y-109564819D02*
X83097713Y-110041009D01*
X83097713Y-110041009D02*
X83050094Y-109993390D01*
X83050094Y-109993390D02*
X82954856Y-109945771D01*
X82954856Y-109945771D02*
X82716761Y-109945771D01*
X82716761Y-109945771D02*
X82621523Y-109993390D01*
X82621523Y-109993390D02*
X82573904Y-110041009D01*
X82573904Y-110041009D02*
X82526285Y-110136247D01*
X82526285Y-110136247D02*
X82526285Y-110374342D01*
X82526285Y-110374342D02*
X82573904Y-110469580D01*
X82573904Y-110469580D02*
X82621523Y-110517200D01*
X82621523Y-110517200D02*
X82716761Y-110564819D01*
X82716761Y-110564819D02*
X82954856Y-110564819D01*
X82954856Y-110564819D02*
X83050094Y-110517200D01*
X83050094Y-110517200D02*
X83097713Y-110469580D01*
X77230266Y-121131219D02*
X77563599Y-120655028D01*
X77801694Y-121131219D02*
X77801694Y-120131219D01*
X77801694Y-120131219D02*
X77420742Y-120131219D01*
X77420742Y-120131219D02*
X77325504Y-120178838D01*
X77325504Y-120178838D02*
X77277885Y-120226457D01*
X77277885Y-120226457D02*
X77230266Y-120321695D01*
X77230266Y-120321695D02*
X77230266Y-120464552D01*
X77230266Y-120464552D02*
X77277885Y-120559790D01*
X77277885Y-120559790D02*
X77325504Y-120607409D01*
X77325504Y-120607409D02*
X77420742Y-120655028D01*
X77420742Y-120655028D02*
X77801694Y-120655028D01*
X76373123Y-120464552D02*
X76373123Y-121131219D01*
X76611218Y-120083600D02*
X76849313Y-120797885D01*
X76849313Y-120797885D02*
X76230266Y-120797885D01*
X70050819Y-134542305D02*
X69050819Y-134542305D01*
X69050819Y-134542305D02*
X69050819Y-134780400D01*
X69050819Y-134780400D02*
X69098438Y-134923257D01*
X69098438Y-134923257D02*
X69193676Y-135018495D01*
X69193676Y-135018495D02*
X69288914Y-135066114D01*
X69288914Y-135066114D02*
X69479390Y-135113733D01*
X69479390Y-135113733D02*
X69622247Y-135113733D01*
X69622247Y-135113733D02*
X69812723Y-135066114D01*
X69812723Y-135066114D02*
X69907961Y-135018495D01*
X69907961Y-135018495D02*
X70003200Y-134923257D01*
X70003200Y-134923257D02*
X70050819Y-134780400D01*
X70050819Y-134780400D02*
X70050819Y-134542305D01*
X69146057Y-135494686D02*
X69098438Y-135542305D01*
X69098438Y-135542305D02*
X69050819Y-135637543D01*
X69050819Y-135637543D02*
X69050819Y-135875638D01*
X69050819Y-135875638D02*
X69098438Y-135970876D01*
X69098438Y-135970876D02*
X69146057Y-136018495D01*
X69146057Y-136018495D02*
X69241295Y-136066114D01*
X69241295Y-136066114D02*
X69336533Y-136066114D01*
X69336533Y-136066114D02*
X69479390Y-136018495D01*
X69479390Y-136018495D02*
X70050819Y-135447067D01*
X70050819Y-135447067D02*
X70050819Y-136066114D01*
X116466857Y-133880019D02*
X116800190Y-133403828D01*
X117038285Y-133880019D02*
X117038285Y-132880019D01*
X117038285Y-132880019D02*
X116657333Y-132880019D01*
X116657333Y-132880019D02*
X116562095Y-132927638D01*
X116562095Y-132927638D02*
X116514476Y-132975257D01*
X116514476Y-132975257D02*
X116466857Y-133070495D01*
X116466857Y-133070495D02*
X116466857Y-133213352D01*
X116466857Y-133213352D02*
X116514476Y-133308590D01*
X116514476Y-133308590D02*
X116562095Y-133356209D01*
X116562095Y-133356209D02*
X116657333Y-133403828D01*
X116657333Y-133403828D02*
X117038285Y-133403828D01*
X116133523Y-132880019D02*
X115514476Y-132880019D01*
X115514476Y-132880019D02*
X115847809Y-133260971D01*
X115847809Y-133260971D02*
X115704952Y-133260971D01*
X115704952Y-133260971D02*
X115609714Y-133308590D01*
X115609714Y-133308590D02*
X115562095Y-133356209D01*
X115562095Y-133356209D02*
X115514476Y-133451447D01*
X115514476Y-133451447D02*
X115514476Y-133689542D01*
X115514476Y-133689542D02*
X115562095Y-133784780D01*
X115562095Y-133784780D02*
X115609714Y-133832400D01*
X115609714Y-133832400D02*
X115704952Y-133880019D01*
X115704952Y-133880019D02*
X115990666Y-133880019D01*
X115990666Y-133880019D02*
X116085904Y-133832400D01*
X116085904Y-133832400D02*
X116133523Y-133784780D01*
X115133523Y-132975257D02*
X115085904Y-132927638D01*
X115085904Y-132927638D02*
X114990666Y-132880019D01*
X114990666Y-132880019D02*
X114752571Y-132880019D01*
X114752571Y-132880019D02*
X114657333Y-132927638D01*
X114657333Y-132927638D02*
X114609714Y-132975257D01*
X114609714Y-132975257D02*
X114562095Y-133070495D01*
X114562095Y-133070495D02*
X114562095Y-133165733D01*
X114562095Y-133165733D02*
X114609714Y-133308590D01*
X114609714Y-133308590D02*
X115181142Y-133880019D01*
X115181142Y-133880019D02*
X114562095Y-133880019D01*
X103462057Y-120877219D02*
X103795390Y-120401028D01*
X104033485Y-120877219D02*
X104033485Y-119877219D01*
X104033485Y-119877219D02*
X103652533Y-119877219D01*
X103652533Y-119877219D02*
X103557295Y-119924838D01*
X103557295Y-119924838D02*
X103509676Y-119972457D01*
X103509676Y-119972457D02*
X103462057Y-120067695D01*
X103462057Y-120067695D02*
X103462057Y-120210552D01*
X103462057Y-120210552D02*
X103509676Y-120305790D01*
X103509676Y-120305790D02*
X103557295Y-120353409D01*
X103557295Y-120353409D02*
X103652533Y-120401028D01*
X103652533Y-120401028D02*
X104033485Y-120401028D01*
X102509676Y-120877219D02*
X103081104Y-120877219D01*
X102795390Y-120877219D02*
X102795390Y-119877219D01*
X102795390Y-119877219D02*
X102890628Y-120020076D01*
X102890628Y-120020076D02*
X102985866Y-120115314D01*
X102985866Y-120115314D02*
X103081104Y-120162933D01*
X102128723Y-119972457D02*
X102081104Y-119924838D01*
X102081104Y-119924838D02*
X101985866Y-119877219D01*
X101985866Y-119877219D02*
X101747771Y-119877219D01*
X101747771Y-119877219D02*
X101652533Y-119924838D01*
X101652533Y-119924838D02*
X101604914Y-119972457D01*
X101604914Y-119972457D02*
X101557295Y-120067695D01*
X101557295Y-120067695D02*
X101557295Y-120162933D01*
X101557295Y-120162933D02*
X101604914Y-120305790D01*
X101604914Y-120305790D02*
X102176342Y-120877219D01*
X102176342Y-120877219D02*
X101557295Y-120877219D01*
X77331866Y-114324019D02*
X77665199Y-113847828D01*
X77903294Y-114324019D02*
X77903294Y-113324019D01*
X77903294Y-113324019D02*
X77522342Y-113324019D01*
X77522342Y-113324019D02*
X77427104Y-113371638D01*
X77427104Y-113371638D02*
X77379485Y-113419257D01*
X77379485Y-113419257D02*
X77331866Y-113514495D01*
X77331866Y-113514495D02*
X77331866Y-113657352D01*
X77331866Y-113657352D02*
X77379485Y-113752590D01*
X77379485Y-113752590D02*
X77427104Y-113800209D01*
X77427104Y-113800209D02*
X77522342Y-113847828D01*
X77522342Y-113847828D02*
X77903294Y-113847828D01*
X76998532Y-113324019D02*
X76379485Y-113324019D01*
X76379485Y-113324019D02*
X76712818Y-113704971D01*
X76712818Y-113704971D02*
X76569961Y-113704971D01*
X76569961Y-113704971D02*
X76474723Y-113752590D01*
X76474723Y-113752590D02*
X76427104Y-113800209D01*
X76427104Y-113800209D02*
X76379485Y-113895447D01*
X76379485Y-113895447D02*
X76379485Y-114133542D01*
X76379485Y-114133542D02*
X76427104Y-114228780D01*
X76427104Y-114228780D02*
X76474723Y-114276400D01*
X76474723Y-114276400D02*
X76569961Y-114324019D01*
X76569961Y-114324019D02*
X76855675Y-114324019D01*
X76855675Y-114324019D02*
X76950913Y-114276400D01*
X76950913Y-114276400D02*
X76998532Y-114228780D01*
X90336666Y-114374819D02*
X90669999Y-113898628D01*
X90908094Y-114374819D02*
X90908094Y-113374819D01*
X90908094Y-113374819D02*
X90527142Y-113374819D01*
X90527142Y-113374819D02*
X90431904Y-113422438D01*
X90431904Y-113422438D02*
X90384285Y-113470057D01*
X90384285Y-113470057D02*
X90336666Y-113565295D01*
X90336666Y-113565295D02*
X90336666Y-113708152D01*
X90336666Y-113708152D02*
X90384285Y-113803390D01*
X90384285Y-113803390D02*
X90431904Y-113851009D01*
X90431904Y-113851009D02*
X90527142Y-113898628D01*
X90527142Y-113898628D02*
X90908094Y-113898628D01*
X90003332Y-113374819D02*
X89336666Y-113374819D01*
X89336666Y-113374819D02*
X89765237Y-114374819D01*
X95791257Y-130403980D02*
X95838876Y-130451600D01*
X95838876Y-130451600D02*
X95981733Y-130499219D01*
X95981733Y-130499219D02*
X96076971Y-130499219D01*
X96076971Y-130499219D02*
X96219828Y-130451600D01*
X96219828Y-130451600D02*
X96315066Y-130356361D01*
X96315066Y-130356361D02*
X96362685Y-130261123D01*
X96362685Y-130261123D02*
X96410304Y-130070647D01*
X96410304Y-130070647D02*
X96410304Y-129927790D01*
X96410304Y-129927790D02*
X96362685Y-129737314D01*
X96362685Y-129737314D02*
X96315066Y-129642076D01*
X96315066Y-129642076D02*
X96219828Y-129546838D01*
X96219828Y-129546838D02*
X96076971Y-129499219D01*
X96076971Y-129499219D02*
X95981733Y-129499219D01*
X95981733Y-129499219D02*
X95838876Y-129546838D01*
X95838876Y-129546838D02*
X95791257Y-129594457D01*
X94838876Y-130499219D02*
X95410304Y-130499219D01*
X95124590Y-130499219D02*
X95124590Y-129499219D01*
X95124590Y-129499219D02*
X95219828Y-129642076D01*
X95219828Y-129642076D02*
X95315066Y-129737314D01*
X95315066Y-129737314D02*
X95410304Y-129784933D01*
X94219828Y-129499219D02*
X94124590Y-129499219D01*
X94124590Y-129499219D02*
X94029352Y-129546838D01*
X94029352Y-129546838D02*
X93981733Y-129594457D01*
X93981733Y-129594457D02*
X93934114Y-129689695D01*
X93934114Y-129689695D02*
X93886495Y-129880171D01*
X93886495Y-129880171D02*
X93886495Y-130118266D01*
X93886495Y-130118266D02*
X93934114Y-130308742D01*
X93934114Y-130308742D02*
X93981733Y-130403980D01*
X93981733Y-130403980D02*
X94029352Y-130451600D01*
X94029352Y-130451600D02*
X94124590Y-130499219D01*
X94124590Y-130499219D02*
X94219828Y-130499219D01*
X94219828Y-130499219D02*
X94315066Y-130451600D01*
X94315066Y-130451600D02*
X94362685Y-130403980D01*
X94362685Y-130403980D02*
X94410304Y-130308742D01*
X94410304Y-130308742D02*
X94457923Y-130118266D01*
X94457923Y-130118266D02*
X94457923Y-129880171D01*
X94457923Y-129880171D02*
X94410304Y-129689695D01*
X94410304Y-129689695D02*
X94362685Y-129594457D01*
X94362685Y-129594457D02*
X94315066Y-129546838D01*
X94315066Y-129546838D02*
X94219828Y-129499219D01*
X82919866Y-145034380D02*
X82967485Y-145082000D01*
X82967485Y-145082000D02*
X83110342Y-145129619D01*
X83110342Y-145129619D02*
X83205580Y-145129619D01*
X83205580Y-145129619D02*
X83348437Y-145082000D01*
X83348437Y-145082000D02*
X83443675Y-144986761D01*
X83443675Y-144986761D02*
X83491294Y-144891523D01*
X83491294Y-144891523D02*
X83538913Y-144701047D01*
X83538913Y-144701047D02*
X83538913Y-144558190D01*
X83538913Y-144558190D02*
X83491294Y-144367714D01*
X83491294Y-144367714D02*
X83443675Y-144272476D01*
X83443675Y-144272476D02*
X83348437Y-144177238D01*
X83348437Y-144177238D02*
X83205580Y-144129619D01*
X83205580Y-144129619D02*
X83110342Y-144129619D01*
X83110342Y-144129619D02*
X82967485Y-144177238D01*
X82967485Y-144177238D02*
X82919866Y-144224857D01*
X82586532Y-144129619D02*
X81919866Y-144129619D01*
X81919866Y-144129619D02*
X82348437Y-145129619D01*
X109964457Y-143865980D02*
X110012076Y-143913600D01*
X110012076Y-143913600D02*
X110154933Y-143961219D01*
X110154933Y-143961219D02*
X110250171Y-143961219D01*
X110250171Y-143961219D02*
X110393028Y-143913600D01*
X110393028Y-143913600D02*
X110488266Y-143818361D01*
X110488266Y-143818361D02*
X110535885Y-143723123D01*
X110535885Y-143723123D02*
X110583504Y-143532647D01*
X110583504Y-143532647D02*
X110583504Y-143389790D01*
X110583504Y-143389790D02*
X110535885Y-143199314D01*
X110535885Y-143199314D02*
X110488266Y-143104076D01*
X110488266Y-143104076D02*
X110393028Y-143008838D01*
X110393028Y-143008838D02*
X110250171Y-142961219D01*
X110250171Y-142961219D02*
X110154933Y-142961219D01*
X110154933Y-142961219D02*
X110012076Y-143008838D01*
X110012076Y-143008838D02*
X109964457Y-143056457D01*
X109012076Y-143961219D02*
X109583504Y-143961219D01*
X109297790Y-143961219D02*
X109297790Y-142961219D01*
X109297790Y-142961219D02*
X109393028Y-143104076D01*
X109393028Y-143104076D02*
X109488266Y-143199314D01*
X109488266Y-143199314D02*
X109583504Y-143246933D01*
X108059695Y-143961219D02*
X108631123Y-143961219D01*
X108345409Y-143961219D02*
X108345409Y-142961219D01*
X108345409Y-142961219D02*
X108440647Y-143104076D01*
X108440647Y-143104076D02*
X108535885Y-143199314D01*
X108535885Y-143199314D02*
X108631123Y-143246933D01*
X83631066Y-104113219D02*
X83964399Y-103637028D01*
X84202494Y-104113219D02*
X84202494Y-103113219D01*
X84202494Y-103113219D02*
X83821542Y-103113219D01*
X83821542Y-103113219D02*
X83726304Y-103160838D01*
X83726304Y-103160838D02*
X83678685Y-103208457D01*
X83678685Y-103208457D02*
X83631066Y-103303695D01*
X83631066Y-103303695D02*
X83631066Y-103446552D01*
X83631066Y-103446552D02*
X83678685Y-103541790D01*
X83678685Y-103541790D02*
X83726304Y-103589409D01*
X83726304Y-103589409D02*
X83821542Y-103637028D01*
X83821542Y-103637028D02*
X84202494Y-103637028D01*
X82773923Y-103113219D02*
X82964399Y-103113219D01*
X82964399Y-103113219D02*
X83059637Y-103160838D01*
X83059637Y-103160838D02*
X83107256Y-103208457D01*
X83107256Y-103208457D02*
X83202494Y-103351314D01*
X83202494Y-103351314D02*
X83250113Y-103541790D01*
X83250113Y-103541790D02*
X83250113Y-103922742D01*
X83250113Y-103922742D02*
X83202494Y-104017980D01*
X83202494Y-104017980D02*
X83154875Y-104065600D01*
X83154875Y-104065600D02*
X83059637Y-104113219D01*
X83059637Y-104113219D02*
X82869161Y-104113219D01*
X82869161Y-104113219D02*
X82773923Y-104065600D01*
X82773923Y-104065600D02*
X82726304Y-104017980D01*
X82726304Y-104017980D02*
X82678685Y-103922742D01*
X82678685Y-103922742D02*
X82678685Y-103684647D01*
X82678685Y-103684647D02*
X82726304Y-103589409D01*
X82726304Y-103589409D02*
X82773923Y-103541790D01*
X82773923Y-103541790D02*
X82869161Y-103494171D01*
X82869161Y-103494171D02*
X83059637Y-103494171D01*
X83059637Y-103494171D02*
X83154875Y-103541790D01*
X83154875Y-103541790D02*
X83202494Y-103589409D01*
X83202494Y-103589409D02*
X83250113Y-103684647D01*
D15*
X71611200Y-128594000D02*
X71611200Y-133049563D01*
X71611200Y-133049563D02*
X72675637Y-134114000D01*
X73311200Y-128594000D02*
X71611200Y-128594000D01*
X73311200Y-134114000D02*
X72675637Y-134114000D01*
X75431200Y-128594000D02*
X77131200Y-128594000D01*
X75431200Y-134114000D02*
X76066763Y-134114000D01*
X77131200Y-128594000D02*
X77131200Y-133049563D01*
X77131200Y-133049563D02*
X76066763Y-134114000D01*
X96343736Y-111025000D02*
X96797864Y-111025000D01*
X96343736Y-112495000D02*
X96797864Y-112495000D01*
X115746264Y-144146600D02*
X115292136Y-144146600D01*
X115746264Y-145616600D02*
X115292136Y-145616600D01*
X131258000Y-107585200D02*
X132588000Y-107585200D01*
X131258000Y-108915200D02*
X131258000Y-107585200D01*
X131258000Y-110185200D02*
X133918000Y-110185200D01*
X131258000Y-122945200D02*
X131258000Y-110185200D01*
X131258000Y-122945200D02*
X133918000Y-122945200D01*
X133918000Y-122945200D02*
X133918000Y-110185200D01*
X112873400Y-134575000D02*
X115473400Y-134575000D01*
X112873400Y-142315000D02*
X112873400Y-134575000D01*
X112873400Y-142315000D02*
X118073400Y-142315000D01*
X115473400Y-134575000D02*
X115473400Y-137175000D01*
X115473400Y-137175000D02*
X118073400Y-137175000D01*
X116743400Y-134575000D02*
X118073400Y-134575000D01*
X118073400Y-134575000D02*
X118073400Y-135905000D01*
X118073400Y-142315000D02*
X118073400Y-137175000D01*
X57924000Y-128089200D02*
X67044000Y-128089200D01*
X57924000Y-148669200D02*
X57924000Y-128089200D01*
X59234000Y-129389200D02*
X65734000Y-129389200D01*
X59234000Y-147369200D02*
X59234000Y-129389200D01*
X65734000Y-129389200D02*
X65734000Y-136329200D01*
X65734000Y-136329200D02*
X67044000Y-136329200D01*
X65734000Y-140429200D02*
X65734000Y-140429200D01*
X65734000Y-140429200D02*
X65734000Y-147369200D01*
X65734000Y-147369200D02*
X59234000Y-147369200D01*
X67044000Y-128089200D02*
X67044000Y-148669200D01*
X67044000Y-140429200D02*
X65734000Y-140429200D01*
X67044000Y-148669200D02*
X57924000Y-148669200D01*
X67434000Y-133299200D02*
X68434000Y-133799200D01*
X68434000Y-132799200D02*
X67434000Y-133299200D01*
X68434000Y-133799200D02*
X68434000Y-132799200D01*
X89892136Y-121235800D02*
X90346264Y-121235800D01*
X89892136Y-122705800D02*
X90346264Y-122705800D01*
X80815548Y-130583000D02*
X81338052Y-130583000D01*
X80815548Y-132053000D02*
X81338052Y-132053000D01*
X70435736Y-111329800D02*
X70889864Y-111329800D01*
X70435736Y-112799800D02*
X70889864Y-112799800D01*
X121426248Y-131141800D02*
X121948752Y-131141800D01*
X121426248Y-132611800D02*
X121948752Y-132611800D01*
X122246848Y-143932650D02*
X122769352Y-143932650D01*
X122246848Y-145402650D02*
X122769352Y-145402650D01*
D12*
X84875800Y-134736800D02*
X86450800Y-134736800D01*
X84875800Y-141736800D02*
X84875800Y-134736800D01*
X86450800Y-141736800D02*
X84875800Y-141736800D01*
X91450800Y-141736800D02*
X93025800Y-141736800D01*
D16*
X91450800Y-142336800D02*
X91450800Y-142336800D01*
X91450800Y-142536800D02*
X91450800Y-142536800D01*
D12*
X93025800Y-134736800D02*
X91450800Y-134736800D01*
X93025800Y-141736800D02*
X93025800Y-134736800D01*
D16*
X91450800Y-142336800D02*
G75*
G02*
X91450800Y-142536800I0J-100000D01*
G01*
X91450800Y-142536800D02*
G75*
G02*
X91450800Y-142336800I0J100000D01*
G01*
D15*
X96089736Y-104471800D02*
X96543864Y-104471800D01*
X96089736Y-105941800D02*
X96543864Y-105941800D01*
X96360348Y-144502200D02*
X96882852Y-144502200D01*
X96360348Y-145972200D02*
X96882852Y-145972200D01*
X68443600Y-144196800D02*
X68443600Y-148206800D01*
X68443600Y-148206800D02*
X70443600Y-148206800D01*
X70443600Y-144196800D02*
X70443600Y-148206800D01*
X108926136Y-104573400D02*
X109380264Y-104573400D01*
X108926136Y-106043400D02*
X109380264Y-106043400D01*
X53280000Y-103419600D02*
X53280000Y-111099600D01*
X55940000Y-103419600D02*
X53280000Y-103419600D01*
X55940000Y-103419600D02*
X55940000Y-111099600D01*
X55940000Y-111099600D02*
X53280000Y-111099600D01*
X55940000Y-112369600D02*
X55940000Y-113699600D01*
X55940000Y-113699600D02*
X54610000Y-113699600D01*
X102626936Y-114733400D02*
X103081064Y-114733400D01*
X102626936Y-116203400D02*
X103081064Y-116203400D01*
X71611200Y-141969200D02*
X71611200Y-146424763D01*
X71611200Y-146424763D02*
X72675637Y-147489200D01*
X73311200Y-141969200D02*
X71611200Y-141969200D01*
X73311200Y-147489200D02*
X72675637Y-147489200D01*
X75431200Y-141969200D02*
X77131200Y-141969200D01*
X75431200Y-147489200D02*
X76066763Y-147489200D01*
X77131200Y-141969200D02*
X77131200Y-146424763D01*
X77131200Y-146424763D02*
X76066763Y-147489200D01*
X108875336Y-111126600D02*
X109329464Y-111126600D01*
X108875336Y-112596600D02*
X109329464Y-112596600D01*
X107608648Y-131040200D02*
X108131152Y-131040200D01*
X107608648Y-132510200D02*
X108131152Y-132510200D01*
X70521336Y-104624200D02*
X70975464Y-104624200D01*
X70521336Y-106094200D02*
X70975464Y-106094200D01*
X83084936Y-111025000D02*
X83539064Y-111025000D01*
X83084936Y-112495000D02*
X83539064Y-112495000D01*
X76836536Y-121591400D02*
X77290664Y-121591400D01*
X76836536Y-123061400D02*
X77290664Y-123061400D01*
X68443600Y-129566400D02*
X68443600Y-133576400D01*
X68443600Y-133576400D02*
X70443600Y-133576400D01*
X70443600Y-129566400D02*
X70443600Y-133576400D01*
X116051064Y-131040200D02*
X115596936Y-131040200D01*
X116051064Y-132510200D02*
X115596936Y-132510200D01*
X102592136Y-121337400D02*
X103046264Y-121337400D01*
X102592136Y-122807400D02*
X103046264Y-122807400D01*
X76938136Y-114784200D02*
X77392264Y-114784200D01*
X76938136Y-116254200D02*
X77392264Y-116254200D01*
X89942936Y-114835000D02*
X90397064Y-114835000D01*
X89942936Y-116305000D02*
X90397064Y-116305000D01*
X94887148Y-130989400D02*
X95409652Y-130989400D01*
X94887148Y-132459400D02*
X95409652Y-132459400D01*
X82491948Y-145619800D02*
X83014452Y-145619800D01*
X82491948Y-147089800D02*
X83014452Y-147089800D01*
X109060348Y-144451400D02*
X109582852Y-144451400D01*
X109060348Y-145921400D02*
X109582852Y-145921400D01*
X83237336Y-104573400D02*
X83691464Y-104573400D01*
X83237336Y-106043400D02*
X83691464Y-106043400D01*
M02*
