G04 #@! TF.GenerationSoftware,KiCad,Pcbnew,8.0.2*
G04 #@! TF.CreationDate,2025-05-17T16:19:13-07:00*
G04 #@! TF.ProjectId,Exits-1U,45786974-732d-4315-952e-6b696361645f,2.1*
G04 #@! TF.SameCoordinates,Original*
G04 #@! TF.FileFunction,Soldermask,Bot*
G04 #@! TF.FilePolarity,Negative*
%FSLAX46Y46*%
G04 Gerber Fmt 4.6, Leading zero omitted, Abs format (unit mm)*
G04 Created by KiCad (PCBNEW 8.0.2) date 2025-05-17 16:19:13*
%MOMM*%
%LPD*%
G01*
G04 APERTURE LIST*
G04 Aperture macros list*
%AMRoundRect*
0 Rectangle with rounded corners*
0 $1 Rounding radius*
0 $2 $3 $4 $5 $6 $7 $8 $9 X,Y pos of 4 corners*
0 Add a 4 corners polygon primitive as box body*
4,1,4,$2,$3,$4,$5,$6,$7,$8,$9,$2,$3,0*
0 Add four circle primitives for the rounded corners*
1,1,$1+$1,$2,$3*
1,1,$1+$1,$4,$5*
1,1,$1+$1,$6,$7*
1,1,$1+$1,$8,$9*
0 Add four rect primitives between the rounded corners*
20,1,$1+$1,$2,$3,$4,$5,0*
20,1,$1+$1,$4,$5,$6,$7,0*
20,1,$1+$1,$6,$7,$8,$9,0*
20,1,$1+$1,$8,$9,$2,$3,0*%
%AMHorizOval*
0 Thick line with rounded ends*
0 $1 width*
0 $2 $3 position (X,Y) of the first rounded end (center of the circle)*
0 $4 $5 position (X,Y) of the second rounded end (center of the circle)*
0 Add line between two ends*
20,1,$1,$2,$3,$4,$5,0*
0 Add two circle primitives to create the rounded ends*
1,1,$1,$2,$3*
1,1,$1,$4,$5*%
G04 Aperture macros list end*
%ADD10C,3.203200*%
%ADD11C,1.930400*%
%ADD12O,2.923200X3.443200*%
%ADD13RoundRect,0.101600X0.900000X0.900000X-0.900000X0.900000X-0.900000X-0.900000X0.900000X-0.900000X0*%
%ADD14C,2.003200*%
%ADD15HorizOval,1.712000X-0.533159X-0.533159X0.533159X0.533159X0*%
%ADD16O,1.712000X3.220000*%
%ADD17O,3.220000X1.712000*%
%ADD18RoundRect,0.101600X0.850000X0.850000X-0.850000X0.850000X-0.850000X-0.850000X0.850000X-0.850000X0*%
%ADD19O,1.903200X1.903200*%
%ADD20RoundRect,0.101600X-0.850000X-0.850000X0.850000X-0.850000X0.850000X0.850000X-0.850000X0.850000X0*%
%ADD21RoundRect,0.281750X0.619850X-1.207350X0.619850X1.207350X-0.619850X1.207350X-0.619850X-1.207350X0*%
%ADD22RoundRect,0.292333X0.409267X0.509267X-0.409267X0.509267X-0.409267X-0.509267X0.409267X-0.509267X0*%
%ADD23RoundRect,0.292333X-0.409267X-0.509267X0.409267X-0.509267X0.409267X0.509267X-0.409267X0.509267X0*%
%ADD24RoundRect,0.279883X0.671717X0.671717X-0.671717X0.671717X-0.671717X-0.671717X0.671717X-0.671717X0*%
%ADD25C,1.903200*%
%ADD26RoundRect,0.293234X0.395866X0.533366X-0.395866X0.533366X-0.395866X-0.533366X0.395866X-0.533366X0*%
%ADD27C,1.503200*%
%ADD28RoundRect,0.275800X0.425800X-0.275800X0.425800X0.275800X-0.425800X0.275800X-0.425800X-0.275800X0*%
G04 APERTURE END LIST*
D10*
X73660000Y-119354600D03*
D11*
X67945000Y-119354600D03*
X70485000Y-119354600D03*
X78105000Y-119354600D03*
D10*
X60960000Y-119354600D03*
D11*
X55245000Y-119354600D03*
X57785000Y-119354600D03*
X65405000Y-119354600D03*
D10*
X67310000Y-107924600D03*
D11*
X61595000Y-107924600D03*
X64135000Y-107924600D03*
X71755000Y-107924600D03*
D12*
X118414800Y-107950000D03*
X127914800Y-107950000D03*
D13*
X120664800Y-115450000D03*
D14*
X123164800Y-115450000D03*
X125664800Y-115450000D03*
X120664800Y-117950000D03*
X123164800Y-117950000D03*
X125664800Y-117950000D03*
D10*
X111810800Y-119354600D03*
D11*
X106095800Y-119354600D03*
X108635800Y-119354600D03*
X116255800Y-119354600D03*
D15*
X147293200Y-145718400D03*
D16*
X136197200Y-141622400D03*
D17*
X143197200Y-134622400D03*
D10*
X99057800Y-119354600D03*
D11*
X93342800Y-119354600D03*
X95882800Y-119354600D03*
X103502800Y-119354600D03*
D10*
X80060800Y-107924600D03*
D11*
X74345800Y-107924600D03*
X76885800Y-107924600D03*
X84505800Y-107924600D03*
D18*
X54660800Y-137160000D03*
D19*
X54660800Y-134620000D03*
X54660800Y-132080000D03*
X54660800Y-129540000D03*
D10*
X86360000Y-119354600D03*
D11*
X80645000Y-119354600D03*
X83185000Y-119354600D03*
X90805000Y-119354600D03*
D10*
X92707800Y-107924600D03*
D11*
X86992800Y-107924600D03*
X89532800Y-107924600D03*
X97152800Y-107924600D03*
D10*
X105410000Y-107924600D03*
D11*
X99695000Y-107924600D03*
X102235000Y-107924600D03*
X109855000Y-107924600D03*
D20*
X132588000Y-133705600D03*
D19*
X132588000Y-136245600D03*
X132588000Y-138785600D03*
X132588000Y-141325600D03*
X132588000Y-143865600D03*
X132588000Y-146405600D03*
D21*
X74371200Y-133416500D03*
X74371200Y-129291500D03*
D22*
X97570800Y-111760000D03*
X95570800Y-111760000D03*
D23*
X114519200Y-144881600D03*
X116519200Y-144881600D03*
D18*
X132588000Y-108915200D03*
D19*
X132588000Y-111455200D03*
X132588000Y-113995200D03*
X132588000Y-116535200D03*
X132588000Y-119075200D03*
X132588000Y-121615200D03*
D18*
X116743400Y-135905000D03*
D19*
X114203400Y-135905000D03*
X116743400Y-138445000D03*
X114203400Y-138445000D03*
X116743400Y-140985000D03*
X114203400Y-140985000D03*
D24*
X63754000Y-133299200D03*
D25*
X61214000Y-133299200D03*
X63754000Y-135839200D03*
X61214000Y-135839200D03*
X63754000Y-138379200D03*
X61214000Y-138379200D03*
X63754000Y-140919200D03*
X61214000Y-140919200D03*
X63754000Y-143459200D03*
X61214000Y-143459200D03*
D22*
X91119200Y-121970800D03*
X89119200Y-121970800D03*
D26*
X82114300Y-131318000D03*
X80039300Y-131318000D03*
D22*
X71662800Y-112064800D03*
X69662800Y-112064800D03*
D26*
X122725000Y-131876800D03*
X120650000Y-131876800D03*
X123545600Y-144667650D03*
X121470600Y-144667650D03*
D27*
X90220800Y-142036800D03*
X87680800Y-142036800D03*
X90220800Y-134436800D03*
X87680800Y-134436800D03*
D22*
X97316800Y-105206800D03*
X95316800Y-105206800D03*
D26*
X97659100Y-145237200D03*
X95584100Y-145237200D03*
D28*
X69443600Y-147496800D03*
X69443600Y-144196800D03*
D22*
X110153200Y-105308400D03*
X108153200Y-105308400D03*
D20*
X54610000Y-112369600D03*
D19*
X54610000Y-109829600D03*
X54610000Y-107289600D03*
X54610000Y-104749600D03*
D22*
X103854000Y-115468400D03*
X101854000Y-115468400D03*
D21*
X74371200Y-146791700D03*
X74371200Y-142666700D03*
D22*
X110102400Y-111861600D03*
X108102400Y-111861600D03*
D26*
X108907400Y-131775200D03*
X106832400Y-131775200D03*
D22*
X71748400Y-105359200D03*
X69748400Y-105359200D03*
X84312000Y-111760000D03*
X82312000Y-111760000D03*
X78063600Y-122326400D03*
X76063600Y-122326400D03*
D28*
X69443600Y-132866400D03*
X69443600Y-129566400D03*
D23*
X114824000Y-131775200D03*
X116824000Y-131775200D03*
D22*
X103819200Y-122072400D03*
X101819200Y-122072400D03*
X78165200Y-115519200D03*
X76165200Y-115519200D03*
X91170000Y-115570000D03*
X89170000Y-115570000D03*
D26*
X96185900Y-131724400D03*
X94110900Y-131724400D03*
X83790700Y-146354800D03*
X81715700Y-146354800D03*
X110359100Y-145186400D03*
X108284100Y-145186400D03*
D22*
X84464400Y-105308400D03*
X82464400Y-105308400D03*
M02*
