M48
; DRILL file {KiCad 8.0.2} date 2025-04-20T14:21:21-0700
; FORMAT={-:-/ absolute / inch / decimal}
; #@! TF.CreationDate,2025-04-20T14:21:21-07:00
; #@! TF.GenerationSoftware,Kicad,Pcbnew,8.0.2
; #@! TF.FileFunction,Plated,1,2,PTH
FMAT,2
INCH
; #@! TA.AperFunction,Plated,PTH,ViaDrill
T1C0.0150
; #@! TA.AperFunction,Plated,PTH,ComponentDrill
T2C0.0315
; #@! TA.AperFunction,Plated,PTH,ComponentDrill
T3C0.0394
; #@! TA.AperFunction,Plated,PTH,ComponentDrill
T4C0.0400
; #@! TA.AperFunction,Plated,PTH,ComponentDrill
T5C0.0433
%
G90
G05
T1
X2.738Y-4.47
X2.746Y-4.046
X2.994Y-4.886
X2.998Y-4.47
X3.032Y-5.424
X3.098Y-5.566
X3.15Y-5.25
X3.202Y-5.258
X3.24Y-4.47
X3.246Y-4.046
X3.249Y-5.266
X3.249Y-5.642
X3.3Y-5.636
X3.342Y-5.266
X3.366Y-5.592
X3.508Y-4.886
X3.512Y-4.47
X3.698Y-5.65
X3.7Y-5.25
X3.752Y-4.046
X3.76Y-5.262
X3.764Y-4.47
X3.846Y-5.64
X4.008Y-4.886
X4.01Y-4.47
X4.136Y-5.188
X4.2068Y-5.26
X4.256Y-4.046
X4.258Y-4.47
X4.2839Y-5.2879
X4.344Y-5.64
X4.4026Y-5.1006
X4.4221Y-5.344
X4.676Y-5.756
X4.686Y-5.298
X4.75Y-5.262
X4.794Y-5.456
X4.8652Y-5.6296
X4.906Y-5.808
X4.946Y-4.444
X4.998Y-5.496
T2
X3.452Y-5.2928
X3.452Y-5.592
X3.552Y-5.2928
X3.552Y-5.592
T3
X2.15Y-4.124
X2.15Y-4.224
X2.15Y-4.324
X2.15Y-4.424
X2.152Y-5.1
X2.152Y-5.2
X2.152Y-5.3
X2.152Y-5.4
X2.41Y-5.248
X2.41Y-5.348
X2.41Y-5.448
X2.41Y-5.548
X2.41Y-5.648
X2.51Y-5.248
X2.51Y-5.348
X2.51Y-5.448
X2.51Y-5.548
X2.51Y-5.648
X4.4962Y-5.3506
X4.4962Y-5.4506
X4.4962Y-5.5506
X4.5962Y-5.3506
X4.5962Y-5.4506
X4.5962Y-5.5506
X4.7506Y-4.5453
X4.7506Y-4.6437
X4.849Y-4.5453
X4.849Y-4.6437
X4.9474Y-4.5453
X4.9474Y-4.6437
X5.22Y-4.288
X5.22Y-4.388
X5.22Y-4.488
X5.22Y-4.588
X5.22Y-4.688
X5.22Y-4.788
X5.22Y-5.264
X5.22Y-5.364
X5.22Y-5.464
X5.22Y-5.564
X5.22Y-5.664
X5.22Y-5.764
T4
X2.175Y-4.699
X2.275Y-4.699
X2.425Y-4.249
X2.525Y-4.249
X2.575Y-4.699
X2.675Y-4.699
X2.775Y-4.699
X2.825Y-4.249
X2.927Y-4.249
X3.027Y-4.249
X3.075Y-4.699
X3.175Y-4.699
X3.275Y-4.699
X3.327Y-4.249
X3.4249Y-4.249
X3.5249Y-4.249
X3.575Y-4.699
X3.6749Y-4.699
X3.7749Y-4.699
X3.8249Y-4.249
X3.925Y-4.249
X4.025Y-4.249
X4.0749Y-4.699
X4.177Y-4.699
X4.277Y-4.699
X4.325Y-4.249
X4.577Y-4.699
T3
G00X5.3621Y-5.5462
M15
G01X5.3621Y-5.6052
M16
G05
G00X5.6082Y-5.3001
M15
G01X5.6672Y-5.3001
M16
G05
G00X5.8198Y-5.7161
M15
G01X5.7781Y-5.7578
M16
G05
T5
G00X4.662Y-4.2638
M15
G01X4.662Y-4.2362
M16
G05
G00X5.036Y-4.2638
M15
G01X5.036Y-4.2362
M16
G05
M30
