M48
; DRILL file {KiCad 8.0.2} date 2025-04-20T14:21:21-0700
; FORMAT={-:-/ absolute / inch / decimal}
; #@! TF.CreationDate,2025-04-20T14:21:21-07:00
; #@! TF.GenerationSoftware,Kicad,Pcbnew,8.0.2
; #@! TF.FileFunction,NonPlated,1,2,NPTH
FMAT,2
INCH
; #@! TA.AperFunction,NonPlated,NPTH,ComponentDrill
T1C0.0197
; #@! TA.AperFunction,NonPlated,NPTH,ComponentDrill
T2C0.1181
%
G90
G05
T1
X2.1Y-4.9325
X2.1Y-4.9915
X2.1295Y-4.9325
X2.1295Y-4.9915
X2.1591Y-4.9325
X2.1591Y-4.9915
X3.65Y-4.9325
X3.65Y-4.9915
X3.6795Y-4.9325
X3.6795Y-4.9915
X3.7091Y-4.9325
X3.7091Y-4.9915
X5.192Y-4.9325
X5.192Y-4.9915
X5.2215Y-4.9325
X5.2215Y-4.9915
X5.2511Y-4.9325
X5.2511Y-4.9915
T2
X2.4Y-4.699
X2.65Y-4.249
X2.9Y-4.699
X3.152Y-4.249
X3.4Y-4.699
X3.6499Y-4.249
X3.8999Y-4.699
X4.15Y-4.249
X4.402Y-4.699
M30
