G04 #@! TF.GenerationSoftware,KiCad,Pcbnew,8.0.2*
G04 #@! TF.CreationDate,2025-04-20T14:09:58-07:00*
G04 #@! TF.ProjectId,Exits-1U-panel,45786974-732d-4315-952d-70616e656c2e,2.1*
G04 #@! TF.SameCoordinates,Original*
G04 #@! TF.FileFunction,Copper,L1,Top*
G04 #@! TF.FilePolarity,Positive*
%FSLAX46Y46*%
G04 Gerber Fmt 4.6, Leading zero omitted, Abs format (unit mm)*
G04 Created by KiCad (PCBNEW 8.0.2) date 2025-04-20 14:09:58*
%MOMM*%
%LPD*%
G01*
G04 APERTURE LIST*
G04 APERTURE END LIST*
G04 #@! TA.AperFunction,Conductor*
G36*
X65779839Y-115818285D02*
G01*
X65825594Y-115871089D01*
X65836800Y-115922600D01*
X65836800Y-128831800D01*
X65817115Y-128898839D01*
X65764311Y-128944594D01*
X65712800Y-128955800D01*
X56258000Y-128955800D01*
X56190961Y-128936115D01*
X56145206Y-128883311D01*
X56134000Y-128831800D01*
X56134000Y-128304169D01*
X56983362Y-128304169D01*
X57235993Y-128556800D01*
X57451981Y-128556800D01*
X57704612Y-128304169D01*
X58060993Y-128304169D01*
X58313624Y-128556800D01*
X58529612Y-128556800D01*
X58782243Y-128304169D01*
X59138623Y-128304169D01*
X59391254Y-128556800D01*
X59607242Y-128556800D01*
X59859873Y-128304169D01*
X60216254Y-128304169D01*
X60468885Y-128556800D01*
X60684873Y-128556800D01*
X60937504Y-128304169D01*
X61293885Y-128304169D01*
X61546516Y-128556800D01*
X61762504Y-128556800D01*
X62015135Y-128304169D01*
X62371516Y-128304169D01*
X62624147Y-128556800D01*
X62840135Y-128556800D01*
X63092766Y-128304169D01*
X63449146Y-128304169D01*
X63701777Y-128556800D01*
X63917765Y-128556800D01*
X64170396Y-128304169D01*
X64526777Y-128304169D01*
X64779408Y-128556800D01*
X64995396Y-128556800D01*
X65248027Y-128304169D01*
X64887402Y-127943544D01*
X64526777Y-128304169D01*
X64170396Y-128304169D01*
X63809771Y-127943544D01*
X63449146Y-128304169D01*
X63092766Y-128304169D01*
X62732141Y-127943544D01*
X62371516Y-128304169D01*
X62015135Y-128304169D01*
X61654510Y-127943544D01*
X61293885Y-128304169D01*
X60937504Y-128304169D01*
X60576879Y-127943544D01*
X60216254Y-128304169D01*
X59859873Y-128304169D01*
X59499248Y-127943544D01*
X59138623Y-128304169D01*
X58782243Y-128304169D01*
X58421618Y-127943544D01*
X58060993Y-128304169D01*
X57704612Y-128304169D01*
X57343987Y-127943544D01*
X56983362Y-128304169D01*
X56134000Y-128304169D01*
X56134000Y-127676901D01*
X56533000Y-127676901D01*
X56533000Y-127853807D01*
X56805171Y-128125978D01*
X57165796Y-127765354D01*
X57522177Y-127765354D01*
X57882802Y-128125979D01*
X58243427Y-127765354D01*
X58599808Y-127765354D01*
X58960433Y-128125979D01*
X59321058Y-127765354D01*
X59677439Y-127765354D01*
X60038064Y-128125979D01*
X60398689Y-127765354D01*
X60755069Y-127765354D01*
X61115694Y-128125978D01*
X61476319Y-127765354D01*
X61832700Y-127765354D01*
X62193325Y-128125979D01*
X62553950Y-127765354D01*
X62910331Y-127765354D01*
X63270956Y-128125979D01*
X63631581Y-127765354D01*
X63987962Y-127765354D01*
X64348587Y-128125979D01*
X64709212Y-127765354D01*
X65065592Y-127765354D01*
X65426217Y-128125979D01*
X65437800Y-128114396D01*
X65437800Y-127416312D01*
X65426217Y-127404729D01*
X65065592Y-127765354D01*
X64709212Y-127765354D01*
X64348587Y-127404729D01*
X63987962Y-127765354D01*
X63631581Y-127765354D01*
X63270956Y-127404729D01*
X62910331Y-127765354D01*
X62553950Y-127765354D01*
X62193325Y-127404729D01*
X61832700Y-127765354D01*
X61476319Y-127765354D01*
X61115694Y-127404729D01*
X60755069Y-127765354D01*
X60398689Y-127765354D01*
X60038064Y-127404729D01*
X59677439Y-127765354D01*
X59321058Y-127765354D01*
X58960433Y-127404729D01*
X58599808Y-127765354D01*
X58243427Y-127765354D01*
X57882802Y-127404729D01*
X57522177Y-127765354D01*
X57165796Y-127765354D01*
X56805171Y-127404729D01*
X56533000Y-127676901D01*
X56134000Y-127676901D01*
X56134000Y-127226538D01*
X56983362Y-127226538D01*
X57343987Y-127587163D01*
X57704612Y-127226538D01*
X58060993Y-127226538D01*
X58421618Y-127587163D01*
X58782243Y-127226538D01*
X59138623Y-127226538D01*
X59499248Y-127587163D01*
X59859873Y-127226538D01*
X60216254Y-127226538D01*
X60576879Y-127587163D01*
X60937504Y-127226538D01*
X61293885Y-127226538D01*
X61654510Y-127587163D01*
X62015135Y-127226538D01*
X62371516Y-127226538D01*
X62732141Y-127587163D01*
X63092766Y-127226538D01*
X63449146Y-127226538D01*
X63809771Y-127587163D01*
X64170396Y-127226538D01*
X64526777Y-127226538D01*
X64887402Y-127587163D01*
X65248027Y-127226538D01*
X64887402Y-126865913D01*
X64526777Y-127226538D01*
X64170396Y-127226538D01*
X63809771Y-126865913D01*
X63449146Y-127226538D01*
X63092766Y-127226538D01*
X62732141Y-126865913D01*
X62371516Y-127226538D01*
X62015135Y-127226538D01*
X61654510Y-126865913D01*
X61293885Y-127226538D01*
X60937504Y-127226538D01*
X60576879Y-126865913D01*
X60216254Y-127226538D01*
X59859873Y-127226538D01*
X59499248Y-126865913D01*
X59138623Y-127226538D01*
X58782243Y-127226538D01*
X58421618Y-126865913D01*
X58060993Y-127226538D01*
X57704612Y-127226538D01*
X57343987Y-126865913D01*
X56983362Y-127226538D01*
X56134000Y-127226538D01*
X56134000Y-126599270D01*
X56533000Y-126599270D01*
X56533000Y-126776176D01*
X56805171Y-127048347D01*
X57165796Y-126687723D01*
X57522177Y-126687723D01*
X57882802Y-127048348D01*
X58243427Y-126687723D01*
X58599808Y-126687723D01*
X58960433Y-127048348D01*
X59321058Y-126687723D01*
X59677439Y-126687723D01*
X60038064Y-127048348D01*
X60398689Y-126687723D01*
X60755069Y-126687723D01*
X61115694Y-127048347D01*
X61476319Y-126687723D01*
X61832700Y-126687723D01*
X62193325Y-127048348D01*
X62553950Y-126687723D01*
X62910331Y-126687723D01*
X63270956Y-127048348D01*
X63631581Y-126687723D01*
X63987962Y-126687723D01*
X64348587Y-127048348D01*
X64709212Y-126687723D01*
X65065592Y-126687723D01*
X65426217Y-127048348D01*
X65437800Y-127036765D01*
X65437800Y-126338681D01*
X65426217Y-126327098D01*
X65065592Y-126687723D01*
X64709212Y-126687723D01*
X64348587Y-126327098D01*
X63987962Y-126687723D01*
X63631581Y-126687723D01*
X63270956Y-126327098D01*
X62910331Y-126687723D01*
X62553950Y-126687723D01*
X62193325Y-126327098D01*
X61832700Y-126687723D01*
X61476319Y-126687723D01*
X61115694Y-126327098D01*
X60755069Y-126687723D01*
X60398689Y-126687723D01*
X60038064Y-126327098D01*
X59677439Y-126687723D01*
X59321058Y-126687723D01*
X58960433Y-126327098D01*
X58599808Y-126687723D01*
X58243427Y-126687723D01*
X57882802Y-126327098D01*
X57522177Y-126687723D01*
X57165796Y-126687723D01*
X56805171Y-126327098D01*
X56533000Y-126599270D01*
X56134000Y-126599270D01*
X56134000Y-126148908D01*
X56983362Y-126148908D01*
X57343987Y-126509533D01*
X57704612Y-126148908D01*
X58060993Y-126148908D01*
X58421618Y-126509533D01*
X58782243Y-126148908D01*
X59138623Y-126148908D01*
X59499248Y-126509533D01*
X59859873Y-126148908D01*
X60216254Y-126148908D01*
X60576879Y-126509533D01*
X60937504Y-126148908D01*
X61293885Y-126148908D01*
X61654510Y-126509533D01*
X62015135Y-126148908D01*
X62371516Y-126148908D01*
X62732141Y-126509533D01*
X63092766Y-126148908D01*
X63449146Y-126148908D01*
X63809771Y-126509533D01*
X64170396Y-126148908D01*
X64526777Y-126148908D01*
X64887402Y-126509533D01*
X65248027Y-126148908D01*
X64887402Y-125788283D01*
X64526777Y-126148908D01*
X64170396Y-126148908D01*
X63809771Y-125788283D01*
X63449146Y-126148908D01*
X63092766Y-126148908D01*
X62732141Y-125788283D01*
X62371516Y-126148908D01*
X62015135Y-126148908D01*
X61654510Y-125788283D01*
X61293885Y-126148908D01*
X60937504Y-126148908D01*
X60576879Y-125788283D01*
X60216254Y-126148908D01*
X59859873Y-126148908D01*
X59499248Y-125788283D01*
X59138623Y-126148908D01*
X58782243Y-126148908D01*
X58421618Y-125788283D01*
X58060993Y-126148908D01*
X57704612Y-126148908D01*
X57343987Y-125788283D01*
X56983362Y-126148908D01*
X56134000Y-126148908D01*
X56134000Y-125521639D01*
X56533000Y-125521639D01*
X56533000Y-125698545D01*
X56805171Y-125970716D01*
X57165796Y-125610092D01*
X57522177Y-125610092D01*
X57882802Y-125970717D01*
X58243427Y-125610092D01*
X58599808Y-125610092D01*
X58960433Y-125970717D01*
X59321058Y-125610092D01*
X59677439Y-125610092D01*
X60038064Y-125970717D01*
X60398689Y-125610092D01*
X60755069Y-125610092D01*
X61115694Y-125970716D01*
X61476319Y-125610092D01*
X61832700Y-125610092D01*
X62193325Y-125970717D01*
X62553950Y-125610092D01*
X62910331Y-125610092D01*
X63270956Y-125970717D01*
X63631581Y-125610092D01*
X63987962Y-125610092D01*
X64348587Y-125970717D01*
X64709212Y-125610092D01*
X65065592Y-125610092D01*
X65426217Y-125970717D01*
X65437800Y-125959134D01*
X65437800Y-125261050D01*
X65426217Y-125249467D01*
X65065592Y-125610092D01*
X64709212Y-125610092D01*
X64348587Y-125249467D01*
X63987962Y-125610092D01*
X63631581Y-125610092D01*
X63270956Y-125249467D01*
X62910331Y-125610092D01*
X62553950Y-125610092D01*
X62193325Y-125249467D01*
X61832700Y-125610092D01*
X61476319Y-125610092D01*
X61115694Y-125249467D01*
X60755069Y-125610092D01*
X60398689Y-125610092D01*
X60038064Y-125249467D01*
X59677439Y-125610092D01*
X59321058Y-125610092D01*
X58960433Y-125249467D01*
X58599808Y-125610092D01*
X58243427Y-125610092D01*
X57882802Y-125249467D01*
X57522177Y-125610092D01*
X57165796Y-125610092D01*
X56805171Y-125249467D01*
X56533000Y-125521639D01*
X56134000Y-125521639D01*
X56134000Y-125071277D01*
X56983362Y-125071277D01*
X57343987Y-125431902D01*
X57704612Y-125071277D01*
X58060993Y-125071277D01*
X58421618Y-125431902D01*
X58782243Y-125071277D01*
X59138623Y-125071277D01*
X59499248Y-125431902D01*
X59859873Y-125071277D01*
X60216254Y-125071277D01*
X60576879Y-125431902D01*
X60937504Y-125071277D01*
X61293885Y-125071277D01*
X61654510Y-125431902D01*
X62015135Y-125071277D01*
X62371516Y-125071277D01*
X62732141Y-125431902D01*
X63092766Y-125071277D01*
X63449146Y-125071277D01*
X63809771Y-125431902D01*
X64170396Y-125071277D01*
X64526777Y-125071277D01*
X64887402Y-125431902D01*
X65248027Y-125071277D01*
X64887402Y-124710652D01*
X64526777Y-125071277D01*
X64170396Y-125071277D01*
X63809771Y-124710652D01*
X63449146Y-125071277D01*
X63092766Y-125071277D01*
X62732141Y-124710652D01*
X62371516Y-125071277D01*
X62015135Y-125071277D01*
X61654510Y-124710652D01*
X61293885Y-125071277D01*
X60937504Y-125071277D01*
X60576879Y-124710652D01*
X60216254Y-125071277D01*
X59859873Y-125071277D01*
X59499248Y-124710652D01*
X59138623Y-125071277D01*
X58782243Y-125071277D01*
X58421618Y-124710652D01*
X58060993Y-125071277D01*
X57704612Y-125071277D01*
X57343987Y-124710652D01*
X56983362Y-125071277D01*
X56134000Y-125071277D01*
X56134000Y-124444008D01*
X56533000Y-124444008D01*
X56533000Y-124620914D01*
X56805171Y-124893085D01*
X57165796Y-124532461D01*
X57522177Y-124532461D01*
X57882802Y-124893086D01*
X58243426Y-124532461D01*
X58599808Y-124532461D01*
X58960433Y-124893086D01*
X59321057Y-124532461D01*
X59677439Y-124532461D01*
X60038064Y-124893086D01*
X60398688Y-124532461D01*
X60755069Y-124532461D01*
X61115694Y-124893085D01*
X61476318Y-124532461D01*
X61832700Y-124532461D01*
X62193325Y-124893086D01*
X62553949Y-124532461D01*
X62910331Y-124532461D01*
X63270956Y-124893086D01*
X63631580Y-124532461D01*
X63987962Y-124532461D01*
X64348587Y-124893086D01*
X64709211Y-124532461D01*
X65065592Y-124532461D01*
X65426217Y-124893086D01*
X65437800Y-124881503D01*
X65437800Y-124183420D01*
X65426216Y-124171837D01*
X65065592Y-124532461D01*
X64709211Y-124532461D01*
X64348587Y-124171836D01*
X63987962Y-124532461D01*
X63631580Y-124532461D01*
X63270956Y-124171836D01*
X62910331Y-124532461D01*
X62553949Y-124532461D01*
X62193325Y-124171836D01*
X61832700Y-124532461D01*
X61476318Y-124532461D01*
X61115694Y-124171836D01*
X60755069Y-124532461D01*
X60398688Y-124532461D01*
X60038064Y-124171836D01*
X59677439Y-124532461D01*
X59321057Y-124532461D01*
X58960433Y-124171836D01*
X58599808Y-124532461D01*
X58243426Y-124532461D01*
X57882802Y-124171836D01*
X57522177Y-124532461D01*
X57165796Y-124532461D01*
X56805171Y-124171836D01*
X56533000Y-124444008D01*
X56134000Y-124444008D01*
X56134000Y-123993646D01*
X56983362Y-123993646D01*
X57343987Y-124354271D01*
X57704612Y-123993646D01*
X58060993Y-123993646D01*
X58421618Y-124354271D01*
X58782243Y-123993646D01*
X59138623Y-123993646D01*
X59499248Y-124354271D01*
X59859873Y-123993646D01*
X60216254Y-123993646D01*
X60576879Y-124354271D01*
X60937504Y-123993646D01*
X61293885Y-123993646D01*
X61654510Y-124354271D01*
X62015135Y-123993646D01*
X62371516Y-123993646D01*
X62732141Y-124354271D01*
X63092766Y-123993646D01*
X63449146Y-123993646D01*
X63809771Y-124354271D01*
X64170396Y-123993646D01*
X64526777Y-123993646D01*
X64887402Y-124354271D01*
X65248027Y-123993646D01*
X64887402Y-123633021D01*
X64526777Y-123993646D01*
X64170396Y-123993646D01*
X63809771Y-123633021D01*
X63449146Y-123993646D01*
X63092766Y-123993646D01*
X62732141Y-123633021D01*
X62371516Y-123993646D01*
X62015135Y-123993646D01*
X61654510Y-123633021D01*
X61293885Y-123993646D01*
X60937504Y-123993646D01*
X60576879Y-123633021D01*
X60216254Y-123993646D01*
X59859873Y-123993646D01*
X59499248Y-123633021D01*
X59138623Y-123993646D01*
X58782243Y-123993646D01*
X58421618Y-123633021D01*
X58060993Y-123993646D01*
X57704612Y-123993646D01*
X57343987Y-123633021D01*
X56983362Y-123993646D01*
X56134000Y-123993646D01*
X56134000Y-123366378D01*
X56533000Y-123366378D01*
X56533000Y-123543284D01*
X56805171Y-123815455D01*
X57165796Y-123454831D01*
X57522177Y-123454831D01*
X57882802Y-123815456D01*
X58243427Y-123454831D01*
X58599808Y-123454831D01*
X58960433Y-123815456D01*
X59321058Y-123454831D01*
X59321057Y-123454830D01*
X59677438Y-123454830D01*
X60038064Y-123815456D01*
X60398689Y-123454831D01*
X60398688Y-123454830D01*
X60755069Y-123454830D01*
X61115694Y-123815455D01*
X61476319Y-123454831D01*
X61476318Y-123454830D01*
X61832699Y-123454830D01*
X62193325Y-123815456D01*
X62553950Y-123454831D01*
X62910331Y-123454831D01*
X63270956Y-123815456D01*
X63631581Y-123454831D01*
X63987962Y-123454831D01*
X64348587Y-123815456D01*
X64709212Y-123454831D01*
X65065592Y-123454831D01*
X65426217Y-123815456D01*
X65437800Y-123803873D01*
X65437800Y-123105789D01*
X65426217Y-123094206D01*
X65065592Y-123454831D01*
X64709212Y-123454831D01*
X64348587Y-123094206D01*
X63987962Y-123454831D01*
X63631581Y-123454831D01*
X63270956Y-123094206D01*
X62910331Y-123454831D01*
X62553950Y-123454831D01*
X62206650Y-123107531D01*
X62161153Y-123126376D01*
X61832699Y-123454830D01*
X61476318Y-123454830D01*
X61351887Y-123330399D01*
X61345242Y-123331529D01*
X61341783Y-123332066D01*
X61341088Y-123332164D01*
X61337647Y-123332601D01*
X61330035Y-123333458D01*
X61326606Y-123333795D01*
X61325908Y-123333854D01*
X61322417Y-123334100D01*
X60971484Y-123353808D01*
X60968067Y-123353953D01*
X60967366Y-123353973D01*
X60963830Y-123354023D01*
X60956170Y-123354023D01*
X60952634Y-123353973D01*
X60951933Y-123353953D01*
X60948516Y-123353808D01*
X60861006Y-123348893D01*
X60755069Y-123454830D01*
X60398688Y-123454830D01*
X60213325Y-123269467D01*
X60213266Y-123269454D01*
X60209953Y-123268650D01*
X60209273Y-123268475D01*
X60205851Y-123267542D01*
X59941022Y-123191246D01*
X59677438Y-123454830D01*
X59321057Y-123454830D01*
X58960433Y-123094206D01*
X58599808Y-123454831D01*
X58243427Y-123454831D01*
X57882802Y-123094206D01*
X57522177Y-123454831D01*
X57165796Y-123454831D01*
X56805171Y-123094206D01*
X56533000Y-123366378D01*
X56134000Y-123366378D01*
X56134000Y-122916015D01*
X56983362Y-122916015D01*
X57343987Y-123276640D01*
X57704612Y-122916015D01*
X58060993Y-122916015D01*
X58421618Y-123276640D01*
X58782243Y-122916015D01*
X58782242Y-122916014D01*
X59138622Y-122916014D01*
X59499247Y-123276639D01*
X59681534Y-123094353D01*
X59521692Y-123028145D01*
X59518406Y-123026728D01*
X59517766Y-123026441D01*
X59514707Y-123025019D01*
X59507806Y-123021696D01*
X59504668Y-123020130D01*
X59504045Y-123019808D01*
X59500999Y-123018180D01*
X59201811Y-122852825D01*
X59138622Y-122916014D01*
X58782242Y-122916014D01*
X58421618Y-122555390D01*
X58060993Y-122916015D01*
X57704612Y-122916015D01*
X57343987Y-122555390D01*
X56983362Y-122916015D01*
X56134000Y-122916015D01*
X56134000Y-122288747D01*
X56533000Y-122288747D01*
X56533000Y-122465653D01*
X56805171Y-122737824D01*
X57165796Y-122377200D01*
X57522177Y-122377200D01*
X57882802Y-122737825D01*
X58243427Y-122377200D01*
X58243426Y-122377199D01*
X58599807Y-122377199D01*
X58960432Y-122737824D01*
X58991648Y-122706609D01*
X58887264Y-122632544D01*
X58884507Y-122630530D01*
X58883947Y-122630109D01*
X58881150Y-122627943D01*
X58875162Y-122623168D01*
X58872431Y-122620926D01*
X58871895Y-122620473D01*
X58869309Y-122618226D01*
X58607226Y-122384014D01*
X58604774Y-122381762D01*
X58604264Y-122381281D01*
X58601662Y-122378754D01*
X58599957Y-122377049D01*
X58599807Y-122377199D01*
X58243426Y-122377199D01*
X57882802Y-122016575D01*
X57522177Y-122377200D01*
X57165796Y-122377200D01*
X56805171Y-122016575D01*
X56533000Y-122288747D01*
X56134000Y-122288747D01*
X56134000Y-121838385D01*
X56983362Y-121838385D01*
X57343987Y-122199010D01*
X57704612Y-121838385D01*
X57704611Y-121838384D01*
X58060992Y-121838384D01*
X58421617Y-122199009D01*
X58431414Y-122189212D01*
X58356775Y-122105691D01*
X58354527Y-122103105D01*
X58354074Y-122102569D01*
X58351832Y-122099838D01*
X58347057Y-122093850D01*
X58344891Y-122091053D01*
X58344470Y-122090493D01*
X58342456Y-122087736D01*
X58139060Y-121801078D01*
X58137069Y-121798186D01*
X58136679Y-121797602D01*
X58134807Y-121794712D01*
X58130732Y-121788227D01*
X58128899Y-121785216D01*
X58128543Y-121784612D01*
X58126840Y-121781630D01*
X58123603Y-121775773D01*
X58060992Y-121838384D01*
X57704611Y-121838384D01*
X57343987Y-121477760D01*
X56983362Y-121838385D01*
X56134000Y-121838385D01*
X56134000Y-121211116D01*
X56533000Y-121211116D01*
X56533000Y-121388022D01*
X56805171Y-121660193D01*
X57165796Y-121299569D01*
X57165795Y-121299568D01*
X57522176Y-121299568D01*
X57882801Y-121660193D01*
X57996748Y-121546246D01*
X57956820Y-121474001D01*
X57955192Y-121470955D01*
X57954870Y-121470332D01*
X57953304Y-121467194D01*
X57949981Y-121460293D01*
X57948559Y-121457234D01*
X57948272Y-121456594D01*
X57946855Y-121453308D01*
X57812348Y-121128577D01*
X57811047Y-121125305D01*
X57810798Y-121124652D01*
X57809626Y-121121448D01*
X57807095Y-121114219D01*
X57806008Y-121110971D01*
X57805794Y-121110301D01*
X57804761Y-121106900D01*
X57784650Y-121037094D01*
X57522176Y-121299568D01*
X57165795Y-121299568D01*
X56805171Y-120938944D01*
X56533000Y-121211116D01*
X56134000Y-121211116D01*
X56134000Y-120760754D01*
X56983362Y-120760754D01*
X57343986Y-121121378D01*
X57704611Y-120760753D01*
X57343987Y-120400129D01*
X56983362Y-120760754D01*
X56134000Y-120760754D01*
X56134000Y-120133486D01*
X56533000Y-120133486D01*
X56533000Y-120310391D01*
X56805172Y-120582563D01*
X57165796Y-120221938D01*
X57522176Y-120221938D01*
X57638713Y-120338474D01*
X57626319Y-120117795D01*
X57522176Y-120221938D01*
X57165796Y-120221938D01*
X56805171Y-119861314D01*
X56533000Y-120133486D01*
X56134000Y-120133486D01*
X56134000Y-119683123D01*
X56983362Y-119683123D01*
X57343986Y-120043747D01*
X57372733Y-120015000D01*
X57893977Y-120015000D01*
X57913255Y-120358281D01*
X57913257Y-120358293D01*
X57970848Y-120697250D01*
X57970850Y-120697259D01*
X58066030Y-121027637D01*
X58197605Y-121345291D01*
X58197607Y-121345295D01*
X58363925Y-121646225D01*
X58549074Y-121907167D01*
X58562887Y-121926634D01*
X58791994Y-122183006D01*
X59048366Y-122412113D01*
X59328777Y-122611076D01*
X59535418Y-122725282D01*
X59629704Y-122777392D01*
X59629708Y-122777394D01*
X59732812Y-122820100D01*
X59947357Y-122908968D01*
X60277746Y-123004151D01*
X60616714Y-123061744D01*
X60960000Y-123081023D01*
X61303286Y-123061744D01*
X61642254Y-123004151D01*
X61661119Y-122998716D01*
X62454217Y-122998716D01*
X62732141Y-123276640D01*
X63092766Y-122916015D01*
X63449146Y-122916015D01*
X63809771Y-123276640D01*
X64170396Y-122916015D01*
X64526777Y-122916015D01*
X64887402Y-123276640D01*
X65248027Y-122916015D01*
X64887402Y-122555390D01*
X64526777Y-122916015D01*
X64170396Y-122916015D01*
X63809771Y-122555390D01*
X63449146Y-122916015D01*
X63092766Y-122916015D01*
X62902033Y-122725282D01*
X62746078Y-122835940D01*
X62743186Y-122837931D01*
X62742602Y-122838321D01*
X62739712Y-122840193D01*
X62733227Y-122844268D01*
X62730216Y-122846101D01*
X62729612Y-122846457D01*
X62726630Y-122848160D01*
X62454217Y-122998716D01*
X61661119Y-122998716D01*
X61972643Y-122908968D01*
X62290298Y-122777391D01*
X62591223Y-122611076D01*
X62648101Y-122570719D01*
X63103850Y-122570719D01*
X63270956Y-122737825D01*
X63631581Y-122377200D01*
X63987962Y-122377200D01*
X64348587Y-122737825D01*
X64709212Y-122377200D01*
X65065592Y-122377200D01*
X65426217Y-122737825D01*
X65437800Y-122726242D01*
X65437800Y-122028158D01*
X65426217Y-122016575D01*
X65065592Y-122377200D01*
X64709212Y-122377200D01*
X64348587Y-122016575D01*
X63987962Y-122377200D01*
X63631581Y-122377200D01*
X63467352Y-122212971D01*
X63329014Y-122367774D01*
X63326762Y-122370226D01*
X63326281Y-122370736D01*
X63323754Y-122373338D01*
X63318338Y-122378754D01*
X63315736Y-122381281D01*
X63315226Y-122381762D01*
X63312774Y-122384014D01*
X63103850Y-122570719D01*
X62648101Y-122570719D01*
X62871634Y-122412113D01*
X63128006Y-122183006D01*
X63276372Y-122016984D01*
X63627745Y-122016984D01*
X63809771Y-122199010D01*
X64170396Y-121838385D01*
X64526777Y-121838385D01*
X64887402Y-122199010D01*
X65248027Y-121838385D01*
X64887402Y-121477760D01*
X64526777Y-121838385D01*
X64170396Y-121838385D01*
X63907235Y-121575224D01*
X63793160Y-121781630D01*
X63791457Y-121784612D01*
X63791101Y-121785216D01*
X63789268Y-121788227D01*
X63785193Y-121794712D01*
X63783321Y-121797602D01*
X63782931Y-121798186D01*
X63780940Y-121801078D01*
X63627745Y-122016984D01*
X63276372Y-122016984D01*
X63357113Y-121926634D01*
X63556076Y-121646223D01*
X63722391Y-121345298D01*
X63727021Y-121334120D01*
X64022513Y-121334120D01*
X64348587Y-121660194D01*
X64709212Y-121299569D01*
X65065592Y-121299569D01*
X65426217Y-121660194D01*
X65437800Y-121648611D01*
X65437800Y-120950527D01*
X65426217Y-120938944D01*
X65065592Y-121299569D01*
X64709212Y-121299569D01*
X64348586Y-120938943D01*
X64071375Y-121216154D01*
X64022513Y-121334120D01*
X63727021Y-121334120D01*
X63853968Y-121027643D01*
X63930857Y-120760754D01*
X64526777Y-120760754D01*
X64887402Y-121121379D01*
X65248027Y-120760754D01*
X64887402Y-120400129D01*
X64526777Y-120760754D01*
X63930857Y-120760754D01*
X63949151Y-120697254D01*
X63983602Y-120494490D01*
X64260514Y-120494490D01*
X64348587Y-120582563D01*
X64709211Y-120221938D01*
X65065592Y-120221938D01*
X65426216Y-120582563D01*
X65437800Y-120570980D01*
X65437800Y-119872897D01*
X65426217Y-119861314D01*
X65065592Y-120221938D01*
X64709211Y-120221938D01*
X64348586Y-119861313D01*
X64293893Y-119916006D01*
X64298808Y-120003516D01*
X64298953Y-120006933D01*
X64298973Y-120007634D01*
X64299023Y-120011170D01*
X64299023Y-120018830D01*
X64298973Y-120022366D01*
X64298953Y-120023067D01*
X64298808Y-120026484D01*
X64279100Y-120377417D01*
X64278854Y-120380908D01*
X64278795Y-120381606D01*
X64278458Y-120385035D01*
X64277601Y-120392647D01*
X64277164Y-120396088D01*
X64277066Y-120396783D01*
X64276529Y-120400240D01*
X64260514Y-120494490D01*
X63983602Y-120494490D01*
X64006744Y-120358286D01*
X64026023Y-120015000D01*
X64007385Y-119683123D01*
X64526777Y-119683123D01*
X64887402Y-120043748D01*
X65248027Y-119683123D01*
X64887402Y-119322498D01*
X64526777Y-119683123D01*
X64007385Y-119683123D01*
X64006744Y-119671714D01*
X63949151Y-119332746D01*
X63853968Y-119002357D01*
X63851344Y-118996022D01*
X64136246Y-118996022D01*
X64212542Y-119260851D01*
X64213475Y-119264273D01*
X64213650Y-119264953D01*
X64214454Y-119268266D01*
X64216158Y-119275732D01*
X64216879Y-119279108D01*
X64217016Y-119279796D01*
X64217652Y-119283241D01*
X64236228Y-119392574D01*
X64348587Y-119504933D01*
X64709212Y-119144308D01*
X65065592Y-119144308D01*
X65426217Y-119504933D01*
X65437800Y-119493350D01*
X65437800Y-118795266D01*
X65426217Y-118783683D01*
X65065592Y-119144308D01*
X64709212Y-119144308D01*
X64348586Y-118783682D01*
X64136246Y-118996022D01*
X63851344Y-118996022D01*
X63728003Y-118698250D01*
X63722394Y-118684708D01*
X63722392Y-118684704D01*
X63660526Y-118572766D01*
X63556076Y-118383777D01*
X63465989Y-118256812D01*
X63797825Y-118256812D01*
X63963180Y-118555999D01*
X63964808Y-118559045D01*
X63965130Y-118559668D01*
X63966696Y-118562806D01*
X63970019Y-118569707D01*
X63971441Y-118572766D01*
X63971728Y-118573406D01*
X63973145Y-118576692D01*
X64039353Y-118736534D01*
X64170394Y-118605492D01*
X64526777Y-118605492D01*
X64887402Y-118966117D01*
X65248026Y-118605492D01*
X64887402Y-118244867D01*
X64526777Y-118605492D01*
X64170394Y-118605492D01*
X64170395Y-118605491D01*
X63809770Y-118244867D01*
X63797825Y-118256812D01*
X63465989Y-118256812D01*
X63357113Y-118103366D01*
X63324326Y-118066677D01*
X63987962Y-118066677D01*
X64348587Y-118427302D01*
X64709212Y-118066677D01*
X65065592Y-118066677D01*
X65426217Y-118427302D01*
X65437800Y-118415719D01*
X65437800Y-117717635D01*
X65426217Y-117706052D01*
X65065592Y-118066677D01*
X64709212Y-118066677D01*
X64348587Y-117706052D01*
X63987962Y-118066677D01*
X63324326Y-118066677D01*
X63128006Y-117846994D01*
X62871634Y-117617887D01*
X62871633Y-117617886D01*
X62744757Y-117527862D01*
X63449146Y-117527862D01*
X63809771Y-117888487D01*
X64170396Y-117527862D01*
X64526777Y-117527862D01*
X64887402Y-117888487D01*
X65248027Y-117527862D01*
X64887402Y-117167237D01*
X64526777Y-117527862D01*
X64170396Y-117527862D01*
X63809771Y-117167237D01*
X63449146Y-117527862D01*
X62744757Y-117527862D01*
X62591225Y-117418925D01*
X62290295Y-117252607D01*
X62290291Y-117252605D01*
X62043792Y-117150503D01*
X61972643Y-117121032D01*
X61972639Y-117121030D01*
X61972637Y-117121030D01*
X61642259Y-117025850D01*
X61642250Y-117025848D01*
X61303293Y-116968257D01*
X61303281Y-116968255D01*
X60960000Y-116948977D01*
X60616718Y-116968255D01*
X60616706Y-116968257D01*
X60277749Y-117025848D01*
X60277740Y-117025850D01*
X59947362Y-117121030D01*
X59629708Y-117252605D01*
X59629704Y-117252607D01*
X59328774Y-117418925D01*
X59048366Y-117617886D01*
X58791994Y-117846994D01*
X58562886Y-118103366D01*
X58363925Y-118383774D01*
X58197607Y-118684704D01*
X58197605Y-118684708D01*
X58066030Y-119002362D01*
X57970850Y-119332740D01*
X57970848Y-119332749D01*
X57913257Y-119671706D01*
X57913255Y-119671718D01*
X57893977Y-120015000D01*
X57372733Y-120015000D01*
X57635291Y-119752442D01*
X57640900Y-119652583D01*
X57641146Y-119649092D01*
X57641205Y-119648394D01*
X57641542Y-119644965D01*
X57642399Y-119637353D01*
X57642836Y-119633912D01*
X57642934Y-119633217D01*
X57643471Y-119629760D01*
X57644600Y-119623111D01*
X57343987Y-119322498D01*
X56983362Y-119683123D01*
X56134000Y-119683123D01*
X56134000Y-119055855D01*
X56533000Y-119055855D01*
X56533000Y-119232761D01*
X56805171Y-119504932D01*
X57165796Y-119144308D01*
X57522177Y-119144308D01*
X57696358Y-119318489D01*
X57702348Y-119283241D01*
X57702984Y-119279796D01*
X57703121Y-119279108D01*
X57703842Y-119275732D01*
X57705546Y-119268266D01*
X57706350Y-119264953D01*
X57706525Y-119264273D01*
X57707458Y-119260851D01*
X57804761Y-118923100D01*
X57805794Y-118919699D01*
X57806008Y-118919029D01*
X57807095Y-118915781D01*
X57809626Y-118908552D01*
X57810798Y-118905348D01*
X57811047Y-118904695D01*
X57812348Y-118901423D01*
X57845783Y-118820701D01*
X57522177Y-119144308D01*
X57165796Y-119144308D01*
X56805171Y-118783683D01*
X56533000Y-119055855D01*
X56134000Y-119055855D01*
X56134000Y-118605492D01*
X56983362Y-118605492D01*
X57343987Y-118966117D01*
X57704611Y-118605492D01*
X57343987Y-118244867D01*
X56983362Y-118605492D01*
X56134000Y-118605492D01*
X56134000Y-117978224D01*
X56533000Y-117978224D01*
X56533000Y-118155130D01*
X56805171Y-118427301D01*
X57165796Y-118066677D01*
X57522177Y-118066677D01*
X57882801Y-118427301D01*
X58243426Y-118066676D01*
X57882802Y-117706052D01*
X57522177Y-118066677D01*
X57165796Y-118066677D01*
X56805171Y-117706052D01*
X56533000Y-117978224D01*
X56134000Y-117978224D01*
X56134000Y-117527862D01*
X56983362Y-117527862D01*
X57343987Y-117888487D01*
X57704612Y-117527862D01*
X58060993Y-117527862D01*
X58404280Y-117871149D01*
X58590986Y-117662226D01*
X58593238Y-117659774D01*
X58593719Y-117659264D01*
X58596246Y-117656662D01*
X58601662Y-117651246D01*
X58604264Y-117648719D01*
X58604774Y-117648238D01*
X58607226Y-117645987D01*
X58762028Y-117507647D01*
X58421618Y-117167237D01*
X58060993Y-117527862D01*
X57704612Y-117527862D01*
X57343987Y-117167237D01*
X56983362Y-117527862D01*
X56134000Y-117527862D01*
X56134000Y-116900593D01*
X56533000Y-116900593D01*
X56533000Y-117077499D01*
X56805171Y-117349670D01*
X57165796Y-116989046D01*
X57522177Y-116989046D01*
X57882802Y-117349671D01*
X58243427Y-116989046D01*
X58599808Y-116989046D01*
X58958015Y-117347253D01*
X58974656Y-117335446D01*
X59321057Y-116989045D01*
X59232795Y-116900783D01*
X59765701Y-116900783D01*
X59846423Y-116867348D01*
X59849695Y-116866047D01*
X59850348Y-116865798D01*
X59853552Y-116864626D01*
X59860781Y-116862095D01*
X59864029Y-116861008D01*
X59864699Y-116860794D01*
X59868100Y-116859761D01*
X59937907Y-116839650D01*
X61982094Y-116839650D01*
X62051900Y-116859761D01*
X62055301Y-116860794D01*
X62055971Y-116861008D01*
X62059219Y-116862095D01*
X62066448Y-116864626D01*
X62069652Y-116865798D01*
X62070305Y-116866047D01*
X62073577Y-116867348D01*
X62398308Y-117001855D01*
X62401594Y-117003272D01*
X62402234Y-117003559D01*
X62405293Y-117004981D01*
X62412194Y-117008304D01*
X62415332Y-117009870D01*
X62415955Y-117010192D01*
X62419001Y-117011820D01*
X62491246Y-117051748D01*
X62553948Y-116989046D01*
X62910331Y-116989046D01*
X63270956Y-117349671D01*
X63631581Y-116989046D01*
X63987962Y-116989046D01*
X64348587Y-117349671D01*
X64709212Y-116989046D01*
X65065592Y-116989046D01*
X65426217Y-117349671D01*
X65437800Y-117338088D01*
X65437800Y-116640004D01*
X65426217Y-116628421D01*
X65065592Y-116989046D01*
X64709212Y-116989046D01*
X64348587Y-116628421D01*
X63987962Y-116989046D01*
X63631581Y-116989046D01*
X63270956Y-116628421D01*
X62910331Y-116989046D01*
X62553948Y-116989046D01*
X62553949Y-116989045D01*
X62193324Y-116628420D01*
X61982094Y-116839650D01*
X59937907Y-116839650D01*
X60179649Y-116770006D01*
X60038064Y-116628421D01*
X59765701Y-116900783D01*
X59232795Y-116900783D01*
X58960433Y-116628421D01*
X58599808Y-116989046D01*
X58243427Y-116989046D01*
X57882802Y-116628421D01*
X57522177Y-116989046D01*
X57165796Y-116989046D01*
X56805171Y-116628421D01*
X56533000Y-116900593D01*
X56134000Y-116900593D01*
X56134000Y-116450231D01*
X56983362Y-116450231D01*
X57343987Y-116810856D01*
X57704612Y-116450231D01*
X58060993Y-116450231D01*
X58421618Y-116810856D01*
X58782243Y-116450231D01*
X59138623Y-116450231D01*
X59499248Y-116810856D01*
X59859873Y-116450231D01*
X60216254Y-116450231D01*
X60480507Y-116714484D01*
X60574761Y-116698471D01*
X60578217Y-116697934D01*
X60578912Y-116697836D01*
X60582353Y-116697399D01*
X60589965Y-116696542D01*
X60593394Y-116696205D01*
X60594092Y-116696146D01*
X60597583Y-116695900D01*
X60697442Y-116690291D01*
X60937502Y-116450231D01*
X61293885Y-116450231D01*
X61582424Y-116738770D01*
X61691760Y-116757348D01*
X61695204Y-116757984D01*
X61695892Y-116758121D01*
X61699268Y-116758842D01*
X61705174Y-116760190D01*
X62015133Y-116450231D01*
X62371516Y-116450231D01*
X62732141Y-116810856D01*
X63092766Y-116450231D01*
X63449146Y-116450231D01*
X63809771Y-116810856D01*
X64170396Y-116450231D01*
X64526777Y-116450231D01*
X64887402Y-116810856D01*
X65248027Y-116450231D01*
X64995396Y-116197600D01*
X64779408Y-116197600D01*
X64526777Y-116450231D01*
X64170396Y-116450231D01*
X63917765Y-116197600D01*
X63701777Y-116197600D01*
X63449146Y-116450231D01*
X63092766Y-116450231D01*
X62840135Y-116197600D01*
X62624147Y-116197600D01*
X62371516Y-116450231D01*
X62015133Y-116450231D01*
X62015134Y-116450230D01*
X61762504Y-116197600D01*
X61546516Y-116197600D01*
X61293885Y-116450231D01*
X60937502Y-116450231D01*
X60937503Y-116450230D01*
X60684873Y-116197600D01*
X60468885Y-116197600D01*
X60216254Y-116450231D01*
X59859873Y-116450231D01*
X59607242Y-116197600D01*
X59391254Y-116197600D01*
X59138623Y-116450231D01*
X58782243Y-116450231D01*
X58529612Y-116197600D01*
X58313624Y-116197600D01*
X58060993Y-116450231D01*
X57704612Y-116450231D01*
X57451981Y-116197600D01*
X57235993Y-116197600D01*
X56983362Y-116450231D01*
X56134000Y-116450231D01*
X56134000Y-115922600D01*
X56153685Y-115855561D01*
X56206489Y-115809806D01*
X56258000Y-115798600D01*
X65712800Y-115798600D01*
X65779839Y-115818285D01*
G37*
G04 #@! TD.AperFunction*
G04 #@! TA.AperFunction,Conductor*
G36*
X116579839Y-115869085D02*
G01*
X116625594Y-115921889D01*
X116636800Y-115973400D01*
X116636800Y-128882600D01*
X116617115Y-128949639D01*
X116564311Y-128995394D01*
X116512800Y-129006600D01*
X107058000Y-129006600D01*
X106990961Y-128986915D01*
X106945206Y-128934111D01*
X106934000Y-128882600D01*
X106934000Y-128354969D01*
X107783361Y-128354969D01*
X108035992Y-128607600D01*
X108251980Y-128607600D01*
X108504611Y-128354969D01*
X108860992Y-128354969D01*
X109113623Y-128607600D01*
X109329611Y-128607600D01*
X109582242Y-128354969D01*
X109938623Y-128354969D01*
X110191254Y-128607600D01*
X110407242Y-128607600D01*
X110659873Y-128354969D01*
X111016253Y-128354969D01*
X111268884Y-128607600D01*
X111484872Y-128607600D01*
X111737503Y-128354969D01*
X112093884Y-128354969D01*
X112346515Y-128607600D01*
X112562503Y-128607600D01*
X112815134Y-128354969D01*
X113171515Y-128354969D01*
X113424146Y-128607600D01*
X113640134Y-128607600D01*
X113892765Y-128354969D01*
X114249146Y-128354969D01*
X114501777Y-128607600D01*
X114717765Y-128607600D01*
X114970396Y-128354969D01*
X115326776Y-128354969D01*
X115579407Y-128607600D01*
X115795395Y-128607600D01*
X116048026Y-128354969D01*
X115687401Y-127994344D01*
X115326776Y-128354969D01*
X114970396Y-128354969D01*
X114609771Y-127994344D01*
X114249146Y-128354969D01*
X113892765Y-128354969D01*
X113532140Y-127994344D01*
X113171515Y-128354969D01*
X112815134Y-128354969D01*
X112454509Y-127994344D01*
X112093884Y-128354969D01*
X111737503Y-128354969D01*
X111376878Y-127994344D01*
X111016253Y-128354969D01*
X110659873Y-128354969D01*
X110299248Y-127994344D01*
X109938623Y-128354969D01*
X109582242Y-128354969D01*
X109221617Y-127994344D01*
X108860992Y-128354969D01*
X108504611Y-128354969D01*
X108143986Y-127994344D01*
X107783361Y-128354969D01*
X106934000Y-128354969D01*
X106934000Y-127727700D01*
X107333000Y-127727700D01*
X107333000Y-127904608D01*
X107605171Y-128176779D01*
X107965796Y-127816154D01*
X108322177Y-127816154D01*
X108682802Y-128176779D01*
X109043427Y-127816154D01*
X109399807Y-127816154D01*
X109760432Y-128176779D01*
X110121057Y-127816154D01*
X110477438Y-127816154D01*
X110838063Y-128176779D01*
X111198688Y-127816154D01*
X111555069Y-127816154D01*
X111915694Y-128176779D01*
X112276319Y-127816154D01*
X112632700Y-127816154D01*
X112993324Y-128176778D01*
X113353949Y-127816154D01*
X113710330Y-127816154D01*
X114070955Y-128176779D01*
X114431580Y-127816154D01*
X114787961Y-127816154D01*
X115148586Y-128176779D01*
X115509211Y-127816154D01*
X115865592Y-127816154D01*
X116226217Y-128176779D01*
X116237800Y-128165196D01*
X116237800Y-127467112D01*
X116226217Y-127455529D01*
X115865592Y-127816154D01*
X115509211Y-127816154D01*
X115148586Y-127455529D01*
X114787961Y-127816154D01*
X114431580Y-127816154D01*
X114070955Y-127455529D01*
X113710330Y-127816154D01*
X113353949Y-127816154D01*
X112993324Y-127455529D01*
X112632700Y-127816154D01*
X112276319Y-127816154D01*
X111915694Y-127455529D01*
X111555069Y-127816154D01*
X111198688Y-127816154D01*
X110838063Y-127455529D01*
X110477438Y-127816154D01*
X110121057Y-127816154D01*
X109760432Y-127455529D01*
X109399807Y-127816154D01*
X109043427Y-127816154D01*
X108682802Y-127455529D01*
X108322177Y-127816154D01*
X107965796Y-127816154D01*
X107605171Y-127455529D01*
X107333000Y-127727700D01*
X106934000Y-127727700D01*
X106934000Y-127277338D01*
X107783361Y-127277338D01*
X108143986Y-127637963D01*
X108504611Y-127277338D01*
X108860992Y-127277338D01*
X109221617Y-127637963D01*
X109582242Y-127277338D01*
X109938623Y-127277338D01*
X110299248Y-127637963D01*
X110659873Y-127277338D01*
X111016253Y-127277338D01*
X111376878Y-127637963D01*
X111737503Y-127277338D01*
X112093884Y-127277338D01*
X112454509Y-127637963D01*
X112815134Y-127277338D01*
X113171515Y-127277338D01*
X113532140Y-127637963D01*
X113892765Y-127277338D01*
X114249146Y-127277338D01*
X114609771Y-127637963D01*
X114970396Y-127277338D01*
X115326776Y-127277338D01*
X115687401Y-127637963D01*
X116048026Y-127277338D01*
X115687401Y-126916713D01*
X115326776Y-127277338D01*
X114970396Y-127277338D01*
X114609771Y-126916713D01*
X114249146Y-127277338D01*
X113892765Y-127277338D01*
X113532140Y-126916713D01*
X113171515Y-127277338D01*
X112815134Y-127277338D01*
X112454509Y-126916713D01*
X112093884Y-127277338D01*
X111737503Y-127277338D01*
X111376878Y-126916713D01*
X111016253Y-127277338D01*
X110659873Y-127277338D01*
X110299248Y-126916713D01*
X109938623Y-127277338D01*
X109582242Y-127277338D01*
X109221617Y-126916713D01*
X108860992Y-127277338D01*
X108504611Y-127277338D01*
X108143986Y-126916713D01*
X107783361Y-127277338D01*
X106934000Y-127277338D01*
X106934000Y-126650069D01*
X107333000Y-126650069D01*
X107333000Y-126826977D01*
X107605171Y-127099148D01*
X107965796Y-126738523D01*
X108322177Y-126738523D01*
X108682802Y-127099148D01*
X109043427Y-126738523D01*
X109399807Y-126738523D01*
X109760432Y-127099148D01*
X110121057Y-126738523D01*
X110477438Y-126738523D01*
X110838063Y-127099148D01*
X111198688Y-126738523D01*
X111555069Y-126738523D01*
X111915694Y-127099148D01*
X112276319Y-126738523D01*
X112632700Y-126738523D01*
X112993324Y-127099147D01*
X113353949Y-126738523D01*
X113710330Y-126738523D01*
X114070955Y-127099148D01*
X114431580Y-126738523D01*
X114787961Y-126738523D01*
X115148586Y-127099148D01*
X115509211Y-126738523D01*
X115865592Y-126738523D01*
X116226217Y-127099148D01*
X116237800Y-127087565D01*
X116237800Y-126389481D01*
X116226217Y-126377898D01*
X115865592Y-126738523D01*
X115509211Y-126738523D01*
X115148586Y-126377898D01*
X114787961Y-126738523D01*
X114431580Y-126738523D01*
X114070955Y-126377898D01*
X113710330Y-126738523D01*
X113353949Y-126738523D01*
X112993324Y-126377898D01*
X112632700Y-126738523D01*
X112276319Y-126738523D01*
X111915694Y-126377898D01*
X111555069Y-126738523D01*
X111198688Y-126738523D01*
X110838063Y-126377898D01*
X110477438Y-126738523D01*
X110121057Y-126738523D01*
X109760432Y-126377898D01*
X109399807Y-126738523D01*
X109043427Y-126738523D01*
X108682802Y-126377898D01*
X108322177Y-126738523D01*
X107965796Y-126738523D01*
X107605171Y-126377898D01*
X107333000Y-126650069D01*
X106934000Y-126650069D01*
X106934000Y-126199708D01*
X107783361Y-126199708D01*
X108143986Y-126560333D01*
X108504611Y-126199708D01*
X108860992Y-126199708D01*
X109221617Y-126560333D01*
X109582242Y-126199708D01*
X109938623Y-126199708D01*
X110299248Y-126560333D01*
X110659873Y-126199708D01*
X111016253Y-126199708D01*
X111376878Y-126560333D01*
X111737503Y-126199708D01*
X112093884Y-126199708D01*
X112454509Y-126560333D01*
X112815134Y-126199708D01*
X113171515Y-126199708D01*
X113532140Y-126560333D01*
X113892765Y-126199708D01*
X114249146Y-126199708D01*
X114609771Y-126560333D01*
X114970396Y-126199708D01*
X115326776Y-126199708D01*
X115687401Y-126560333D01*
X116048026Y-126199708D01*
X115687401Y-125839083D01*
X115326776Y-126199708D01*
X114970396Y-126199708D01*
X114609771Y-125839083D01*
X114249146Y-126199708D01*
X113892765Y-126199708D01*
X113532140Y-125839083D01*
X113171515Y-126199708D01*
X112815134Y-126199708D01*
X112454509Y-125839083D01*
X112093884Y-126199708D01*
X111737503Y-126199708D01*
X111376878Y-125839083D01*
X111016253Y-126199708D01*
X110659873Y-126199708D01*
X110299248Y-125839083D01*
X109938623Y-126199708D01*
X109582242Y-126199708D01*
X109221617Y-125839083D01*
X108860992Y-126199708D01*
X108504611Y-126199708D01*
X108143986Y-125839083D01*
X107783361Y-126199708D01*
X106934000Y-126199708D01*
X106934000Y-125572438D01*
X107333000Y-125572438D01*
X107333000Y-125749346D01*
X107605171Y-126021517D01*
X107965796Y-125660892D01*
X108322177Y-125660892D01*
X108682802Y-126021517D01*
X109043427Y-125660892D01*
X109399807Y-125660892D01*
X109760432Y-126021517D01*
X110121057Y-125660892D01*
X110477438Y-125660892D01*
X110838063Y-126021517D01*
X111198688Y-125660892D01*
X111555069Y-125660892D01*
X111915694Y-126021517D01*
X112276319Y-125660892D01*
X112632700Y-125660892D01*
X112993324Y-126021516D01*
X113353949Y-125660892D01*
X113710330Y-125660892D01*
X114070955Y-126021517D01*
X114431580Y-125660892D01*
X114787961Y-125660892D01*
X115148586Y-126021517D01*
X115509211Y-125660892D01*
X115865592Y-125660892D01*
X116226217Y-126021517D01*
X116237800Y-126009934D01*
X116237800Y-125311850D01*
X116226217Y-125300267D01*
X115865592Y-125660892D01*
X115509211Y-125660892D01*
X115148586Y-125300267D01*
X114787961Y-125660892D01*
X114431580Y-125660892D01*
X114070955Y-125300267D01*
X113710330Y-125660892D01*
X113353949Y-125660892D01*
X112993324Y-125300267D01*
X112632700Y-125660892D01*
X112276319Y-125660892D01*
X111915694Y-125300267D01*
X111555069Y-125660892D01*
X111198688Y-125660892D01*
X110838063Y-125300267D01*
X110477438Y-125660892D01*
X110121057Y-125660892D01*
X109760432Y-125300267D01*
X109399807Y-125660892D01*
X109043427Y-125660892D01*
X108682802Y-125300267D01*
X108322177Y-125660892D01*
X107965796Y-125660892D01*
X107605171Y-125300267D01*
X107333000Y-125572438D01*
X106934000Y-125572438D01*
X106934000Y-125122077D01*
X107783361Y-125122077D01*
X108143986Y-125482702D01*
X108504611Y-125122077D01*
X108860992Y-125122077D01*
X109221617Y-125482702D01*
X109582242Y-125122077D01*
X109938623Y-125122077D01*
X110299248Y-125482702D01*
X110659873Y-125122077D01*
X111016253Y-125122077D01*
X111376878Y-125482702D01*
X111737503Y-125122077D01*
X112093884Y-125122077D01*
X112454509Y-125482702D01*
X112815134Y-125122077D01*
X113171515Y-125122077D01*
X113532140Y-125482702D01*
X113892765Y-125122077D01*
X114249146Y-125122077D01*
X114609771Y-125482702D01*
X114970396Y-125122077D01*
X115326776Y-125122077D01*
X115687401Y-125482702D01*
X116048026Y-125122077D01*
X115687401Y-124761452D01*
X115326776Y-125122077D01*
X114970396Y-125122077D01*
X114609771Y-124761452D01*
X114249146Y-125122077D01*
X113892765Y-125122077D01*
X113532140Y-124761452D01*
X113171515Y-125122077D01*
X112815134Y-125122077D01*
X112454509Y-124761452D01*
X112093884Y-125122077D01*
X111737503Y-125122077D01*
X111376878Y-124761452D01*
X111016253Y-125122077D01*
X110659873Y-125122077D01*
X110299248Y-124761452D01*
X109938623Y-125122077D01*
X109582242Y-125122077D01*
X109221617Y-124761452D01*
X108860992Y-125122077D01*
X108504611Y-125122077D01*
X108143986Y-124761452D01*
X107783361Y-125122077D01*
X106934000Y-125122077D01*
X106934000Y-124494807D01*
X107333000Y-124494807D01*
X107333000Y-124671715D01*
X107605171Y-124943886D01*
X107965795Y-124583261D01*
X108322177Y-124583261D01*
X108682802Y-124943886D01*
X109043426Y-124583261D01*
X109399807Y-124583261D01*
X109760432Y-124943886D01*
X110121056Y-124583261D01*
X110477438Y-124583261D01*
X110838063Y-124943886D01*
X111198687Y-124583261D01*
X111555069Y-124583261D01*
X111915694Y-124943886D01*
X112276318Y-124583261D01*
X112632700Y-124583261D01*
X112993324Y-124943885D01*
X113353949Y-124583261D01*
X113710330Y-124583261D01*
X114070955Y-124943886D01*
X114431579Y-124583261D01*
X114787961Y-124583261D01*
X115148586Y-124943886D01*
X115509210Y-124583261D01*
X115865592Y-124583261D01*
X116226217Y-124943886D01*
X116237800Y-124932303D01*
X116237800Y-124234220D01*
X116226216Y-124222637D01*
X115865592Y-124583261D01*
X115509210Y-124583261D01*
X115148586Y-124222636D01*
X114787961Y-124583261D01*
X114431579Y-124583261D01*
X114070955Y-124222636D01*
X113710330Y-124583261D01*
X113353949Y-124583261D01*
X112993324Y-124222636D01*
X112632700Y-124583261D01*
X112276318Y-124583261D01*
X111915694Y-124222636D01*
X111555069Y-124583261D01*
X111198687Y-124583261D01*
X110838063Y-124222636D01*
X110477438Y-124583261D01*
X110121056Y-124583261D01*
X109760432Y-124222636D01*
X109399807Y-124583261D01*
X109043426Y-124583261D01*
X108682802Y-124222636D01*
X108322177Y-124583261D01*
X107965795Y-124583261D01*
X107605170Y-124222636D01*
X107333000Y-124494807D01*
X106934000Y-124494807D01*
X106934000Y-124044446D01*
X107783361Y-124044446D01*
X108143986Y-124405071D01*
X108504611Y-124044446D01*
X108860992Y-124044446D01*
X109221617Y-124405071D01*
X109582242Y-124044446D01*
X109938623Y-124044446D01*
X110299248Y-124405071D01*
X110659873Y-124044446D01*
X111016253Y-124044446D01*
X111376878Y-124405071D01*
X111737503Y-124044446D01*
X112093884Y-124044446D01*
X112454509Y-124405071D01*
X112815134Y-124044446D01*
X113171515Y-124044446D01*
X113532140Y-124405071D01*
X113892765Y-124044446D01*
X114249146Y-124044446D01*
X114609771Y-124405071D01*
X114970396Y-124044446D01*
X115326776Y-124044446D01*
X115687401Y-124405071D01*
X116048026Y-124044446D01*
X115687401Y-123683821D01*
X115326776Y-124044446D01*
X114970396Y-124044446D01*
X114609771Y-123683821D01*
X114249146Y-124044446D01*
X113892765Y-124044446D01*
X113532140Y-123683821D01*
X113171515Y-124044446D01*
X112815134Y-124044446D01*
X112454509Y-123683821D01*
X112093884Y-124044446D01*
X111737503Y-124044446D01*
X111376878Y-123683821D01*
X111016253Y-124044446D01*
X110659873Y-124044446D01*
X110299248Y-123683821D01*
X109938623Y-124044446D01*
X109582242Y-124044446D01*
X109221617Y-123683821D01*
X108860992Y-124044446D01*
X108504611Y-124044446D01*
X108143986Y-123683821D01*
X107783361Y-124044446D01*
X106934000Y-124044446D01*
X106934000Y-123417177D01*
X107333000Y-123417177D01*
X107333000Y-123594085D01*
X107605171Y-123866256D01*
X107965796Y-123505631D01*
X108322177Y-123505631D01*
X108682802Y-123866256D01*
X109043427Y-123505631D01*
X109399807Y-123505631D01*
X109760432Y-123866256D01*
X110121057Y-123505631D01*
X110121056Y-123505630D01*
X110477437Y-123505630D01*
X110838063Y-123866256D01*
X111198688Y-123505631D01*
X111198687Y-123505630D01*
X111555068Y-123505630D01*
X111915694Y-123866256D01*
X112276319Y-123505631D01*
X112276318Y-123505630D01*
X112632699Y-123505630D01*
X112993324Y-123866255D01*
X113353948Y-123505631D01*
X113710330Y-123505631D01*
X114070955Y-123866256D01*
X114431580Y-123505631D01*
X114787961Y-123505631D01*
X115148586Y-123866256D01*
X115509211Y-123505631D01*
X115865592Y-123505631D01*
X116226217Y-123866256D01*
X116237800Y-123854673D01*
X116237800Y-123156589D01*
X116226217Y-123145006D01*
X115865592Y-123505631D01*
X115509211Y-123505631D01*
X115148586Y-123145006D01*
X114787961Y-123505631D01*
X114431580Y-123505631D01*
X114070955Y-123145006D01*
X113710330Y-123505631D01*
X113353948Y-123505631D01*
X113353949Y-123505630D01*
X112993324Y-123145005D01*
X112632699Y-123505630D01*
X112276318Y-123505630D01*
X112105725Y-123335037D01*
X111771484Y-123353808D01*
X111768067Y-123353953D01*
X111767366Y-123353973D01*
X111763830Y-123354023D01*
X111756170Y-123354023D01*
X111752634Y-123353973D01*
X111751933Y-123353953D01*
X111748516Y-123353808D01*
X111709104Y-123351594D01*
X111555068Y-123505630D01*
X111198687Y-123505630D01*
X110942286Y-123249229D01*
X110780459Y-123202608D01*
X110477437Y-123505630D01*
X110121056Y-123505630D01*
X109760432Y-123145006D01*
X109399807Y-123505631D01*
X109043427Y-123505631D01*
X108682802Y-123145006D01*
X108322177Y-123505631D01*
X107965796Y-123505631D01*
X107605171Y-123145006D01*
X107333000Y-123417177D01*
X106934000Y-123417177D01*
X106934000Y-122966815D01*
X107783361Y-122966815D01*
X108143986Y-123327440D01*
X108504611Y-122966815D01*
X108860992Y-122966815D01*
X109221617Y-123327440D01*
X109582242Y-122966815D01*
X109582241Y-122966814D01*
X109938622Y-122966814D01*
X110299247Y-123327439D01*
X110517455Y-123109232D01*
X110321692Y-123028145D01*
X110318406Y-123026728D01*
X110317766Y-123026441D01*
X110314707Y-123025019D01*
X110307806Y-123021696D01*
X110304668Y-123020130D01*
X110304045Y-123019808D01*
X110300999Y-123018180D01*
X110034529Y-122870907D01*
X109938622Y-122966814D01*
X109582241Y-122966814D01*
X109221617Y-122606190D01*
X108860992Y-122966815D01*
X108504611Y-122966815D01*
X108143986Y-122606190D01*
X107783361Y-122966815D01*
X106934000Y-122966815D01*
X106934000Y-122339546D01*
X107333000Y-122339546D01*
X107333000Y-122516454D01*
X107605171Y-122788625D01*
X107965796Y-122428000D01*
X108322177Y-122428000D01*
X108682802Y-122788625D01*
X109043427Y-122428000D01*
X109043426Y-122427999D01*
X109399806Y-122427999D01*
X109760431Y-122788624D01*
X109821363Y-122727693D01*
X109687264Y-122632544D01*
X109684507Y-122630530D01*
X109683947Y-122630109D01*
X109681150Y-122627943D01*
X109675162Y-122623168D01*
X109672431Y-122620926D01*
X109671895Y-122620473D01*
X109669309Y-122618226D01*
X109426535Y-122401270D01*
X109399806Y-122427999D01*
X109043426Y-122427999D01*
X108682802Y-122067375D01*
X108322177Y-122428000D01*
X107965796Y-122428000D01*
X107605171Y-122067375D01*
X107333000Y-122339546D01*
X106934000Y-122339546D01*
X106934000Y-121889185D01*
X107783361Y-121889185D01*
X108143986Y-122249810D01*
X108504611Y-121889185D01*
X108504610Y-121889184D01*
X108860991Y-121889184D01*
X109221616Y-122249809D01*
X109255387Y-122216038D01*
X109156775Y-122105691D01*
X109154527Y-122103105D01*
X109154074Y-122102569D01*
X109151832Y-122099838D01*
X109147057Y-122093850D01*
X109144891Y-122091053D01*
X109144470Y-122090493D01*
X109142456Y-122087736D01*
X108943226Y-121806949D01*
X108860991Y-121889184D01*
X108504610Y-121889184D01*
X108143986Y-121528560D01*
X107783361Y-121889185D01*
X106934000Y-121889185D01*
X106934000Y-121261915D01*
X107333000Y-121261915D01*
X107333000Y-121438823D01*
X107605171Y-121710994D01*
X107965796Y-121350369D01*
X107965795Y-121350368D01*
X108322176Y-121350368D01*
X108682801Y-121710993D01*
X108814831Y-121578964D01*
X108756820Y-121474001D01*
X108755192Y-121470955D01*
X108754870Y-121470332D01*
X108753304Y-121467194D01*
X108749981Y-121460293D01*
X108748559Y-121457234D01*
X108748272Y-121456594D01*
X108746855Y-121453308D01*
X108612348Y-121128577D01*
X108611047Y-121125305D01*
X108610798Y-121124652D01*
X108609626Y-121121448D01*
X108607095Y-121114219D01*
X108606008Y-121110971D01*
X108605794Y-121110301D01*
X108604761Y-121106900D01*
X108596012Y-121076532D01*
X108322176Y-121350368D01*
X107965795Y-121350368D01*
X107605171Y-120989744D01*
X107333000Y-121261915D01*
X106934000Y-121261915D01*
X106934000Y-120811554D01*
X107783361Y-120811554D01*
X108143985Y-121172178D01*
X108504610Y-120811553D01*
X108143986Y-120450929D01*
X107783361Y-120811554D01*
X106934000Y-120811554D01*
X106934000Y-120184285D01*
X107333000Y-120184285D01*
X107333000Y-120361192D01*
X107605171Y-120633363D01*
X107965795Y-120272738D01*
X108322176Y-120272738D01*
X108442444Y-120393006D01*
X108442399Y-120392647D01*
X108441542Y-120385035D01*
X108441205Y-120381606D01*
X108441146Y-120380908D01*
X108440900Y-120377417D01*
X108429021Y-120165894D01*
X108322176Y-120272738D01*
X107965795Y-120272738D01*
X107605171Y-119912114D01*
X107333000Y-120184285D01*
X106934000Y-120184285D01*
X106934000Y-119733923D01*
X107783361Y-119733923D01*
X108143985Y-120094547D01*
X108223532Y-120015000D01*
X108693977Y-120015000D01*
X108713255Y-120358281D01*
X108713257Y-120358293D01*
X108770848Y-120697250D01*
X108770850Y-120697259D01*
X108863061Y-121017331D01*
X108866032Y-121027643D01*
X108898861Y-121106900D01*
X108997605Y-121345291D01*
X108997607Y-121345295D01*
X109163925Y-121646225D01*
X109336315Y-121889185D01*
X109362887Y-121926634D01*
X109591994Y-122183006D01*
X109848366Y-122412113D01*
X110128777Y-122611076D01*
X110167621Y-122632544D01*
X110429704Y-122777392D01*
X110429708Y-122777394D01*
X110532812Y-122820100D01*
X110747357Y-122908968D01*
X111077746Y-123004151D01*
X111416714Y-123061744D01*
X111760000Y-123081023D01*
X112103286Y-123061744D01*
X112367813Y-123016799D01*
X113221499Y-123016799D01*
X113532140Y-123327440D01*
X113892765Y-122966815D01*
X114249146Y-122966815D01*
X114609771Y-123327440D01*
X114970396Y-122966815D01*
X115326776Y-122966815D01*
X115687401Y-123327440D01*
X116048026Y-122966815D01*
X115687401Y-122606190D01*
X115326776Y-122966815D01*
X114970396Y-122966815D01*
X114609771Y-122606190D01*
X114249146Y-122966815D01*
X113892765Y-122966815D01*
X113672317Y-122746367D01*
X113546078Y-122835940D01*
X113543186Y-122837931D01*
X113542602Y-122838321D01*
X113539712Y-122840193D01*
X113533227Y-122844268D01*
X113530216Y-122846101D01*
X113529612Y-122846457D01*
X113526630Y-122848160D01*
X113221499Y-123016799D01*
X112367813Y-123016799D01*
X112442254Y-123004151D01*
X112772643Y-122908968D01*
X113090298Y-122777391D01*
X113391223Y-122611076D01*
X113414313Y-122594693D01*
X113877023Y-122594693D01*
X114070955Y-122788625D01*
X114431580Y-122428000D01*
X114787961Y-122428000D01*
X115148586Y-122788625D01*
X115509211Y-122428000D01*
X115865592Y-122428000D01*
X116226217Y-122788625D01*
X116237800Y-122777042D01*
X116237800Y-122078958D01*
X116226217Y-122067375D01*
X115865592Y-122428000D01*
X115509211Y-122428000D01*
X115148586Y-122067375D01*
X114787961Y-122428000D01*
X114431580Y-122428000D01*
X114243378Y-122239798D01*
X114129014Y-122367774D01*
X114126762Y-122370226D01*
X114126281Y-122370736D01*
X114123754Y-122373338D01*
X114118338Y-122378754D01*
X114115736Y-122381281D01*
X114115226Y-122381762D01*
X114112774Y-122384014D01*
X113877023Y-122594693D01*
X113414313Y-122594693D01*
X113671634Y-122412113D01*
X113928006Y-122183006D01*
X114049817Y-122046699D01*
X114406660Y-122046699D01*
X114609771Y-122249810D01*
X114970396Y-121889185D01*
X115326776Y-121889185D01*
X115687401Y-122249810D01*
X116048026Y-121889185D01*
X115687401Y-121528560D01*
X115326776Y-121889185D01*
X114970396Y-121889185D01*
X114689153Y-121607942D01*
X114593160Y-121781630D01*
X114591457Y-121784612D01*
X114591101Y-121785216D01*
X114589268Y-121788227D01*
X114585193Y-121794712D01*
X114583321Y-121797602D01*
X114582931Y-121798186D01*
X114580940Y-121801078D01*
X114406660Y-122046699D01*
X114049817Y-122046699D01*
X114157113Y-121926634D01*
X114356076Y-121646223D01*
X114508716Y-121370042D01*
X114807634Y-121370042D01*
X115148586Y-121710994D01*
X115509211Y-121350369D01*
X115865592Y-121350369D01*
X116226217Y-121710994D01*
X116237800Y-121699411D01*
X116237800Y-121001327D01*
X116226217Y-120989744D01*
X115865592Y-121350369D01*
X115509211Y-121350369D01*
X115148585Y-120989743D01*
X114835456Y-121302872D01*
X114807634Y-121370042D01*
X114508716Y-121370042D01*
X114522391Y-121345298D01*
X114653968Y-121027643D01*
X114716222Y-120811554D01*
X115326776Y-120811554D01*
X115687401Y-121172179D01*
X116048026Y-120811554D01*
X115687401Y-120450929D01*
X115326776Y-120811554D01*
X114716222Y-120811554D01*
X114749151Y-120697254D01*
X114776224Y-120537913D01*
X115053136Y-120537913D01*
X115148586Y-120633363D01*
X115509210Y-120272738D01*
X115865592Y-120272738D01*
X116226216Y-120633363D01*
X116237800Y-120621780D01*
X116237800Y-119923697D01*
X116226217Y-119912114D01*
X115865592Y-120272738D01*
X115509210Y-120272738D01*
X115148585Y-119912113D01*
X115096594Y-119964104D01*
X115098808Y-120003516D01*
X115098953Y-120006933D01*
X115098973Y-120007634D01*
X115099023Y-120011170D01*
X115099023Y-120018830D01*
X115098973Y-120022366D01*
X115098953Y-120023067D01*
X115098808Y-120026484D01*
X115079100Y-120377417D01*
X115078854Y-120380908D01*
X115078795Y-120381606D01*
X115078458Y-120385035D01*
X115077601Y-120392647D01*
X115077164Y-120396088D01*
X115077066Y-120396783D01*
X115076529Y-120400240D01*
X115053136Y-120537913D01*
X114776224Y-120537913D01*
X114806744Y-120358286D01*
X114826023Y-120015000D01*
X114810238Y-119733923D01*
X115326776Y-119733923D01*
X115687401Y-120094548D01*
X116048026Y-119733923D01*
X115687401Y-119373298D01*
X115326776Y-119733923D01*
X114810238Y-119733923D01*
X114806744Y-119671714D01*
X114749151Y-119332746D01*
X114663504Y-119035459D01*
X114947608Y-119035459D01*
X115012542Y-119260851D01*
X115013475Y-119264273D01*
X115013650Y-119264953D01*
X115014454Y-119268266D01*
X115016158Y-119275732D01*
X115016879Y-119279108D01*
X115017016Y-119279796D01*
X115017652Y-119283241D01*
X115046626Y-119453773D01*
X115148586Y-119555733D01*
X115509211Y-119195108D01*
X115865592Y-119195108D01*
X116226217Y-119555733D01*
X116237800Y-119544150D01*
X116237800Y-118846066D01*
X116226217Y-118834483D01*
X115865592Y-119195108D01*
X115509211Y-119195108D01*
X115148585Y-118834482D01*
X114947608Y-119035459D01*
X114663504Y-119035459D01*
X114653968Y-119002357D01*
X114565100Y-118787812D01*
X114522394Y-118684708D01*
X114522392Y-118684704D01*
X114460526Y-118572766D01*
X114356076Y-118383777D01*
X114308673Y-118316969D01*
X114631073Y-118316969D01*
X114763180Y-118555999D01*
X114764808Y-118559045D01*
X114765130Y-118559668D01*
X114766696Y-118562806D01*
X114770019Y-118569707D01*
X114771441Y-118572766D01*
X114771728Y-118573406D01*
X114773145Y-118576692D01*
X114854232Y-118772455D01*
X114970394Y-118656292D01*
X115326776Y-118656292D01*
X115687401Y-119016917D01*
X116048026Y-118656292D01*
X115687401Y-118295667D01*
X115326776Y-118656292D01*
X114970394Y-118656292D01*
X114970395Y-118656291D01*
X114631073Y-118316969D01*
X114308673Y-118316969D01*
X114167125Y-118117477D01*
X114787961Y-118117477D01*
X115148586Y-118478102D01*
X115509211Y-118117477D01*
X115865592Y-118117477D01*
X116226217Y-118478102D01*
X116237800Y-118466519D01*
X116237800Y-117768435D01*
X116226217Y-117756852D01*
X115865592Y-118117477D01*
X115509211Y-118117477D01*
X115148586Y-117756852D01*
X114787961Y-118117477D01*
X114167125Y-118117477D01*
X114157113Y-118103366D01*
X113928006Y-117846994D01*
X113671634Y-117617887D01*
X113616352Y-117578662D01*
X114249146Y-117578662D01*
X114609771Y-117939287D01*
X114970396Y-117578662D01*
X115326776Y-117578662D01*
X115687401Y-117939287D01*
X116048026Y-117578662D01*
X115687401Y-117218037D01*
X115326776Y-117578662D01*
X114970396Y-117578662D01*
X114609771Y-117218037D01*
X114249146Y-117578662D01*
X113616352Y-117578662D01*
X113550054Y-117531621D01*
X113391225Y-117418925D01*
X113090295Y-117252607D01*
X113090291Y-117252605D01*
X112843792Y-117150503D01*
X112772643Y-117121032D01*
X112772639Y-117121030D01*
X112772637Y-117121030D01*
X112442259Y-117025850D01*
X112442250Y-117025848D01*
X112103293Y-116968257D01*
X112103281Y-116968255D01*
X111760000Y-116948977D01*
X111416718Y-116968255D01*
X111416706Y-116968257D01*
X111077749Y-117025848D01*
X111077740Y-117025850D01*
X110747362Y-117121030D01*
X110429708Y-117252605D01*
X110429704Y-117252607D01*
X110128774Y-117418925D01*
X109848366Y-117617886D01*
X109591994Y-117846994D01*
X109362886Y-118103366D01*
X109163925Y-118383774D01*
X108997607Y-118684704D01*
X108997605Y-118684708D01*
X108866030Y-119002362D01*
X108770850Y-119332740D01*
X108770848Y-119332749D01*
X108713257Y-119671706D01*
X108713255Y-119671718D01*
X108693977Y-120015000D01*
X108223532Y-120015000D01*
X108432269Y-119806264D01*
X108439962Y-119669274D01*
X108143986Y-119373298D01*
X107783361Y-119733923D01*
X106934000Y-119733923D01*
X106934000Y-119106654D01*
X107333000Y-119106654D01*
X107333000Y-119283562D01*
X107605171Y-119555733D01*
X107965796Y-119195108D01*
X108322177Y-119195108D01*
X108488980Y-119361911D01*
X108502348Y-119283241D01*
X108502984Y-119279796D01*
X108503121Y-119279108D01*
X108503842Y-119275732D01*
X108505546Y-119268266D01*
X108506350Y-119264953D01*
X108506525Y-119264273D01*
X108507458Y-119260851D01*
X108604761Y-118923100D01*
X108605794Y-118919699D01*
X108606008Y-118919029D01*
X108607095Y-118915781D01*
X108609626Y-118908552D01*
X108610141Y-118907143D01*
X108322177Y-119195108D01*
X107965796Y-119195108D01*
X107605171Y-118834483D01*
X107333000Y-119106654D01*
X106934000Y-119106654D01*
X106934000Y-118656292D01*
X107783361Y-118656292D01*
X108143986Y-119016917D01*
X108504611Y-118656292D01*
X108143986Y-118295667D01*
X107783361Y-118656292D01*
X106934000Y-118656292D01*
X106934000Y-118029023D01*
X107333000Y-118029023D01*
X107333000Y-118205931D01*
X107605171Y-118478102D01*
X107965796Y-118117477D01*
X108322177Y-118117477D01*
X108682801Y-118478101D01*
X108956352Y-118204550D01*
X109028632Y-118102682D01*
X108682802Y-117756852D01*
X108322177Y-118117477D01*
X107965796Y-118117477D01*
X107605171Y-117756852D01*
X107333000Y-118029023D01*
X106934000Y-118029023D01*
X106934000Y-117578662D01*
X107783361Y-117578662D01*
X108143986Y-117939287D01*
X108504611Y-117578662D01*
X108860992Y-117578662D01*
X109180306Y-117897976D01*
X109390986Y-117662226D01*
X109393238Y-117659774D01*
X109393719Y-117659264D01*
X109396246Y-117656662D01*
X109401662Y-117651246D01*
X109404264Y-117648719D01*
X109404774Y-117648238D01*
X109407226Y-117645987D01*
X109535201Y-117531621D01*
X109221617Y-117218037D01*
X108860992Y-117578662D01*
X108504611Y-117578662D01*
X108143986Y-117218037D01*
X107783361Y-117578662D01*
X106934000Y-117578662D01*
X106934000Y-116951392D01*
X107333000Y-116951392D01*
X107333000Y-117128300D01*
X107605171Y-117400471D01*
X107965796Y-117039846D01*
X108322177Y-117039846D01*
X108682802Y-117400471D01*
X109043427Y-117039846D01*
X109399807Y-117039846D01*
X109728300Y-117368339D01*
X109949550Y-117211351D01*
X110121056Y-117039845D01*
X109946352Y-116865141D01*
X110652142Y-116865141D01*
X110653552Y-116864626D01*
X110660781Y-116862095D01*
X110664029Y-116861008D01*
X110664699Y-116860794D01*
X110668100Y-116859761D01*
X110698469Y-116851012D01*
X112821532Y-116851012D01*
X112851900Y-116859761D01*
X112855301Y-116860794D01*
X112855971Y-116861008D01*
X112859219Y-116862095D01*
X112866448Y-116864626D01*
X112869652Y-116865798D01*
X112870305Y-116866047D01*
X112873577Y-116867348D01*
X113198308Y-117001855D01*
X113201594Y-117003272D01*
X113202234Y-117003559D01*
X113205293Y-117004981D01*
X113212194Y-117008304D01*
X113215332Y-117009870D01*
X113215955Y-117010192D01*
X113219001Y-117011820D01*
X113323964Y-117069830D01*
X113353948Y-117039846D01*
X113710330Y-117039846D01*
X114070955Y-117400471D01*
X114431580Y-117039846D01*
X114787961Y-117039846D01*
X115148586Y-117400471D01*
X115509211Y-117039846D01*
X115865592Y-117039846D01*
X116226217Y-117400471D01*
X116237800Y-117388888D01*
X116237800Y-116690804D01*
X116226217Y-116679221D01*
X115865592Y-117039846D01*
X115509211Y-117039846D01*
X115148586Y-116679221D01*
X114787961Y-117039846D01*
X114431580Y-117039846D01*
X114070955Y-116679221D01*
X113710330Y-117039846D01*
X113353948Y-117039846D01*
X113353949Y-117039845D01*
X112993324Y-116679220D01*
X112821532Y-116851012D01*
X110698469Y-116851012D01*
X110940210Y-116781368D01*
X110838063Y-116679221D01*
X110652142Y-116865141D01*
X109946352Y-116865141D01*
X109760432Y-116679221D01*
X109399807Y-117039846D01*
X109043427Y-117039846D01*
X108682802Y-116679221D01*
X108322177Y-117039846D01*
X107965796Y-117039846D01*
X107605171Y-116679221D01*
X107333000Y-116951392D01*
X106934000Y-116951392D01*
X106934000Y-116501031D01*
X107783361Y-116501031D01*
X108143986Y-116861656D01*
X108504611Y-116501031D01*
X108860992Y-116501031D01*
X109221617Y-116861656D01*
X109582242Y-116501031D01*
X109938623Y-116501031D01*
X110299248Y-116861656D01*
X110659873Y-116501031D01*
X111016253Y-116501031D01*
X111237084Y-116721862D01*
X111374760Y-116698471D01*
X111378217Y-116697934D01*
X111378912Y-116697836D01*
X111382353Y-116697399D01*
X111389965Y-116696542D01*
X111393394Y-116696205D01*
X111394092Y-116696146D01*
X111397583Y-116695900D01*
X111551264Y-116687269D01*
X111737501Y-116501031D01*
X112093884Y-116501031D01*
X112321225Y-116728372D01*
X112491759Y-116757348D01*
X112495204Y-116757984D01*
X112495892Y-116758121D01*
X112499268Y-116758842D01*
X112506734Y-116760546D01*
X112510047Y-116761350D01*
X112510727Y-116761525D01*
X112514149Y-116762458D01*
X112544858Y-116771305D01*
X112815132Y-116501031D01*
X113171515Y-116501031D01*
X113532140Y-116861656D01*
X113892765Y-116501031D01*
X114249146Y-116501031D01*
X114609771Y-116861656D01*
X114970396Y-116501031D01*
X115326776Y-116501031D01*
X115687401Y-116861656D01*
X116048026Y-116501031D01*
X115795395Y-116248400D01*
X115579407Y-116248400D01*
X115326776Y-116501031D01*
X114970396Y-116501031D01*
X114717765Y-116248400D01*
X114501777Y-116248400D01*
X114249146Y-116501031D01*
X113892765Y-116501031D01*
X113640134Y-116248400D01*
X113424146Y-116248400D01*
X113171515Y-116501031D01*
X112815132Y-116501031D01*
X112815133Y-116501030D01*
X112562503Y-116248400D01*
X112346515Y-116248400D01*
X112093884Y-116501031D01*
X111737501Y-116501031D01*
X111737502Y-116501030D01*
X111484872Y-116248400D01*
X111268884Y-116248400D01*
X111016253Y-116501031D01*
X110659873Y-116501031D01*
X110407242Y-116248400D01*
X110191254Y-116248400D01*
X109938623Y-116501031D01*
X109582242Y-116501031D01*
X109329611Y-116248400D01*
X109113623Y-116248400D01*
X108860992Y-116501031D01*
X108504611Y-116501031D01*
X108251980Y-116248400D01*
X108035992Y-116248400D01*
X107783361Y-116501031D01*
X106934000Y-116501031D01*
X106934000Y-115973400D01*
X106953685Y-115906361D01*
X107006489Y-115860606D01*
X107058000Y-115849400D01*
X116512800Y-115849400D01*
X116579839Y-115869085D01*
G37*
G04 #@! TD.AperFunction*
G04 #@! TA.AperFunction,Conductor*
G36*
X152901839Y-106979085D02*
G01*
X152947594Y-107031889D01*
X152958800Y-107083400D01*
X152958800Y-128831800D01*
X152939115Y-128898839D01*
X152886311Y-128944594D01*
X152834800Y-128955800D01*
X132102400Y-128955800D01*
X132035361Y-128936115D01*
X131989606Y-128883311D01*
X131978400Y-128831800D01*
X131978400Y-128536377D01*
X132377400Y-128536377D01*
X132377400Y-128556800D01*
X132724011Y-128556800D01*
X133434608Y-128556800D01*
X133801642Y-128556800D01*
X134512238Y-128556800D01*
X134879272Y-128556800D01*
X135589869Y-128556800D01*
X135956903Y-128556800D01*
X136667500Y-128556800D01*
X137034534Y-128556800D01*
X137745131Y-128556800D01*
X138112164Y-128556800D01*
X138822761Y-128556800D01*
X139189795Y-128556800D01*
X139900392Y-128556800D01*
X140267426Y-128556800D01*
X140978023Y-128556800D01*
X141345057Y-128556800D01*
X142055654Y-128556800D01*
X142422687Y-128556800D01*
X143133284Y-128556800D01*
X143500318Y-128556800D01*
X144210915Y-128556800D01*
X144577949Y-128556800D01*
X145288546Y-128556800D01*
X145655580Y-128556800D01*
X146366176Y-128556800D01*
X146733210Y-128556800D01*
X147443807Y-128556800D01*
X147810841Y-128556800D01*
X148521438Y-128556800D01*
X148888472Y-128556800D01*
X149599069Y-128556800D01*
X149966103Y-128556800D01*
X150676699Y-128556800D01*
X151043733Y-128556800D01*
X151754330Y-128556800D01*
X152121364Y-128556800D01*
X151937847Y-128373283D01*
X151754330Y-128556800D01*
X151043733Y-128556800D01*
X150860216Y-128373283D01*
X150676699Y-128556800D01*
X149966103Y-128556800D01*
X149782586Y-128373283D01*
X149599069Y-128556800D01*
X148888472Y-128556800D01*
X148704955Y-128373283D01*
X148521438Y-128556800D01*
X147810841Y-128556800D01*
X147627324Y-128373283D01*
X147443807Y-128556800D01*
X146733210Y-128556800D01*
X146549693Y-128373283D01*
X146366176Y-128556800D01*
X145655580Y-128556800D01*
X145472063Y-128373283D01*
X145288546Y-128556800D01*
X144577949Y-128556800D01*
X144394432Y-128373283D01*
X144210915Y-128556800D01*
X143500318Y-128556800D01*
X143316801Y-128373283D01*
X143133284Y-128556800D01*
X142422687Y-128556800D01*
X142239170Y-128373283D01*
X142055654Y-128556800D01*
X141345057Y-128556800D01*
X141161540Y-128373283D01*
X140978023Y-128556800D01*
X140267426Y-128556800D01*
X140083909Y-128373283D01*
X139900392Y-128556800D01*
X139189795Y-128556800D01*
X139006278Y-128373283D01*
X138822761Y-128556800D01*
X138112164Y-128556800D01*
X137928647Y-128373283D01*
X137745131Y-128556800D01*
X137034534Y-128556800D01*
X136851017Y-128373283D01*
X136667500Y-128556800D01*
X135956903Y-128556800D01*
X135773386Y-128373283D01*
X135589869Y-128556800D01*
X134879272Y-128556800D01*
X134695755Y-128373283D01*
X134512238Y-128556800D01*
X133801642Y-128556800D01*
X133618125Y-128373283D01*
X133434608Y-128556800D01*
X132724011Y-128556800D01*
X132540494Y-128373283D01*
X132377400Y-128536377D01*
X131978400Y-128536377D01*
X131978400Y-128195092D01*
X132718684Y-128195092D01*
X133079309Y-128555717D01*
X133439934Y-128195092D01*
X133796315Y-128195092D01*
X134156940Y-128555717D01*
X134517565Y-128195092D01*
X134873946Y-128195092D01*
X135234571Y-128555717D01*
X135595196Y-128195092D01*
X135951576Y-128195092D01*
X136312201Y-128555716D01*
X136672826Y-128195092D01*
X137029207Y-128195092D01*
X137389832Y-128555717D01*
X137750457Y-128195092D01*
X138106838Y-128195092D01*
X138467463Y-128555717D01*
X138828088Y-128195092D01*
X139184469Y-128195092D01*
X139545094Y-128555717D01*
X139905719Y-128195092D01*
X140262099Y-128195092D01*
X140622724Y-128555717D01*
X140983349Y-128195092D01*
X141339730Y-128195092D01*
X141700355Y-128555717D01*
X142060980Y-128195092D01*
X142417361Y-128195092D01*
X142777986Y-128555717D01*
X143138611Y-128195092D01*
X143494992Y-128195092D01*
X143855617Y-128555717D01*
X144216242Y-128195092D01*
X144572622Y-128195092D01*
X144933247Y-128555717D01*
X145293872Y-128195092D01*
X145650253Y-128195092D01*
X146010878Y-128555717D01*
X146371503Y-128195092D01*
X146727884Y-128195092D01*
X147088509Y-128555717D01*
X147449134Y-128195092D01*
X147805515Y-128195092D01*
X148166139Y-128555716D01*
X148526764Y-128195092D01*
X148883145Y-128195092D01*
X149243770Y-128555717D01*
X149604395Y-128195092D01*
X149960776Y-128195092D01*
X150321401Y-128555717D01*
X150682026Y-128195092D01*
X151038407Y-128195092D01*
X151399032Y-128555717D01*
X151759657Y-128195092D01*
X152116037Y-128195092D01*
X152476662Y-128555716D01*
X152559800Y-128472579D01*
X152559800Y-127917605D01*
X152476662Y-127834467D01*
X152116037Y-128195092D01*
X151759657Y-128195092D01*
X151399032Y-127834467D01*
X151038407Y-128195092D01*
X150682026Y-128195092D01*
X150321401Y-127834467D01*
X149960776Y-128195092D01*
X149604395Y-128195092D01*
X149243770Y-127834467D01*
X148883145Y-128195092D01*
X148526764Y-128195092D01*
X148166139Y-127834467D01*
X147805515Y-128195092D01*
X147449134Y-128195092D01*
X147088509Y-127834467D01*
X146727884Y-128195092D01*
X146371503Y-128195092D01*
X146010878Y-127834467D01*
X145650253Y-128195092D01*
X145293872Y-128195092D01*
X144933247Y-127834467D01*
X144572622Y-128195092D01*
X144216242Y-128195092D01*
X143855617Y-127834467D01*
X143494992Y-128195092D01*
X143138611Y-128195092D01*
X142777986Y-127834467D01*
X142417361Y-128195092D01*
X142060980Y-128195092D01*
X141700355Y-127834467D01*
X141339730Y-128195092D01*
X140983349Y-128195092D01*
X140622724Y-127834467D01*
X140262099Y-128195092D01*
X139905719Y-128195092D01*
X139545094Y-127834467D01*
X139184469Y-128195092D01*
X138828088Y-128195092D01*
X138467463Y-127834467D01*
X138106838Y-128195092D01*
X137750457Y-128195092D01*
X137389832Y-127834467D01*
X137029207Y-128195092D01*
X136672826Y-128195092D01*
X136312201Y-127834467D01*
X135951576Y-128195092D01*
X135595196Y-128195092D01*
X135234571Y-127834467D01*
X134873946Y-128195092D01*
X134517565Y-128195092D01*
X134156940Y-127834467D01*
X133796315Y-128195092D01*
X133439934Y-128195092D01*
X133079309Y-127834467D01*
X132718684Y-128195092D01*
X131978400Y-128195092D01*
X131978400Y-127458746D01*
X132377400Y-127458746D01*
X132377400Y-127853808D01*
X132540494Y-128016902D01*
X132901119Y-127656277D01*
X133257500Y-127656277D01*
X133618125Y-128016902D01*
X133978750Y-127656277D01*
X134335130Y-127656277D01*
X134695755Y-128016902D01*
X135056380Y-127656277D01*
X135412761Y-127656277D01*
X135773386Y-128016902D01*
X136134011Y-127656277D01*
X136490392Y-127656277D01*
X136851017Y-128016902D01*
X137211642Y-127656277D01*
X137568023Y-127656277D01*
X137928647Y-128016901D01*
X138289272Y-127656277D01*
X138645653Y-127656277D01*
X139006278Y-128016902D01*
X139366903Y-127656277D01*
X139723284Y-127656277D01*
X140083909Y-128016902D01*
X140444534Y-127656277D01*
X140800915Y-127656277D01*
X141161540Y-128016902D01*
X141522165Y-127656277D01*
X141878545Y-127656277D01*
X142239170Y-128016901D01*
X142599795Y-127656277D01*
X142956176Y-127656277D01*
X143316801Y-128016902D01*
X143677426Y-127656277D01*
X144033807Y-127656277D01*
X144394432Y-128016902D01*
X144755057Y-127656277D01*
X145111438Y-127656277D01*
X145472063Y-128016902D01*
X145832688Y-127656277D01*
X146189068Y-127656277D01*
X146549693Y-128016902D01*
X146910318Y-127656277D01*
X147266699Y-127656277D01*
X147627324Y-128016902D01*
X147987949Y-127656277D01*
X148344330Y-127656277D01*
X148704955Y-128016902D01*
X149065580Y-127656277D01*
X149421961Y-127656277D01*
X149782586Y-128016902D01*
X150143211Y-127656277D01*
X150499591Y-127656277D01*
X150860216Y-128016902D01*
X151220841Y-127656277D01*
X151577222Y-127656277D01*
X151937847Y-128016902D01*
X152298472Y-127656277D01*
X151937847Y-127295652D01*
X151577222Y-127656277D01*
X151220841Y-127656277D01*
X150860216Y-127295652D01*
X150499591Y-127656277D01*
X150143211Y-127656277D01*
X149782586Y-127295652D01*
X149421961Y-127656277D01*
X149065580Y-127656277D01*
X148704955Y-127295652D01*
X148344330Y-127656277D01*
X147987949Y-127656277D01*
X147627324Y-127295652D01*
X147266699Y-127656277D01*
X146910318Y-127656277D01*
X146549693Y-127295652D01*
X146189068Y-127656277D01*
X145832688Y-127656277D01*
X145472063Y-127295652D01*
X145111438Y-127656277D01*
X144755057Y-127656277D01*
X144394432Y-127295652D01*
X144033807Y-127656277D01*
X143677426Y-127656277D01*
X143316801Y-127295652D01*
X142956176Y-127656277D01*
X142599795Y-127656277D01*
X142239170Y-127295652D01*
X141878545Y-127656277D01*
X141522165Y-127656277D01*
X141161540Y-127295652D01*
X140800915Y-127656277D01*
X140444534Y-127656277D01*
X140083909Y-127295652D01*
X139723284Y-127656277D01*
X139366903Y-127656277D01*
X139006278Y-127295652D01*
X138645653Y-127656277D01*
X138289272Y-127656277D01*
X137928647Y-127295652D01*
X137568023Y-127656277D01*
X137211642Y-127656277D01*
X136851017Y-127295652D01*
X136490392Y-127656277D01*
X136134011Y-127656277D01*
X135773386Y-127295652D01*
X135412761Y-127656277D01*
X135056380Y-127656277D01*
X134695755Y-127295652D01*
X134335130Y-127656277D01*
X133978750Y-127656277D01*
X133618125Y-127295652D01*
X133257500Y-127656277D01*
X132901119Y-127656277D01*
X132540494Y-127295652D01*
X132377400Y-127458746D01*
X131978400Y-127458746D01*
X131978400Y-127117461D01*
X132718684Y-127117461D01*
X133079309Y-127478086D01*
X133439933Y-127117461D01*
X133796315Y-127117461D01*
X134156940Y-127478086D01*
X134517564Y-127117461D01*
X134873946Y-127117461D01*
X135234571Y-127478086D01*
X135595195Y-127117461D01*
X135951576Y-127117461D01*
X136312201Y-127478085D01*
X136672825Y-127117461D01*
X137029207Y-127117461D01*
X137389832Y-127478086D01*
X137750456Y-127117461D01*
X138106838Y-127117461D01*
X138467463Y-127478086D01*
X138828087Y-127117461D01*
X139184469Y-127117461D01*
X139545094Y-127478086D01*
X139905718Y-127117461D01*
X140262099Y-127117461D01*
X140622724Y-127478086D01*
X140983348Y-127117461D01*
X141339730Y-127117461D01*
X141700355Y-127478086D01*
X142060979Y-127117461D01*
X142417361Y-127117461D01*
X142777986Y-127478086D01*
X143138610Y-127117461D01*
X143494992Y-127117461D01*
X143855617Y-127478086D01*
X144216241Y-127117461D01*
X144572622Y-127117461D01*
X144933247Y-127478086D01*
X145293871Y-127117461D01*
X145650253Y-127117461D01*
X146010878Y-127478086D01*
X146371502Y-127117461D01*
X146727884Y-127117461D01*
X147088509Y-127478086D01*
X147449133Y-127117461D01*
X147805515Y-127117461D01*
X148166139Y-127478085D01*
X148526764Y-127117461D01*
X148883145Y-127117461D01*
X149243770Y-127478086D01*
X149604394Y-127117461D01*
X149960776Y-127117461D01*
X150321401Y-127478086D01*
X150682025Y-127117461D01*
X151038407Y-127117461D01*
X151399032Y-127478086D01*
X151759656Y-127117461D01*
X152116037Y-127117461D01*
X152476662Y-127478085D01*
X152559800Y-127394948D01*
X152559800Y-126839974D01*
X152476662Y-126756836D01*
X152116037Y-127117461D01*
X151759656Y-127117461D01*
X151399032Y-126756836D01*
X151038407Y-127117461D01*
X150682025Y-127117461D01*
X150321401Y-126756836D01*
X149960776Y-127117461D01*
X149604394Y-127117461D01*
X149243770Y-126756836D01*
X148883145Y-127117461D01*
X148526764Y-127117461D01*
X148166139Y-126756836D01*
X147805515Y-127117461D01*
X147449133Y-127117461D01*
X147088509Y-126756836D01*
X146727884Y-127117461D01*
X146371502Y-127117461D01*
X146010878Y-126756836D01*
X145650253Y-127117461D01*
X145293871Y-127117461D01*
X144933247Y-126756836D01*
X144572622Y-127117461D01*
X144216241Y-127117461D01*
X143855617Y-126756836D01*
X143494992Y-127117461D01*
X143138610Y-127117461D01*
X142777986Y-126756836D01*
X142417361Y-127117461D01*
X142060979Y-127117461D01*
X141700355Y-126756836D01*
X141339730Y-127117461D01*
X140983348Y-127117461D01*
X140622724Y-126756836D01*
X140262099Y-127117461D01*
X139905718Y-127117461D01*
X139545094Y-126756836D01*
X139184469Y-127117461D01*
X138828087Y-127117461D01*
X138467463Y-126756836D01*
X138106838Y-127117461D01*
X137750456Y-127117461D01*
X137389832Y-126756836D01*
X137029207Y-127117461D01*
X136672825Y-127117461D01*
X136312201Y-126756836D01*
X135951576Y-127117461D01*
X135595195Y-127117461D01*
X135234571Y-126756836D01*
X134873946Y-127117461D01*
X134517564Y-127117461D01*
X134156940Y-126756836D01*
X133796315Y-127117461D01*
X133439933Y-127117461D01*
X133079309Y-126756836D01*
X132718684Y-127117461D01*
X131978400Y-127117461D01*
X131978400Y-126381115D01*
X132377400Y-126381115D01*
X132377400Y-126776177D01*
X132540494Y-126939271D01*
X132901119Y-126578646D01*
X133257500Y-126578646D01*
X133618125Y-126939271D01*
X133978750Y-126578646D01*
X134335130Y-126578646D01*
X134695755Y-126939271D01*
X135056380Y-126578646D01*
X135412761Y-126578646D01*
X135773386Y-126939271D01*
X136134011Y-126578646D01*
X136490392Y-126578646D01*
X136851017Y-126939271D01*
X137211642Y-126578646D01*
X137568023Y-126578646D01*
X137928647Y-126939270D01*
X138289272Y-126578646D01*
X138645653Y-126578646D01*
X139006278Y-126939271D01*
X139366903Y-126578646D01*
X139723284Y-126578646D01*
X140083909Y-126939271D01*
X140444534Y-126578646D01*
X140800915Y-126578646D01*
X141161540Y-126939271D01*
X141522165Y-126578646D01*
X141878545Y-126578646D01*
X142239170Y-126939270D01*
X142599795Y-126578646D01*
X142956176Y-126578646D01*
X143316801Y-126939271D01*
X143677426Y-126578646D01*
X144033807Y-126578646D01*
X144394432Y-126939271D01*
X144755057Y-126578646D01*
X145111438Y-126578646D01*
X145472063Y-126939271D01*
X145832688Y-126578646D01*
X146189068Y-126578646D01*
X146549693Y-126939271D01*
X146910318Y-126578646D01*
X147266699Y-126578646D01*
X147627324Y-126939271D01*
X147987949Y-126578646D01*
X148344330Y-126578646D01*
X148704955Y-126939271D01*
X149065580Y-126578646D01*
X149421961Y-126578646D01*
X149782586Y-126939271D01*
X150143211Y-126578646D01*
X150499591Y-126578646D01*
X150860216Y-126939271D01*
X151220841Y-126578646D01*
X151577222Y-126578646D01*
X151937847Y-126939271D01*
X152298472Y-126578646D01*
X151937847Y-126218021D01*
X151577222Y-126578646D01*
X151220841Y-126578646D01*
X150860216Y-126218021D01*
X150499591Y-126578646D01*
X150143211Y-126578646D01*
X149782586Y-126218021D01*
X149421961Y-126578646D01*
X149065580Y-126578646D01*
X148704955Y-126218021D01*
X148344330Y-126578646D01*
X147987949Y-126578646D01*
X147627324Y-126218021D01*
X147266699Y-126578646D01*
X146910318Y-126578646D01*
X146549693Y-126218021D01*
X146189068Y-126578646D01*
X145832688Y-126578646D01*
X145472063Y-126218021D01*
X145111438Y-126578646D01*
X144755057Y-126578646D01*
X144394432Y-126218021D01*
X144033807Y-126578646D01*
X143677426Y-126578646D01*
X143316801Y-126218021D01*
X142956176Y-126578646D01*
X142599795Y-126578646D01*
X142239170Y-126218021D01*
X141878545Y-126578646D01*
X141522165Y-126578646D01*
X141161540Y-126218021D01*
X140800915Y-126578646D01*
X140444534Y-126578646D01*
X140083909Y-126218021D01*
X139723284Y-126578646D01*
X139366903Y-126578646D01*
X139006278Y-126218021D01*
X138645653Y-126578646D01*
X138289272Y-126578646D01*
X137928647Y-126218021D01*
X137568023Y-126578646D01*
X137211642Y-126578646D01*
X136851017Y-126218021D01*
X136490392Y-126578646D01*
X136134011Y-126578646D01*
X135773386Y-126218021D01*
X135412761Y-126578646D01*
X135056380Y-126578646D01*
X134695755Y-126218021D01*
X134335130Y-126578646D01*
X133978750Y-126578646D01*
X133618125Y-126218021D01*
X133257500Y-126578646D01*
X132901119Y-126578646D01*
X132540494Y-126218021D01*
X132377400Y-126381115D01*
X131978400Y-126381115D01*
X131978400Y-126039831D01*
X132718684Y-126039831D01*
X133079309Y-126400456D01*
X133439934Y-126039831D01*
X133796315Y-126039831D01*
X134156940Y-126400456D01*
X134517565Y-126039831D01*
X134873946Y-126039831D01*
X135234571Y-126400456D01*
X135595196Y-126039831D01*
X135951576Y-126039831D01*
X136312201Y-126400455D01*
X136672826Y-126039831D01*
X137029207Y-126039831D01*
X137389832Y-126400456D01*
X137750457Y-126039831D01*
X138106838Y-126039831D01*
X138467463Y-126400456D01*
X138828088Y-126039831D01*
X139184469Y-126039831D01*
X139545094Y-126400456D01*
X139905719Y-126039831D01*
X140262099Y-126039831D01*
X140622724Y-126400456D01*
X140983349Y-126039831D01*
X141339730Y-126039831D01*
X141700355Y-126400456D01*
X142060980Y-126039831D01*
X142417361Y-126039831D01*
X142777986Y-126400456D01*
X143138611Y-126039831D01*
X143494992Y-126039831D01*
X143855617Y-126400456D01*
X144216242Y-126039831D01*
X144572622Y-126039831D01*
X144933247Y-126400456D01*
X145293872Y-126039831D01*
X145650253Y-126039831D01*
X146010878Y-126400456D01*
X146371503Y-126039831D01*
X146727884Y-126039831D01*
X147088509Y-126400456D01*
X147449134Y-126039831D01*
X147805515Y-126039831D01*
X148166139Y-126400455D01*
X148526764Y-126039831D01*
X148883145Y-126039831D01*
X149243770Y-126400456D01*
X149604395Y-126039831D01*
X149960776Y-126039831D01*
X150321401Y-126400456D01*
X150682026Y-126039831D01*
X151038407Y-126039831D01*
X151399032Y-126400456D01*
X151759657Y-126039831D01*
X152116037Y-126039831D01*
X152476662Y-126400455D01*
X152559800Y-126317318D01*
X152559800Y-125762344D01*
X152476662Y-125679206D01*
X152116037Y-126039831D01*
X151759657Y-126039831D01*
X151399032Y-125679206D01*
X151038407Y-126039831D01*
X150682026Y-126039831D01*
X150321401Y-125679206D01*
X149960776Y-126039831D01*
X149604395Y-126039831D01*
X149243770Y-125679206D01*
X148883145Y-126039831D01*
X148526764Y-126039831D01*
X148166139Y-125679206D01*
X147805515Y-126039831D01*
X147449134Y-126039831D01*
X147088509Y-125679206D01*
X146727884Y-126039831D01*
X146371503Y-126039831D01*
X146010878Y-125679206D01*
X145650253Y-126039831D01*
X145293872Y-126039831D01*
X144933247Y-125679206D01*
X144572622Y-126039831D01*
X144216242Y-126039831D01*
X143855617Y-125679206D01*
X143494992Y-126039831D01*
X143138611Y-126039831D01*
X142777986Y-125679206D01*
X142417361Y-126039831D01*
X142060980Y-126039831D01*
X141700355Y-125679206D01*
X141339730Y-126039831D01*
X140983349Y-126039831D01*
X140622724Y-125679206D01*
X140262099Y-126039831D01*
X139905719Y-126039831D01*
X139545094Y-125679206D01*
X139184469Y-126039831D01*
X138828088Y-126039831D01*
X138467463Y-125679206D01*
X138106838Y-126039831D01*
X137750457Y-126039831D01*
X137389832Y-125679206D01*
X137029207Y-126039831D01*
X136672826Y-126039831D01*
X136312201Y-125679206D01*
X135951576Y-126039831D01*
X135595196Y-126039831D01*
X135234571Y-125679206D01*
X134873946Y-126039831D01*
X134517565Y-126039831D01*
X134156940Y-125679206D01*
X133796315Y-126039831D01*
X133439934Y-126039831D01*
X133079309Y-125679206D01*
X132718684Y-126039831D01*
X131978400Y-126039831D01*
X131978400Y-125303484D01*
X132377400Y-125303484D01*
X132377400Y-125698546D01*
X132540494Y-125861640D01*
X132901119Y-125501015D01*
X133257500Y-125501015D01*
X133618125Y-125861640D01*
X133978750Y-125501015D01*
X134335130Y-125501015D01*
X134695755Y-125861640D01*
X135056380Y-125501015D01*
X135412761Y-125501015D01*
X135773386Y-125861640D01*
X136134011Y-125501015D01*
X136490392Y-125501015D01*
X136851017Y-125861640D01*
X137211642Y-125501015D01*
X137568023Y-125501015D01*
X137928647Y-125861639D01*
X138289272Y-125501015D01*
X138645653Y-125501015D01*
X139006278Y-125861640D01*
X139366903Y-125501015D01*
X139723284Y-125501015D01*
X140083909Y-125861640D01*
X140444534Y-125501015D01*
X140800915Y-125501015D01*
X141161540Y-125861640D01*
X141522165Y-125501015D01*
X141878545Y-125501015D01*
X142239170Y-125861639D01*
X142599795Y-125501015D01*
X142956176Y-125501015D01*
X143316801Y-125861640D01*
X143677426Y-125501015D01*
X144033807Y-125501015D01*
X144394432Y-125861640D01*
X144755057Y-125501015D01*
X145111438Y-125501015D01*
X145472063Y-125861640D01*
X145832688Y-125501015D01*
X146189068Y-125501015D01*
X146549693Y-125861640D01*
X146910318Y-125501015D01*
X147266699Y-125501015D01*
X147627324Y-125861640D01*
X147987949Y-125501015D01*
X148344330Y-125501015D01*
X148704955Y-125861640D01*
X149065580Y-125501015D01*
X149421961Y-125501015D01*
X149782586Y-125861640D01*
X150143211Y-125501015D01*
X150499591Y-125501015D01*
X150860216Y-125861640D01*
X151220841Y-125501015D01*
X151577222Y-125501015D01*
X151937847Y-125861640D01*
X152298472Y-125501015D01*
X151937847Y-125140390D01*
X151577222Y-125501015D01*
X151220841Y-125501015D01*
X150860216Y-125140390D01*
X150499591Y-125501015D01*
X150143211Y-125501015D01*
X149782586Y-125140390D01*
X149421961Y-125501015D01*
X149065580Y-125501015D01*
X148704955Y-125140390D01*
X148344330Y-125501015D01*
X147987949Y-125501015D01*
X147627324Y-125140390D01*
X147266699Y-125501015D01*
X146910318Y-125501015D01*
X146549693Y-125140390D01*
X146189068Y-125501015D01*
X145832688Y-125501015D01*
X145472063Y-125140390D01*
X145111438Y-125501015D01*
X144755057Y-125501015D01*
X144394432Y-125140390D01*
X144033807Y-125501015D01*
X143677426Y-125501015D01*
X143316801Y-125140390D01*
X142956176Y-125501015D01*
X142599795Y-125501015D01*
X142239170Y-125140390D01*
X141878545Y-125501015D01*
X141522165Y-125501015D01*
X141161540Y-125140390D01*
X140800915Y-125501015D01*
X140444534Y-125501015D01*
X140083909Y-125140390D01*
X139723284Y-125501015D01*
X139366903Y-125501015D01*
X139006278Y-125140390D01*
X138645653Y-125501015D01*
X138289272Y-125501015D01*
X137928647Y-125140390D01*
X137568023Y-125501015D01*
X137211642Y-125501015D01*
X136851017Y-125140390D01*
X136490392Y-125501015D01*
X136134011Y-125501015D01*
X135773386Y-125140390D01*
X135412761Y-125501015D01*
X135056380Y-125501015D01*
X134695755Y-125140390D01*
X134335130Y-125501015D01*
X133978750Y-125501015D01*
X133618125Y-125140390D01*
X133257500Y-125501015D01*
X132901119Y-125501015D01*
X132540494Y-125140390D01*
X132377400Y-125303484D01*
X131978400Y-125303484D01*
X131978400Y-124962200D01*
X132718684Y-124962200D01*
X133079309Y-125322825D01*
X133439934Y-124962200D01*
X133796315Y-124962200D01*
X134156940Y-125322825D01*
X134517565Y-124962200D01*
X134873946Y-124962200D01*
X135234571Y-125322825D01*
X135595196Y-124962200D01*
X135951576Y-124962200D01*
X136312201Y-125322824D01*
X136672826Y-124962200D01*
X137029207Y-124962200D01*
X137389832Y-125322825D01*
X137750457Y-124962200D01*
X138106838Y-124962200D01*
X138467463Y-125322825D01*
X138828088Y-124962200D01*
X139184469Y-124962200D01*
X139545094Y-125322825D01*
X139905719Y-124962200D01*
X140262099Y-124962200D01*
X140622724Y-125322825D01*
X140983349Y-124962200D01*
X141339730Y-124962200D01*
X141700355Y-125322825D01*
X142060980Y-124962200D01*
X142417361Y-124962200D01*
X142777986Y-125322825D01*
X143138611Y-124962200D01*
X143494992Y-124962200D01*
X143855617Y-125322825D01*
X144216242Y-124962200D01*
X144572622Y-124962200D01*
X144933247Y-125322825D01*
X145293872Y-124962200D01*
X145650253Y-124962200D01*
X146010878Y-125322825D01*
X146371503Y-124962200D01*
X146727884Y-124962200D01*
X147088509Y-125322825D01*
X147449134Y-124962200D01*
X147805515Y-124962200D01*
X148166139Y-125322824D01*
X148526764Y-124962200D01*
X148883145Y-124962200D01*
X149243770Y-125322825D01*
X149604395Y-124962200D01*
X149960776Y-124962200D01*
X150321401Y-125322825D01*
X150682026Y-124962200D01*
X151038407Y-124962200D01*
X151399032Y-125322825D01*
X151759657Y-124962200D01*
X152116037Y-124962200D01*
X152476662Y-125322824D01*
X152559800Y-125239687D01*
X152559800Y-124684713D01*
X152476662Y-124601575D01*
X152116037Y-124962200D01*
X151759657Y-124962200D01*
X151399032Y-124601575D01*
X151038407Y-124962200D01*
X150682026Y-124962200D01*
X150321401Y-124601575D01*
X149960776Y-124962200D01*
X149604395Y-124962200D01*
X149243770Y-124601575D01*
X148883145Y-124962200D01*
X148526764Y-124962200D01*
X148166139Y-124601575D01*
X147805515Y-124962200D01*
X147449134Y-124962200D01*
X147088509Y-124601575D01*
X146727884Y-124962200D01*
X146371503Y-124962200D01*
X146010878Y-124601575D01*
X145650253Y-124962200D01*
X145293872Y-124962200D01*
X144933247Y-124601575D01*
X144572622Y-124962200D01*
X144216242Y-124962200D01*
X143855617Y-124601575D01*
X143494992Y-124962200D01*
X143138611Y-124962200D01*
X142777986Y-124601575D01*
X142417361Y-124962200D01*
X142060980Y-124962200D01*
X141700355Y-124601575D01*
X141339730Y-124962200D01*
X140983349Y-124962200D01*
X140622724Y-124601575D01*
X140262099Y-124962200D01*
X139905719Y-124962200D01*
X139545094Y-124601575D01*
X139184469Y-124962200D01*
X138828088Y-124962200D01*
X138467463Y-124601575D01*
X138106838Y-124962200D01*
X137750457Y-124962200D01*
X137389832Y-124601575D01*
X137029207Y-124962200D01*
X136672826Y-124962200D01*
X136312201Y-124601575D01*
X135951576Y-124962200D01*
X135595196Y-124962200D01*
X135234571Y-124601575D01*
X134873946Y-124962200D01*
X134517565Y-124962200D01*
X134156940Y-124601575D01*
X133796315Y-124962200D01*
X133439934Y-124962200D01*
X133079309Y-124601575D01*
X132718684Y-124962200D01*
X131978400Y-124962200D01*
X131978400Y-124225854D01*
X132377400Y-124225854D01*
X132377400Y-124620916D01*
X132540494Y-124784010D01*
X132901119Y-124423385D01*
X133257500Y-124423385D01*
X133618125Y-124784010D01*
X133978750Y-124423385D01*
X134335130Y-124423385D01*
X134695755Y-124784010D01*
X135056380Y-124423385D01*
X135412761Y-124423385D01*
X135773386Y-124784010D01*
X136134011Y-124423385D01*
X136490392Y-124423385D01*
X136851017Y-124784010D01*
X137211642Y-124423385D01*
X137568023Y-124423385D01*
X137928647Y-124784009D01*
X138289272Y-124423385D01*
X138645653Y-124423385D01*
X139006278Y-124784010D01*
X139366903Y-124423385D01*
X139723284Y-124423385D01*
X140083909Y-124784010D01*
X140444534Y-124423385D01*
X140800915Y-124423385D01*
X141161540Y-124784010D01*
X141522165Y-124423385D01*
X141878545Y-124423385D01*
X142239170Y-124784009D01*
X142599795Y-124423385D01*
X142956176Y-124423385D01*
X143316801Y-124784010D01*
X143677426Y-124423385D01*
X144033807Y-124423385D01*
X144394432Y-124784010D01*
X144755057Y-124423385D01*
X145111438Y-124423385D01*
X145472063Y-124784010D01*
X145832688Y-124423385D01*
X146189068Y-124423385D01*
X146549693Y-124784010D01*
X146910318Y-124423385D01*
X147266699Y-124423385D01*
X147627324Y-124784010D01*
X147987949Y-124423385D01*
X148344330Y-124423385D01*
X148704955Y-124784010D01*
X149065580Y-124423385D01*
X149421961Y-124423385D01*
X149782586Y-124784010D01*
X150143211Y-124423385D01*
X150499591Y-124423385D01*
X150860216Y-124784010D01*
X151220841Y-124423385D01*
X151577222Y-124423385D01*
X151937847Y-124784010D01*
X152298472Y-124423385D01*
X151937847Y-124062760D01*
X151577222Y-124423385D01*
X151220841Y-124423385D01*
X150860216Y-124062760D01*
X150499591Y-124423385D01*
X150143211Y-124423385D01*
X149782586Y-124062760D01*
X149421961Y-124423385D01*
X149065580Y-124423385D01*
X148704955Y-124062760D01*
X148344330Y-124423385D01*
X147987949Y-124423385D01*
X147627324Y-124062760D01*
X147266699Y-124423385D01*
X146910318Y-124423385D01*
X146549693Y-124062760D01*
X146189068Y-124423385D01*
X145832688Y-124423385D01*
X145472063Y-124062760D01*
X145111438Y-124423385D01*
X144755057Y-124423385D01*
X144394432Y-124062760D01*
X144033807Y-124423385D01*
X143677426Y-124423385D01*
X143316801Y-124062760D01*
X142956176Y-124423385D01*
X142599795Y-124423385D01*
X142239170Y-124062760D01*
X141878545Y-124423385D01*
X141522165Y-124423385D01*
X141161540Y-124062760D01*
X140800915Y-124423385D01*
X140444534Y-124423385D01*
X140083909Y-124062760D01*
X139723284Y-124423385D01*
X139366903Y-124423385D01*
X139006278Y-124062760D01*
X138645653Y-124423385D01*
X138289272Y-124423385D01*
X137928647Y-124062760D01*
X137568023Y-124423385D01*
X137211642Y-124423385D01*
X136851017Y-124062760D01*
X136490392Y-124423385D01*
X136134011Y-124423385D01*
X135773386Y-124062760D01*
X135412761Y-124423385D01*
X135056380Y-124423385D01*
X134695755Y-124062760D01*
X134335130Y-124423385D01*
X133978750Y-124423385D01*
X133618125Y-124062760D01*
X133257500Y-124423385D01*
X132901119Y-124423385D01*
X132540494Y-124062760D01*
X132377400Y-124225854D01*
X131978400Y-124225854D01*
X131978400Y-123884569D01*
X132718684Y-123884569D01*
X133079309Y-124245194D01*
X133439934Y-123884569D01*
X133796315Y-123884569D01*
X134156940Y-124245194D01*
X134517565Y-123884569D01*
X134873946Y-123884569D01*
X135234571Y-124245194D01*
X135595196Y-123884569D01*
X135951576Y-123884569D01*
X136312201Y-124245193D01*
X136672826Y-123884569D01*
X137029207Y-123884569D01*
X137389832Y-124245194D01*
X137750457Y-123884569D01*
X138106838Y-123884569D01*
X138467463Y-124245194D01*
X138828088Y-123884569D01*
X139184469Y-123884569D01*
X139545094Y-124245194D01*
X139905719Y-123884569D01*
X140262099Y-123884569D01*
X140622724Y-124245194D01*
X140983349Y-123884569D01*
X141339730Y-123884569D01*
X141700355Y-124245194D01*
X142060980Y-123884569D01*
X142417361Y-123884569D01*
X142777986Y-124245194D01*
X143138611Y-123884569D01*
X143494992Y-123884569D01*
X143855617Y-124245194D01*
X144216242Y-123884569D01*
X144572622Y-123884569D01*
X144933247Y-124245194D01*
X145293872Y-123884569D01*
X145650253Y-123884569D01*
X146010878Y-124245194D01*
X146371503Y-123884569D01*
X146727884Y-123884569D01*
X147088509Y-124245194D01*
X147449134Y-123884569D01*
X147805515Y-123884569D01*
X148166139Y-124245193D01*
X148526764Y-123884569D01*
X148883145Y-123884569D01*
X149243770Y-124245194D01*
X149604395Y-123884569D01*
X149960776Y-123884569D01*
X150321401Y-124245194D01*
X150682026Y-123884569D01*
X151038407Y-123884569D01*
X151399032Y-124245194D01*
X151759657Y-123884569D01*
X152116037Y-123884569D01*
X152476662Y-124245193D01*
X152559800Y-124162056D01*
X152559800Y-123607082D01*
X152476662Y-123523944D01*
X152116037Y-123884569D01*
X151759657Y-123884569D01*
X151399032Y-123523944D01*
X151038407Y-123884569D01*
X150682026Y-123884569D01*
X150321401Y-123523944D01*
X149960776Y-123884569D01*
X149604395Y-123884569D01*
X149243770Y-123523944D01*
X148883145Y-123884569D01*
X148526764Y-123884569D01*
X148166139Y-123523944D01*
X147805515Y-123884569D01*
X147449134Y-123884569D01*
X147088509Y-123523944D01*
X146727884Y-123884569D01*
X146371503Y-123884569D01*
X146010878Y-123523944D01*
X145650253Y-123884569D01*
X145293872Y-123884569D01*
X144933247Y-123523944D01*
X144572622Y-123884569D01*
X144216242Y-123884569D01*
X143855617Y-123523944D01*
X143494992Y-123884569D01*
X143138611Y-123884569D01*
X142777986Y-123523944D01*
X142417361Y-123884569D01*
X142060980Y-123884569D01*
X141700355Y-123523944D01*
X141339730Y-123884569D01*
X140983349Y-123884569D01*
X140622724Y-123523944D01*
X140262099Y-123884569D01*
X139905719Y-123884569D01*
X139545094Y-123523944D01*
X139184469Y-123884569D01*
X138828088Y-123884569D01*
X138467463Y-123523944D01*
X138106838Y-123884569D01*
X137750457Y-123884569D01*
X137389832Y-123523944D01*
X137029207Y-123884569D01*
X136672826Y-123884569D01*
X136312201Y-123523944D01*
X135951576Y-123884569D01*
X135595196Y-123884569D01*
X135234571Y-123523944D01*
X134873946Y-123884569D01*
X134517565Y-123884569D01*
X134156940Y-123523944D01*
X133796315Y-123884569D01*
X133439934Y-123884569D01*
X133079309Y-123523944D01*
X132718684Y-123884569D01*
X131978400Y-123884569D01*
X131978400Y-123148223D01*
X132377400Y-123148223D01*
X132377400Y-123543285D01*
X132540494Y-123706379D01*
X132901119Y-123345754D01*
X133257500Y-123345754D01*
X133618125Y-123706379D01*
X133978750Y-123345754D01*
X134335130Y-123345754D01*
X134695755Y-123706379D01*
X135056380Y-123345754D01*
X135412761Y-123345754D01*
X135773386Y-123706379D01*
X136134011Y-123345754D01*
X136490392Y-123345754D01*
X136851017Y-123706379D01*
X137211642Y-123345754D01*
X137568023Y-123345754D01*
X137928647Y-123706378D01*
X138289272Y-123345754D01*
X138645653Y-123345754D01*
X139006278Y-123706379D01*
X139366903Y-123345754D01*
X139723284Y-123345754D01*
X140083909Y-123706379D01*
X140444534Y-123345754D01*
X140444533Y-123345753D01*
X140800914Y-123345753D01*
X141161540Y-123706379D01*
X141522165Y-123345754D01*
X141522164Y-123345753D01*
X141878545Y-123345753D01*
X142239170Y-123706378D01*
X142570949Y-123374600D01*
X142448008Y-123374600D01*
X142443008Y-123374499D01*
X142437011Y-123374257D01*
X142432033Y-123373956D01*
X142411656Y-123372311D01*
X142982733Y-123372311D01*
X143316801Y-123706379D01*
X143677426Y-123345754D01*
X143677425Y-123345753D01*
X144033806Y-123345753D01*
X144394432Y-123706379D01*
X144755057Y-123345754D01*
X145111438Y-123345754D01*
X145472063Y-123706379D01*
X145832688Y-123345754D01*
X146189068Y-123345754D01*
X146549693Y-123706379D01*
X146910318Y-123345754D01*
X147266699Y-123345754D01*
X147627324Y-123706379D01*
X147987949Y-123345754D01*
X148344330Y-123345754D01*
X148704955Y-123706379D01*
X149065580Y-123345754D01*
X149421961Y-123345754D01*
X149782586Y-123706379D01*
X150143211Y-123345754D01*
X150499591Y-123345754D01*
X150860216Y-123706379D01*
X151220841Y-123345754D01*
X151577222Y-123345754D01*
X151937847Y-123706379D01*
X152298472Y-123345754D01*
X151937847Y-122985129D01*
X151577222Y-123345754D01*
X151220841Y-123345754D01*
X150860216Y-122985129D01*
X150499591Y-123345754D01*
X150143211Y-123345754D01*
X149782586Y-122985129D01*
X149421961Y-123345754D01*
X149065580Y-123345754D01*
X148704955Y-122985129D01*
X148344330Y-123345754D01*
X147987949Y-123345754D01*
X147627324Y-122985129D01*
X147266699Y-123345754D01*
X146910318Y-123345754D01*
X146549693Y-122985129D01*
X146189068Y-123345754D01*
X145832688Y-123345754D01*
X145472063Y-122985129D01*
X145111438Y-123345754D01*
X144755057Y-123345754D01*
X144521224Y-123111921D01*
X144481872Y-123125060D01*
X144477100Y-123126547D01*
X144471334Y-123128217D01*
X144466513Y-123129509D01*
X144179246Y-123200313D01*
X144033806Y-123345753D01*
X143677425Y-123345753D01*
X143637233Y-123305561D01*
X143475010Y-123331926D01*
X143470054Y-123332629D01*
X143464095Y-123333352D01*
X143459138Y-123333853D01*
X142982733Y-123372311D01*
X142411656Y-123372311D01*
X141935262Y-123333853D01*
X141930305Y-123333352D01*
X141924346Y-123332629D01*
X141919389Y-123331926D01*
X141896150Y-123328149D01*
X141878545Y-123345753D01*
X141522164Y-123345753D01*
X141428571Y-123252160D01*
X141427455Y-123251979D01*
X141422535Y-123251077D01*
X141416654Y-123249876D01*
X141411790Y-123248781D01*
X140999506Y-123147161D01*
X140800914Y-123345753D01*
X140444533Y-123345753D01*
X140083909Y-122985129D01*
X139723284Y-123345754D01*
X139366903Y-123345754D01*
X139006278Y-122985129D01*
X138645653Y-123345754D01*
X138289272Y-123345754D01*
X137928647Y-122985129D01*
X137568023Y-123345754D01*
X137211642Y-123345754D01*
X136851017Y-122985129D01*
X136490392Y-123345754D01*
X136134011Y-123345754D01*
X135773386Y-122985129D01*
X135412761Y-123345754D01*
X135056380Y-123345754D01*
X134695755Y-122985129D01*
X134335130Y-123345754D01*
X133978750Y-123345754D01*
X133618125Y-122985129D01*
X133257500Y-123345754D01*
X132901119Y-123345754D01*
X132540494Y-122985129D01*
X132377400Y-123148223D01*
X131978400Y-123148223D01*
X131978400Y-122806938D01*
X132718684Y-122806938D01*
X133079309Y-123167563D01*
X133439933Y-122806938D01*
X133796315Y-122806938D01*
X134156940Y-123167563D01*
X134517564Y-122806938D01*
X134873946Y-122806938D01*
X135234571Y-123167563D01*
X135595195Y-122806938D01*
X135951576Y-122806938D01*
X136312201Y-123167563D01*
X136672825Y-122806938D01*
X137029207Y-122806938D01*
X137389832Y-123167563D01*
X137750456Y-122806938D01*
X138106838Y-122806938D01*
X138467463Y-123167563D01*
X138828087Y-122806938D01*
X139184468Y-122806938D01*
X139545094Y-123167563D01*
X139757111Y-122955545D01*
X140410706Y-122955545D01*
X140622723Y-123167562D01*
X140727122Y-123063163D01*
X140439790Y-122967238D01*
X140435074Y-122965557D01*
X140429462Y-122963428D01*
X140424841Y-122961568D01*
X140410706Y-122955545D01*
X139757111Y-122955545D01*
X139905718Y-122806938D01*
X139754590Y-122655810D01*
X139510593Y-122527752D01*
X139506204Y-122525334D01*
X139501006Y-122522332D01*
X139496745Y-122519756D01*
X139481372Y-122510034D01*
X139184468Y-122806938D01*
X138828087Y-122806938D01*
X138467463Y-122446314D01*
X138106838Y-122806938D01*
X137750456Y-122806938D01*
X137389832Y-122446314D01*
X137029207Y-122806938D01*
X136672825Y-122806938D01*
X136312201Y-122446314D01*
X135951576Y-122806938D01*
X135595195Y-122806938D01*
X135234571Y-122446314D01*
X134873946Y-122806938D01*
X134517564Y-122806938D01*
X134156940Y-122446314D01*
X133796315Y-122806938D01*
X133439933Y-122806938D01*
X133079309Y-122446314D01*
X132718684Y-122806938D01*
X131978400Y-122806938D01*
X131978400Y-122070592D01*
X132377400Y-122070592D01*
X132377400Y-122465654D01*
X132540494Y-122628748D01*
X132901119Y-122268123D01*
X133257500Y-122268123D01*
X133618125Y-122628748D01*
X133978750Y-122268123D01*
X134335130Y-122268123D01*
X134695755Y-122628748D01*
X135056380Y-122268123D01*
X135412761Y-122268123D01*
X135773386Y-122628748D01*
X136134011Y-122268123D01*
X136490392Y-122268123D01*
X136851017Y-122628748D01*
X137211642Y-122268123D01*
X137568023Y-122268123D01*
X137928647Y-122628747D01*
X138289272Y-122268123D01*
X138289271Y-122268122D01*
X138645652Y-122268122D01*
X139006277Y-122628747D01*
X139263049Y-122371976D01*
X139075514Y-122253386D01*
X139071336Y-122250624D01*
X139066397Y-122247214D01*
X139062357Y-122244303D01*
X138838036Y-122075738D01*
X138645652Y-122268122D01*
X138289271Y-122268122D01*
X137928647Y-121907498D01*
X137568023Y-122268123D01*
X137211642Y-122268123D01*
X136851017Y-121907498D01*
X136490392Y-122268123D01*
X136134011Y-122268123D01*
X135773386Y-121907498D01*
X135412761Y-122268123D01*
X135056380Y-122268123D01*
X134695755Y-121907498D01*
X134335130Y-122268123D01*
X133978750Y-122268123D01*
X133618125Y-121907498D01*
X133257500Y-122268123D01*
X132901119Y-122268123D01*
X132540494Y-121907498D01*
X132377400Y-122070592D01*
X131978400Y-122070592D01*
X131978400Y-121729308D01*
X132718684Y-121729308D01*
X133079309Y-122089933D01*
X133439934Y-121729308D01*
X133796315Y-121729308D01*
X134156940Y-122089933D01*
X134517565Y-121729308D01*
X134873946Y-121729308D01*
X135234571Y-122089933D01*
X135595196Y-121729308D01*
X135951576Y-121729308D01*
X136312201Y-122089932D01*
X136672826Y-121729308D01*
X137029207Y-121729308D01*
X137389832Y-122089933D01*
X137750457Y-121729308D01*
X137750456Y-121729307D01*
X138106837Y-121729307D01*
X138467462Y-122089932D01*
X138636198Y-121921197D01*
X138278494Y-121604299D01*
X138274824Y-121600914D01*
X138270495Y-121596756D01*
X138266963Y-121593224D01*
X138255184Y-121580961D01*
X138106837Y-121729307D01*
X137750456Y-121729307D01*
X137389832Y-121368683D01*
X137029207Y-121729308D01*
X136672826Y-121729308D01*
X136312201Y-121368683D01*
X135951576Y-121729308D01*
X135595196Y-121729308D01*
X135234571Y-121368683D01*
X134873946Y-121729308D01*
X134517565Y-121729308D01*
X134156940Y-121368683D01*
X133796315Y-121729308D01*
X133439934Y-121729308D01*
X133079309Y-121368683D01*
X132718684Y-121729308D01*
X131978400Y-121729308D01*
X131978400Y-120992961D01*
X132377400Y-120992961D01*
X132377400Y-121388023D01*
X132540494Y-121551117D01*
X132901119Y-121190492D01*
X133257500Y-121190492D01*
X133618125Y-121551117D01*
X133978750Y-121190492D01*
X134335130Y-121190492D01*
X134695755Y-121551117D01*
X135056380Y-121190492D01*
X135412761Y-121190492D01*
X135773386Y-121551117D01*
X136134011Y-121190492D01*
X136490392Y-121190492D01*
X136851017Y-121551117D01*
X137211642Y-121190492D01*
X137211641Y-121190491D01*
X137568022Y-121190491D01*
X137928647Y-121551116D01*
X138080581Y-121399180D01*
X137921719Y-121233786D01*
X137918337Y-121230120D01*
X137914357Y-121225628D01*
X137911117Y-121221819D01*
X137742820Y-121015693D01*
X137568022Y-121190491D01*
X137211641Y-121190491D01*
X136851017Y-120829867D01*
X136490392Y-121190492D01*
X136134011Y-121190492D01*
X135773386Y-120829867D01*
X135412761Y-121190492D01*
X135056380Y-121190492D01*
X134695755Y-120829867D01*
X134335130Y-121190492D01*
X133978750Y-121190492D01*
X133618125Y-120829867D01*
X133257500Y-121190492D01*
X132901119Y-121190492D01*
X132540494Y-120829867D01*
X132377400Y-120992961D01*
X131978400Y-120992961D01*
X131978400Y-120651677D01*
X132718684Y-120651677D01*
X133079309Y-121012302D01*
X133439934Y-120651677D01*
X133796315Y-120651677D01*
X134156940Y-121012302D01*
X134517565Y-120651677D01*
X134873946Y-120651677D01*
X135234571Y-121012302D01*
X135595196Y-120651677D01*
X135951576Y-120651677D01*
X136312201Y-121012301D01*
X136672826Y-120651677D01*
X136672825Y-120651676D01*
X137029206Y-120651676D01*
X137389831Y-121012301D01*
X137583385Y-120818747D01*
X137303192Y-120412820D01*
X137300429Y-120408639D01*
X137297222Y-120403566D01*
X137294648Y-120399307D01*
X137289863Y-120391019D01*
X137029206Y-120651676D01*
X136672825Y-120651676D01*
X136312201Y-120291052D01*
X135951576Y-120651677D01*
X135595196Y-120651677D01*
X135234571Y-120291052D01*
X134873946Y-120651677D01*
X134517565Y-120651677D01*
X134156940Y-120291052D01*
X133796315Y-120651677D01*
X133439934Y-120651677D01*
X133079309Y-120291052D01*
X132718684Y-120651677D01*
X131978400Y-120651677D01*
X131978400Y-119915331D01*
X132377400Y-119915331D01*
X132377400Y-120310393D01*
X132540494Y-120473487D01*
X132901119Y-120112862D01*
X133257500Y-120112862D01*
X133618125Y-120473487D01*
X133978750Y-120112862D01*
X134335130Y-120112862D01*
X134695755Y-120473487D01*
X135056380Y-120112862D01*
X135412761Y-120112862D01*
X135773386Y-120473487D01*
X136134011Y-120112862D01*
X136490392Y-120112862D01*
X136851016Y-120473486D01*
X137159419Y-120165084D01*
X137045455Y-119967691D01*
X137043041Y-119963308D01*
X137040252Y-119957993D01*
X137038026Y-119953535D01*
X137025122Y-119926342D01*
X136851017Y-119752237D01*
X136490392Y-120112862D01*
X136134011Y-120112862D01*
X135773386Y-119752237D01*
X135412761Y-120112862D01*
X135056380Y-120112862D01*
X134695755Y-119752237D01*
X134335130Y-120112862D01*
X133978750Y-120112862D01*
X133618125Y-119752237D01*
X133257500Y-120112862D01*
X132901119Y-120112862D01*
X132540494Y-119752237D01*
X132377400Y-119915331D01*
X131978400Y-119915331D01*
X131978400Y-119574046D01*
X132718684Y-119574046D01*
X133079309Y-119934671D01*
X133439934Y-119574046D01*
X133796315Y-119574046D01*
X134156940Y-119934671D01*
X134517565Y-119574046D01*
X134873946Y-119574046D01*
X135234571Y-119934671D01*
X135595196Y-119574046D01*
X135951576Y-119574046D01*
X136312201Y-119934670D01*
X136672826Y-119574046D01*
X136312201Y-119213421D01*
X135951576Y-119574046D01*
X135595196Y-119574046D01*
X135234571Y-119213421D01*
X134873946Y-119574046D01*
X134517565Y-119574046D01*
X134156940Y-119213421D01*
X133796315Y-119574046D01*
X133439934Y-119574046D01*
X133079309Y-119213421D01*
X132718684Y-119574046D01*
X131978400Y-119574046D01*
X131978400Y-118837700D01*
X132377400Y-118837700D01*
X132377400Y-119232762D01*
X132540494Y-119395856D01*
X132901119Y-119035231D01*
X133257500Y-119035231D01*
X133618125Y-119395856D01*
X133978750Y-119035231D01*
X134335130Y-119035231D01*
X134695755Y-119395856D01*
X135056380Y-119035231D01*
X135412761Y-119035231D01*
X135773386Y-119395856D01*
X136134011Y-119035231D01*
X136134010Y-119035230D01*
X136490391Y-119035230D01*
X136741357Y-119286196D01*
X136641372Y-119022558D01*
X136639683Y-119017818D01*
X136637784Y-119012124D01*
X136636311Y-119007393D01*
X136609789Y-118915832D01*
X136490391Y-119035230D01*
X136134010Y-119035230D01*
X135773386Y-118674606D01*
X135412761Y-119035231D01*
X135056380Y-119035231D01*
X134695755Y-118674606D01*
X134335130Y-119035231D01*
X133978750Y-119035231D01*
X133618125Y-118674606D01*
X133257500Y-119035231D01*
X132901119Y-119035231D01*
X132540494Y-118674606D01*
X132377400Y-118837700D01*
X131978400Y-118837700D01*
X131978400Y-118496416D01*
X132718684Y-118496416D01*
X133079309Y-118857041D01*
X133439934Y-118496416D01*
X133796315Y-118496416D01*
X134156940Y-118857041D01*
X134517565Y-118496416D01*
X134873946Y-118496416D01*
X135234571Y-118857041D01*
X135595196Y-118496416D01*
X135951576Y-118496416D01*
X136312200Y-118857040D01*
X136529747Y-118639494D01*
X136497651Y-118528686D01*
X136496361Y-118523872D01*
X136494924Y-118518044D01*
X136493824Y-118513162D01*
X136443610Y-118267200D01*
X136312201Y-118135791D01*
X135951576Y-118496416D01*
X135595196Y-118496416D01*
X135234571Y-118135791D01*
X134873946Y-118496416D01*
X134517565Y-118496416D01*
X134156940Y-118135791D01*
X133796315Y-118496416D01*
X133439934Y-118496416D01*
X133079309Y-118135791D01*
X132718684Y-118496416D01*
X131978400Y-118496416D01*
X131978400Y-117760069D01*
X132377400Y-117760069D01*
X132377400Y-118155131D01*
X132540494Y-118318225D01*
X132901119Y-117957600D01*
X133257500Y-117957600D01*
X133618125Y-118318225D01*
X133978750Y-117957600D01*
X134335130Y-117957600D01*
X134695755Y-118318225D01*
X135056380Y-117957600D01*
X135412761Y-117957600D01*
X135773386Y-118318225D01*
X136134011Y-117957600D01*
X135773386Y-117596975D01*
X135412761Y-117957600D01*
X135056380Y-117957600D01*
X134695755Y-117596975D01*
X134335130Y-117957600D01*
X133978750Y-117957600D01*
X133618125Y-117596975D01*
X133257500Y-117957600D01*
X132901119Y-117957600D01*
X132540494Y-117596975D01*
X132377400Y-117760069D01*
X131978400Y-117760069D01*
X131978400Y-117418785D01*
X132718684Y-117418785D01*
X133079309Y-117779410D01*
X133439934Y-117418785D01*
X133796315Y-117418785D01*
X134156940Y-117779410D01*
X134517565Y-117418785D01*
X134873946Y-117418785D01*
X135234571Y-117779410D01*
X135595196Y-117418785D01*
X135951576Y-117418785D01*
X136312200Y-117779409D01*
X136358109Y-117733500D01*
X136331496Y-117514312D01*
X136330994Y-117509344D01*
X136330511Y-117503361D01*
X136330210Y-117498376D01*
X136312480Y-117058439D01*
X136312201Y-117058160D01*
X135951576Y-117418785D01*
X135595196Y-117418785D01*
X135234571Y-117058160D01*
X134873946Y-117418785D01*
X134517565Y-117418785D01*
X134156940Y-117058160D01*
X133796315Y-117418785D01*
X133439934Y-117418785D01*
X133079309Y-117058160D01*
X132718684Y-117418785D01*
X131978400Y-117418785D01*
X131978400Y-116682438D01*
X132377400Y-116682438D01*
X132377400Y-117077500D01*
X132540494Y-117240594D01*
X132901118Y-116879969D01*
X133257500Y-116879969D01*
X133618125Y-117240594D01*
X133978749Y-116879969D01*
X134335130Y-116879969D01*
X134695755Y-117240594D01*
X135056379Y-116879969D01*
X135412761Y-116879969D01*
X135773386Y-117240594D01*
X136021590Y-116992389D01*
X136583041Y-116992389D01*
X136583041Y-116992410D01*
X136602865Y-117484368D01*
X136602867Y-117484384D01*
X136662218Y-117973185D01*
X136760705Y-118455608D01*
X136897698Y-118928564D01*
X137005731Y-119213421D01*
X137072299Y-119388946D01*
X137244683Y-119752237D01*
X137283384Y-119833797D01*
X137529575Y-120260212D01*
X137529578Y-120260218D01*
X137676788Y-120473487D01*
X137799784Y-120651677D01*
X137809288Y-120665445D01*
X138103708Y-121026043D01*
X138120686Y-121046837D01*
X138440050Y-121379330D01*
X138461775Y-121401948D01*
X138461780Y-121401953D01*
X138830329Y-121728459D01*
X138830332Y-121728462D01*
X138985814Y-121845298D01*
X139223962Y-122024254D01*
X139640120Y-122287417D01*
X140076106Y-122516240D01*
X140529089Y-122709238D01*
X140996134Y-122865160D01*
X141474211Y-122982996D01*
X141474225Y-122982998D01*
X141474232Y-122983000D01*
X141940438Y-123058765D01*
X141960220Y-123061980D01*
X142451008Y-123101600D01*
X142451018Y-123101600D01*
X142943382Y-123101600D01*
X142943392Y-123101600D01*
X143434180Y-123061980D01*
X143625731Y-123030850D01*
X143675733Y-123022724D01*
X144788407Y-123022724D01*
X144933246Y-123167563D01*
X145265207Y-122835602D01*
X144969559Y-122961567D01*
X144964938Y-122963428D01*
X144959326Y-122965557D01*
X144954610Y-122967238D01*
X144788407Y-123022724D01*
X143675733Y-123022724D01*
X143920167Y-122983000D01*
X143920171Y-122982998D01*
X143920189Y-122982996D01*
X144398266Y-122865160D01*
X144572663Y-122806938D01*
X145650252Y-122806938D01*
X146010878Y-123167563D01*
X146371502Y-122806938D01*
X146727884Y-122806938D01*
X147088509Y-123167563D01*
X147449133Y-122806938D01*
X147805515Y-122806938D01*
X148166139Y-123167563D01*
X148526764Y-122806938D01*
X148883145Y-122806938D01*
X149243770Y-123167563D01*
X149604394Y-122806938D01*
X149960776Y-122806938D01*
X150321401Y-123167563D01*
X150682025Y-122806938D01*
X151038407Y-122806938D01*
X151399032Y-123167563D01*
X151759656Y-122806938D01*
X152116037Y-122806938D01*
X152476662Y-123167563D01*
X152559800Y-123084425D01*
X152559800Y-122529452D01*
X152476662Y-122446314D01*
X152116037Y-122806938D01*
X151759656Y-122806938D01*
X151399032Y-122446314D01*
X151038407Y-122806938D01*
X150682025Y-122806938D01*
X150321401Y-122446314D01*
X149960776Y-122806938D01*
X149604394Y-122806938D01*
X149243770Y-122446314D01*
X148883145Y-122806938D01*
X148526764Y-122806938D01*
X148166139Y-122446314D01*
X147805515Y-122806938D01*
X147449133Y-122806938D01*
X147088509Y-122446314D01*
X146727884Y-122806938D01*
X146371502Y-122806938D01*
X146012007Y-122447443D01*
X146005860Y-122451330D01*
X145650252Y-122806938D01*
X144572663Y-122806938D01*
X144865311Y-122709238D01*
X145318294Y-122516240D01*
X145712423Y-122309385D01*
X146230330Y-122309385D01*
X146549693Y-122628748D01*
X146910318Y-122268123D01*
X147266699Y-122268123D01*
X147627324Y-122628748D01*
X147987949Y-122268123D01*
X148344330Y-122268123D01*
X148704955Y-122628748D01*
X149065580Y-122268123D01*
X149421961Y-122268123D01*
X149782586Y-122628748D01*
X150143211Y-122268123D01*
X150499591Y-122268123D01*
X150860216Y-122628748D01*
X151220841Y-122268123D01*
X151577222Y-122268123D01*
X151937847Y-122628748D01*
X152298472Y-122268123D01*
X151937847Y-121907498D01*
X151577222Y-122268123D01*
X151220841Y-122268123D01*
X150860216Y-121907498D01*
X150499591Y-122268123D01*
X150143211Y-122268123D01*
X149782586Y-121907498D01*
X149421961Y-122268123D01*
X149065580Y-122268123D01*
X148704955Y-121907498D01*
X148344330Y-122268123D01*
X147987949Y-122268123D01*
X147627324Y-121907498D01*
X147266699Y-122268123D01*
X146910318Y-122268123D01*
X146648612Y-122006417D01*
X146332043Y-122244303D01*
X146328003Y-122247214D01*
X146323064Y-122250624D01*
X146318886Y-122253386D01*
X146230330Y-122309385D01*
X145712423Y-122309385D01*
X145754280Y-122287417D01*
X146170438Y-122024254D01*
X146408586Y-121845298D01*
X146843874Y-121845298D01*
X147088509Y-122089933D01*
X147449134Y-121729308D01*
X147805515Y-121729308D01*
X148166139Y-122089932D01*
X148526764Y-121729308D01*
X148883145Y-121729308D01*
X149243770Y-122089933D01*
X149604395Y-121729308D01*
X149960776Y-121729308D01*
X150321401Y-122089933D01*
X150682026Y-121729308D01*
X151038407Y-121729308D01*
X151399032Y-122089933D01*
X151759657Y-121729308D01*
X152116037Y-121729308D01*
X152476662Y-122089932D01*
X152559800Y-122006795D01*
X152559800Y-121451821D01*
X152476662Y-121368683D01*
X152116037Y-121729308D01*
X151759657Y-121729308D01*
X151399032Y-121368683D01*
X151038407Y-121729308D01*
X150682026Y-121729308D01*
X150321401Y-121368683D01*
X149960776Y-121729308D01*
X149604395Y-121729308D01*
X149243770Y-121368683D01*
X148883145Y-121729308D01*
X148526764Y-121729308D01*
X148166139Y-121368683D01*
X147805515Y-121729308D01*
X147449134Y-121729308D01*
X147218373Y-121498547D01*
X147127438Y-121593223D01*
X147123905Y-121596756D01*
X147119576Y-121600914D01*
X147115906Y-121604299D01*
X146843874Y-121845298D01*
X146408586Y-121845298D01*
X146564072Y-121728458D01*
X146932627Y-121401946D01*
X147014442Y-121316768D01*
X147392975Y-121316768D01*
X147627324Y-121551117D01*
X147987949Y-121190492D01*
X148344330Y-121190492D01*
X148704955Y-121551117D01*
X149065580Y-121190492D01*
X149421961Y-121190492D01*
X149782586Y-121551117D01*
X150143211Y-121190492D01*
X150499591Y-121190492D01*
X150860216Y-121551117D01*
X151220841Y-121190492D01*
X151577222Y-121190492D01*
X151937847Y-121551117D01*
X152298472Y-121190492D01*
X151937847Y-120829867D01*
X151577222Y-121190492D01*
X151220841Y-121190492D01*
X150860216Y-120829867D01*
X150499591Y-121190492D01*
X150143211Y-121190492D01*
X149782586Y-120829867D01*
X149421961Y-121190492D01*
X149065580Y-121190492D01*
X148704955Y-120829867D01*
X148344330Y-121190492D01*
X147987949Y-121190492D01*
X147724203Y-120926746D01*
X147483283Y-121221819D01*
X147480043Y-121225628D01*
X147476063Y-121230120D01*
X147472681Y-121233786D01*
X147392975Y-121316768D01*
X147014442Y-121316768D01*
X147273714Y-121046837D01*
X147537991Y-120723157D01*
X147876995Y-120723157D01*
X148166139Y-121012301D01*
X148526764Y-120651677D01*
X148883145Y-120651677D01*
X149243770Y-121012302D01*
X149604395Y-120651677D01*
X149960776Y-120651677D01*
X150321401Y-121012302D01*
X150682026Y-120651677D01*
X151038407Y-120651677D01*
X151399032Y-121012302D01*
X151759657Y-120651677D01*
X152116037Y-120651677D01*
X152476662Y-121012301D01*
X152559800Y-120929164D01*
X152559800Y-120374190D01*
X152476662Y-120291052D01*
X152116037Y-120651677D01*
X151759657Y-120651677D01*
X151399032Y-120291052D01*
X151038407Y-120651677D01*
X150682026Y-120651677D01*
X150321401Y-120291052D01*
X149960776Y-120651677D01*
X149604395Y-120651677D01*
X149243770Y-120291052D01*
X148883145Y-120651677D01*
X148526764Y-120651677D01*
X148166140Y-120291052D01*
X148156940Y-120300251D01*
X148099752Y-120399306D01*
X148097178Y-120403566D01*
X148093971Y-120408639D01*
X148091208Y-120412820D01*
X147876995Y-120723157D01*
X147537991Y-120723157D01*
X147585120Y-120665434D01*
X147864827Y-120260209D01*
X147949898Y-120112862D01*
X148344330Y-120112862D01*
X148704955Y-120473487D01*
X149065580Y-120112862D01*
X149421961Y-120112862D01*
X149782586Y-120473487D01*
X150143211Y-120112862D01*
X150499591Y-120112862D01*
X150860216Y-120473487D01*
X151220841Y-120112862D01*
X151577222Y-120112862D01*
X151937847Y-120473487D01*
X152298472Y-120112862D01*
X151937847Y-119752237D01*
X151577222Y-120112862D01*
X151220841Y-120112862D01*
X150860216Y-119752237D01*
X150499591Y-120112862D01*
X150143211Y-120112862D01*
X149782586Y-119752237D01*
X149421961Y-120112862D01*
X149065580Y-120112862D01*
X148704955Y-119752237D01*
X148344330Y-120112862D01*
X147949898Y-120112862D01*
X148111019Y-119833791D01*
X148234270Y-119574046D01*
X148883145Y-119574046D01*
X149243770Y-119934671D01*
X149604395Y-119574046D01*
X149960776Y-119574046D01*
X150321401Y-119934671D01*
X150682026Y-119574046D01*
X151038407Y-119574046D01*
X151399032Y-119934671D01*
X151759657Y-119574046D01*
X152116037Y-119574046D01*
X152476662Y-119934670D01*
X152559800Y-119851533D01*
X152559800Y-119296559D01*
X152476662Y-119213421D01*
X152116037Y-119574046D01*
X151759657Y-119574046D01*
X151399032Y-119213421D01*
X151038407Y-119574046D01*
X150682026Y-119574046D01*
X150321401Y-119213421D01*
X149960776Y-119574046D01*
X149604395Y-119574046D01*
X149243770Y-119213421D01*
X148883145Y-119574046D01*
X148234270Y-119574046D01*
X148322101Y-119388946D01*
X148345190Y-119328064D01*
X148637163Y-119328064D01*
X148704955Y-119395856D01*
X149065580Y-119035231D01*
X149421961Y-119035231D01*
X149782586Y-119395856D01*
X150143211Y-119035231D01*
X150499591Y-119035231D01*
X150860216Y-119395856D01*
X151220841Y-119035231D01*
X151577222Y-119035231D01*
X151937847Y-119395856D01*
X152298472Y-119035231D01*
X151937847Y-118674606D01*
X151577222Y-119035231D01*
X151220841Y-119035231D01*
X150860216Y-118674606D01*
X150499591Y-119035231D01*
X150143211Y-119035231D01*
X149782586Y-118674606D01*
X149421961Y-119035231D01*
X149065580Y-119035231D01*
X148820898Y-118790549D01*
X148758089Y-119007392D01*
X148756616Y-119012124D01*
X148754717Y-119017818D01*
X148753028Y-119022558D01*
X148637163Y-119328064D01*
X148345190Y-119328064D01*
X148496703Y-118928558D01*
X148616862Y-118513720D01*
X148900449Y-118513720D01*
X149243770Y-118857041D01*
X149604395Y-118496416D01*
X149960776Y-118496416D01*
X150321401Y-118857041D01*
X150682026Y-118496416D01*
X151038407Y-118496416D01*
X151399032Y-118857041D01*
X151759657Y-118496416D01*
X152116037Y-118496416D01*
X152476662Y-118857040D01*
X152559800Y-118773903D01*
X152559800Y-118218929D01*
X152476662Y-118135791D01*
X152116037Y-118496416D01*
X151759657Y-118496416D01*
X151399032Y-118135791D01*
X151038407Y-118496416D01*
X150682026Y-118496416D01*
X150321401Y-118135791D01*
X149960776Y-118496416D01*
X149604395Y-118496416D01*
X149243769Y-118135790D01*
X148909342Y-118470217D01*
X148900576Y-118513161D01*
X148900449Y-118513720D01*
X148616862Y-118513720D01*
X148633693Y-118455614D01*
X148732182Y-117973180D01*
X148734074Y-117957600D01*
X149421961Y-117957600D01*
X149782586Y-118318225D01*
X150143211Y-117957600D01*
X150499591Y-117957600D01*
X150860216Y-118318225D01*
X151220841Y-117957600D01*
X151577222Y-117957600D01*
X151937847Y-118318225D01*
X152298472Y-117957600D01*
X151937847Y-117596975D01*
X151577222Y-117957600D01*
X151220841Y-117957600D01*
X150860216Y-117596975D01*
X150499591Y-117957600D01*
X150143211Y-117957600D01*
X149782586Y-117596975D01*
X149421961Y-117957600D01*
X148734074Y-117957600D01*
X148778779Y-117589423D01*
X149053783Y-117589423D01*
X149243770Y-117779410D01*
X149604395Y-117418785D01*
X149960776Y-117418785D01*
X150321401Y-117779410D01*
X150682026Y-117418785D01*
X151038407Y-117418785D01*
X151399032Y-117779410D01*
X151759657Y-117418785D01*
X152116037Y-117418785D01*
X152476662Y-117779409D01*
X152559800Y-117696272D01*
X152559800Y-117141298D01*
X152476662Y-117058160D01*
X152116037Y-117418785D01*
X151759657Y-117418785D01*
X151399032Y-117058160D01*
X151038407Y-117418785D01*
X150682026Y-117418785D01*
X150321401Y-117058160D01*
X149960776Y-117418785D01*
X149604395Y-117418785D01*
X149243769Y-117058159D01*
X149075133Y-117226795D01*
X149064190Y-117498376D01*
X149063889Y-117503361D01*
X149063406Y-117509344D01*
X149062904Y-117514313D01*
X149053783Y-117589423D01*
X148778779Y-117589423D01*
X148791533Y-117484385D01*
X148794177Y-117418785D01*
X148811359Y-116992410D01*
X148811359Y-116992389D01*
X148806829Y-116879969D01*
X149421961Y-116879969D01*
X149782586Y-117240594D01*
X150143210Y-116879969D01*
X150499591Y-116879969D01*
X150860216Y-117240594D01*
X151220840Y-116879969D01*
X151577222Y-116879969D01*
X151937847Y-117240594D01*
X152298471Y-116879969D01*
X151937847Y-116519344D01*
X151577222Y-116879969D01*
X151220840Y-116879969D01*
X150860216Y-116519344D01*
X150499591Y-116879969D01*
X150143210Y-116879969D01*
X149782586Y-116519344D01*
X149421961Y-116879969D01*
X148806829Y-116879969D01*
X148791534Y-116500431D01*
X148791533Y-116500426D01*
X148791533Y-116500415D01*
X148754432Y-116194861D01*
X149029436Y-116194861D01*
X149062904Y-116470487D01*
X149063406Y-116475456D01*
X149063889Y-116481439D01*
X149064190Y-116486425D01*
X149065691Y-116523700D01*
X149243770Y-116701779D01*
X149604395Y-116341154D01*
X149960776Y-116341154D01*
X150321401Y-116701779D01*
X150682026Y-116341154D01*
X151038407Y-116341154D01*
X151399032Y-116701779D01*
X151759657Y-116341154D01*
X152116037Y-116341154D01*
X152476662Y-116701778D01*
X152559800Y-116618641D01*
X152559800Y-116063667D01*
X152476662Y-115980529D01*
X152116037Y-116341154D01*
X151759657Y-116341154D01*
X151399032Y-115980529D01*
X151038407Y-116341154D01*
X150682026Y-116341154D01*
X150321401Y-115980529D01*
X149960776Y-116341154D01*
X149604395Y-116341154D01*
X149243769Y-115980528D01*
X149029436Y-116194861D01*
X148754432Y-116194861D01*
X148732182Y-116011620D01*
X148689457Y-115802339D01*
X149421961Y-115802339D01*
X149782586Y-116162964D01*
X150143211Y-115802339D01*
X150499591Y-115802339D01*
X150860216Y-116162964D01*
X151220841Y-115802339D01*
X151577222Y-115802339D01*
X151937847Y-116162964D01*
X152298472Y-115802339D01*
X151937847Y-115441714D01*
X151577222Y-115802339D01*
X151220841Y-115802339D01*
X150860216Y-115441714D01*
X150499591Y-115802339D01*
X150143211Y-115802339D01*
X149782586Y-115441714D01*
X149421961Y-115802339D01*
X148689457Y-115802339D01*
X148633693Y-115529186D01*
X148556742Y-115263522D01*
X148883144Y-115263522D01*
X149243770Y-115624148D01*
X149604395Y-115263523D01*
X149960776Y-115263523D01*
X150321401Y-115624148D01*
X150682026Y-115263523D01*
X151038407Y-115263523D01*
X151399032Y-115624148D01*
X151759657Y-115263523D01*
X152116037Y-115263523D01*
X152476662Y-115624147D01*
X152559800Y-115541010D01*
X152559800Y-114986036D01*
X152476662Y-114902898D01*
X152116037Y-115263523D01*
X151759657Y-115263523D01*
X151399032Y-114902898D01*
X151038407Y-115263523D01*
X150682026Y-115263523D01*
X150321401Y-114902898D01*
X149960776Y-115263523D01*
X149604395Y-115263523D01*
X149243769Y-114902897D01*
X148883144Y-115263522D01*
X148556742Y-115263522D01*
X148496703Y-115056242D01*
X148496701Y-115056235D01*
X148427615Y-114874072D01*
X148322101Y-114595854D01*
X148273650Y-114493745D01*
X148575291Y-114493745D01*
X148576296Y-114496241D01*
X148753028Y-114962242D01*
X148754717Y-114966982D01*
X148756616Y-114972676D01*
X148758089Y-114977408D01*
X148770394Y-115019892D01*
X149065578Y-114724708D01*
X149421961Y-114724708D01*
X149782586Y-115085333D01*
X150143211Y-114724708D01*
X150499591Y-114724708D01*
X150860216Y-115085333D01*
X151220841Y-114724708D01*
X151577222Y-114724708D01*
X151937847Y-115085333D01*
X152298472Y-114724708D01*
X151937847Y-114364083D01*
X151577222Y-114724708D01*
X151220841Y-114724708D01*
X150860216Y-114364083D01*
X150499591Y-114724708D01*
X150143211Y-114724708D01*
X149782586Y-114364083D01*
X149421961Y-114724708D01*
X149065578Y-114724708D01*
X149065579Y-114724707D01*
X148704954Y-114364082D01*
X148575291Y-114493745D01*
X148273650Y-114493745D01*
X148111019Y-114151009D01*
X148021369Y-113995730D01*
X148336602Y-113995730D01*
X148348945Y-114017109D01*
X148351359Y-114021492D01*
X148354148Y-114026807D01*
X148356375Y-114031266D01*
X148460967Y-114251689D01*
X148526763Y-114185893D01*
X148883145Y-114185893D01*
X149243770Y-114546518D01*
X149604395Y-114185893D01*
X149960776Y-114185893D01*
X150321401Y-114546518D01*
X150682026Y-114185893D01*
X151038407Y-114185893D01*
X151399032Y-114546518D01*
X151759657Y-114185893D01*
X152116037Y-114185893D01*
X152476662Y-114546517D01*
X152559800Y-114463380D01*
X152559800Y-113908406D01*
X152476662Y-113825268D01*
X152116037Y-114185893D01*
X151759657Y-114185893D01*
X151399032Y-113825268D01*
X151038407Y-114185893D01*
X150682026Y-114185893D01*
X150321401Y-113825268D01*
X149960776Y-114185893D01*
X149604395Y-114185893D01*
X149243770Y-113825268D01*
X148883145Y-114185893D01*
X148526763Y-114185893D01*
X148526764Y-114185892D01*
X148336602Y-113995730D01*
X148021369Y-113995730D01*
X147864827Y-113724591D01*
X147864823Y-113724585D01*
X147864821Y-113724581D01*
X147811324Y-113647077D01*
X148344330Y-113647077D01*
X148704955Y-114007702D01*
X149065580Y-113647077D01*
X149421961Y-113647077D01*
X149782586Y-114007702D01*
X150143211Y-113647077D01*
X150499591Y-113647077D01*
X150860216Y-114007702D01*
X151220841Y-113647077D01*
X151577222Y-113647077D01*
X151937847Y-114007702D01*
X152298472Y-113647077D01*
X151937847Y-113286452D01*
X151577222Y-113647077D01*
X151220841Y-113647077D01*
X150860216Y-113286452D01*
X150499591Y-113647077D01*
X150143211Y-113647077D01*
X149782586Y-113286452D01*
X149421961Y-113647077D01*
X149065580Y-113647077D01*
X148704955Y-113286452D01*
X148344330Y-113647077D01*
X147811324Y-113647077D01*
X147674977Y-113449546D01*
X147585120Y-113319366D01*
X147585115Y-113319360D01*
X147585111Y-113319354D01*
X147412759Y-113108262D01*
X147805515Y-113108262D01*
X148166139Y-113468886D01*
X148526764Y-113108262D01*
X148883145Y-113108262D01*
X149243770Y-113468887D01*
X149604395Y-113108262D01*
X149960776Y-113108262D01*
X150321401Y-113468887D01*
X150682026Y-113108262D01*
X151038407Y-113108262D01*
X151399032Y-113468887D01*
X151759657Y-113108262D01*
X152116037Y-113108262D01*
X152476662Y-113468886D01*
X152559800Y-113385749D01*
X152559800Y-112830775D01*
X152476662Y-112747637D01*
X152116037Y-113108262D01*
X151759657Y-113108262D01*
X151399032Y-112747637D01*
X151038407Y-113108262D01*
X150682026Y-113108262D01*
X150321401Y-112747637D01*
X149960776Y-113108262D01*
X149604395Y-113108262D01*
X149243770Y-112747637D01*
X148883145Y-113108262D01*
X148526764Y-113108262D01*
X148166139Y-112747637D01*
X147805515Y-113108262D01*
X147412759Y-113108262D01*
X147273715Y-112937964D01*
X147273709Y-112937958D01*
X147266133Y-112930071D01*
X146932627Y-112582854D01*
X146932624Y-112582851D01*
X146932619Y-112582846D01*
X146899309Y-112553336D01*
X147282809Y-112553336D01*
X147472681Y-112751014D01*
X147476063Y-112754680D01*
X147480043Y-112759172D01*
X147483283Y-112762981D01*
X147585826Y-112888573D01*
X147627324Y-112930071D01*
X147987948Y-112569446D01*
X148344330Y-112569446D01*
X148704955Y-112930071D01*
X149065579Y-112569446D01*
X149421961Y-112569446D01*
X149782586Y-112930071D01*
X150143210Y-112569446D01*
X150499591Y-112569446D01*
X150860216Y-112930071D01*
X151220840Y-112569446D01*
X151577222Y-112569446D01*
X151937847Y-112930071D01*
X152298471Y-112569446D01*
X151937847Y-112208822D01*
X151577222Y-112569446D01*
X151220840Y-112569446D01*
X150860216Y-112208822D01*
X150499591Y-112569446D01*
X150143210Y-112569446D01*
X149782586Y-112208822D01*
X149421961Y-112569446D01*
X149065579Y-112569446D01*
X148704955Y-112208822D01*
X148344330Y-112569446D01*
X147987948Y-112569446D01*
X147627323Y-112208821D01*
X147282809Y-112553336D01*
X146899309Y-112553336D01*
X146564070Y-112256340D01*
X146564067Y-112256337D01*
X146335008Y-112084212D01*
X146263704Y-112030631D01*
X146727884Y-112030631D01*
X146781465Y-112084212D01*
X147107081Y-112372682D01*
X147449132Y-112030631D01*
X147805515Y-112030631D01*
X148166139Y-112391255D01*
X148526764Y-112030631D01*
X148883145Y-112030631D01*
X149243770Y-112391256D01*
X149604395Y-112030631D01*
X149960776Y-112030631D01*
X150321401Y-112391256D01*
X150682026Y-112030631D01*
X151038407Y-112030631D01*
X151399032Y-112391256D01*
X151759657Y-112030631D01*
X152116037Y-112030631D01*
X152476662Y-112391255D01*
X152559800Y-112308118D01*
X152559800Y-111753144D01*
X152476662Y-111670006D01*
X152116037Y-112030631D01*
X151759657Y-112030631D01*
X151399032Y-111670006D01*
X151038407Y-112030631D01*
X150682026Y-112030631D01*
X150321401Y-111670006D01*
X149960776Y-112030631D01*
X149604395Y-112030631D01*
X149243770Y-111670006D01*
X148883145Y-112030631D01*
X148526764Y-112030631D01*
X148166139Y-111670006D01*
X147805515Y-112030631D01*
X147449132Y-112030631D01*
X147449133Y-112030630D01*
X147088509Y-111670006D01*
X146727884Y-112030631D01*
X146263704Y-112030631D01*
X146170438Y-111960546D01*
X145754280Y-111697383D01*
X145362605Y-111491816D01*
X146189068Y-111491816D01*
X146549693Y-111852441D01*
X146910318Y-111491816D01*
X147266699Y-111491816D01*
X147627324Y-111852441D01*
X147987949Y-111491816D01*
X148344330Y-111491816D01*
X148704955Y-111852441D01*
X149065580Y-111491816D01*
X149421961Y-111491816D01*
X149782586Y-111852441D01*
X150143211Y-111491816D01*
X150499591Y-111491816D01*
X150860216Y-111852441D01*
X151220841Y-111491816D01*
X151577222Y-111491816D01*
X151937847Y-111852441D01*
X152298472Y-111491816D01*
X151937847Y-111131191D01*
X151577222Y-111491816D01*
X151220841Y-111491816D01*
X150860216Y-111131191D01*
X150499591Y-111491816D01*
X150143211Y-111491816D01*
X149782586Y-111131191D01*
X149421961Y-111491816D01*
X149065580Y-111491816D01*
X148704955Y-111131191D01*
X148344330Y-111491816D01*
X147987949Y-111491816D01*
X147627324Y-111131191D01*
X147266699Y-111491816D01*
X146910318Y-111491816D01*
X146549693Y-111131191D01*
X146189068Y-111491816D01*
X145362605Y-111491816D01*
X145318294Y-111468560D01*
X145318286Y-111468556D01*
X145318283Y-111468555D01*
X145068613Y-111362181D01*
X144865311Y-111275562D01*
X144865303Y-111275559D01*
X144865300Y-111275558D01*
X144655799Y-111205617D01*
X145397635Y-111205617D01*
X145428064Y-111218582D01*
X145432648Y-111220646D01*
X145438069Y-111223220D01*
X145442507Y-111225437D01*
X145703053Y-111362181D01*
X145472062Y-111131190D01*
X145397635Y-111205617D01*
X144655799Y-111205617D01*
X144634499Y-111198506D01*
X144398266Y-111119640D01*
X144398262Y-111119639D01*
X144398255Y-111119637D01*
X144215068Y-111074485D01*
X143920189Y-111001804D01*
X143920183Y-111001803D01*
X143920179Y-111001802D01*
X143920167Y-111001799D01*
X143434185Y-110922820D01*
X143223292Y-110905795D01*
X144619826Y-110905795D01*
X144954610Y-111017562D01*
X144959326Y-111019243D01*
X144964938Y-111021372D01*
X144969558Y-111023232D01*
X145147728Y-111099142D01*
X145293870Y-110953000D01*
X145650253Y-110953000D01*
X146010878Y-111313625D01*
X146371503Y-110953000D01*
X146727884Y-110953000D01*
X147088509Y-111313625D01*
X147449134Y-110953000D01*
X147805515Y-110953000D01*
X148166139Y-111313624D01*
X148526764Y-110953000D01*
X148883145Y-110953000D01*
X149243770Y-111313625D01*
X149604395Y-110953000D01*
X149960776Y-110953000D01*
X150321401Y-111313625D01*
X150682026Y-110953000D01*
X151038407Y-110953000D01*
X151399032Y-111313625D01*
X151759657Y-110953000D01*
X152116037Y-110953000D01*
X152476662Y-111313624D01*
X152559800Y-111230487D01*
X152559800Y-110675513D01*
X152476662Y-110592375D01*
X152116037Y-110953000D01*
X151759657Y-110953000D01*
X151399032Y-110592375D01*
X151038407Y-110953000D01*
X150682026Y-110953000D01*
X150321401Y-110592375D01*
X149960776Y-110953000D01*
X149604395Y-110953000D01*
X149243770Y-110592375D01*
X148883145Y-110953000D01*
X148526764Y-110953000D01*
X148166139Y-110592375D01*
X147805515Y-110953000D01*
X147449134Y-110953000D01*
X147088509Y-110592375D01*
X146727884Y-110953000D01*
X146371503Y-110953000D01*
X146010878Y-110592375D01*
X145650253Y-110953000D01*
X145293870Y-110953000D01*
X145293871Y-110952999D01*
X144933247Y-110592375D01*
X144619826Y-110905795D01*
X143223292Y-110905795D01*
X142943401Y-110883200D01*
X142943392Y-110883200D01*
X142451008Y-110883200D01*
X142450998Y-110883200D01*
X141960214Y-110922820D01*
X141474232Y-111001799D01*
X141474220Y-111001802D01*
X141474213Y-111001803D01*
X141474211Y-111001804D01*
X141335710Y-111035941D01*
X140996144Y-111119637D01*
X140996137Y-111119639D01*
X140529099Y-111275558D01*
X140529091Y-111275561D01*
X140529089Y-111275562D01*
X140460270Y-111304883D01*
X140076116Y-111468555D01*
X140076108Y-111468558D01*
X140076106Y-111468560D01*
X140022124Y-111496892D01*
X139640124Y-111697381D01*
X139223967Y-111960542D01*
X139223964Y-111960544D01*
X139223962Y-111960546D01*
X139189618Y-111986354D01*
X138830332Y-112256337D01*
X138830329Y-112256340D01*
X138461780Y-112582846D01*
X138461775Y-112582851D01*
X138120690Y-112937958D01*
X138120684Y-112937964D01*
X137809288Y-113319354D01*
X137529578Y-113724581D01*
X137529575Y-113724587D01*
X137283384Y-114151002D01*
X137072299Y-114595854D01*
X136897698Y-115056235D01*
X136760705Y-115529191D01*
X136662218Y-116011614D01*
X136602867Y-116500415D01*
X136602865Y-116500431D01*
X136583041Y-116992389D01*
X136021590Y-116992389D01*
X136134010Y-116879969D01*
X135773386Y-116519344D01*
X135412761Y-116879969D01*
X135056379Y-116879969D01*
X134695755Y-116519344D01*
X134335130Y-116879969D01*
X133978749Y-116879969D01*
X133618125Y-116519344D01*
X133257500Y-116879969D01*
X132901118Y-116879969D01*
X132540493Y-116519344D01*
X132377400Y-116682438D01*
X131978400Y-116682438D01*
X131978400Y-116341154D01*
X132718684Y-116341154D01*
X133079309Y-116701779D01*
X133439934Y-116341154D01*
X133796315Y-116341154D01*
X134156940Y-116701779D01*
X134517565Y-116341154D01*
X134873946Y-116341154D01*
X135234571Y-116701779D01*
X135595196Y-116341154D01*
X135951576Y-116341154D01*
X136312200Y-116701778D01*
X136321922Y-116692055D01*
X136330210Y-116486424D01*
X136330511Y-116481439D01*
X136330994Y-116475456D01*
X136331496Y-116470488D01*
X136382456Y-116050784D01*
X136312201Y-115980529D01*
X135951576Y-116341154D01*
X135595196Y-116341154D01*
X135234571Y-115980529D01*
X134873946Y-116341154D01*
X134517565Y-116341154D01*
X134156940Y-115980529D01*
X133796315Y-116341154D01*
X133439934Y-116341154D01*
X133079309Y-115980529D01*
X132718684Y-116341154D01*
X131978400Y-116341154D01*
X131978400Y-115604808D01*
X132377400Y-115604808D01*
X132377400Y-115999870D01*
X132540494Y-116162964D01*
X132901119Y-115802339D01*
X133257500Y-115802339D01*
X133618125Y-116162964D01*
X133978750Y-115802339D01*
X134335130Y-115802339D01*
X134695755Y-116162964D01*
X135056380Y-115802339D01*
X135412761Y-115802339D01*
X135773386Y-116162964D01*
X136134011Y-115802339D01*
X135773386Y-115441714D01*
X135412761Y-115802339D01*
X135056380Y-115802339D01*
X134695755Y-115441714D01*
X134335130Y-115802339D01*
X133978750Y-115802339D01*
X133618125Y-115441714D01*
X133257500Y-115802339D01*
X132901119Y-115802339D01*
X132540494Y-115441714D01*
X132377400Y-115604808D01*
X131978400Y-115604808D01*
X131978400Y-115263523D01*
X132718684Y-115263523D01*
X133079309Y-115624148D01*
X133439934Y-115263523D01*
X133796315Y-115263523D01*
X134156940Y-115624148D01*
X134517565Y-115263523D01*
X134873946Y-115263523D01*
X135234571Y-115624148D01*
X135595196Y-115263523D01*
X135951576Y-115263523D01*
X136312200Y-115624147D01*
X136504752Y-115431595D01*
X136580250Y-115170947D01*
X136312201Y-114902898D01*
X135951576Y-115263523D01*
X135595196Y-115263523D01*
X135234571Y-114902898D01*
X134873946Y-115263523D01*
X134517565Y-115263523D01*
X134156940Y-114902898D01*
X133796315Y-115263523D01*
X133439934Y-115263523D01*
X133079309Y-114902898D01*
X132718684Y-115263523D01*
X131978400Y-115263523D01*
X131978400Y-114527177D01*
X132377400Y-114527177D01*
X132377400Y-114922239D01*
X132540494Y-115085333D01*
X132901119Y-114724708D01*
X133257500Y-114724708D01*
X133618125Y-115085333D01*
X133978750Y-114724708D01*
X134335130Y-114724708D01*
X134695755Y-115085333D01*
X135056380Y-114724708D01*
X135412761Y-114724708D01*
X135773386Y-115085333D01*
X136134011Y-114724708D01*
X136490392Y-114724708D01*
X136665171Y-114899487D01*
X136818104Y-114496241D01*
X136819971Y-114491603D01*
X136822324Y-114486081D01*
X136824371Y-114481533D01*
X136870741Y-114383807D01*
X136851017Y-114364083D01*
X136490392Y-114724708D01*
X136134011Y-114724708D01*
X135773386Y-114364083D01*
X135412761Y-114724708D01*
X135056380Y-114724708D01*
X134695755Y-114364083D01*
X134335130Y-114724708D01*
X133978750Y-114724708D01*
X133618125Y-114364083D01*
X133257500Y-114724708D01*
X132901119Y-114724708D01*
X132540494Y-114364083D01*
X132377400Y-114527177D01*
X131978400Y-114527177D01*
X131978400Y-114185893D01*
X132718684Y-114185893D01*
X133079309Y-114546518D01*
X133439934Y-114185893D01*
X133796315Y-114185893D01*
X134156940Y-114546518D01*
X134517565Y-114185893D01*
X134873946Y-114185893D01*
X135234571Y-114546518D01*
X135595196Y-114185893D01*
X135951576Y-114185893D01*
X136312201Y-114546517D01*
X136672826Y-114185893D01*
X136312201Y-113825268D01*
X135951576Y-114185893D01*
X135595196Y-114185893D01*
X135234571Y-113825268D01*
X134873946Y-114185893D01*
X134517565Y-114185893D01*
X134156940Y-113825268D01*
X133796315Y-114185893D01*
X133439934Y-114185893D01*
X133079309Y-113825268D01*
X132718684Y-114185893D01*
X131978400Y-114185893D01*
X131978400Y-113449546D01*
X132377400Y-113449546D01*
X132377400Y-113844608D01*
X132540494Y-114007702D01*
X132901119Y-113647077D01*
X133257500Y-113647077D01*
X133618125Y-114007702D01*
X133978750Y-113647077D01*
X134335130Y-113647077D01*
X134695755Y-114007702D01*
X135056380Y-113647077D01*
X135412761Y-113647077D01*
X135773386Y-114007702D01*
X136134011Y-113647077D01*
X136490392Y-113647077D01*
X136851017Y-114007702D01*
X137211642Y-113647077D01*
X136851017Y-113286452D01*
X136490392Y-113647077D01*
X136134011Y-113647077D01*
X135773386Y-113286452D01*
X135412761Y-113647077D01*
X135056380Y-113647077D01*
X134695755Y-113286452D01*
X134335130Y-113647077D01*
X133978750Y-113647077D01*
X133618125Y-113286452D01*
X133257500Y-113647077D01*
X132901119Y-113647077D01*
X132540494Y-113286452D01*
X132377400Y-113449546D01*
X131978400Y-113449546D01*
X131978400Y-113108262D01*
X132718684Y-113108262D01*
X133079309Y-113468887D01*
X133439934Y-113108262D01*
X133796315Y-113108262D01*
X134156940Y-113468887D01*
X134517565Y-113108262D01*
X134873946Y-113108262D01*
X135234571Y-113468887D01*
X135595196Y-113108262D01*
X135951576Y-113108262D01*
X136312201Y-113468886D01*
X136672826Y-113108262D01*
X137029207Y-113108262D01*
X137380673Y-113459728D01*
X137586309Y-113161816D01*
X137589216Y-113157781D01*
X137592821Y-113152982D01*
X137595913Y-113149035D01*
X137683704Y-113041509D01*
X137389832Y-112747637D01*
X137029207Y-113108262D01*
X136672826Y-113108262D01*
X136312201Y-112747637D01*
X135951576Y-113108262D01*
X135595196Y-113108262D01*
X135234571Y-112747637D01*
X134873946Y-113108262D01*
X134517565Y-113108262D01*
X134156940Y-112747637D01*
X133796315Y-113108262D01*
X133439934Y-113108262D01*
X133079309Y-112747637D01*
X132718684Y-113108262D01*
X131978400Y-113108262D01*
X131978400Y-112371916D01*
X132377400Y-112371916D01*
X132377400Y-112766977D01*
X132540494Y-112930071D01*
X132901118Y-112569446D01*
X133257500Y-112569446D01*
X133618125Y-112930071D01*
X133978749Y-112569446D01*
X134335130Y-112569446D01*
X134695755Y-112930071D01*
X135056379Y-112569446D01*
X135412761Y-112569446D01*
X135773386Y-112930071D01*
X136134010Y-112569446D01*
X136490392Y-112569446D01*
X136851017Y-112930071D01*
X137211641Y-112569446D01*
X137568023Y-112569446D01*
X137843891Y-112845314D01*
X137911117Y-112762980D01*
X137914357Y-112759172D01*
X137918337Y-112754680D01*
X137921719Y-112751014D01*
X138190748Y-112470923D01*
X137928647Y-112208822D01*
X137568023Y-112569446D01*
X137211641Y-112569446D01*
X136851017Y-112208822D01*
X136490392Y-112569446D01*
X136134010Y-112569446D01*
X135773386Y-112208822D01*
X135412761Y-112569446D01*
X135056379Y-112569446D01*
X134695755Y-112208822D01*
X134335130Y-112569446D01*
X133978749Y-112569446D01*
X133618125Y-112208822D01*
X133257500Y-112569446D01*
X132901118Y-112569446D01*
X132540494Y-112208822D01*
X132377400Y-112371916D01*
X131978400Y-112371916D01*
X131978400Y-112030631D01*
X132718684Y-112030631D01*
X133079309Y-112391256D01*
X133439934Y-112030631D01*
X133796315Y-112030631D01*
X134156940Y-112391256D01*
X134517565Y-112030631D01*
X134873946Y-112030631D01*
X135234571Y-112391256D01*
X135595196Y-112030631D01*
X135951576Y-112030631D01*
X136312201Y-112391255D01*
X136672826Y-112030631D01*
X137029207Y-112030631D01*
X137389832Y-112391256D01*
X137750457Y-112030631D01*
X138106838Y-112030631D01*
X138372990Y-112296783D01*
X138651540Y-112050011D01*
X138655329Y-112046787D01*
X138659978Y-112042990D01*
X138663924Y-112039898D01*
X138762945Y-111965488D01*
X138467463Y-111670006D01*
X138106838Y-112030631D01*
X137750457Y-112030631D01*
X137389832Y-111670006D01*
X137029207Y-112030631D01*
X136672826Y-112030631D01*
X136312201Y-111670006D01*
X135951576Y-112030631D01*
X135595196Y-112030631D01*
X135234571Y-111670006D01*
X134873946Y-112030631D01*
X134517565Y-112030631D01*
X134156940Y-111670006D01*
X133796315Y-112030631D01*
X133439934Y-112030631D01*
X133079309Y-111670006D01*
X132718684Y-112030631D01*
X131978400Y-112030631D01*
X131978400Y-111294285D01*
X132377400Y-111294285D01*
X132377400Y-111689347D01*
X132540494Y-111852441D01*
X132901119Y-111491816D01*
X133257500Y-111491816D01*
X133618125Y-111852441D01*
X133978750Y-111491816D01*
X134335130Y-111491816D01*
X134695755Y-111852441D01*
X135056380Y-111491816D01*
X135412761Y-111491816D01*
X135773386Y-111852441D01*
X136134011Y-111491816D01*
X136490392Y-111491816D01*
X136851017Y-111852441D01*
X137211642Y-111491816D01*
X137568023Y-111491816D01*
X137928647Y-111852440D01*
X138289272Y-111491816D01*
X138645653Y-111491816D01*
X138966422Y-111812585D01*
X139062358Y-111740496D01*
X139066397Y-111737586D01*
X139071336Y-111734176D01*
X139075514Y-111731415D01*
X139216385Y-111642332D01*
X139366902Y-111491815D01*
X139006278Y-111131191D01*
X138645653Y-111491816D01*
X138289272Y-111491816D01*
X137928647Y-111131191D01*
X137568023Y-111491816D01*
X137211642Y-111491816D01*
X136851017Y-111131191D01*
X136490392Y-111491816D01*
X136134011Y-111491816D01*
X135773386Y-111131191D01*
X135412761Y-111491816D01*
X135056380Y-111491816D01*
X134695755Y-111131191D01*
X134335130Y-111491816D01*
X133978750Y-111491816D01*
X133618125Y-111131191D01*
X133257500Y-111491816D01*
X132901119Y-111491816D01*
X132540494Y-111131191D01*
X132377400Y-111294285D01*
X131978400Y-111294285D01*
X131978400Y-110953000D01*
X132718684Y-110953000D01*
X133079309Y-111313625D01*
X133439934Y-110953000D01*
X133796315Y-110953000D01*
X134156940Y-111313625D01*
X134517565Y-110953000D01*
X134873946Y-110953000D01*
X135234571Y-111313625D01*
X135595196Y-110953000D01*
X135951576Y-110953000D01*
X136312201Y-111313624D01*
X136672826Y-110953000D01*
X137029207Y-110953000D01*
X137389832Y-111313625D01*
X137750457Y-110953000D01*
X138106838Y-110953000D01*
X138467463Y-111313625D01*
X138828088Y-110953000D01*
X139184469Y-110953000D01*
X139545094Y-111313625D01*
X139905719Y-110953000D01*
X140262099Y-110953000D01*
X140359969Y-111050870D01*
X140424842Y-111023232D01*
X140429462Y-111021372D01*
X140435074Y-111019243D01*
X140439790Y-111017562D01*
X140895704Y-110865355D01*
X140622724Y-110592375D01*
X140262099Y-110953000D01*
X139905719Y-110953000D01*
X139545094Y-110592375D01*
X139184469Y-110953000D01*
X138828088Y-110953000D01*
X138467463Y-110592375D01*
X138106838Y-110953000D01*
X137750457Y-110953000D01*
X137389832Y-110592375D01*
X137029207Y-110953000D01*
X136672826Y-110953000D01*
X136312201Y-110592375D01*
X135951576Y-110953000D01*
X135595196Y-110953000D01*
X135234571Y-110592375D01*
X134873946Y-110953000D01*
X134517565Y-110953000D01*
X134156940Y-110592375D01*
X133796315Y-110953000D01*
X133439934Y-110953000D01*
X133079309Y-110592375D01*
X132718684Y-110953000D01*
X131978400Y-110953000D01*
X131978400Y-110216654D01*
X132377400Y-110216654D01*
X132377400Y-110611716D01*
X132540494Y-110774810D01*
X132901119Y-110414185D01*
X133257500Y-110414185D01*
X133618125Y-110774810D01*
X133978750Y-110414185D01*
X134335130Y-110414185D01*
X134695755Y-110774810D01*
X135056380Y-110414185D01*
X135412761Y-110414185D01*
X135773386Y-110774810D01*
X136134011Y-110414185D01*
X136490392Y-110414185D01*
X136851017Y-110774810D01*
X137211642Y-110414185D01*
X137568023Y-110414185D01*
X137928647Y-110774809D01*
X138289272Y-110414185D01*
X138645653Y-110414185D01*
X139006278Y-110774810D01*
X139366903Y-110414185D01*
X139723284Y-110414185D01*
X140083909Y-110774810D01*
X140444534Y-110414185D01*
X140800915Y-110414185D01*
X141161539Y-110774809D01*
X141238725Y-110697623D01*
X143750367Y-110697623D01*
X143966945Y-110732821D01*
X143971865Y-110733723D01*
X143977746Y-110734924D01*
X143982610Y-110736019D01*
X144004707Y-110741465D01*
X143855616Y-110592374D01*
X143750367Y-110697623D01*
X141238725Y-110697623D01*
X141522163Y-110414185D01*
X141878545Y-110414185D01*
X142101858Y-110637498D01*
X142400598Y-110613381D01*
X142599795Y-110414185D01*
X142956176Y-110414185D01*
X143169560Y-110627569D01*
X143442043Y-110649566D01*
X143677424Y-110414185D01*
X144033807Y-110414185D01*
X144394432Y-110774810D01*
X144755057Y-110414185D01*
X145111438Y-110414185D01*
X145472063Y-110774810D01*
X145832688Y-110414185D01*
X146189068Y-110414185D01*
X146549693Y-110774810D01*
X146910318Y-110414185D01*
X147266699Y-110414185D01*
X147627324Y-110774810D01*
X147987949Y-110414185D01*
X148344330Y-110414185D01*
X148704955Y-110774810D01*
X149065580Y-110414185D01*
X149421961Y-110414185D01*
X149782586Y-110774810D01*
X150143211Y-110414185D01*
X150499591Y-110414185D01*
X150860216Y-110774810D01*
X151220841Y-110414185D01*
X151577222Y-110414185D01*
X151937847Y-110774810D01*
X152298472Y-110414185D01*
X151937847Y-110053560D01*
X151577222Y-110414185D01*
X151220841Y-110414185D01*
X150860216Y-110053560D01*
X150499591Y-110414185D01*
X150143211Y-110414185D01*
X149782586Y-110053560D01*
X149421961Y-110414185D01*
X149065580Y-110414185D01*
X148704955Y-110053560D01*
X148344330Y-110414185D01*
X147987949Y-110414185D01*
X147627324Y-110053560D01*
X147266699Y-110414185D01*
X146910318Y-110414185D01*
X146549693Y-110053560D01*
X146189068Y-110414185D01*
X145832688Y-110414185D01*
X145472063Y-110053560D01*
X145111438Y-110414185D01*
X144755057Y-110414185D01*
X144394432Y-110053560D01*
X144033807Y-110414185D01*
X143677424Y-110414185D01*
X143677425Y-110414184D01*
X143316801Y-110053560D01*
X142956176Y-110414185D01*
X142599795Y-110414185D01*
X142239170Y-110053560D01*
X141878545Y-110414185D01*
X141522163Y-110414185D01*
X141522164Y-110414184D01*
X141161540Y-110053560D01*
X140800915Y-110414185D01*
X140444534Y-110414185D01*
X140083909Y-110053560D01*
X139723284Y-110414185D01*
X139366903Y-110414185D01*
X139006278Y-110053560D01*
X138645653Y-110414185D01*
X138289272Y-110414185D01*
X137928647Y-110053560D01*
X137568023Y-110414185D01*
X137211642Y-110414185D01*
X136851017Y-110053560D01*
X136490392Y-110414185D01*
X136134011Y-110414185D01*
X135773386Y-110053560D01*
X135412761Y-110414185D01*
X135056380Y-110414185D01*
X134695755Y-110053560D01*
X134335130Y-110414185D01*
X133978750Y-110414185D01*
X133618125Y-110053560D01*
X133257500Y-110414185D01*
X132901119Y-110414185D01*
X132540494Y-110053560D01*
X132377400Y-110216654D01*
X131978400Y-110216654D01*
X131978400Y-109875370D01*
X132718684Y-109875370D01*
X133079309Y-110235995D01*
X133439934Y-109875370D01*
X133796315Y-109875370D01*
X134156940Y-110235995D01*
X134517565Y-109875370D01*
X134873946Y-109875370D01*
X135234571Y-110235995D01*
X135595196Y-109875370D01*
X135951576Y-109875370D01*
X136312201Y-110235994D01*
X136672826Y-109875370D01*
X137029207Y-109875370D01*
X137389832Y-110235995D01*
X137750457Y-109875370D01*
X138106838Y-109875370D01*
X138467463Y-110235995D01*
X138828088Y-109875370D01*
X139184469Y-109875370D01*
X139545094Y-110235995D01*
X139905719Y-109875370D01*
X140262099Y-109875370D01*
X140622724Y-110235995D01*
X140983349Y-109875370D01*
X141339730Y-109875370D01*
X141700355Y-110235995D01*
X142060980Y-109875370D01*
X142417361Y-109875370D01*
X142777986Y-110235995D01*
X143138611Y-109875370D01*
X143494992Y-109875370D01*
X143855617Y-110235995D01*
X144216242Y-109875370D01*
X144572622Y-109875370D01*
X144933247Y-110235995D01*
X145293872Y-109875370D01*
X145650253Y-109875370D01*
X146010878Y-110235995D01*
X146371503Y-109875370D01*
X146727884Y-109875370D01*
X147088509Y-110235995D01*
X147449134Y-109875370D01*
X147805515Y-109875370D01*
X148166139Y-110235994D01*
X148526764Y-109875370D01*
X148883145Y-109875370D01*
X149243770Y-110235995D01*
X149604395Y-109875370D01*
X149960776Y-109875370D01*
X150321401Y-110235995D01*
X150682026Y-109875370D01*
X151038407Y-109875370D01*
X151399032Y-110235995D01*
X151759657Y-109875370D01*
X152116037Y-109875370D01*
X152476662Y-110235994D01*
X152559800Y-110152857D01*
X152559800Y-109597883D01*
X152476662Y-109514745D01*
X152116037Y-109875370D01*
X151759657Y-109875370D01*
X151399032Y-109514745D01*
X151038407Y-109875370D01*
X150682026Y-109875370D01*
X150321401Y-109514745D01*
X149960776Y-109875370D01*
X149604395Y-109875370D01*
X149243770Y-109514745D01*
X148883145Y-109875370D01*
X148526764Y-109875370D01*
X148166139Y-109514745D01*
X147805515Y-109875370D01*
X147449134Y-109875370D01*
X147088509Y-109514745D01*
X146727884Y-109875370D01*
X146371503Y-109875370D01*
X146010878Y-109514745D01*
X145650253Y-109875370D01*
X145293872Y-109875370D01*
X144933247Y-109514745D01*
X144572622Y-109875370D01*
X144216242Y-109875370D01*
X143855617Y-109514745D01*
X143494992Y-109875370D01*
X143138611Y-109875370D01*
X142777986Y-109514745D01*
X142417361Y-109875370D01*
X142060980Y-109875370D01*
X141700355Y-109514745D01*
X141339730Y-109875370D01*
X140983349Y-109875370D01*
X140622724Y-109514745D01*
X140262099Y-109875370D01*
X139905719Y-109875370D01*
X139545094Y-109514745D01*
X139184469Y-109875370D01*
X138828088Y-109875370D01*
X138467463Y-109514745D01*
X138106838Y-109875370D01*
X137750457Y-109875370D01*
X137389832Y-109514745D01*
X137029207Y-109875370D01*
X136672826Y-109875370D01*
X136312201Y-109514745D01*
X135951576Y-109875370D01*
X135595196Y-109875370D01*
X135234571Y-109514745D01*
X134873946Y-109875370D01*
X134517565Y-109875370D01*
X134156940Y-109514745D01*
X133796315Y-109875370D01*
X133439934Y-109875370D01*
X133079309Y-109514745D01*
X132718684Y-109875370D01*
X131978400Y-109875370D01*
X131978400Y-109139023D01*
X132377400Y-109139023D01*
X132377400Y-109534085D01*
X132540494Y-109697179D01*
X132901119Y-109336554D01*
X133257500Y-109336554D01*
X133618125Y-109697179D01*
X133978750Y-109336554D01*
X134335130Y-109336554D01*
X134695755Y-109697179D01*
X135056380Y-109336554D01*
X135412761Y-109336554D01*
X135773386Y-109697179D01*
X136134011Y-109336554D01*
X136490392Y-109336554D01*
X136851017Y-109697179D01*
X137211642Y-109336554D01*
X137568023Y-109336554D01*
X137928647Y-109697178D01*
X138289272Y-109336554D01*
X138645653Y-109336554D01*
X139006278Y-109697179D01*
X139366903Y-109336554D01*
X139723284Y-109336554D01*
X140083909Y-109697179D01*
X140444534Y-109336554D01*
X140800915Y-109336554D01*
X141161540Y-109697179D01*
X141522165Y-109336554D01*
X141878545Y-109336554D01*
X142239170Y-109697178D01*
X142599795Y-109336554D01*
X142956176Y-109336554D01*
X143316801Y-109697179D01*
X143677426Y-109336554D01*
X144033807Y-109336554D01*
X144394432Y-109697179D01*
X144755057Y-109336554D01*
X145111438Y-109336554D01*
X145472063Y-109697179D01*
X145832688Y-109336554D01*
X146189068Y-109336554D01*
X146549693Y-109697179D01*
X146910318Y-109336554D01*
X147266699Y-109336554D01*
X147627324Y-109697179D01*
X147987949Y-109336554D01*
X148344330Y-109336554D01*
X148704955Y-109697179D01*
X149065580Y-109336554D01*
X149421961Y-109336554D01*
X149782586Y-109697179D01*
X150143211Y-109336554D01*
X150499591Y-109336554D01*
X150860216Y-109697179D01*
X151220841Y-109336554D01*
X151577222Y-109336554D01*
X151937847Y-109697179D01*
X152298472Y-109336554D01*
X151937847Y-108975929D01*
X151577222Y-109336554D01*
X151220841Y-109336554D01*
X150860216Y-108975929D01*
X150499591Y-109336554D01*
X150143211Y-109336554D01*
X149782586Y-108975929D01*
X149421961Y-109336554D01*
X149065580Y-109336554D01*
X148704955Y-108975929D01*
X148344330Y-109336554D01*
X147987949Y-109336554D01*
X147627324Y-108975929D01*
X147266699Y-109336554D01*
X146910318Y-109336554D01*
X146549693Y-108975929D01*
X146189068Y-109336554D01*
X145832688Y-109336554D01*
X145472063Y-108975929D01*
X145111438Y-109336554D01*
X144755057Y-109336554D01*
X144394432Y-108975929D01*
X144033807Y-109336554D01*
X143677426Y-109336554D01*
X143316801Y-108975929D01*
X142956176Y-109336554D01*
X142599795Y-109336554D01*
X142239170Y-108975929D01*
X141878545Y-109336554D01*
X141522165Y-109336554D01*
X141161540Y-108975929D01*
X140800915Y-109336554D01*
X140444534Y-109336554D01*
X140083909Y-108975929D01*
X139723284Y-109336554D01*
X139366903Y-109336554D01*
X139006278Y-108975929D01*
X138645653Y-109336554D01*
X138289272Y-109336554D01*
X137928647Y-108975929D01*
X137568023Y-109336554D01*
X137211642Y-109336554D01*
X136851017Y-108975929D01*
X136490392Y-109336554D01*
X136134011Y-109336554D01*
X135773386Y-108975929D01*
X135412761Y-109336554D01*
X135056380Y-109336554D01*
X134695755Y-108975929D01*
X134335130Y-109336554D01*
X133978750Y-109336554D01*
X133618125Y-108975929D01*
X133257500Y-109336554D01*
X132901119Y-109336554D01*
X132540494Y-108975929D01*
X132377400Y-109139023D01*
X131978400Y-109139023D01*
X131978400Y-108797739D01*
X132718684Y-108797739D01*
X133079309Y-109158364D01*
X133439934Y-108797739D01*
X133796315Y-108797739D01*
X134156940Y-109158364D01*
X134517565Y-108797739D01*
X134873946Y-108797739D01*
X135234571Y-109158364D01*
X135595196Y-108797739D01*
X135951576Y-108797739D01*
X136312201Y-109158363D01*
X136672826Y-108797739D01*
X137029207Y-108797739D01*
X137389832Y-109158364D01*
X137750457Y-108797739D01*
X138106838Y-108797739D01*
X138467463Y-109158364D01*
X138828088Y-108797739D01*
X139184469Y-108797739D01*
X139545094Y-109158364D01*
X139905719Y-108797739D01*
X140262099Y-108797739D01*
X140622724Y-109158364D01*
X140983349Y-108797739D01*
X141339730Y-108797739D01*
X141700355Y-109158364D01*
X142060980Y-108797739D01*
X142417361Y-108797739D01*
X142777986Y-109158364D01*
X143138611Y-108797739D01*
X143494992Y-108797739D01*
X143855617Y-109158364D01*
X144216242Y-108797739D01*
X144572622Y-108797739D01*
X144933247Y-109158364D01*
X145293872Y-108797739D01*
X145650253Y-108797739D01*
X146010878Y-109158364D01*
X146371503Y-108797739D01*
X146727884Y-108797739D01*
X147088509Y-109158364D01*
X147449134Y-108797739D01*
X147805515Y-108797739D01*
X148166139Y-109158363D01*
X148526764Y-108797739D01*
X148883145Y-108797739D01*
X149243770Y-109158364D01*
X149604395Y-108797739D01*
X149960776Y-108797739D01*
X150321401Y-109158364D01*
X150682026Y-108797739D01*
X151038407Y-108797739D01*
X151399032Y-109158364D01*
X151759657Y-108797739D01*
X152116037Y-108797739D01*
X152476662Y-109158363D01*
X152559800Y-109075226D01*
X152559800Y-108520252D01*
X152476662Y-108437114D01*
X152116037Y-108797739D01*
X151759657Y-108797739D01*
X151399032Y-108437114D01*
X151038407Y-108797739D01*
X150682026Y-108797739D01*
X150321401Y-108437114D01*
X149960776Y-108797739D01*
X149604395Y-108797739D01*
X149243770Y-108437114D01*
X148883145Y-108797739D01*
X148526764Y-108797739D01*
X148166139Y-108437114D01*
X147805515Y-108797739D01*
X147449134Y-108797739D01*
X147088509Y-108437114D01*
X146727884Y-108797739D01*
X146371503Y-108797739D01*
X146010878Y-108437114D01*
X145650253Y-108797739D01*
X145293872Y-108797739D01*
X144933247Y-108437114D01*
X144572622Y-108797739D01*
X144216242Y-108797739D01*
X143855617Y-108437114D01*
X143494992Y-108797739D01*
X143138611Y-108797739D01*
X142777986Y-108437114D01*
X142417361Y-108797739D01*
X142060980Y-108797739D01*
X141700355Y-108437114D01*
X141339730Y-108797739D01*
X140983349Y-108797739D01*
X140622724Y-108437114D01*
X140262099Y-108797739D01*
X139905719Y-108797739D01*
X139545094Y-108437114D01*
X139184469Y-108797739D01*
X138828088Y-108797739D01*
X138467463Y-108437114D01*
X138106838Y-108797739D01*
X137750457Y-108797739D01*
X137389832Y-108437114D01*
X137029207Y-108797739D01*
X136672826Y-108797739D01*
X136312201Y-108437114D01*
X135951576Y-108797739D01*
X135595196Y-108797739D01*
X135234571Y-108437114D01*
X134873946Y-108797739D01*
X134517565Y-108797739D01*
X134156940Y-108437114D01*
X133796315Y-108797739D01*
X133439934Y-108797739D01*
X133079309Y-108437114D01*
X132718684Y-108797739D01*
X131978400Y-108797739D01*
X131978400Y-108061393D01*
X132377400Y-108061393D01*
X132377400Y-108456455D01*
X132540494Y-108619549D01*
X132901119Y-108258924D01*
X133257500Y-108258924D01*
X133618125Y-108619549D01*
X133978750Y-108258924D01*
X134335130Y-108258924D01*
X134695755Y-108619549D01*
X135056380Y-108258924D01*
X135412761Y-108258924D01*
X135773386Y-108619549D01*
X136134011Y-108258924D01*
X136490392Y-108258924D01*
X136851017Y-108619549D01*
X137211642Y-108258924D01*
X137568023Y-108258924D01*
X137928647Y-108619548D01*
X138289272Y-108258924D01*
X138645653Y-108258924D01*
X139006278Y-108619549D01*
X139366903Y-108258924D01*
X139723284Y-108258924D01*
X140083909Y-108619549D01*
X140444534Y-108258924D01*
X140800915Y-108258924D01*
X141161540Y-108619549D01*
X141522165Y-108258924D01*
X141878545Y-108258924D01*
X142239170Y-108619548D01*
X142599795Y-108258924D01*
X142956176Y-108258924D01*
X143316801Y-108619549D01*
X143677426Y-108258924D01*
X144033807Y-108258924D01*
X144394432Y-108619549D01*
X144755057Y-108258924D01*
X145111438Y-108258924D01*
X145472063Y-108619549D01*
X145832688Y-108258924D01*
X146189068Y-108258924D01*
X146549693Y-108619549D01*
X146910318Y-108258924D01*
X147266699Y-108258924D01*
X147627324Y-108619549D01*
X147987949Y-108258924D01*
X148344330Y-108258924D01*
X148704955Y-108619549D01*
X149065580Y-108258924D01*
X149421961Y-108258924D01*
X149782586Y-108619549D01*
X150143211Y-108258924D01*
X150499591Y-108258924D01*
X150860216Y-108619549D01*
X151220841Y-108258924D01*
X151577222Y-108258924D01*
X151937847Y-108619549D01*
X152298472Y-108258924D01*
X151937847Y-107898299D01*
X151577222Y-108258924D01*
X151220841Y-108258924D01*
X150860216Y-107898299D01*
X150499591Y-108258924D01*
X150143211Y-108258924D01*
X149782586Y-107898299D01*
X149421961Y-108258924D01*
X149065580Y-108258924D01*
X148704955Y-107898299D01*
X148344330Y-108258924D01*
X147987949Y-108258924D01*
X147627324Y-107898299D01*
X147266699Y-108258924D01*
X146910318Y-108258924D01*
X146549693Y-107898299D01*
X146189068Y-108258924D01*
X145832688Y-108258924D01*
X145472063Y-107898299D01*
X145111438Y-108258924D01*
X144755057Y-108258924D01*
X144394432Y-107898299D01*
X144033807Y-108258924D01*
X143677426Y-108258924D01*
X143316801Y-107898299D01*
X142956176Y-108258924D01*
X142599795Y-108258924D01*
X142239170Y-107898299D01*
X141878545Y-108258924D01*
X141522165Y-108258924D01*
X141161540Y-107898299D01*
X140800915Y-108258924D01*
X140444534Y-108258924D01*
X140083909Y-107898299D01*
X139723284Y-108258924D01*
X139366903Y-108258924D01*
X139006278Y-107898299D01*
X138645653Y-108258924D01*
X138289272Y-108258924D01*
X137928647Y-107898299D01*
X137568023Y-108258924D01*
X137211642Y-108258924D01*
X136851017Y-107898299D01*
X136490392Y-108258924D01*
X136134011Y-108258924D01*
X135773386Y-107898299D01*
X135412761Y-108258924D01*
X135056380Y-108258924D01*
X134695755Y-107898299D01*
X134335130Y-108258924D01*
X133978750Y-108258924D01*
X133618125Y-107898299D01*
X133257500Y-108258924D01*
X132901119Y-108258924D01*
X132540494Y-107898299D01*
X132377400Y-108061393D01*
X131978400Y-108061393D01*
X131978400Y-107720108D01*
X132718684Y-107720108D01*
X133079309Y-108080733D01*
X133439934Y-107720108D01*
X133796315Y-107720108D01*
X134156940Y-108080733D01*
X134517565Y-107720108D01*
X134873946Y-107720108D01*
X135234571Y-108080733D01*
X135595196Y-107720108D01*
X135595195Y-107720107D01*
X135951576Y-107720107D01*
X136312201Y-108080732D01*
X136672826Y-107720108D01*
X137029207Y-107720108D01*
X137389832Y-108080733D01*
X137750457Y-107720108D01*
X138106838Y-107720108D01*
X138467463Y-108080733D01*
X138828088Y-107720108D01*
X139184469Y-107720108D01*
X139545094Y-108080733D01*
X139905719Y-107720108D01*
X140262099Y-107720108D01*
X140622724Y-108080733D01*
X140983349Y-107720108D01*
X141339730Y-107720108D01*
X141700355Y-108080733D01*
X142060980Y-107720108D01*
X142417361Y-107720108D01*
X142777986Y-108080733D01*
X143138611Y-107720108D01*
X143494992Y-107720108D01*
X143855617Y-108080733D01*
X144216242Y-107720108D01*
X144572622Y-107720108D01*
X144933247Y-108080733D01*
X145293872Y-107720108D01*
X145650253Y-107720108D01*
X146010878Y-108080733D01*
X146371503Y-107720108D01*
X146727884Y-107720108D01*
X147088509Y-108080733D01*
X147449134Y-107720108D01*
X147805515Y-107720108D01*
X148166139Y-108080732D01*
X148526763Y-107720108D01*
X148883145Y-107720108D01*
X149243770Y-108080733D01*
X149604395Y-107720108D01*
X149960776Y-107720108D01*
X150321401Y-108080733D01*
X150682026Y-107720108D01*
X151038407Y-107720108D01*
X151399032Y-108080733D01*
X151759657Y-107720108D01*
X151759656Y-107720107D01*
X152116037Y-107720107D01*
X152476662Y-108080732D01*
X152559800Y-107997595D01*
X152559800Y-107442621D01*
X152476662Y-107359483D01*
X152116037Y-107720107D01*
X151759656Y-107720107D01*
X151399032Y-107359483D01*
X151038407Y-107720108D01*
X150682026Y-107720108D01*
X150321401Y-107359483D01*
X149960776Y-107720108D01*
X149604395Y-107720108D01*
X149243770Y-107359483D01*
X148883145Y-107720108D01*
X148526763Y-107720108D01*
X148526764Y-107720107D01*
X148166139Y-107359483D01*
X147805515Y-107720108D01*
X147449134Y-107720108D01*
X147088509Y-107359483D01*
X146727884Y-107720108D01*
X146371503Y-107720108D01*
X146010878Y-107359483D01*
X145650253Y-107720108D01*
X145293872Y-107720108D01*
X144933247Y-107359483D01*
X144572622Y-107720108D01*
X144216242Y-107720108D01*
X143855617Y-107359483D01*
X143494992Y-107720108D01*
X143138611Y-107720108D01*
X142777986Y-107359483D01*
X142417361Y-107720108D01*
X142060980Y-107720108D01*
X141700355Y-107359483D01*
X141339730Y-107720108D01*
X140983349Y-107720108D01*
X140622724Y-107359483D01*
X140262099Y-107720108D01*
X139905719Y-107720108D01*
X139545094Y-107359483D01*
X139184469Y-107720108D01*
X138828088Y-107720108D01*
X138467463Y-107359483D01*
X138106838Y-107720108D01*
X137750457Y-107720108D01*
X137389832Y-107359483D01*
X137029207Y-107720108D01*
X136672826Y-107720108D01*
X136312201Y-107359483D01*
X135951576Y-107720107D01*
X135595195Y-107720107D01*
X135234571Y-107359483D01*
X134873946Y-107720108D01*
X134517565Y-107720108D01*
X134156940Y-107359483D01*
X133796315Y-107720108D01*
X133439934Y-107720108D01*
X133079309Y-107359483D01*
X132718684Y-107720108D01*
X131978400Y-107720108D01*
X131978400Y-107378824D01*
X132377400Y-107378824D01*
X132540494Y-107541918D01*
X132724012Y-107358400D01*
X133434607Y-107358400D01*
X133618125Y-107541918D01*
X133801643Y-107358400D01*
X134512237Y-107358400D01*
X134695755Y-107541918D01*
X134879273Y-107358400D01*
X135589868Y-107358400D01*
X135773386Y-107541918D01*
X135956904Y-107358400D01*
X136667499Y-107358400D01*
X136851017Y-107541918D01*
X137034535Y-107358400D01*
X137745130Y-107358400D01*
X137928647Y-107541917D01*
X138112165Y-107358400D01*
X138822760Y-107358400D01*
X139006278Y-107541918D01*
X139189796Y-107358400D01*
X139900391Y-107358400D01*
X140083909Y-107541918D01*
X140267427Y-107358400D01*
X140978022Y-107358400D01*
X141161540Y-107541918D01*
X141345058Y-107358400D01*
X142055653Y-107358400D01*
X142239170Y-107541917D01*
X142422688Y-107358400D01*
X143133283Y-107358400D01*
X143316801Y-107541918D01*
X143500319Y-107358400D01*
X144210914Y-107358400D01*
X144394432Y-107541918D01*
X144577950Y-107358400D01*
X145288545Y-107358400D01*
X145472063Y-107541918D01*
X145655581Y-107358400D01*
X146366175Y-107358400D01*
X146549693Y-107541918D01*
X146733211Y-107358400D01*
X147443806Y-107358400D01*
X147627324Y-107541918D01*
X147810842Y-107358400D01*
X148521437Y-107358400D01*
X148704955Y-107541918D01*
X148888473Y-107358400D01*
X149599068Y-107358400D01*
X149782586Y-107541918D01*
X149966104Y-107358400D01*
X150676698Y-107358400D01*
X150860216Y-107541918D01*
X151043734Y-107358400D01*
X151754329Y-107358400D01*
X151937847Y-107541918D01*
X152121365Y-107358400D01*
X151754329Y-107358400D01*
X151043734Y-107358400D01*
X150676698Y-107358400D01*
X149966104Y-107358400D01*
X149599068Y-107358400D01*
X148888473Y-107358400D01*
X148521437Y-107358400D01*
X147810842Y-107358400D01*
X147443806Y-107358400D01*
X146733211Y-107358400D01*
X146366175Y-107358400D01*
X145655581Y-107358400D01*
X145288545Y-107358400D01*
X144577950Y-107358400D01*
X144210914Y-107358400D01*
X143500319Y-107358400D01*
X143133283Y-107358400D01*
X142422688Y-107358400D01*
X142055653Y-107358400D01*
X141345058Y-107358400D01*
X140978022Y-107358400D01*
X140267427Y-107358400D01*
X139900391Y-107358400D01*
X139189796Y-107358400D01*
X138822760Y-107358400D01*
X138112165Y-107358400D01*
X137745130Y-107358400D01*
X137034535Y-107358400D01*
X136667499Y-107358400D01*
X135956904Y-107358400D01*
X135589868Y-107358400D01*
X134879273Y-107358400D01*
X134512237Y-107358400D01*
X133801643Y-107358400D01*
X133434607Y-107358400D01*
X132724012Y-107358400D01*
X132377400Y-107358400D01*
X132377400Y-107378824D01*
X131978400Y-107378824D01*
X131978400Y-107083400D01*
X131998085Y-107016361D01*
X132050889Y-106970606D01*
X132102400Y-106959400D01*
X152834800Y-106959400D01*
X152901839Y-106979085D01*
G37*
G04 #@! TD.AperFunction*
M02*
